  999
file created by gear template generator
  0
SECTION
  2
HEADER
  9
$ACADVER
  1
AC1006
  9
$INSBASE
  10
0.0
  20
0.0
  30
0.0
  9
$EXTMIN
  10
0.0
  20
0.0
  9
$EXTMAX
  10
10000.0
  20
10000.0
  0
ENDSEC
  0
SECTION
  2
ENTITIES
  0
LINE
  8
0
  10
9.53698
  20
5.34183
  30
0
  11
9.53698
  21
5.34183
  31
0
  0
LINE
  8
0
  10
9.53698
  20
5.34183
  30
0
  11
9.57561
  21
5.32686
  31
0
  0
LINE
  8
0
  10
9.57561
  20
5.32686
  30
0
  11
9.65282
  21
5.29418
  31
0
  0
LINE
  8
0
  10
9.65282
  20
5.29418
  30
0
  11
9.80686
  21
5.21822
  31
0
  0
LINE
  8
0
  10
9.80686
  20
5.21822
  30
0
  11
9.95984
  21
5.12883
  31
0
  0
LINE
  8
0
  10
9.95984
  20
5.12883
  30
0
  11
9.99784
  21
5.10445
  31
0
  0
LINE
  8
0
  10
9.99784
  20
5.10445
  30
0
  11
9.99784
  21
4.8945
  31
0
  0
LINE
  8
0
  10
9.99784
  20
4.8945
  30
0
  11
9.95984
  21
4.87012
  31
0
  0
LINE
  8
0
  10
9.95984
  20
4.87012
  30
0
  11
9.80686
  21
4.78073
  31
0
  0
LINE
  8
0
  10
9.80686
  20
4.78073
  30
0
  11
9.65282
  21
4.70477
  31
0
  0
LINE
  8
0
  10
9.65282
  20
4.70477
  30
0
  11
9.57561
  21
4.67208
  31
0
  0
LINE
  8
0
  10
9.57561
  20
4.67208
  30
0
  11
9.53698
  21
4.65712
  31
0
  0
LINE
  8
0
  10
9.53698
  20
4.65712
  30
0
  11
9.51659
  21
4.45002
  31
0
  0
LINE
  8
0
  10
9.51659
  20
4.45002
  30
0
  11
9.55155
  21
4.42781
  31
0
  0
LINE
  8
0
  10
9.55155
  20
4.42781
  30
0
  11
9.6209
  21
4.38069
  31
0
  0
LINE
  8
0
  10
9.6209
  20
4.38069
  30
0
  11
9.75716
  21
4.27614
  31
0
  0
LINE
  8
0
  10
9.75716
  20
4.27614
  30
0
  11
9.88976
  21
4.15862
  31
0
  0
LINE
  8
0
  10
9.88976
  20
4.15862
  30
0
  11
9.92228
  21
4.1273
  31
0
  0
LINE
  8
0
  10
9.92228
  20
4.1273
  30
0
  11
9.88132
  21
3.92138
  31
0
  0
LINE
  8
0
  10
9.88132
  20
3.92138
  30
0
  11
9.83929
  21
3.90489
  31
0
  0
LINE
  8
0
  10
9.83929
  20
3.90489
  30
0
  11
9.67181
  21
3.84706
  31
0
  0
LINE
  8
0
  10
9.67181
  20
3.84706
  30
0
  11
9.50592
  21
3.80261
  31
0
  0
LINE
  8
0
  10
9.50592
  20
3.80261
  30
0
  11
9.42381
  21
3.78561
  31
0
  0
LINE
  8
0
  10
9.42381
  20
3.78561
  30
0
  11
9.38301
  21
3.77848
  31
0
  0
LINE
  8
0
  10
9.38301
  20
3.77848
  30
0
  11
9.3226
  21
3.57934
  31
0
  0
LINE
  8
0
  10
9.3226
  20
3.57934
  30
0
  11
9.35256
  21
3.55073
  31
0
  0
LINE
  8
0
  10
9.35256
  20
3.55073
  30
0
  11
9.41139
  21
3.49098
  31
0
  0
LINE
  8
0
  10
9.41139
  20
3.49098
  30
0
  11
9.52463
  21
3.36186
  31
0
  0
LINE
  8
0
  10
9.52463
  20
3.36186
  30
0
  11
9.63175
  21
3.22073
  31
0
  0
LINE
  8
0
  10
9.63175
  20
3.22073
  30
0
  11
9.65754
  21
3.18367
  31
0
  0
LINE
  8
0
  10
9.65754
  20
3.18367
  30
0
  11
9.57719
  21
2.98969
  31
0
  0
LINE
  8
0
  10
9.57719
  20
2.98969
  30
0
  11
9.53275
  21
2.98172
  31
0
  0
LINE
  8
0
  10
9.53275
  20
2.98172
  30
0
  11
9.35721
  21
2.95767
  31
0
  0
LINE
  8
0
  10
9.35721
  20
2.95767
  30
0
  11
9.18583
  21
2.94644
  31
0
  0
LINE
  8
0
  10
9.18583
  20
2.94644
  30
0
  11
9.10198
  21
2.94579
  31
0
  0
LINE
  8
0
  10
9.10198
  20
2.94579
  30
0
  11
9.06057
  21
2.94675
  31
0
  0
LINE
  8
0
  10
9.06057
  20
2.94675
  30
0
  11
8.96248
  21
2.76322
  31
0
  0
LINE
  8
0
  10
8.96248
  20
2.76322
  30
0
  11
8.98628
  21
2.72933
  31
0
  0
LINE
  8
0
  10
8.98628
  20
2.72933
  30
0
  11
9.03232
  21
2.65925
  31
0
  0
LINE
  8
0
  10
9.03232
  20
2.65925
  30
0
  11
9.1182
  21
2.51051
  31
0
  0
LINE
  8
0
  10
9.1182
  20
2.51051
  30
0
  11
9.19573
  21
2.35119
  31
0
  0
LINE
  8
0
  10
9.19573
  20
2.35119
  30
0
  11
9.21379
  21
2.30981
  31
0
  0
LINE
  8
0
  10
9.21379
  20
2.30981
  30
0
  11
9.09715
  21
2.13524
  31
0
  0
LINE
  8
0
  10
9.09715
  20
2.13524
  30
0
  11
9.052
  21
2.13609
  31
0
  0
LINE
  8
0
  10
9.052
  20
2.13609
  30
0
  11
8.87514
  21
2.14675
  31
0
  0
LINE
  8
0
  10
8.87514
  20
2.14675
  30
0
  11
8.70487
  21
2.16917
  31
0
  0
LINE
  8
0
  10
8.70487
  20
2.16917
  30
0
  11
8.6225
  21
2.1849
  31
0
  0
LINE
  8
0
  10
8.6225
  20
2.1849
  30
0
  11
8.58207
  21
2.19391
  31
0
  0
LINE
  8
0
  10
8.58207
  20
2.19391
  30
0
  11
8.45006
  21
2.03305
  31
0
  0
LINE
  8
0
  10
8.45006
  20
2.03305
  30
0
  11
8.46679
  21
1.99516
  31
0
  0
LINE
  8
0
  10
8.46679
  20
1.99516
  30
0
  11
8.49828
  21
1.91744
  31
0
  0
LINE
  8
0
  10
8.49828
  20
1.91744
  30
0
  11
8.55349
  21
1.75481
  31
0
  0
LINE
  8
0
  10
8.55349
  20
1.75481
  30
0
  11
8.59845
  21
1.58343
  31
0
  0
LINE
  8
0
  10
8.59845
  20
1.58343
  30
0
  11
8.60809
  21
1.53932
  31
0
  0
LINE
  8
0
  10
8.60809
  20
1.53932
  30
0
  11
8.45963
  21
1.39086
  31
0
  0
LINE
  8
0
  10
8.45963
  20
1.39086
  30
0
  11
8.41552
  21
1.4005
  31
0
  0
LINE
  8
0
  10
8.41552
  20
1.4005
  30
0
  11
8.24413
  21
1.44546
  31
0
  0
LINE
  8
0
  10
8.24413
  20
1.44546
  30
0
  11
8.0815
  21
1.50067
  31
0
  0
LINE
  8
0
  10
8.0815
  20
1.50067
  30
0
  11
8.00379
  21
1.53216
  31
0
  0
LINE
  8
0
  10
8.00379
  20
1.53216
  30
0
  11
7.9659
  21
1.54889
  31
0
  0
LINE
  8
0
  10
7.9659
  20
1.54889
  30
0
  11
7.80503
  21
1.41687
  31
0
  0
LINE
  8
0
  10
7.80503
  20
1.41687
  30
0
  11
7.81405
  21
1.37645
  31
0
  0
LINE
  8
0
  10
7.81405
  20
1.37645
  30
0
  11
7.82977
  21
1.29408
  31
0
  0
LINE
  8
0
  10
7.82977
  20
1.29408
  30
0
  11
7.85219
  21
1.1238
  31
0
  0
LINE
  8
0
  10
7.85219
  20
1.1238
  30
0
  11
7.86286
  21
0.94695
  31
0
  0
LINE
  8
0
  10
7.86286
  20
0.94695
  30
0
  11
7.86371
  21
0.9018
  31
0
  0
LINE
  8
0
  10
7.86371
  20
0.9018
  30
0
  11
7.68913
  21
0.78516
  31
0
  0
LINE
  8
0
  10
7.68913
  20
0.78516
  30
0
  11
7.64775
  21
0.80322
  31
0
  0
LINE
  8
0
  10
7.64775
  20
0.80322
  30
0
  11
7.48844
  21
0.88075
  31
0
  0
LINE
  8
0
  10
7.48844
  20
0.88075
  30
0
  11
7.3397
  21
0.96663
  31
0
  0
LINE
  8
0
  10
7.3397
  20
0.96663
  30
0
  11
7.26962
  21
1.01267
  31
0
  0
LINE
  8
0
  10
7.26962
  20
1.01267
  30
0
  11
7.23572
  21
1.03647
  31
0
  0
LINE
  8
0
  10
7.23572
  20
1.03647
  30
0
  11
7.0522
  21
0.93837
  31
0
  0
LINE
  8
0
  10
7.0522
  20
0.93837
  30
0
  11
7.05315
  21
0.89697
  31
0
  0
LINE
  8
0
  10
7.05315
  20
0.89697
  30
0
  11
7.0525
  21
0.81312
  31
0
  0
LINE
  8
0
  10
7.0525
  20
0.81312
  30
0
  11
7.04128
  21
0.64174
  31
0
  0
LINE
  8
0
  10
7.04128
  20
0.64174
  30
0
  11
7.01723
  21
0.46619
  31
0
  0
LINE
  8
0
  10
7.01723
  20
0.46619
  30
0
  11
7.00925
  21
0.42175
  31
0
  0
LINE
  8
0
  10
7.00925
  20
0.42175
  30
0
  11
6.81528
  21
0.34141
  31
0
  0
LINE
  8
0
  10
6.81528
  20
0.34141
  30
0
  11
6.77822
  21
0.36719
  31
0
  0
LINE
  8
0
  10
6.77822
  20
0.36719
  30
0
  11
6.63709
  21
0.47432
  31
0
  0
LINE
  8
0
  10
6.63709
  20
0.47432
  30
0
  11
6.50796
  21
0.58756
  31
0
  0
LINE
  8
0
  10
6.50796
  20
0.58756
  30
0
  11
6.44821
  21
0.64639
  31
0
  0
LINE
  8
0
  10
6.44821
  20
0.64639
  30
0
  11
6.41961
  21
0.67635
  31
0
  0
LINE
  8
0
  10
6.41961
  20
0.67635
  30
0
  11
6.22047
  21
0.61594
  31
0
  0
LINE
  8
0
  10
6.22047
  20
0.61594
  30
0
  11
6.21333
  21
0.57514
  31
0
  0
LINE
  8
0
  10
6.21333
  20
0.57514
  30
0
  11
6.19634
  21
0.49303
  31
0
  0
LINE
  8
0
  10
6.19634
  20
0.49303
  30
0
  11
6.15189
  21
0.32713
  31
0
  0
LINE
  8
0
  10
6.15189
  20
0.32713
  30
0
  11
6.09406
  21
0.15966
  31
0
  0
LINE
  8
0
  10
6.09406
  20
0.15966
  30
0
  11
6.07757
  21
0.11762
  31
0
  0
LINE
  8
0
  10
6.07757
  20
0.11762
  30
0
  11
5.87165
  21
0.07666
  31
0
  0
LINE
  8
0
  10
5.87165
  20
0.07666
  30
0
  11
5.84033
  21
0.10919
  31
0
  0
LINE
  8
0
  10
5.84033
  20
0.10919
  30
0
  11
5.72281
  21
0.24178
  31
0
  0
LINE
  8
0
  10
5.72281
  20
0.24178
  30
0
  11
5.61826
  21
0.37804
  31
0
  0
LINE
  8
0
  10
5.61826
  20
0.37804
  30
0
  11
5.57113
  21
0.4474
  31
0
  0
LINE
  8
0
  10
5.57113
  20
0.4474
  30
0
  11
5.54892
  21
0.48236
  31
0
  0
LINE
  8
0
  10
5.54892
  20
0.48236
  30
0
  11
5.34183
  21
0.46196
  31
0
  0
LINE
  8
0
  10
5.34183
  20
0.46196
  30
0
  11
5.32686
  21
0.42334
  31
0
  0
LINE
  8
0
  10
5.32686
  20
0.42334
  30
0
  11
5.29418
  21
0.34612
  31
0
  0
LINE
  8
0
  10
5.29418
  20
0.34612
  30
0
  11
5.21822
  21
0.19209
  31
0
  0
LINE
  8
0
  10
5.21822
  20
0.19209
  30
0
  11
5.12883
  21
0.03911
  31
0
  0
LINE
  8
0
  10
5.12883
  20
0.03911
  30
0
  11
5.10445
  21
0.0011
  31
0
  0
LINE
  8
0
  10
5.10445
  20
0.0011
  30
0
  11
4.8945
  21
0.0011
  31
0
  0
LINE
  8
0
  10
4.8945
  20
0.0011
  30
0
  11
4.87012
  21
0.03911
  31
0
  0
LINE
  8
0
  10
4.87012
  20
0.03911
  30
0
  11
4.78073
  21
0.19209
  31
0
  0
LINE
  8
0
  10
4.78073
  20
0.19209
  30
0
  11
4.70477
  21
0.34612
  31
0
  0
LINE
  8
0
  10
4.70477
  20
0.34612
  30
0
  11
4.67208
  21
0.42334
  31
0
  0
LINE
  8
0
  10
4.67208
  20
0.42334
  30
0
  11
4.65712
  21
0.46196
  31
0
  0
LINE
  8
0
  10
4.65712
  20
0.46196
  30
0
  11
4.45002
  21
0.48236
  31
0
  0
LINE
  8
0
  10
4.45002
  20
0.48236
  30
0
  11
4.42781
  21
0.4474
  31
0
  0
LINE
  8
0
  10
4.42781
  20
0.4474
  30
0
  11
4.38069
  21
0.37804
  31
0
  0
LINE
  8
0
  10
4.38069
  20
0.37804
  30
0
  11
4.27614
  21
0.24178
  31
0
  0
LINE
  8
0
  10
4.27614
  20
0.24178
  30
0
  11
4.15862
  21
0.10919
  31
0
  0
LINE
  8
0
  10
4.15862
  20
0.10919
  30
0
  11
4.1273
  21
0.07666
  31
0
  0
LINE
  8
0
  10
4.1273
  20
0.07666
  30
0
  11
3.92138
  21
0.11762
  31
0
  0
LINE
  8
0
  10
3.92138
  20
0.11762
  30
0
  11
3.90489
  21
0.15966
  31
0
  0
LINE
  8
0
  10
3.90489
  20
0.15966
  30
0
  11
3.84706
  21
0.32713
  31
0
  0
LINE
  8
0
  10
3.84706
  20
0.32713
  30
0
  11
3.80261
  21
0.49303
  31
0
  0
LINE
  8
0
  10
3.80261
  20
0.49303
  30
0
  11
3.78561
  21
0.57514
  31
0
  0
LINE
  8
0
  10
3.78561
  20
0.57514
  30
0
  11
3.77848
  21
0.61594
  31
0
  0
LINE
  8
0
  10
3.77848
  20
0.61594
  30
0
  11
3.57934
  21
0.67635
  31
0
  0
LINE
  8
0
  10
3.57934
  20
0.67635
  30
0
  11
3.55073
  21
0.64639
  31
0
  0
LINE
  8
0
  10
3.55073
  20
0.64639
  30
0
  11
3.49098
  21
0.58756
  31
0
  0
LINE
  8
0
  10
3.49098
  20
0.58756
  30
0
  11
3.36186
  21
0.47432
  31
0
  0
LINE
  8
0
  10
3.36186
  20
0.47432
  30
0
  11
3.22073
  21
0.36719
  31
0
  0
LINE
  8
0
  10
3.22073
  20
0.36719
  30
0
  11
3.18367
  21
0.34141
  31
0
  0
LINE
  8
0
  10
3.18367
  20
0.34141
  30
0
  11
2.98969
  21
0.42175
  31
0
  0
LINE
  8
0
  10
2.98969
  20
0.42175
  30
0
  11
2.98172
  21
0.46619
  31
0
  0
LINE
  8
0
  10
2.98172
  20
0.46619
  30
0
  11
2.95767
  21
0.64174
  31
0
  0
LINE
  8
0
  10
2.95767
  20
0.64174
  30
0
  11
2.94644
  21
0.81312
  31
0
  0
LINE
  8
0
  10
2.94644
  20
0.81312
  30
0
  11
2.94579
  21
0.89697
  31
0
  0
LINE
  8
0
  10
2.94579
  20
0.89697
  30
0
  11
2.94675
  21
0.93837
  31
0
  0
LINE
  8
0
  10
2.94675
  20
0.93837
  30
0
  11
2.76322
  21
1.03647
  31
0
  0
LINE
  8
0
  10
2.76322
  20
1.03647
  30
0
  11
2.72933
  21
1.01267
  31
0
  0
LINE
  8
0
  10
2.72933
  20
1.01267
  30
0
  11
2.65925
  21
0.96663
  31
0
  0
LINE
  8
0
  10
2.65925
  20
0.96663
  30
0
  11
2.51051
  21
0.88075
  31
0
  0
LINE
  8
0
  10
2.51051
  20
0.88075
  30
0
  11
2.35119
  21
0.80322
  31
0
  0
LINE
  8
0
  10
2.35119
  20
0.80322
  30
0
  11
2.30981
  21
0.78516
  31
0
  0
LINE
  8
0
  10
2.30981
  20
0.78516
  30
0
  11
2.13524
  21
0.9018
  31
0
  0
LINE
  8
0
  10
2.13524
  20
0.9018
  30
0
  11
2.13609
  21
0.94695
  31
0
  0
LINE
  8
0
  10
2.13609
  20
0.94695
  30
0
  11
2.14675
  21
1.1238
  31
0
  0
LINE
  8
0
  10
2.14675
  20
1.1238
  30
0
  11
2.16917
  21
1.29408
  31
0
  0
LINE
  8
0
  10
2.16917
  20
1.29408
  30
0
  11
2.1849
  21
1.37645
  31
0
  0
LINE
  8
0
  10
2.1849
  20
1.37645
  30
0
  11
2.19391
  21
1.41687
  31
0
  0
LINE
  8
0
  10
2.19391
  20
1.41687
  30
0
  11
2.03305
  21
1.54889
  31
0
  0
LINE
  8
0
  10
2.03305
  20
1.54889
  30
0
  11
1.99516
  21
1.53216
  31
0
  0
LINE
  8
0
  10
1.99516
  20
1.53216
  30
0
  11
1.91744
  21
1.50067
  31
0
  0
LINE
  8
0
  10
1.91744
  20
1.50067
  30
0
  11
1.75481
  21
1.44546
  31
0
  0
LINE
  8
0
  10
1.75481
  20
1.44546
  30
0
  11
1.58343
  21
1.4005
  31
0
  0
LINE
  8
0
  10
1.58343
  20
1.4005
  30
0
  11
1.53932
  21
1.39086
  31
0
  0
LINE
  8
0
  10
1.53932
  20
1.39086
  30
0
  11
1.39086
  21
1.53932
  31
0
  0
LINE
  8
0
  10
1.39086
  20
1.53932
  30
0
  11
1.4005
  21
1.58343
  31
0
  0
LINE
  8
0
  10
1.4005
  20
1.58343
  30
0
  11
1.44546
  21
1.75481
  31
0
  0
LINE
  8
0
  10
1.44546
  20
1.75481
  30
0
  11
1.50067
  21
1.91744
  31
0
  0
LINE
  8
0
  10
1.50067
  20
1.91744
  30
0
  11
1.53216
  21
1.99516
  31
0
  0
LINE
  8
0
  10
1.53216
  20
1.99516
  30
0
  11
1.54889
  21
2.03305
  31
0
  0
LINE
  8
0
  10
1.54889
  20
2.03305
  30
0
  11
1.41687
  21
2.19391
  31
0
  0
LINE
  8
0
  10
1.41687
  20
2.19391
  30
0
  11
1.37645
  21
2.1849
  31
0
  0
LINE
  8
0
  10
1.37645
  20
2.1849
  30
0
  11
1.29408
  21
2.16917
  31
0
  0
LINE
  8
0
  10
1.29408
  20
2.16917
  30
0
  11
1.1238
  21
2.14675
  31
0
  0
LINE
  8
0
  10
1.1238
  20
2.14675
  30
0
  11
0.94695
  21
2.13609
  31
0
  0
LINE
  8
0
  10
0.94695
  20
2.13609
  30
0
  11
0.9018
  21
2.13524
  31
0
  0
LINE
  8
0
  10
0.9018
  20
2.13524
  30
0
  11
0.78516
  21
2.30981
  31
0
  0
LINE
  8
0
  10
0.78516
  20
2.30981
  30
0
  11
0.80322
  21
2.35119
  31
0
  0
LINE
  8
0
  10
0.80322
  20
2.35119
  30
0
  11
0.88075
  21
2.51051
  31
0
  0
LINE
  8
0
  10
0.88075
  20
2.51051
  30
0
  11
0.96663
  21
2.65925
  31
0
  0
LINE
  8
0
  10
0.96663
  20
2.65925
  30
0
  11
1.01267
  21
2.72933
  31
0
  0
LINE
  8
0
  10
1.01267
  20
2.72933
  30
0
  11
1.03647
  21
2.76322
  31
0
  0
LINE
  8
0
  10
1.03647
  20
2.76322
  30
0
  11
0.93837
  21
2.94675
  31
0
  0
LINE
  8
0
  10
0.93837
  20
2.94675
  30
0
  11
0.89697
  21
2.94579
  31
0
  0
LINE
  8
0
  10
0.89697
  20
2.94579
  30
0
  11
0.81312
  21
2.94644
  31
0
  0
LINE
  8
0
  10
0.81312
  20
2.94644
  30
0
  11
0.64174
  21
2.95767
  31
0
  0
LINE
  8
0
  10
0.64174
  20
2.95767
  30
0
  11
0.46619
  21
2.98172
  31
0
  0
LINE
  8
0
  10
0.46619
  20
2.98172
  30
0
  11
0.42175
  21
2.98969
  31
0
  0
LINE
  8
0
  10
0.42175
  20
2.98969
  30
0
  11
0.34141
  21
3.18367
  31
0
  0
LINE
  8
0
  10
0.34141
  20
3.18367
  30
0
  11
0.36719
  21
3.22073
  31
0
  0
LINE
  8
0
  10
0.36719
  20
3.22073
  30
0
  11
0.47432
  21
3.36186
  31
0
  0
LINE
  8
0
  10
0.47432
  20
3.36186
  30
0
  11
0.58756
  21
3.49098
  31
0
  0
LINE
  8
0
  10
0.58756
  20
3.49098
  30
0
  11
0.64639
  21
3.55073
  31
0
  0
LINE
  8
0
  10
0.64639
  20
3.55073
  30
0
  11
0.67635
  21
3.57934
  31
0
  0
LINE
  8
0
  10
0.67635
  20
3.57934
  30
0
  11
0.61594
  21
3.77848
  31
0
  0
LINE
  8
0
  10
0.61594
  20
3.77848
  30
0
  11
0.57514
  21
3.78561
  31
0
  0
LINE
  8
0
  10
0.57514
  20
3.78561
  30
0
  11
0.49303
  21
3.80261
  31
0
  0
LINE
  8
0
  10
0.49303
  20
3.80261
  30
0
  11
0.32713
  21
3.84706
  31
0
  0
LINE
  8
0
  10
0.32713
  20
3.84706
  30
0
  11
0.15966
  21
3.90489
  31
0
  0
LINE
  8
0
  10
0.15966
  20
3.90489
  30
0
  11
0.11762
  21
3.92138
  31
0
  0
LINE
  8
0
  10
0.11762
  20
3.92138
  30
0
  11
0.07666
  21
4.1273
  31
0
  0
LINE
  8
0
  10
0.07666
  20
4.1273
  30
0
  11
0.10919
  21
4.15862
  31
0
  0
LINE
  8
0
  10
0.10919
  20
4.15862
  30
0
  11
0.24178
  21
4.27614
  31
0
  0
LINE
  8
0
  10
0.24178
  20
4.27614
  30
0
  11
0.37804
  21
4.38069
  31
0
  0
LINE
  8
0
  10
0.37804
  20
4.38069
  30
0
  11
0.4474
  21
4.42781
  31
0
  0
LINE
  8
0
  10
0.4474
  20
4.42781
  30
0
  11
0.48236
  21
4.45002
  31
0
  0
LINE
  8
0
  10
0.48236
  20
4.45002
  30
0
  11
0.46196
  21
4.65712
  31
0
  0
LINE
  8
0
  10
0.46196
  20
4.65712
  30
0
  11
0.42334
  21
4.67208
  31
0
  0
LINE
  8
0
  10
0.42334
  20
4.67208
  30
0
  11
0.34612
  21
4.70477
  31
0
  0
LINE
  8
0
  10
0.34612
  20
4.70477
  30
0
  11
0.19209
  21
4.78073
  31
0
  0
LINE
  8
0
  10
0.19209
  20
4.78073
  30
0
  11
0.03911
  21
4.87012
  31
0
  0
LINE
  8
0
  10
0.03911
  20
4.87012
  30
0
  11
0.0011
  21
4.8945
  31
0
  0
LINE
  8
0
  10
0.0011
  20
4.8945
  30
0
  11
0.0011
  21
5.10445
  31
0
  0
LINE
  8
0
  10
0.0011
  20
5.10445
  30
0
  11
0.03911
  21
5.12883
  31
0
  0
LINE
  8
0
  10
0.03911
  20
5.12883
  30
0
  11
0.19209
  21
5.21822
  31
0
  0
LINE
  8
0
  10
0.19209
  20
5.21822
  30
0
  11
0.34612
  21
5.29418
  31
0
  0
LINE
  8
0
  10
0.34612
  20
5.29418
  30
0
  11
0.42334
  21
5.32686
  31
0
  0
LINE
  8
0
  10
0.42334
  20
5.32686
  30
0
  11
0.46196
  21
5.34183
  31
0
  0
LINE
  8
0
  10
0.46196
  20
5.34183
  30
0
  11
0.48236
  21
5.54892
  31
0
  0
LINE
  8
0
  10
0.48236
  20
5.54892
  30
0
  11
0.4474
  21
5.57113
  31
0
  0
LINE
  8
0
  10
0.4474
  20
5.57113
  30
0
  11
0.37804
  21
5.61826
  31
0
  0
LINE
  8
0
  10
0.37804
  20
5.61826
  30
0
  11
0.24178
  21
5.72281
  31
0
  0
LINE
  8
0
  10
0.24178
  20
5.72281
  30
0
  11
0.10919
  21
5.84033
  31
0
  0
LINE
  8
0
  10
0.10919
  20
5.84033
  30
0
  11
0.07666
  21
5.87165
  31
0
  0
LINE
  8
0
  10
0.07666
  20
5.87165
  30
0
  11
0.11762
  21
6.07757
  31
0
  0
LINE
  8
0
  10
0.11762
  20
6.07757
  30
0
  11
0.15966
  21
6.09406
  31
0
  0
LINE
  8
0
  10
0.15966
  20
6.09406
  30
0
  11
0.32713
  21
6.15189
  31
0
  0
LINE
  8
0
  10
0.32713
  20
6.15189
  30
0
  11
0.49303
  21
6.19634
  31
0
  0
LINE
  8
0
  10
0.49303
  20
6.19634
  30
0
  11
0.57514
  21
6.21333
  31
0
  0
LINE
  8
0
  10
0.57514
  20
6.21333
  30
0
  11
0.61594
  21
6.22047
  31
0
  0
LINE
  8
0
  10
0.61594
  20
6.22047
  30
0
  11
0.67635
  21
6.41961
  31
0
  0
LINE
  8
0
  10
0.67635
  20
6.41961
  30
0
  11
0.64639
  21
6.44821
  31
0
  0
LINE
  8
0
  10
0.64639
  20
6.44821
  30
0
  11
0.58756
  21
6.50796
  31
0
  0
LINE
  8
0
  10
0.58756
  20
6.50796
  30
0
  11
0.47432
  21
6.63709
  31
0
  0
LINE
  8
0
  10
0.47432
  20
6.63709
  30
0
  11
0.36719
  21
6.77822
  31
0
  0
LINE
  8
0
  10
0.36719
  20
6.77822
  30
0
  11
0.34141
  21
6.81528
  31
0
  0
LINE
  8
0
  10
0.34141
  20
6.81528
  30
0
  11
0.42175
  21
7.00925
  31
0
  0
LINE
  8
0
  10
0.42175
  20
7.00925
  30
0
  11
0.46619
  21
7.01723
  31
0
  0
LINE
  8
0
  10
0.46619
  20
7.01723
  30
0
  11
0.64174
  21
7.04128
  31
0
  0
LINE
  8
0
  10
0.64174
  20
7.04128
  30
0
  11
0.81312
  21
7.0525
  31
0
  0
LINE
  8
0
  10
0.81312
  20
7.0525
  30
0
  11
0.89697
  21
7.05315
  31
0
  0
LINE
  8
0
  10
0.89697
  20
7.05315
  30
0
  11
0.93837
  21
7.0522
  31
0
  0
LINE
  8
0
  10
0.93837
  20
7.0522
  30
0
  11
1.03647
  21
7.23572
  31
0
  0
LINE
  8
0
  10
1.03647
  20
7.23572
  30
0
  11
1.01267
  21
7.26962
  31
0
  0
LINE
  8
0
  10
1.01267
  20
7.26962
  30
0
  11
0.96663
  21
7.3397
  31
0
  0
LINE
  8
0
  10
0.96663
  20
7.3397
  30
0
  11
0.88075
  21
7.48844
  31
0
  0
LINE
  8
0
  10
0.88075
  20
7.48844
  30
0
  11
0.80322
  21
7.64775
  31
0
  0
LINE
  8
0
  10
0.80322
  20
7.64775
  30
0
  11
0.78516
  21
7.68913
  31
0
  0
LINE
  8
0
  10
0.78516
  20
7.68913
  30
0
  11
0.9018
  21
7.86371
  31
0
  0
LINE
  8
0
  10
0.9018
  20
7.86371
  30
0
  11
0.94695
  21
7.86286
  31
0
  0
LINE
  8
0
  10
0.94695
  20
7.86286
  30
0
  11
1.1238
  21
7.85219
  31
0
  0
LINE
  8
0
  10
1.1238
  20
7.85219
  30
0
  11
1.29408
  21
7.82977
  31
0
  0
LINE
  8
0
  10
1.29408
  20
7.82977
  30
0
  11
1.37645
  21
7.81405
  31
0
  0
LINE
  8
0
  10
1.37645
  20
7.81405
  30
0
  11
1.41687
  21
7.80503
  31
0
  0
LINE
  8
0
  10
1.41687
  20
7.80503
  30
0
  11
1.54889
  21
7.9659
  31
0
  0
LINE
  8
0
  10
1.54889
  20
7.9659
  30
0
  11
1.53216
  21
8.00379
  31
0
  0
LINE
  8
0
  10
1.53216
  20
8.00379
  30
0
  11
1.50067
  21
8.0815
  31
0
  0
LINE
  8
0
  10
1.50067
  20
8.0815
  30
0
  11
1.44546
  21
8.24413
  31
0
  0
LINE
  8
0
  10
1.44546
  20
8.24413
  30
0
  11
1.4005
  21
8.41552
  31
0
  0
LINE
  8
0
  10
1.4005
  20
8.41552
  30
0
  11
1.39086
  21
8.45963
  31
0
  0
LINE
  8
0
  10
1.39086
  20
8.45963
  30
0
  11
1.53932
  21
8.60809
  31
0
  0
LINE
  8
0
  10
1.53932
  20
8.60809
  30
0
  11
1.58343
  21
8.59845
  31
0
  0
LINE
  8
0
  10
1.58343
  20
8.59845
  30
0
  11
1.75481
  21
8.55349
  31
0
  0
LINE
  8
0
  10
1.75481
  20
8.55349
  30
0
  11
1.91744
  21
8.49828
  31
0
  0
LINE
  8
0
  10
1.91744
  20
8.49828
  30
0
  11
1.99516
  21
8.46679
  31
0
  0
LINE
  8
0
  10
1.99516
  20
8.46679
  30
0
  11
2.03305
  21
8.45006
  31
0
  0
LINE
  8
0
  10
2.03305
  20
8.45006
  30
0
  11
2.19391
  21
8.58207
  31
0
  0
LINE
  8
0
  10
2.19391
  20
8.58207
  30
0
  11
2.1849
  21
8.6225
  31
0
  0
LINE
  8
0
  10
2.1849
  20
8.6225
  30
0
  11
2.16917
  21
8.70487
  31
0
  0
LINE
  8
0
  10
2.16917
  20
8.70487
  30
0
  11
2.14675
  21
8.87514
  31
0
  0
LINE
  8
0
  10
2.14675
  20
8.87514
  30
0
  11
2.13609
  21
9.052
  31
0
  0
LINE
  8
0
  10
2.13609
  20
9.052
  30
0
  11
2.13524
  21
9.09715
  31
0
  0
LINE
  8
0
  10
2.13524
  20
9.09715
  30
0
  11
2.30981
  21
9.21379
  31
0
  0
LINE
  8
0
  10
2.30981
  20
9.21379
  30
0
  11
2.35119
  21
9.19573
  31
0
  0
LINE
  8
0
  10
2.35119
  20
9.19573
  30
0
  11
2.51051
  21
9.1182
  31
0
  0
LINE
  8
0
  10
2.51051
  20
9.1182
  30
0
  11
2.65925
  21
9.03232
  31
0
  0
LINE
  8
0
  10
2.65925
  20
9.03232
  30
0
  11
2.72933
  21
8.98628
  31
0
  0
LINE
  8
0
  10
2.72933
  20
8.98628
  30
0
  11
2.76322
  21
8.96248
  31
0
  0
LINE
  8
0
  10
2.76322
  20
8.96248
  30
0
  11
2.94675
  21
9.06057
  31
0
  0
LINE
  8
0
  10
2.94675
  20
9.06057
  30
0
  11
2.94579
  21
9.10198
  31
0
  0
LINE
  8
0
  10
2.94579
  20
9.10198
  30
0
  11
2.94644
  21
9.18583
  31
0
  0
LINE
  8
0
  10
2.94644
  20
9.18583
  30
0
  11
2.95767
  21
9.35721
  31
0
  0
LINE
  8
0
  10
2.95767
  20
9.35721
  30
0
  11
2.98172
  21
9.53275
  31
0
  0
LINE
  8
0
  10
2.98172
  20
9.53275
  30
0
  11
2.98969
  21
9.57719
  31
0
  0
LINE
  8
0
  10
2.98969
  20
9.57719
  30
0
  11
3.18367
  21
9.65754
  31
0
  0
LINE
  8
0
  10
3.18367
  20
9.65754
  30
0
  11
3.22073
  21
9.63175
  31
0
  0
LINE
  8
0
  10
3.22073
  20
9.63175
  30
0
  11
3.36186
  21
9.52463
  31
0
  0
LINE
  8
0
  10
3.36186
  20
9.52463
  30
0
  11
3.49098
  21
9.41139
  31
0
  0
LINE
  8
0
  10
3.49098
  20
9.41139
  30
0
  11
3.55073
  21
9.35256
  31
0
  0
LINE
  8
0
  10
3.55073
  20
9.35256
  30
0
  11
3.57934
  21
9.3226
  31
0
  0
LINE
  8
0
  10
3.57934
  20
9.3226
  30
0
  11
3.77848
  21
9.38301
  31
0
  0
LINE
  8
0
  10
3.77848
  20
9.38301
  30
0
  11
3.78561
  21
9.42381
  31
0
  0
LINE
  8
0
  10
3.78561
  20
9.42381
  30
0
  11
3.80261
  21
9.50592
  31
0
  0
LINE
  8
0
  10
3.80261
  20
9.50592
  30
0
  11
3.84706
  21
9.67181
  31
0
  0
LINE
  8
0
  10
3.84706
  20
9.67181
  30
0
  11
3.90489
  21
9.83929
  31
0
  0
LINE
  8
0
  10
3.90489
  20
9.83929
  30
0
  11
3.92138
  21
9.88132
  31
0
  0
LINE
  8
0
  10
3.92138
  20
9.88132
  30
0
  11
4.1273
  21
9.92228
  31
0
  0
LINE
  8
0
  10
4.1273
  20
9.92228
  30
0
  11
4.15862
  21
9.88976
  31
0
  0
LINE
  8
0
  10
4.15862
  20
9.88976
  30
0
  11
4.27614
  21
9.75716
  31
0
  0
LINE
  8
0
  10
4.27614
  20
9.75716
  30
0
  11
4.38069
  21
9.6209
  31
0
  0
LINE
  8
0
  10
4.38069
  20
9.6209
  30
0
  11
4.42781
  21
9.55155
  31
0
  0
LINE
  8
0
  10
4.42781
  20
9.55155
  30
0
  11
4.45002
  21
9.51659
  31
0
  0
LINE
  8
0
  10
4.45002
  20
9.51659
  30
0
  11
4.65712
  21
9.53698
  31
0
  0
LINE
  8
0
  10
4.65712
  20
9.53698
  30
0
  11
4.67208
  21
9.57561
  31
0
  0
LINE
  8
0
  10
4.67208
  20
9.57561
  30
0
  11
4.70477
  21
9.65282
  31
0
  0
LINE
  8
0
  10
4.70477
  20
9.65282
  30
0
  11
4.78073
  21
9.80686
  31
0
  0
LINE
  8
0
  10
4.78073
  20
9.80686
  30
0
  11
4.87012
  21
9.95984
  31
0
  0
LINE
  8
0
  10
4.87012
  20
9.95984
  30
0
  11
4.8945
  21
9.99784
  31
0
  0
LINE
  8
0
  10
4.8945
  20
9.99784
  30
0
  11
5.10445
  21
9.99784
  31
0
  0
LINE
  8
0
  10
5.10445
  20
9.99784
  30
0
  11
5.12883
  21
9.95984
  31
0
  0
LINE
  8
0
  10
5.12883
  20
9.95984
  30
0
  11
5.21822
  21
9.80686
  31
0
  0
LINE
  8
0
  10
5.21822
  20
9.80686
  30
0
  11
5.29418
  21
9.65282
  31
0
  0
LINE
  8
0
  10
5.29418
  20
9.65282
  30
0
  11
5.32686
  21
9.57561
  31
0
  0
LINE
  8
0
  10
5.32686
  20
9.57561
  30
0
  11
5.34183
  21
9.53698
  31
0
  0
LINE
  8
0
  10
5.34183
  20
9.53698
  30
0
  11
5.54892
  21
9.51659
  31
0
  0
LINE
  8
0
  10
5.54892
  20
9.51659
  30
0
  11
5.57113
  21
9.55155
  31
0
  0
LINE
  8
0
  10
5.57113
  20
9.55155
  30
0
  11
5.61826
  21
9.6209
  31
0
  0
LINE
  8
0
  10
5.61826
  20
9.6209
  30
0
  11
5.72281
  21
9.75716
  31
0
  0
LINE
  8
0
  10
5.72281
  20
9.75716
  30
0
  11
5.84033
  21
9.88976
  31
0
  0
LINE
  8
0
  10
5.84033
  20
9.88976
  30
0
  11
5.87165
  21
9.92228
  31
0
  0
LINE
  8
0
  10
5.87165
  20
9.92228
  30
0
  11
6.07757
  21
9.88132
  31
0
  0
LINE
  8
0
  10
6.07757
  20
9.88132
  30
0
  11
6.09406
  21
9.83929
  31
0
  0
LINE
  8
0
  10
6.09406
  20
9.83929
  30
0
  11
6.15189
  21
9.67181
  31
0
  0
LINE
  8
0
  10
6.15189
  20
9.67181
  30
0
  11
6.19634
  21
9.50592
  31
0
  0
LINE
  8
0
  10
6.19634
  20
9.50592
  30
0
  11
6.21333
  21
9.42381
  31
0
  0
LINE
  8
0
  10
6.21333
  20
9.42381
  30
0
  11
6.22047
  21
9.38301
  31
0
  0
LINE
  8
0
  10
6.22047
  20
9.38301
  30
0
  11
6.41961
  21
9.3226
  31
0
  0
LINE
  8
0
  10
6.41961
  20
9.3226
  30
0
  11
6.44821
  21
9.35256
  31
0
  0
LINE
  8
0
  10
6.44821
  20
9.35256
  30
0
  11
6.50796
  21
9.41139
  31
0
  0
LINE
  8
0
  10
6.50796
  20
9.41139
  30
0
  11
6.63709
  21
9.52463
  31
0
  0
LINE
  8
0
  10
6.63709
  20
9.52463
  30
0
  11
6.77822
  21
9.63175
  31
0
  0
LINE
  8
0
  10
6.77822
  20
9.63175
  30
0
  11
6.81528
  21
9.65754
  31
0
  0
LINE
  8
0
  10
6.81528
  20
9.65754
  30
0
  11
7.00925
  21
9.57719
  31
0
  0
LINE
  8
0
  10
7.00925
  20
9.57719
  30
0
  11
7.01723
  21
9.53275
  31
0
  0
LINE
  8
0
  10
7.01723
  20
9.53275
  30
0
  11
7.04128
  21
9.35721
  31
0
  0
LINE
  8
0
  10
7.04128
  20
9.35721
  30
0
  11
7.0525
  21
9.18583
  31
0
  0
LINE
  8
0
  10
7.0525
  20
9.18583
  30
0
  11
7.05315
  21
9.10198
  31
0
  0
LINE
  8
0
  10
7.05315
  20
9.10198
  30
0
  11
7.0522
  21
9.06057
  31
0
  0
LINE
  8
0
  10
7.0522
  20
9.06057
  30
0
  11
7.23572
  21
8.96248
  31
0
  0
LINE
  8
0
  10
7.23572
  20
8.96248
  30
0
  11
7.26962
  21
8.98628
  31
0
  0
LINE
  8
0
  10
7.26962
  20
8.98628
  30
0
  11
7.3397
  21
9.03232
  31
0
  0
LINE
  8
0
  10
7.3397
  20
9.03232
  30
0
  11
7.48844
  21
9.1182
  31
0
  0
LINE
  8
0
  10
7.48844
  20
9.1182
  30
0
  11
7.64775
  21
9.19573
  31
0
  0
LINE
  8
0
  10
7.64775
  20
9.19573
  30
0
  11
7.68913
  21
9.21379
  31
0
  0
LINE
  8
0
  10
7.68913
  20
9.21379
  30
0
  11
7.86371
  21
9.09715
  31
0
  0
LINE
  8
0
  10
7.86371
  20
9.09715
  30
0
  11
7.86286
  21
9.052
  31
0
  0
LINE
  8
0
  10
7.86286
  20
9.052
  30
0
  11
7.85219
  21
8.87514
  31
0
  0
LINE
  8
0
  10
7.85219
  20
8.87514
  30
0
  11
7.82977
  21
8.70487
  31
0
  0
LINE
  8
0
  10
7.82977
  20
8.70487
  30
0
  11
7.81405
  21
8.6225
  31
0
  0
LINE
  8
0
  10
7.81405
  20
8.6225
  30
0
  11
7.80503
  21
8.58207
  31
0
  0
LINE
  8
0
  10
7.80503
  20
8.58207
  30
0
  11
7.9659
  21
8.45006
  31
0
  0
LINE
  8
0
  10
7.9659
  20
8.45006
  30
0
  11
8.00379
  21
8.46679
  31
0
  0
LINE
  8
0
  10
8.00379
  20
8.46679
  30
0
  11
8.0815
  21
8.49828
  31
0
  0
LINE
  8
0
  10
8.0815
  20
8.49828
  30
0
  11
8.24413
  21
8.55349
  31
0
  0
LINE
  8
0
  10
8.24413
  20
8.55349
  30
0
  11
8.41552
  21
8.59845
  31
0
  0
LINE
  8
0
  10
8.41552
  20
8.59845
  30
0
  11
8.45963
  21
8.60809
  31
0
  0
LINE
  8
0
  10
8.45963
  20
8.60809
  30
0
  11
8.60809
  21
8.45963
  31
0
  0
LINE
  8
0
  10
8.60809
  20
8.45963
  30
0
  11
8.59845
  21
8.41552
  31
0
  0
LINE
  8
0
  10
8.59845
  20
8.41552
  30
0
  11
8.55349
  21
8.24413
  31
0
  0
LINE
  8
0
  10
8.55349
  20
8.24413
  30
0
  11
8.49828
  21
8.0815
  31
0
  0
LINE
  8
0
  10
8.49828
  20
8.0815
  30
0
  11
8.46679
  21
8.00379
  31
0
  0
LINE
  8
0
  10
8.46679
  20
8.00379
  30
0
  11
8.45006
  21
7.9659
  31
0
  0
LINE
  8
0
  10
8.45006
  20
7.9659
  30
0
  11
8.58207
  21
7.80503
  31
0
  0
LINE
  8
0
  10
8.58207
  20
7.80503
  30
0
  11
8.6225
  21
7.81405
  31
0
  0
LINE
  8
0
  10
8.6225
  20
7.81405
  30
0
  11
8.70487
  21
7.82977
  31
0
  0
LINE
  8
0
  10
8.70487
  20
7.82977
  30
0
  11
8.87514
  21
7.85219
  31
0
  0
LINE
  8
0
  10
8.87514
  20
7.85219
  30
0
  11
9.052
  21
7.86286
  31
0
  0
LINE
  8
0
  10
9.052
  20
7.86286
  30
0
  11
9.09715
  21
7.86371
  31
0
  0
LINE
  8
0
  10
9.09715
  20
7.86371
  30
0
  11
9.21379
  21
7.68913
  31
0
  0
LINE
  8
0
  10
9.21379
  20
7.68913
  30
0
  11
9.19573
  21
7.64775
  31
0
  0
LINE
  8
0
  10
9.19573
  20
7.64775
  30
0
  11
9.1182
  21
7.48844
  31
0
  0
LINE
  8
0
  10
9.1182
  20
7.48844
  30
0
  11
9.03232
  21
7.3397
  31
0
  0
LINE
  8
0
  10
9.03232
  20
7.3397
  30
0
  11
8.98628
  21
7.26962
  31
0
  0
LINE
  8
0
  10
8.98628
  20
7.26962
  30
0
  11
8.96248
  21
7.23572
  31
0
  0
LINE
  8
0
  10
8.96248
  20
7.23572
  30
0
  11
9.06057
  21
7.0522
  31
0
  0
LINE
  8
0
  10
9.06057
  20
7.0522
  30
0
  11
9.10198
  21
7.05315
  31
0
  0
LINE
  8
0
  10
9.10198
  20
7.05315
  30
0
  11
9.18583
  21
7.0525
  31
0
  0
LINE
  8
0
  10
9.18583
  20
7.0525
  30
0
  11
9.35721
  21
7.04128
  31
0
  0
LINE
  8
0
  10
9.35721
  20
7.04128
  30
0
  11
9.53275
  21
7.01723
  31
0
  0
LINE
  8
0
  10
9.53275
  20
7.01723
  30
0
  11
9.57719
  21
7.00925
  31
0
  0
LINE
  8
0
  10
9.57719
  20
7.00925
  30
0
  11
9.65754
  21
6.81528
  31
0
  0
LINE
  8
0
  10
9.65754
  20
6.81528
  30
0
  11
9.63175
  21
6.77822
  31
0
  0
LINE
  8
0
  10
9.63175
  20
6.77822
  30
0
  11
9.52463
  21
6.63709
  31
0
  0
LINE
  8
0
  10
9.52463
  20
6.63709
  30
0
  11
9.41139
  21
6.50796
  31
0
  0
LINE
  8
0
  10
9.41139
  20
6.50796
  30
0
  11
9.35256
  21
6.44821
  31
0
  0
LINE
  8
0
  10
9.35256
  20
6.44821
  30
0
  11
9.3226
  21
6.41961
  31
0
  0
LINE
  8
0
  10
9.3226
  20
6.41961
  30
0
  11
9.38301
  21
6.22047
  31
0
  0
LINE
  8
0
  10
9.38301
  20
6.22047
  30
0
  11
9.42381
  21
6.21333
  31
0
  0
LINE
  8
0
  10
9.42381
  20
6.21333
  30
0
  11
9.50592
  21
6.19634
  31
0
  0
LINE
  8
0
  10
9.50592
  20
6.19634
  30
0
  11
9.67181
  21
6.15189
  31
0
  0
LINE
  8
0
  10
9.67181
  20
6.15189
  30
0
  11
9.83929
  21
6.09406
  31
0
  0
LINE
  8
0
  10
9.83929
  20
6.09406
  30
0
  11
9.88132
  21
6.07757
  31
0
  0
LINE
  8
0
  10
9.88132
  20
6.07757
  30
0
  11
9.92228
  21
5.87165
  31
0
  0
LINE
  8
0
  10
9.92228
  20
5.87165
  30
0
  11
9.88976
  21
5.84033
  31
0
  0
LINE
  8
0
  10
9.88976
  20
5.84033
  30
0
  11
9.75716
  21
5.72281
  31
0
  0
LINE
  8
0
  10
9.75716
  20
5.72281
  30
0
  11
9.6209
  21
5.61826
  31
0
  0
LINE
  8
0
  10
9.6209
  20
5.61826
  30
0
  11
9.55155
  21
5.57113
  31
0
  0
LINE
  8
0
  10
9.55155
  20
5.57113
  30
0
  11
9.51659
  21
5.54892
  31
0
  0
LINE
  8
0
  10
9.51659
  20
5.54892
  30
0
  11
9.53698
  21
5.34183
  31
0
  0
LINE
  8
0
  10
5.49947
  20
4.99947
  30
0
  11
5.49947
  21
4.99947
  31
0
  0
LINE
  8
0
  10
5.49947
  20
4.99947
  30
0
  11
5.48244
  21
5.12888
  31
0
  0
LINE
  8
0
  10
5.48244
  20
5.12888
  30
0
  11
5.43249
  21
5.24947
  31
0
  0
LINE
  8
0
  10
5.43249
  20
5.24947
  30
0
  11
5.35303
  21
5.35303
  31
0
  0
LINE
  8
0
  10
5.35303
  20
5.35303
  30
0
  11
5.24947
  21
5.43249
  31
0
  0
LINE
  8
0
  10
5.24947
  20
5.43249
  30
0
  11
5.12888
  21
5.48244
  31
0
  0
LINE
  8
0
  10
5.12888
  20
5.48244
  30
0
  11
4.99947
  21
5.49947
  31
0
  0
LINE
  8
0
  10
4.99947
  20
5.49947
  30
0
  11
4.87006
  21
5.48244
  31
0
  0
LINE
  8
0
  10
4.87006
  20
5.48244
  30
0
  11
4.74947
  21
5.43249
  31
0
  0
LINE
  8
0
  10
4.74947
  20
5.43249
  30
0
  11
4.64592
  21
5.35303
  31
0
  0
LINE
  8
0
  10
4.64592
  20
5.35303
  30
0
  11
4.56646
  21
5.24947
  31
0
  0
LINE
  8
0
  10
4.56646
  20
5.24947
  30
0
  11
4.51651
  21
5.12888
  31
0
  0
LINE
  8
0
  10
4.51651
  20
5.12888
  30
0
  11
4.49947
  21
4.99947
  31
0
  0
LINE
  8
0
  10
4.49947
  20
4.99947
  30
0
  11
4.51651
  21
4.87006
  31
0
  0
LINE
  8
0
  10
4.51651
  20
4.87006
  30
0
  11
4.56646
  21
4.74947
  31
0
  0
LINE
  8
0
  10
4.56646
  20
4.74947
  30
0
  11
4.64592
  21
4.64592
  31
0
  0
LINE
  8
0
  10
4.64592
  20
4.64592
  30
0
  11
4.74947
  21
4.56646
  31
0
  0
LINE
  8
0
  10
4.74947
  20
4.56646
  30
0
  11
4.87006
  21
4.51651
  31
0
  0
LINE
  8
0
  10
4.87006
  20
4.51651
  30
0
  11
4.99947
  21
4.49947
  31
0
  0
LINE
  8
0
  10
4.99947
  20
4.49947
  30
0
  11
5.12888
  21
4.51651
  31
0
  0
LINE
  8
0
  10
5.12888
  20
4.51651
  30
0
  11
5.24947
  21
4.56646
  31
0
  0
LINE
  8
0
  10
5.24947
  20
4.56646
  30
0
  11
5.35303
  21
4.64592
  31
0
  0
LINE
  8
0
  10
5.35303
  20
4.64592
  30
0
  11
5.43249
  21
4.74947
  31
0
  0
LINE
  8
0
  10
5.43249
  20
4.74947
  30
0
  11
5.48244
  21
4.87006
  31
0
  0
LINE
  8
0
  10
5.48244
  20
4.87006
  30
0
  11
5.49947
  21
4.99947
  31
0
  0
LINE
  8
0
  10
5.49947
  20
4.99947
  30
0
  11
5.49947
  21
4.99947
  31
0
  0
ENDSEC
  0
EOF
