<?xml version="1.0" encoding="ISO-8859-1" standalone="no"?>
<!DOCTYPE svg PUBLIC "-//W3C//DTD SVG 1.1//EN"
    "http://www.w3.org/Graphics/SVG/1.1/DTD/svg11.dtd">
<svg xmlns="http://www.w3.org/2000/svg"
     xmlns:xlink="http://www.w3.org/1999/xlink" xml:space="preserve"
         width="1537px" height="1537px"
         viewBox="0 0 1537 1537"
         zoomAndPan="disable" preserveAspectRatio="none" >
<!-- Made with the gear generator.  http://woodgears.ca/gear   2021-05-28T10:47:10 -->
<!-- G1:Toothspacing=144.11  Teeth=32  Slop=.1  Spur gear  Angle=32.0  Addendum=.2 -->
<!--  -->
<polygon id="G1Gear" data-id="0" class="gear" fill="none" fill-opacity="0.2" stroke="#000"  stroke-miterlimit="10"
points =" 1465.75 821.92 1471.72 819.35 1483.65 813.79 1507.41 801.06 1530.97 786.29 1536.82 782.28 1536.82 754.66 1530.97 750.66
 1507.41 735.88 1483.65 723.15 1471.72 717.59 1465.75 715.02 1462.78 684.86 1468.13 681.17 1478.75 673.39 1499.57 656.28
 1519.8 637.19 1524.75 632.12 1519.36 605.03 1512.84 602.24 1486.85 592.34 1461.06 584.5 1448.28 581.37 1441.92 580.01
 1433.13 551.02 1437.66 546.36 1446.55 536.65 1463.64 515.8 1479.75 493.13 1483.61 487.19 1473.05 461.68 1466.11 460.22
 1438.69 455.58 1411.86 452.92 1398.72 452.34 1392.22 452.25 1377.93 425.53 1381.47 420.07 1388.3 408.82 1400.99 385.04
 1412.36 359.66 1415 353.08 1399.66 330.12 1392.57 330.04 1364.77 330.84 1337.94 333.46 1324.93 335.46 1318.54 336.64
 1299.32 313.22 1301.72 307.18 1306.22 294.81 1314.03 269.01 1320.24 241.9 1321.54 234.93 1302.01 215.4 1295.04 216.7
 1267.93 222.91 1242.13 230.72 1229.77 235.22 1223.72 237.62 1200.3 218.4 1201.48 212.01 1203.48 199 1206.11 172.17
 1206.91 144.37 1206.82 137.29 1183.86 121.94 1177.28 124.58 1151.9 135.96 1128.12 148.65 1116.87 155.47 1111.41 159.01
 1084.69 144.72 1084.6 138.22 1084.03 125.08 1081.36 98.25 1076.73 70.83 1075.26 63.9 1049.75 53.33 1043.81 57.19
 1021.14 73.3 1000.29 90.39 990.59 99.28 985.92 103.81 956.93 95.02 955.57 88.66 952.44 75.88 944.6 50.09
 934.7 24.1 931.91 17.58 904.82 12.19 899.75 17.15 880.66 37.37 863.55 58.19 855.77 68.81 852.08 74.16
 821.92 71.19 819.35 65.22 813.79 53.29 801.06 29.53 786.29 5.97 782.28 0.12 754.66 0.12 750.66 5.97
 735.88 29.53 723.15 53.29 717.59 65.22 715.02 71.19 684.86 74.16 681.17 68.81 673.39 58.19 656.28 37.37
 637.19 17.15 632.12 12.19 605.03 17.58 602.24 24.1 592.34 50.09 584.5 75.88 581.37 88.66 580.01 95.02
 551.02 103.81 546.36 99.28 536.65 90.39 515.8 73.3 493.13 57.19 487.19 53.33 461.68 63.9 460.22 70.83
 455.58 98.25 452.92 125.08 452.34 138.22 452.25 144.72 425.53 159.01 420.07 155.47 408.82 148.65 385.04 135.96
 359.66 124.58 353.08 121.94 330.12 137.29 330.04 144.37 330.84 172.17 333.46 199 335.46 212.01 336.64 218.4
 313.22 237.62 307.18 235.22 294.81 230.72 269.01 222.91 241.9 216.7 234.93 215.4 215.4 234.93 216.7 241.9
 222.91 269.01 230.72 294.81 235.22 307.18 237.62 313.22 218.4 336.64 212.01 335.46 199 333.46 172.17 330.84
 144.37 330.04 137.29 330.12 121.94 353.08 124.58 359.66 135.96 385.04 148.65 408.82 155.47 420.07 159.01 425.53
 144.72 452.25 138.22 452.34 125.08 452.92 98.25 455.58 70.83 460.22 63.9 461.68 53.33 487.19 57.19 493.13
 73.3 515.8 90.39 536.65 99.28 546.36 103.81 551.02 95.02 580.01 88.66 581.37 75.88 584.5 50.09 592.34
 24.1 602.24 17.58 605.03 12.19 632.12 17.15 637.19 37.37 656.28 58.19 673.39 68.81 681.17 74.16 684.86
 71.19 715.02 65.22 717.59 53.29 723.15 29.53 735.88 5.97 750.66 0.12 754.66 0.12 782.28 5.97 786.29
 29.53 801.06 53.29 813.79 65.22 819.35 71.19 821.92 74.16 852.08 68.81 855.77 58.19 863.55 37.37 880.66
 17.15 899.75 12.19 904.82 17.58 931.91 24.1 934.7 50.09 944.6 75.88 952.44 88.66 955.57 95.02 956.93
 103.81 985.92 99.28 990.59 90.39 1000.29 73.3 1021.14 57.19 1043.81 53.33 1049.75 63.9 1075.26 70.83 1076.73
 98.25 1081.36 125.08 1084.03 138.22 1084.6 144.72 1084.69 159.01 1111.41 155.47 1116.87 148.65 1128.12 135.96 1151.9
 124.58 1177.28 121.94 1183.86 137.29 1206.82 144.37 1206.91 172.17 1206.11 199 1203.48 212.01 1201.48 218.4 1200.3
 237.62 1223.72 235.22 1229.77 230.72 1242.13 222.91 1267.93 216.7 1295.04 215.4 1302.01 234.93 1321.54 241.9 1320.24
 269.01 1314.03 294.81 1306.22 307.18 1301.72 313.22 1299.32 336.64 1318.54 335.46 1324.93 333.46 1337.94 330.84 1364.77
 330.04 1392.57 330.12 1399.66 353.08 1415 359.66 1412.36 385.04 1400.99 408.82 1388.3 420.07 1381.47 425.53 1377.93
 452.25 1392.22 452.34 1398.72 452.92 1411.86 455.58 1438.69 460.22 1466.11 461.68 1473.05 487.19 1483.61 493.13 1479.75
 515.8 1463.64 536.65 1446.55 546.36 1437.66 551.02 1433.13 580.01 1441.92 581.37 1448.28 584.5 1461.06 592.34 1486.85
 602.24 1512.84 605.03 1519.36 632.12 1524.75 637.19 1519.8 656.28 1499.57 673.39 1478.75 681.17 1468.13 684.86 1462.78
 715.02 1465.75 717.59 1471.72 723.15 1483.65 735.88 1507.41 750.66 1530.97 754.66 1536.82 782.28 1536.82 786.29 1530.97
 801.06 1507.41 813.79 1483.65 819.35 1471.72 821.92 1465.75 852.08 1462.78 855.77 1468.13 863.55 1478.75 880.66 1499.57
 899.75 1519.8 904.82 1524.75 931.91 1519.36 934.7 1512.84 944.6 1486.85 952.44 1461.06 955.57 1448.28 956.93 1441.92
 985.92 1433.13 990.59 1437.66 1000.29 1446.55 1021.14 1463.64 1043.81 1479.75 1049.75 1483.61 1075.26 1473.05 1076.73 1466.11
 1081.36 1438.69 1084.03 1411.86 1084.6 1398.72 1084.69 1392.22 1111.41 1377.93 1116.87 1381.47 1128.12 1388.3 1151.9 1400.99
 1177.28 1412.36 1183.86 1415 1206.82 1399.66 1206.91 1392.57 1206.11 1364.77 1203.48 1337.94 1201.48 1324.93 1200.3 1318.54
 1223.72 1299.32 1229.77 1301.72 1242.13 1306.22 1267.93 1314.03 1295.04 1320.24 1302.01 1321.54 1321.54 1302.01 1320.24 1295.04
 1314.03 1267.93 1306.22 1242.13 1301.72 1229.77 1299.32 1223.72 1318.54 1200.3 1324.93 1201.48 1337.94 1203.48 1364.77 1206.11
 1392.57 1206.91 1399.66 1206.82 1415 1183.86 1412.36 1177.28 1400.99 1151.9 1388.3 1128.12 1381.47 1116.87 1377.93 1111.41
 1392.22 1084.69 1398.72 1084.6 1411.86 1084.03 1438.69 1081.36 1466.11 1076.73 1473.05 1075.26 1483.61 1049.75 1479.75 1043.81
 1463.64 1021.14 1446.55 1000.29 1437.66 990.59 1433.13 985.92 1441.92 956.93 1448.28 955.57 1461.06 952.44 1486.85 944.6
 1512.84 934.7 1519.36 931.91 1524.75 904.82 1519.8 899.75 1499.57 880.66 1478.75 863.55 1468.13 855.77 1462.78 852.08
"/>
<circle id="G1_sh" cx="768,47" cy="768,47" r="50" stroke="#000"  fill="none"/>
</svg>
