<?xml version="1.0" encoding="ISO-8859-1" standalone="no"?>
<!DOCTYPE svg PUBLIC "-//W3C//DTD SVG 1.1//EN"
    "http://www.w3.org/Graphics/SVG/1.1/DTD/svg11.dtd">
<svg xmlns="http://www.w3.org/2000/svg"
     xmlns:xlink="http://www.w3.org/1999/xlink" xml:space="preserve"
         width="1000px" height="1000px"
         viewBox="0 0 1000 1000"
         zoomAndPan="disable" preserveAspectRatio="none" >
<!-- Made with the gear generator.  http://woodgears.ca/gear   2021-05-28T11:14:08 -->
<!-- G1:Toothspacing=93.59  Teeth=32  Slop=-.8  Spur gear  Angle=30.0  Addendum=.2 -->
<!--  -->
<polygon id="G1Gear" data-id="0" class="gear" fill="none" fill-opacity="0.2" stroke="#000"  stroke-miterlimit="10"
points =" 953.7 534.18 957.56 532.69 965.28 529.42 980.69 521.82 995.98 512.88 999.78 510.45 999.78 489.45 995.98 487.01
 980.69 478.07 965.28 470.48 957.56 467.21 953.7 465.71 951.66 445 955.15 442.78 962.09 438.07 975.72 427.61
 988.98 415.86 992.23 412.73 988.13 392.14 983.93 390.49 967.18 384.71 950.59 380.26 942.38 378.56 938.3 377.85
 932.26 357.93 935.26 355.07 941.14 349.1 952.46 336.19 963.18 322.07 965.75 318.37 957.72 298.97 953.28 298.17
 935.72 295.77 918.58 294.64 910.2 294.58 906.06 294.68 896.25 276.32 898.63 272.93 903.23 265.92 911.82 251.05
 919.57 235.12 921.38 230.98 909.71 213.52 905.2 213.61 887.51 214.68 870.49 216.92 862.25 218.49 858.21 219.39
 845.01 203.3 846.68 199.52 849.83 191.74 855.35 175.48 859.84 158.34 860.81 153.93 845.96 139.09 841.55 140.05
 824.41 144.55 808.15 150.07 800.38 153.22 796.59 154.89 780.5 141.69 781.41 137.64 782.98 129.41 785.22 112.38
 786.29 94.69 786.37 90.18 768.91 78.52 764.78 80.32 748.84 88.07 733.97 96.66 726.96 101.27 723.57 103.65
 705.22 93.84 705.32 89.7 705.25 81.31 704.13 64.17 701.72 46.62 700.93 42.18 681.53 34.14 677.82 36.72
 663.71 47.43 650.8 58.76 644.82 64.64 641.96 67.63 622.05 61.59 621.33 57.51 619.63 49.3 615.19 32.71
 609.41 15.97 607.76 11.76 587.16 7.67 584.03 10.92 572.28 24.18 561.83 37.8 557.11 44.74 554.89 48.24
 534.18 46.2 532.69 42.33 529.42 34.61 521.82 19.21 512.88 3.91 510.45 0.11 489.45 0.11 487.01 3.91
 478.07 19.21 470.48 34.61 467.21 42.33 465.71 46.2 445 48.24 442.78 44.74 438.07 37.8 427.61 24.18
 415.86 10.92 412.73 7.67 392.14 11.76 390.49 15.97 384.71 32.71 380.26 49.3 378.56 57.51 377.85 61.59
 357.93 67.63 355.07 64.64 349.1 58.76 336.19 47.43 322.07 36.72 318.37 34.14 298.97 42.18 298.17 46.62
 295.77 64.17 294.64 81.31 294.58 89.7 294.68 93.84 276.32 103.65 272.93 101.27 265.92 96.66 251.05 88.07
 235.12 80.32 230.98 78.52 213.52 90.18 213.61 94.69 214.68 112.38 216.92 129.41 218.49 137.64 219.39 141.69
 203.3 154.89 199.52 153.22 191.74 150.07 175.48 144.55 158.34 140.05 153.93 139.09 139.09 153.93 140.05 158.34
 144.55 175.48 150.07 191.74 153.22 199.52 154.89 203.3 141.69 219.39 137.64 218.49 129.41 216.92 112.38 214.68
 94.69 213.61 90.18 213.52 78.52 230.98 80.32 235.12 88.07 251.05 96.66 265.92 101.27 272.93 103.65 276.32
 93.84 294.68 89.7 294.58 81.31 294.64 64.17 295.77 46.62 298.17 42.18 298.97 34.14 318.37 36.72 322.07
 47.43 336.19 58.76 349.1 64.64 355.07 67.63 357.93 61.59 377.85 57.51 378.56 49.3 380.26 32.71 384.71
 15.97 390.49 11.76 392.14 7.67 412.73 10.92 415.86 24.18 427.61 37.8 438.07 44.74 442.78 48.24 445
 46.2 465.71 42.33 467.21 34.61 470.48 19.21 478.07 3.91 487.01 0.11 489.45 0.11 510.45 3.91 512.88
 19.21 521.82 34.61 529.42 42.33 532.69 46.2 534.18 48.24 554.89 44.74 557.11 37.8 561.83 24.18 572.28
 10.92 584.03 7.67 587.16 11.76 607.76 15.97 609.41 32.71 615.19 49.3 619.63 57.51 621.33 61.59 622.05
 67.63 641.96 64.64 644.82 58.76 650.8 47.43 663.71 36.72 677.82 34.14 681.53 42.18 700.93 46.62 701.72
 64.17 704.13 81.31 705.25 89.7 705.32 93.84 705.22 103.65 723.57 101.27 726.96 96.66 733.97 88.07 748.84
 80.32 764.78 78.52 768.91 90.18 786.37 94.69 786.29 112.38 785.22 129.41 782.98 137.64 781.41 141.69 780.5
 154.89 796.59 153.22 800.38 150.07 808.15 144.55 824.41 140.05 841.55 139.09 845.96 153.93 860.81 158.34 859.84
 175.48 855.35 191.74 849.83 199.52 846.68 203.3 845.01 219.39 858.21 218.49 862.25 216.92 870.49 214.68 887.51
 213.61 905.2 213.52 909.71 230.98 921.38 235.12 919.57 251.05 911.82 265.92 903.23 272.93 898.63 276.32 896.25
 294.68 906.06 294.58 910.2 294.64 918.58 295.77 935.72 298.17 953.28 298.97 957.72 318.37 965.75 322.07 963.18
 336.19 952.46 349.1 941.14 355.07 935.26 357.93 932.26 377.85 938.3 378.56 942.38 380.26 950.59 384.71 967.18
 390.49 983.93 392.14 988.13 412.73 992.23 415.86 988.98 427.61 975.72 438.07 962.09 442.78 955.15 445 951.66
 465.71 953.7 467.21 957.56 470.48 965.28 478.07 980.69 487.01 995.98 489.45 999.78 510.45 999.78 512.88 995.98
 521.82 980.69 529.42 965.28 532.69 957.56 534.18 953.7 554.89 951.66 557.11 955.15 561.83 962.09 572.28 975.72
 584.03 988.98 587.16 992.23 607.76 988.13 609.41 983.93 615.19 967.18 619.63 950.59 621.33 942.38 622.05 938.3
 641.96 932.26 644.82 935.26 650.8 941.14 663.71 952.46 677.82 963.18 681.53 965.75 700.93 957.72 701.72 953.28
 704.13 935.72 705.25 918.58 705.32 910.2 705.22 906.06 723.57 896.25 726.96 898.63 733.97 903.23 748.84 911.82
 764.78 919.57 768.91 921.38 786.37 909.71 786.29 905.2 785.22 887.51 782.98 870.49 781.41 862.25 780.5 858.21
 796.59 845.01 800.38 846.68 808.15 849.83 824.41 855.35 841.55 859.84 845.96 860.81 860.81 845.96 859.84 841.55
 855.35 824.41 849.83 808.15 846.68 800.38 845.01 796.59 858.21 780.5 862.25 781.41 870.49 782.98 887.51 785.22
 905.2 786.29 909.71 786.37 921.38 768.91 919.57 764.78 911.82 748.84 903.23 733.97 898.63 726.96 896.25 723.57
 906.06 705.22 910.2 705.32 918.58 705.25 935.72 704.13 953.28 701.72 957.72 700.93 965.75 681.53 963.18 677.82
 952.46 663.71 941.14 650.8 935.26 644.82 932.26 641.96 938.3 622.05 942.38 621.33 950.59 619.63 967.18 615.19
 983.93 609.41 988.13 607.76 992.23 587.16 988.98 584.03 975.72 572.28 962.09 561.83 955.15 557.11 951.66 554.89
"/>
<circle id="G1_sh" cx="499,95" cy="499,95" r="50" stroke="#000"  fill="none"/>
</svg>
