<?xml version="1.0" encoding="ISO-8859-1" standalone="no"?>
<!DOCTYPE svg PUBLIC "-//W3C//DTD SVG 1.1//EN"
    "http://www.w3.org/Graphics/SVG/1.1/DTD/svg11.dtd">
<svg xmlns="http://www.w3.org/2000/svg"
     xmlns:xlink="http://www.w3.org/1999/xlink" xml:space="preserve"
         width="100px" height="100px"
         viewBox="0 0 100 100"
         zoomAndPan="disable" preserveAspectRatio="none" >
<!-- Made with the gear generator.  http://woodgears.ca/gear   2021-05-28T11:15:11 -->
<!-- G1:Toothspacing=9.36  Teeth=32  Slop=-.1  Spur gear  Angle=30.0  Addendum=.2 -->
<!--  -->
<polygon id="G1Gear" data-id="0" class="gear" fill="none" fill-opacity="0.2" stroke="#000"  stroke-miterlimit="10"
points =" 95.37 53.42 95.76 53.27 96.53 52.94 98.07 52.18 99.6 51.29 99.98 51.04 99.98 48.94 99.6 48.7
 98.07 47.81 96.53 47.05 95.76 46.72 95.37 46.57 95.17 44.5 95.52 44.28 96.21 43.81 97.57 42.76
 98.9 41.59 99.22 41.27 98.81 39.21 98.39 39.05 96.72 38.47 95.06 38.03 94.24 37.86 93.83 37.78
 93.23 35.79 93.53 35.51 94.11 34.91 95.25 33.62 96.32 32.21 96.58 31.84 95.77 29.9 95.33 29.82
 93.57 29.58 91.86 29.46 91.02 29.46 90.61 29.47 89.62 27.63 89.86 27.29 90.32 26.59 91.18 25.11
 91.96 23.51 92.14 23.1 90.97 21.35 90.52 21.36 88.75 21.47 87.05 21.69 86.22 21.85 85.82 21.94
 84.5 20.33 84.67 19.95 84.98 19.17 85.53 17.55 85.98 15.83 86.08 15.39 84.6 13.91 84.16 14
 82.44 14.45 80.82 15.01 80.04 15.32 79.66 15.49 78.05 14.17 78.14 13.76 78.3 12.94 78.52 11.24
 78.63 9.47 78.64 9.02 76.89 7.85 76.48 8.03 74.88 8.81 73.4 9.67 72.7 10.13 72.36 10.36
 70.52 9.38 70.53 8.97 70.53 8.13 70.41 6.42 70.17 4.66 70.09 4.22 68.15 3.41 67.78 3.67
 66.37 4.74 65.08 5.88 64.48 6.46 64.2 6.76 62.2 6.16 62.13 5.75 61.96 4.93 61.52 3.27
 60.94 1.6 60.78 1.18 58.72 0.77 58.4 1.09 57.23 2.42 56.18 3.78 55.71 4.47 55.49 4.82
 53.42 4.62 53.27 4.23 52.94 3.46 52.18 1.92 51.29 0.39 51.04 0.01 48.94 0.01 48.7 0.39
 47.81 1.92 47.05 3.46 46.72 4.23 46.57 4.62 44.5 4.82 44.28 4.47 43.81 3.78 42.76 2.42
 41.59 1.09 41.27 0.77 39.21 1.18 39.05 1.6 38.47 3.27 38.03 4.93 37.86 5.75 37.78 6.16
 35.79 6.76 35.51 6.46 34.91 5.88 33.62 4.74 32.21 3.67 31.84 3.41 29.9 4.22 29.82 4.66
 29.58 6.42 29.46 8.13 29.46 8.97 29.47 9.38 27.63 10.36 27.29 10.13 26.59 9.67 25.11 8.81
 23.51 8.03 23.1 7.85 21.35 9.02 21.36 9.47 21.47 11.24 21.69 12.94 21.85 13.76 21.94 14.17
 20.33 15.49 19.95 15.32 19.17 15.01 17.55 14.45 15.83 14 15.39 13.91 13.91 15.39 14 15.83
 14.45 17.55 15.01 19.17 15.32 19.95 15.49 20.33 14.17 21.94 13.76 21.85 12.94 21.69 11.24 21.47
 9.47 21.36 9.02 21.35 7.85 23.1 8.03 23.51 8.81 25.11 9.67 26.59 10.13 27.29 10.36 27.63
 9.38 29.47 8.97 29.46 8.13 29.46 6.42 29.58 4.66 29.82 4.22 29.9 3.41 31.84 3.67 32.21
 4.74 33.62 5.88 34.91 6.46 35.51 6.76 35.79 6.16 37.78 5.75 37.86 4.93 38.03 3.27 38.47
 1.6 39.05 1.18 39.21 0.77 41.27 1.09 41.59 2.42 42.76 3.78 43.81 4.47 44.28 4.82 44.5
 4.62 46.57 4.23 46.72 3.46 47.05 1.92 47.81 0.39 48.7 0.01 48.94 0.01 51.04 0.39 51.29
 1.92 52.18 3.46 52.94 4.23 53.27 4.62 53.42 4.82 55.49 4.47 55.71 3.78 56.18 2.42 57.23
 1.09 58.4 0.77 58.72 1.18 60.78 1.6 60.94 3.27 61.52 4.93 61.96 5.75 62.13 6.16 62.2
 6.76 64.2 6.46 64.48 5.88 65.08 4.74 66.37 3.67 67.78 3.41 68.15 4.22 70.09 4.66 70.17
 6.42 70.41 8.13 70.53 8.97 70.53 9.38 70.52 10.36 72.36 10.13 72.7 9.67 73.4 8.81 74.88
 8.03 76.48 7.85 76.89 9.02 78.64 9.47 78.63 11.24 78.52 12.94 78.3 13.76 78.14 14.17 78.05
 15.49 79.66 15.32 80.04 15.01 80.82 14.45 82.44 14 84.16 13.91 84.6 15.39 86.08 15.83 85.98
 17.55 85.53 19.17 84.98 19.95 84.67 20.33 84.5 21.94 85.82 21.85 86.22 21.69 87.05 21.47 88.75
 21.36 90.52 21.35 90.97 23.1 92.14 23.51 91.96 25.11 91.18 26.59 90.32 27.29 89.86 27.63 89.62
 29.47 90.61 29.46 91.02 29.46 91.86 29.58 93.57 29.82 95.33 29.9 95.77 31.84 96.58 32.21 96.32
 33.62 95.25 34.91 94.11 35.51 93.53 35.79 93.23 37.78 93.83 37.86 94.24 38.03 95.06 38.47 96.72
 39.05 98.39 39.21 98.81 41.27 99.22 41.59 98.9 42.76 97.57 43.81 96.21 44.28 95.52 44.5 95.17
 46.57 95.37 46.72 95.76 47.05 96.53 47.81 98.07 48.7 99.6 48.94 99.98 51.04 99.98 51.29 99.6
 52.18 98.07 52.94 96.53 53.27 95.76 53.42 95.37 55.49 95.17 55.71 95.52 56.18 96.21 57.23 97.57
 58.4 98.9 58.72 99.22 60.78 98.81 60.94 98.39 61.52 96.72 61.96 95.06 62.13 94.24 62.2 93.83
 64.2 93.23 64.48 93.53 65.08 94.11 66.37 95.25 67.78 96.32 68.15 96.58 70.09 95.77 70.17 95.33
 70.41 93.57 70.53 91.86 70.53 91.02 70.52 90.61 72.36 89.62 72.7 89.86 73.4 90.32 74.88 91.18
 76.48 91.96 76.89 92.14 78.64 90.97 78.63 90.52 78.52 88.75 78.3 87.05 78.14 86.22 78.05 85.82
 79.66 84.5 80.04 84.67 80.82 84.98 82.44 85.53 84.16 85.98 84.6 86.08 86.08 84.6 85.98 84.16
 85.53 82.44 84.98 80.82 84.67 80.04 84.5 79.66 85.82 78.05 86.22 78.14 87.05 78.3 88.75 78.52
 90.52 78.63 90.97 78.64 92.14 76.89 91.96 76.48 91.18 74.88 90.32 73.4 89.86 72.7 89.62 72.36
 90.61 70.52 91.02 70.53 91.86 70.53 93.57 70.41 95.33 70.17 95.77 70.09 96.58 68.15 96.32 67.78
 95.25 66.37 94.11 65.08 93.53 64.48 93.23 64.2 93.83 62.2 94.24 62.13 95.06 61.96 96.72 61.52
 98.39 60.94 98.81 60.78 99.22 58.72 98.9 58.4 97.57 57.23 96.21 56.18 95.52 55.71 95.17 55.49
"/>
<circle id="G1_sh" cx="49,99" cy="49,99" r="5" stroke="#000"  fill="none"/>
</svg>
