  999
file created by gear template generator
  0
SECTION
  2
HEADER
  9
$ACADVER
  1
AC1006
  9
$INSBASE
  10
0.0
  20
0.0
  30
0.0
  9
$EXTMIN
  10
0.0
  20
0.0
  9
$EXTMAX
  10
10000.0
  20
10000.0
  0
ENDSEC
  0
SECTION
  2
ENTITIES
  0
LINE
  8
0
  10
9.2131
  20
5.02308
  30
0
  11
9.2131
  21
5.02308
  31
0
  0
LINE
  8
0
  10
9.2131
  20
5.02308
  30
0
  11
9.25234
  21
4.88022
  31
0
  0
LINE
  8
0
  10
9.25234
  20
4.88022
  30
0
  11
9.33493
  21
4.85901
  31
0
  0
LINE
  8
0
  10
9.33493
  20
4.85901
  30
0
  11
9.41699
  21
4.82697
  31
0
  0
LINE
  8
0
  10
9.41699
  20
4.82697
  30
0
  11
9.58166
  21
4.78304
  31
0
  0
LINE
  8
0
  10
9.58166
  20
4.78304
  30
0
  11
9.74447
  21
4.71378
  31
0
  0
LINE
  8
0
  10
9.74447
  20
4.71378
  30
0
  11
9.90502
  21
4.62534
  31
0
  0
LINE
  8
0
  10
9.90502
  20
4.62534
  30
0
  11
9.88881
  21
4.46075
  31
0
  0
LINE
  8
0
  10
9.88881
  20
4.46075
  30
0
  11
9.71409
  21
4.40534
  31
0
  0
LINE
  8
0
  10
9.71409
  20
4.40534
  30
0
  11
9.5409
  21
4.36917
  31
0
  0
LINE
  8
0
  10
9.5409
  20
4.36917
  30
0
  11
9.37082
  21
4.35821
  31
0
  0
LINE
  8
0
  10
9.37082
  20
4.35821
  30
0
  11
9.28409
  21
4.34279
  31
0
  0
LINE
  8
0
  10
9.28409
  20
4.34279
  30
0
  11
9.19894
  21
4.3381
  31
0
  0
LINE
  8
0
  10
9.19894
  20
4.3381
  30
0
  11
9.13259
  21
4.20565
  31
0
  0
LINE
  8
0
  10
9.13259
  20
4.20565
  30
0
  11
9.13259
  21
4.20565
  31
0
  0
LINE
  8
0
  10
9.13259
  20
4.20565
  30
0
  11
9.1432
  21
4.05788
  31
0
  0
LINE
  8
0
  10
9.1432
  20
4.05788
  30
0
  11
9.22008
  21
4.02096
  31
0
  0
LINE
  8
0
  10
9.22008
  20
4.02096
  30
0
  11
9.2943
  21
3.97353
  31
0
  0
LINE
  8
0
  10
9.2943
  20
3.97353
  30
0
  11
9.44724
  21
3.89832
  31
0
  0
LINE
  8
0
  10
9.44724
  20
3.89832
  30
0
  11
9.5934
  21
3.79863
  31
0
  0
LINE
  8
0
  10
9.5934
  20
3.79863
  30
0
  11
9.73362
  21
3.68056
  31
0
  0
LINE
  8
0
  10
9.73362
  20
3.68056
  30
0
  11
9.68561
  21
3.5223
  31
0
  0
LINE
  8
0
  10
9.68561
  20
3.5223
  30
0
  11
9.50343
  21
3.50204
  31
0
  0
LINE
  8
0
  10
9.50343
  20
3.50204
  30
0
  11
9.32652
  21
3.50035
  31
0
  0
LINE
  8
0
  10
9.32652
  20
3.50035
  30
0
  11
9.15757
  21
3.52279
  31
0
  0
LINE
  8
0
  10
9.15757
  20
3.52279
  30
0
  11
9.0695
  21
3.52458
  31
0
  0
LINE
  8
0
  10
9.0695
  20
3.52458
  30
0
  11
8.98507
  21
3.53659
  31
0
  0
LINE
  8
0
  10
8.98507
  20
3.53659
  30
0
  11
8.89415
  21
3.41963
  31
0
  0
LINE
  8
0
  10
8.89415
  20
3.41963
  30
0
  11
8.89415
  21
3.41963
  31
0
  0
LINE
  8
0
  10
8.89415
  20
3.41963
  30
0
  11
8.87574
  21
3.27263
  31
0
  0
LINE
  8
0
  10
8.87574
  20
3.27263
  30
0
  11
8.94393
  21
3.22142
  31
0
  0
LINE
  8
0
  10
8.94393
  20
3.22142
  30
0
  11
9.00747
  21
3.16042
  31
0
  0
LINE
  8
0
  10
9.00747
  20
3.16042
  30
0
  11
9.1428
  21
3.05682
  31
0
  0
LINE
  8
0
  10
9.1428
  20
3.05682
  30
0
  11
9.26671
  21
2.93053
  31
0
  0
LINE
  8
0
  10
9.26671
  20
2.93053
  30
0
  11
9.3812
  21
2.78738
  31
0
  0
LINE
  8
0
  10
9.3812
  20
2.78738
  30
0
  11
9.30324
  21
2.64152
  31
0
  0
LINE
  8
0
  10
9.30324
  20
2.64152
  30
0
  11
9.12061
  21
2.65719
  31
0
  0
LINE
  8
0
  10
9.12061
  20
2.65719
  30
0
  11
8.94676
  21
2.69005
  31
0
  0
LINE
  8
0
  10
8.94676
  20
2.69005
  30
0
  11
8.78543
  21
2.74501
  31
0
  0
LINE
  8
0
  10
8.78543
  20
2.74501
  30
0
  11
8.69941
  21
2.76396
  31
0
  0
LINE
  8
0
  10
8.69941
  20
2.76396
  30
0
  11
8.61894
  21
2.79221
  31
0
  0
LINE
  8
0
  10
8.61894
  20
2.79221
  30
0
  11
8.50695
  21
2.69523
  31
0
  0
LINE
  8
0
  10
8.50695
  20
2.69523
  30
0
  11
8.50695
  21
2.69523
  31
0
  0
LINE
  8
0
  10
8.50695
  20
2.69523
  30
0
  11
8.46021
  21
2.55465
  31
0
  0
LINE
  8
0
  10
8.46021
  20
2.55465
  30
0
  11
8.5171
  21
2.49112
  31
0
  0
LINE
  8
0
  10
8.5171
  20
2.49112
  30
0
  11
8.56753
  21
2.41889
  31
0
  0
LINE
  8
0
  10
8.56753
  20
2.41889
  30
0
  11
8.68004
  21
2.29088
  31
0
  0
LINE
  8
0
  10
8.68004
  20
2.29088
  30
0
  11
8.77693
  21
2.14284
  31
0
  0
LINE
  8
0
  10
8.77693
  20
2.14284
  30
0
  11
8.86129
  21
1.98011
  31
0
  0
LINE
  8
0
  10
8.86129
  20
1.98011
  30
0
  11
8.75638
  21
1.85227
  31
0
  0
LINE
  8
0
  10
8.75638
  20
1.85227
  30
0
  11
8.58031
  21
1.90326
  31
0
  0
LINE
  8
0
  10
8.58031
  20
1.90326
  30
0
  11
8.41621
  21
1.96941
  31
0
  0
LINE
  8
0
  10
8.41621
  20
1.96941
  30
0
  11
8.26871
  21
2.05479
  31
0
  0
LINE
  8
0
  10
8.26871
  20
2.05479
  30
0
  11
8.18804
  21
2.09015
  31
0
  0
LINE
  8
0
  10
8.18804
  20
2.09015
  30
0
  11
8.11463
  21
2.13356
  31
0
  0
LINE
  8
0
  10
8.11463
  20
2.13356
  30
0
  11
7.98587
  21
2.06029
  31
0
  0
LINE
  8
0
  10
7.98587
  20
2.06029
  30
0
  11
7.98587
  21
2.06029
  31
0
  0
LINE
  8
0
  10
7.98587
  20
2.06029
  30
0
  11
7.9126
  21
1.93153
  31
0
  0
LINE
  8
0
  10
7.9126
  20
1.93153
  30
0
  11
7.95601
  21
1.85812
  31
0
  0
LINE
  8
0
  10
7.95601
  20
1.85812
  30
0
  11
7.99137
  21
1.77744
  31
0
  0
LINE
  8
0
  10
7.99137
  20
1.77744
  30
0
  11
8.07675
  21
1.62994
  31
0
  0
LINE
  8
0
  10
8.07675
  20
1.62994
  30
0
  11
8.1429
  21
1.46585
  31
0
  0
LINE
  8
0
  10
8.1429
  20
1.46585
  30
0
  11
8.19389
  21
1.28978
  31
0
  0
LINE
  8
0
  10
8.19389
  20
1.28978
  30
0
  11
8.06605
  21
1.18486
  31
0
  0
LINE
  8
0
  10
8.06605
  20
1.18486
  30
0
  11
7.90331
  21
1.26923
  31
0
  0
LINE
  8
0
  10
7.90331
  20
1.26923
  30
0
  11
7.75527
  21
1.36612
  31
0
  0
LINE
  8
0
  10
7.75527
  20
1.36612
  30
0
  11
7.62726
  21
1.47863
  31
0
  0
LINE
  8
0
  10
7.62726
  20
1.47863
  30
0
  11
7.55504
  21
1.52905
  31
0
  0
LINE
  8
0
  10
7.55504
  20
1.52905
  30
0
  11
7.49151
  21
1.58594
  31
0
  0
LINE
  8
0
  10
7.49151
  20
1.58594
  30
0
  11
7.35093
  21
1.53921
  31
0
  0
LINE
  8
0
  10
7.35093
  20
1.53921
  30
0
  11
7.35093
  21
1.53921
  31
0
  0
LINE
  8
0
  10
7.35093
  20
1.53921
  30
0
  11
7.25395
  21
1.42721
  31
0
  0
LINE
  8
0
  10
7.25395
  20
1.42721
  30
0
  11
7.2822
  21
1.34675
  31
0
  0
LINE
  8
0
  10
7.2822
  20
1.34675
  30
0
  11
7.30114
  21
1.26072
  31
0
  0
LINE
  8
0
  10
7.30114
  20
1.26072
  30
0
  11
7.3561
  21
1.0994
  31
0
  0
LINE
  8
0
  10
7.3561
  20
1.0994
  30
0
  11
7.38897
  21
0.92555
  31
0
  0
LINE
  8
0
  10
7.38897
  20
0.92555
  30
0
  11
7.40463
  21
0.74292
  31
0
  0
LINE
  8
0
  10
7.40463
  20
0.74292
  30
0
  11
7.25878
  21
0.66496
  31
0
  0
LINE
  8
0
  10
7.25878
  20
0.66496
  30
0
  11
7.11563
  21
0.77945
  31
0
  0
LINE
  8
0
  10
7.11563
  20
0.77945
  30
0
  11
6.98934
  21
0.90336
  31
0
  0
LINE
  8
0
  10
6.98934
  20
0.90336
  30
0
  11
6.88574
  21
1.03868
  31
0
  0
LINE
  8
0
  10
6.88574
  20
1.03868
  30
0
  11
6.82474
  21
1.10223
  31
0
  0
LINE
  8
0
  10
6.82474
  20
1.10223
  30
0
  11
6.77353
  21
1.17042
  31
0
  0
LINE
  8
0
  10
6.77353
  20
1.17042
  30
0
  11
6.62653
  21
1.15201
  31
0
  0
LINE
  8
0
  10
6.62653
  20
1.15201
  30
0
  11
6.62653
  21
1.15201
  31
0
  0
LINE
  8
0
  10
6.62653
  20
1.15201
  30
0
  11
6.50956
  21
1.06108
  31
0
  0
LINE
  8
0
  10
6.50956
  20
1.06108
  30
0
  11
6.52157
  21
0.97666
  31
0
  0
LINE
  8
0
  10
6.52157
  20
0.97666
  30
0
  11
6.52337
  21
0.88859
  31
0
  0
LINE
  8
0
  10
6.52337
  20
0.88859
  30
0
  11
6.5458
  21
0.71964
  31
0
  0
LINE
  8
0
  10
6.5458
  20
0.71964
  30
0
  11
6.54412
  21
0.54272
  31
0
  0
LINE
  8
0
  10
6.54412
  20
0.54272
  30
0
  11
6.52385
  21
0.36054
  31
0
  0
LINE
  8
0
  10
6.52385
  20
0.36054
  30
0
  11
6.36559
  21
0.31253
  31
0
  0
LINE
  8
0
  10
6.36559
  20
0.31253
  30
0
  11
6.24753
  21
0.45275
  31
0
  0
LINE
  8
0
  10
6.24753
  20
0.45275
  30
0
  11
6.14784
  21
0.59892
  31
0
  0
LINE
  8
0
  10
6.14784
  20
0.59892
  30
0
  11
6.07263
  21
0.75186
  31
0
  0
LINE
  8
0
  10
6.07263
  20
0.75186
  30
0
  11
6.0252
  21
0.82608
  31
0
  0
LINE
  8
0
  10
6.0252
  20
0.82608
  30
0
  11
5.98828
  21
0.90295
  31
0
  0
LINE
  8
0
  10
5.98828
  20
0.90295
  30
0
  11
5.84051
  21
0.91357
  31
0
  0
LINE
  8
0
  10
5.84051
  20
0.91357
  30
0
  11
5.84051
  21
0.91357
  31
0
  0
LINE
  8
0
  10
5.84051
  20
0.91357
  30
0
  11
5.70805
  21
0.84721
  31
0
  0
LINE
  8
0
  10
5.70805
  20
0.84721
  30
0
  11
5.70336
  21
0.76206
  31
0
  0
LINE
  8
0
  10
5.70336
  20
0.76206
  30
0
  11
5.68794
  21
0.67534
  31
0
  0
LINE
  8
0
  10
5.68794
  20
0.67534
  30
0
  11
5.67699
  21
0.50526
  31
0
  0
LINE
  8
0
  10
5.67699
  20
0.50526
  30
0
  11
5.64082
  21
0.33207
  31
0
  0
LINE
  8
0
  10
5.64082
  20
0.33207
  30
0
  11
5.5854
  21
0.15734
  31
0
  0
LINE
  8
0
  10
5.5854
  20
0.15734
  30
0
  11
5.42082
  21
0.14113
  31
0
  0
LINE
  8
0
  10
5.42082
  20
0.14113
  30
0
  11
5.33238
  21
0.30169
  31
0
  0
LINE
  8
0
  10
5.33238
  20
0.30169
  30
0
  11
5.26312
  21
0.4645
  31
0
  0
LINE
  8
0
  10
5.26312
  20
0.4645
  30
0
  11
5.21919
  21
0.62917
  31
0
  0
LINE
  8
0
  10
5.21919
  20
0.62917
  30
0
  11
5.18715
  21
0.71122
  31
0
  0
LINE
  8
0
  10
5.18715
  20
0.71122
  30
0
  11
5.16593
  21
0.79382
  31
0
  0
LINE
  8
0
  10
5.16593
  20
0.79382
  30
0
  11
5.02308
  21
0.83306
  31
0
  0
LINE
  8
0
  10
5.02308
  20
0.83306
  30
0
  11
5.02308
  21
0.83306
  31
0
  0
LINE
  8
0
  10
5.02308
  20
0.83306
  30
0
  11
4.88022
  21
0.79382
  31
0
  0
LINE
  8
0
  10
4.88022
  20
0.79382
  30
0
  11
4.85901
  21
0.71122
  31
0
  0
LINE
  8
0
  10
4.85901
  20
0.71122
  30
0
  11
4.82697
  21
0.62917
  31
0
  0
LINE
  8
0
  10
4.82697
  20
0.62917
  30
0
  11
4.78304
  21
0.4645
  31
0
  0
LINE
  8
0
  10
4.78304
  20
0.4645
  30
0
  11
4.71378
  21
0.30169
  31
0
  0
LINE
  8
0
  10
4.71378
  20
0.30169
  30
0
  11
4.62534
  21
0.14113
  31
0
  0
LINE
  8
0
  10
4.62534
  20
0.14113
  30
0
  11
4.46075
  21
0.15734
  31
0
  0
LINE
  8
0
  10
4.46075
  20
0.15734
  30
0
  11
4.40534
  21
0.33207
  31
0
  0
LINE
  8
0
  10
4.40534
  20
0.33207
  30
0
  11
4.36917
  21
0.50526
  31
0
  0
LINE
  8
0
  10
4.36917
  20
0.50526
  30
0
  11
4.35821
  21
0.67534
  31
0
  0
LINE
  8
0
  10
4.35821
  20
0.67534
  30
0
  11
4.34279
  21
0.76206
  31
0
  0
LINE
  8
0
  10
4.34279
  20
0.76206
  30
0
  11
4.3381
  21
0.84721
  31
0
  0
LINE
  8
0
  10
4.3381
  20
0.84721
  30
0
  11
4.20565
  21
0.91357
  31
0
  0
LINE
  8
0
  10
4.20565
  20
0.91357
  30
0
  11
4.20565
  21
0.91357
  31
0
  0
LINE
  8
0
  10
4.20565
  20
0.91357
  30
0
  11
4.05788
  21
0.90295
  31
0
  0
LINE
  8
0
  10
4.05788
  20
0.90295
  30
0
  11
4.02096
  21
0.82608
  31
0
  0
LINE
  8
0
  10
4.02096
  20
0.82608
  30
0
  11
3.97353
  21
0.75186
  31
0
  0
LINE
  8
0
  10
3.97353
  20
0.75186
  30
0
  11
3.89832
  21
0.59892
  31
0
  0
LINE
  8
0
  10
3.89832
  20
0.59892
  30
0
  11
3.79863
  21
0.45275
  31
0
  0
LINE
  8
0
  10
3.79863
  20
0.45275
  30
0
  11
3.68056
  21
0.31253
  31
0
  0
LINE
  8
0
  10
3.68056
  20
0.31253
  30
0
  11
3.5223
  21
0.36054
  31
0
  0
LINE
  8
0
  10
3.5223
  20
0.36054
  30
0
  11
3.50204
  21
0.54272
  31
0
  0
LINE
  8
0
  10
3.50204
  20
0.54272
  30
0
  11
3.50035
  21
0.71964
  31
0
  0
LINE
  8
0
  10
3.50035
  20
0.71964
  30
0
  11
3.52279
  21
0.88859
  31
0
  0
LINE
  8
0
  10
3.52279
  20
0.88859
  30
0
  11
3.52458
  21
0.97666
  31
0
  0
LINE
  8
0
  10
3.52458
  20
0.97666
  30
0
  11
3.53659
  21
1.06108
  31
0
  0
LINE
  8
0
  10
3.53659
  20
1.06108
  30
0
  11
3.41963
  21
1.15201
  31
0
  0
LINE
  8
0
  10
3.41963
  20
1.15201
  30
0
  11
3.41963
  21
1.15201
  31
0
  0
LINE
  8
0
  10
3.41963
  20
1.15201
  30
0
  11
3.27263
  21
1.17042
  31
0
  0
LINE
  8
0
  10
3.27263
  20
1.17042
  30
0
  11
3.22142
  21
1.10223
  31
0
  0
LINE
  8
0
  10
3.22142
  20
1.10223
  30
0
  11
3.16042
  21
1.03868
  31
0
  0
LINE
  8
0
  10
3.16042
  20
1.03868
  30
0
  11
3.05682
  21
0.90336
  31
0
  0
LINE
  8
0
  10
3.05682
  20
0.90336
  30
0
  11
2.93053
  21
0.77945
  31
0
  0
LINE
  8
0
  10
2.93053
  20
0.77945
  30
0
  11
2.78738
  21
0.66496
  31
0
  0
LINE
  8
0
  10
2.78738
  20
0.66496
  30
0
  11
2.64152
  21
0.74292
  31
0
  0
LINE
  8
0
  10
2.64152
  20
0.74292
  30
0
  11
2.65719
  21
0.92555
  31
0
  0
LINE
  8
0
  10
2.65719
  20
0.92555
  30
0
  11
2.69005
  21
1.0994
  31
0
  0
LINE
  8
0
  10
2.69005
  20
1.0994
  30
0
  11
2.74501
  21
1.26072
  31
0
  0
LINE
  8
0
  10
2.74501
  20
1.26072
  30
0
  11
2.76396
  21
1.34675
  31
0
  0
LINE
  8
0
  10
2.76396
  20
1.34675
  30
0
  11
2.79221
  21
1.42721
  31
0
  0
LINE
  8
0
  10
2.79221
  20
1.42721
  30
0
  11
2.69523
  21
1.53921
  31
0
  0
LINE
  8
0
  10
2.69523
  20
1.53921
  30
0
  11
2.69523
  21
1.53921
  31
0
  0
LINE
  8
0
  10
2.69523
  20
1.53921
  30
0
  11
2.55465
  21
1.58594
  31
0
  0
LINE
  8
0
  10
2.55465
  20
1.58594
  30
0
  11
2.49112
  21
1.52905
  31
0
  0
LINE
  8
0
  10
2.49112
  20
1.52905
  30
0
  11
2.41889
  21
1.47863
  31
0
  0
LINE
  8
0
  10
2.41889
  20
1.47863
  30
0
  11
2.29088
  21
1.36612
  31
0
  0
LINE
  8
0
  10
2.29088
  20
1.36612
  30
0
  11
2.14284
  21
1.26923
  31
0
  0
LINE
  8
0
  10
2.14284
  20
1.26923
  30
0
  11
1.98011
  21
1.18486
  31
0
  0
LINE
  8
0
  10
1.98011
  20
1.18486
  30
0
  11
1.85227
  21
1.28978
  31
0
  0
LINE
  8
0
  10
1.85227
  20
1.28978
  30
0
  11
1.90326
  21
1.46585
  31
0
  0
LINE
  8
0
  10
1.90326
  20
1.46585
  30
0
  11
1.96941
  21
1.62994
  31
0
  0
LINE
  8
0
  10
1.96941
  20
1.62994
  30
0
  11
2.05479
  21
1.77744
  31
0
  0
LINE
  8
0
  10
2.05479
  20
1.77744
  30
0
  11
2.09015
  21
1.85812
  31
0
  0
LINE
  8
0
  10
2.09015
  20
1.85812
  30
0
  11
2.13356
  21
1.93153
  31
0
  0
LINE
  8
0
  10
2.13356
  20
1.93153
  30
0
  11
2.06029
  21
2.06029
  31
0
  0
LINE
  8
0
  10
2.06029
  20
2.06029
  30
0
  11
2.06029
  21
2.06029
  31
0
  0
LINE
  8
0
  10
2.06029
  20
2.06029
  30
0
  11
1.93153
  21
2.13356
  31
0
  0
LINE
  8
0
  10
1.93153
  20
2.13356
  30
0
  11
1.85812
  21
2.09015
  31
0
  0
LINE
  8
0
  10
1.85812
  20
2.09015
  30
0
  11
1.77744
  21
2.05479
  31
0
  0
LINE
  8
0
  10
1.77744
  20
2.05479
  30
0
  11
1.62994
  21
1.96941
  31
0
  0
LINE
  8
0
  10
1.62994
  20
1.96941
  30
0
  11
1.46585
  21
1.90326
  31
0
  0
LINE
  8
0
  10
1.46585
  20
1.90326
  30
0
  11
1.28978
  21
1.85227
  31
0
  0
LINE
  8
0
  10
1.28978
  20
1.85227
  30
0
  11
1.18486
  21
1.98011
  31
0
  0
LINE
  8
0
  10
1.18486
  20
1.98011
  30
0
  11
1.26923
  21
2.14284
  31
0
  0
LINE
  8
0
  10
1.26923
  20
2.14284
  30
0
  11
1.36612
  21
2.29088
  31
0
  0
LINE
  8
0
  10
1.36612
  20
2.29088
  30
0
  11
1.47863
  21
2.41889
  31
0
  0
LINE
  8
0
  10
1.47863
  20
2.41889
  30
0
  11
1.52905
  21
2.49112
  31
0
  0
LINE
  8
0
  10
1.52905
  20
2.49112
  30
0
  11
1.58594
  21
2.55465
  31
0
  0
LINE
  8
0
  10
1.58594
  20
2.55465
  30
0
  11
1.53921
  21
2.69523
  31
0
  0
LINE
  8
0
  10
1.53921
  20
2.69523
  30
0
  11
1.53921
  21
2.69523
  31
0
  0
LINE
  8
0
  10
1.53921
  20
2.69523
  30
0
  11
1.42721
  21
2.79221
  31
0
  0
LINE
  8
0
  10
1.42721
  20
2.79221
  30
0
  11
1.34675
  21
2.76396
  31
0
  0
LINE
  8
0
  10
1.34675
  20
2.76396
  30
0
  11
1.26072
  21
2.74501
  31
0
  0
LINE
  8
0
  10
1.26072
  20
2.74501
  30
0
  11
1.0994
  21
2.69005
  31
0
  0
LINE
  8
0
  10
1.0994
  20
2.69005
  30
0
  11
0.92555
  21
2.65719
  31
0
  0
LINE
  8
0
  10
0.92555
  20
2.65719
  30
0
  11
0.74292
  21
2.64152
  31
0
  0
LINE
  8
0
  10
0.74292
  20
2.64152
  30
0
  11
0.66496
  21
2.78738
  31
0
  0
LINE
  8
0
  10
0.66496
  20
2.78738
  30
0
  11
0.77945
  21
2.93053
  31
0
  0
LINE
  8
0
  10
0.77945
  20
2.93053
  30
0
  11
0.90336
  21
3.05682
  31
0
  0
LINE
  8
0
  10
0.90336
  20
3.05682
  30
0
  11
1.03868
  21
3.16042
  31
0
  0
LINE
  8
0
  10
1.03868
  20
3.16042
  30
0
  11
1.10223
  21
3.22142
  31
0
  0
LINE
  8
0
  10
1.10223
  20
3.22142
  30
0
  11
1.17042
  21
3.27263
  31
0
  0
LINE
  8
0
  10
1.17042
  20
3.27263
  30
0
  11
1.15201
  21
3.41963
  31
0
  0
LINE
  8
0
  10
1.15201
  20
3.41963
  30
0
  11
1.15201
  21
3.41963
  31
0
  0
LINE
  8
0
  10
1.15201
  20
3.41963
  30
0
  11
1.06108
  21
3.53659
  31
0
  0
LINE
  8
0
  10
1.06108
  20
3.53659
  30
0
  11
0.97666
  21
3.52458
  31
0
  0
LINE
  8
0
  10
0.97666
  20
3.52458
  30
0
  11
0.88859
  21
3.52279
  31
0
  0
LINE
  8
0
  10
0.88859
  20
3.52279
  30
0
  11
0.71964
  21
3.50035
  31
0
  0
LINE
  8
0
  10
0.71964
  20
3.50035
  30
0
  11
0.54272
  21
3.50204
  31
0
  0
LINE
  8
0
  10
0.54272
  20
3.50204
  30
0
  11
0.36054
  21
3.5223
  31
0
  0
LINE
  8
0
  10
0.36054
  20
3.5223
  30
0
  11
0.31253
  21
3.68056
  31
0
  0
LINE
  8
0
  10
0.31253
  20
3.68056
  30
0
  11
0.45275
  21
3.79863
  31
0
  0
LINE
  8
0
  10
0.45275
  20
3.79863
  30
0
  11
0.59892
  21
3.89832
  31
0
  0
LINE
  8
0
  10
0.59892
  20
3.89832
  30
0
  11
0.75186
  21
3.97353
  31
0
  0
LINE
  8
0
  10
0.75186
  20
3.97353
  30
0
  11
0.82608
  21
4.02096
  31
0
  0
LINE
  8
0
  10
0.82608
  20
4.02096
  30
0
  11
0.90295
  21
4.05788
  31
0
  0
LINE
  8
0
  10
0.90295
  20
4.05788
  30
0
  11
0.91357
  21
4.20565
  31
0
  0
LINE
  8
0
  10
0.91357
  20
4.20565
  30
0
  11
0.91357
  21
4.20565
  31
0
  0
LINE
  8
0
  10
0.91357
  20
4.20565
  30
0
  11
0.84721
  21
4.3381
  31
0
  0
LINE
  8
0
  10
0.84721
  20
4.3381
  30
0
  11
0.76206
  21
4.34279
  31
0
  0
LINE
  8
0
  10
0.76206
  20
4.34279
  30
0
  11
0.67534
  21
4.35821
  31
0
  0
LINE
  8
0
  10
0.67534
  20
4.35821
  30
0
  11
0.50526
  21
4.36917
  31
0
  0
LINE
  8
0
  10
0.50526
  20
4.36917
  30
0
  11
0.33207
  21
4.40534
  31
0
  0
LINE
  8
0
  10
0.33207
  20
4.40534
  30
0
  11
0.15734
  21
4.46075
  31
0
  0
LINE
  8
0
  10
0.15734
  20
4.46075
  30
0
  11
0.14113
  21
4.62534
  31
0
  0
LINE
  8
0
  10
0.14113
  20
4.62534
  30
0
  11
0.30169
  21
4.71378
  31
0
  0
LINE
  8
0
  10
0.30169
  20
4.71378
  30
0
  11
0.4645
  21
4.78304
  31
0
  0
LINE
  8
0
  10
0.4645
  20
4.78304
  30
0
  11
0.62917
  21
4.82697
  31
0
  0
LINE
  8
0
  10
0.62917
  20
4.82697
  30
0
  11
0.71122
  21
4.85901
  31
0
  0
LINE
  8
0
  10
0.71122
  20
4.85901
  30
0
  11
0.79382
  21
4.88022
  31
0
  0
LINE
  8
0
  10
0.79382
  20
4.88022
  30
0
  11
0.83306
  21
5.02308
  31
0
  0
LINE
  8
0
  10
0.83306
  20
5.02308
  30
0
  11
0.83306
  21
5.02308
  31
0
  0
LINE
  8
0
  10
0.83306
  20
5.02308
  30
0
  11
0.79382
  21
5.16593
  31
0
  0
LINE
  8
0
  10
0.79382
  20
5.16593
  30
0
  11
0.71122
  21
5.18715
  31
0
  0
LINE
  8
0
  10
0.71122
  20
5.18715
  30
0
  11
0.62917
  21
5.21919
  31
0
  0
LINE
  8
0
  10
0.62917
  20
5.21919
  30
0
  11
0.4645
  21
5.26312
  31
0
  0
LINE
  8
0
  10
0.4645
  20
5.26312
  30
0
  11
0.30169
  21
5.33238
  31
0
  0
LINE
  8
0
  10
0.30169
  20
5.33238
  30
0
  11
0.14113
  21
5.42082
  31
0
  0
LINE
  8
0
  10
0.14113
  20
5.42082
  30
0
  11
0.15734
  21
5.5854
  31
0
  0
LINE
  8
0
  10
0.15734
  20
5.5854
  30
0
  11
0.33207
  21
5.64082
  31
0
  0
LINE
  8
0
  10
0.33207
  20
5.64082
  30
0
  11
0.50526
  21
5.67699
  31
0
  0
LINE
  8
0
  10
0.50526
  20
5.67699
  30
0
  11
0.67534
  21
5.68794
  31
0
  0
LINE
  8
0
  10
0.67534
  20
5.68794
  30
0
  11
0.76206
  21
5.70336
  31
0
  0
LINE
  8
0
  10
0.76206
  20
5.70336
  30
0
  11
0.84721
  21
5.70805
  31
0
  0
LINE
  8
0
  10
0.84721
  20
5.70805
  30
0
  11
0.91357
  21
5.84051
  31
0
  0
LINE
  8
0
  10
0.91357
  20
5.84051
  30
0
  11
0.91357
  21
5.84051
  31
0
  0
LINE
  8
0
  10
0.91357
  20
5.84051
  30
0
  11
0.90295
  21
5.98828
  31
0
  0
LINE
  8
0
  10
0.90295
  20
5.98828
  30
0
  11
0.82608
  21
6.0252
  31
0
  0
LINE
  8
0
  10
0.82608
  20
6.0252
  30
0
  11
0.75186
  21
6.07263
  31
0
  0
LINE
  8
0
  10
0.75186
  20
6.07263
  30
0
  11
0.59892
  21
6.14784
  31
0
  0
LINE
  8
0
  10
0.59892
  20
6.14784
  30
0
  11
0.45275
  21
6.24753
  31
0
  0
LINE
  8
0
  10
0.45275
  20
6.24753
  30
0
  11
0.31253
  21
6.36559
  31
0
  0
LINE
  8
0
  10
0.31253
  20
6.36559
  30
0
  11
0.36054
  21
6.52385
  31
0
  0
LINE
  8
0
  10
0.36054
  20
6.52385
  30
0
  11
0.54272
  21
6.54412
  31
0
  0
LINE
  8
0
  10
0.54272
  20
6.54412
  30
0
  11
0.71964
  21
6.5458
  31
0
  0
LINE
  8
0
  10
0.71964
  20
6.5458
  30
0
  11
0.88859
  21
6.52337
  31
0
  0
LINE
  8
0
  10
0.88859
  20
6.52337
  30
0
  11
0.97666
  21
6.52157
  31
0
  0
LINE
  8
0
  10
0.97666
  20
6.52157
  30
0
  11
1.06108
  21
6.50956
  31
0
  0
LINE
  8
0
  10
1.06108
  20
6.50956
  30
0
  11
1.15201
  21
6.62653
  31
0
  0
LINE
  8
0
  10
1.15201
  20
6.62653
  30
0
  11
1.15201
  21
6.62653
  31
0
  0
LINE
  8
0
  10
1.15201
  20
6.62653
  30
0
  11
1.17042
  21
6.77353
  31
0
  0
LINE
  8
0
  10
1.17042
  20
6.77353
  30
0
  11
1.10223
  21
6.82474
  31
0
  0
LINE
  8
0
  10
1.10223
  20
6.82474
  30
0
  11
1.03868
  21
6.88574
  31
0
  0
LINE
  8
0
  10
1.03868
  20
6.88574
  30
0
  11
0.90336
  21
6.98934
  31
0
  0
LINE
  8
0
  10
0.90336
  20
6.98934
  30
0
  11
0.77945
  21
7.11563
  31
0
  0
LINE
  8
0
  10
0.77945
  20
7.11563
  30
0
  11
0.66496
  21
7.25878
  31
0
  0
LINE
  8
0
  10
0.66496
  20
7.25878
  30
0
  11
0.74292
  21
7.40463
  31
0
  0
LINE
  8
0
  10
0.74292
  20
7.40463
  30
0
  11
0.92555
  21
7.38897
  31
0
  0
LINE
  8
0
  10
0.92555
  20
7.38897
  30
0
  11
1.0994
  21
7.3561
  31
0
  0
LINE
  8
0
  10
1.0994
  20
7.3561
  30
0
  11
1.26072
  21
7.30114
  31
0
  0
LINE
  8
0
  10
1.26072
  20
7.30114
  30
0
  11
1.34675
  21
7.2822
  31
0
  0
LINE
  8
0
  10
1.34675
  20
7.2822
  30
0
  11
1.42721
  21
7.25395
  31
0
  0
LINE
  8
0
  10
1.42721
  20
7.25395
  30
0
  11
1.53921
  21
7.35093
  31
0
  0
LINE
  8
0
  10
1.53921
  20
7.35093
  30
0
  11
1.53921
  21
7.35093
  31
0
  0
LINE
  8
0
  10
1.53921
  20
7.35093
  30
0
  11
1.58594
  21
7.49151
  31
0
  0
LINE
  8
0
  10
1.58594
  20
7.49151
  30
0
  11
1.52905
  21
7.55504
  31
0
  0
LINE
  8
0
  10
1.52905
  20
7.55504
  30
0
  11
1.47863
  21
7.62726
  31
0
  0
LINE
  8
0
  10
1.47863
  20
7.62726
  30
0
  11
1.36612
  21
7.75527
  31
0
  0
LINE
  8
0
  10
1.36612
  20
7.75527
  30
0
  11
1.26923
  21
7.90331
  31
0
  0
LINE
  8
0
  10
1.26923
  20
7.90331
  30
0
  11
1.18486
  21
8.06605
  31
0
  0
LINE
  8
0
  10
1.18486
  20
8.06605
  30
0
  11
1.28978
  21
8.19389
  31
0
  0
LINE
  8
0
  10
1.28978
  20
8.19389
  30
0
  11
1.46585
  21
8.1429
  31
0
  0
LINE
  8
0
  10
1.46585
  20
8.1429
  30
0
  11
1.62994
  21
8.07675
  31
0
  0
LINE
  8
0
  10
1.62994
  20
8.07675
  30
0
  11
1.77744
  21
7.99137
  31
0
  0
LINE
  8
0
  10
1.77744
  20
7.99137
  30
0
  11
1.85812
  21
7.95601
  31
0
  0
LINE
  8
0
  10
1.85812
  20
7.95601
  30
0
  11
1.93153
  21
7.9126
  31
0
  0
LINE
  8
0
  10
1.93153
  20
7.9126
  30
0
  11
2.06029
  21
7.98587
  31
0
  0
LINE
  8
0
  10
2.06029
  20
7.98587
  30
0
  11
2.06029
  21
7.98587
  31
0
  0
LINE
  8
0
  10
2.06029
  20
7.98587
  30
0
  11
2.13356
  21
8.11463
  31
0
  0
LINE
  8
0
  10
2.13356
  20
8.11463
  30
0
  11
2.09015
  21
8.18804
  31
0
  0
LINE
  8
0
  10
2.09015
  20
8.18804
  30
0
  11
2.05479
  21
8.26871
  31
0
  0
LINE
  8
0
  10
2.05479
  20
8.26871
  30
0
  11
1.96941
  21
8.41621
  31
0
  0
LINE
  8
0
  10
1.96941
  20
8.41621
  30
0
  11
1.90326
  21
8.58031
  31
0
  0
LINE
  8
0
  10
1.90326
  20
8.58031
  30
0
  11
1.85227
  21
8.75638
  31
0
  0
LINE
  8
0
  10
1.85227
  20
8.75638
  30
0
  11
1.98011
  21
8.86129
  31
0
  0
LINE
  8
0
  10
1.98011
  20
8.86129
  30
0
  11
2.14284
  21
8.77693
  31
0
  0
LINE
  8
0
  10
2.14284
  20
8.77693
  30
0
  11
2.29088
  21
8.68004
  31
0
  0
LINE
  8
0
  10
2.29088
  20
8.68004
  30
0
  11
2.41889
  21
8.56753
  31
0
  0
LINE
  8
0
  10
2.41889
  20
8.56753
  30
0
  11
2.49112
  21
8.5171
  31
0
  0
LINE
  8
0
  10
2.49112
  20
8.5171
  30
0
  11
2.55465
  21
8.46021
  31
0
  0
LINE
  8
0
  10
2.55465
  20
8.46021
  30
0
  11
2.69523
  21
8.50695
  31
0
  0
LINE
  8
0
  10
2.69523
  20
8.50695
  30
0
  11
2.69523
  21
8.50695
  31
0
  0
LINE
  8
0
  10
2.69523
  20
8.50695
  30
0
  11
2.79221
  21
8.61894
  31
0
  0
LINE
  8
0
  10
2.79221
  20
8.61894
  30
0
  11
2.76396
  21
8.69941
  31
0
  0
LINE
  8
0
  10
2.76396
  20
8.69941
  30
0
  11
2.74501
  21
8.78543
  31
0
  0
LINE
  8
0
  10
2.74501
  20
8.78543
  30
0
  11
2.69005
  21
8.94676
  31
0
  0
LINE
  8
0
  10
2.69005
  20
8.94676
  30
0
  11
2.65719
  21
9.12061
  31
0
  0
LINE
  8
0
  10
2.65719
  20
9.12061
  30
0
  11
2.64152
  21
9.30324
  31
0
  0
LINE
  8
0
  10
2.64152
  20
9.30324
  30
0
  11
2.78738
  21
9.3812
  31
0
  0
LINE
  8
0
  10
2.78738
  20
9.3812
  30
0
  11
2.93053
  21
9.26671
  31
0
  0
LINE
  8
0
  10
2.93053
  20
9.26671
  30
0
  11
3.05682
  21
9.1428
  31
0
  0
LINE
  8
0
  10
3.05682
  20
9.1428
  30
0
  11
3.16042
  21
9.00747
  31
0
  0
LINE
  8
0
  10
3.16042
  20
9.00747
  30
0
  11
3.22142
  21
8.94393
  31
0
  0
LINE
  8
0
  10
3.22142
  20
8.94393
  30
0
  11
3.27263
  21
8.87574
  31
0
  0
LINE
  8
0
  10
3.27263
  20
8.87574
  30
0
  11
3.41963
  21
8.89415
  31
0
  0
LINE
  8
0
  10
3.41963
  20
8.89415
  30
0
  11
3.41963
  21
8.89415
  31
0
  0
LINE
  8
0
  10
3.41963
  20
8.89415
  30
0
  11
3.53659
  21
8.98507
  31
0
  0
LINE
  8
0
  10
3.53659
  20
8.98507
  30
0
  11
3.52458
  21
9.0695
  31
0
  0
LINE
  8
0
  10
3.52458
  20
9.0695
  30
0
  11
3.52279
  21
9.15757
  31
0
  0
LINE
  8
0
  10
3.52279
  20
9.15757
  30
0
  11
3.50035
  21
9.32652
  31
0
  0
LINE
  8
0
  10
3.50035
  20
9.32652
  30
0
  11
3.50204
  21
9.50343
  31
0
  0
LINE
  8
0
  10
3.50204
  20
9.50343
  30
0
  11
3.5223
  21
9.68561
  31
0
  0
LINE
  8
0
  10
3.5223
  20
9.68561
  30
0
  11
3.68056
  21
9.73362
  31
0
  0
LINE
  8
0
  10
3.68056
  20
9.73362
  30
0
  11
3.79863
  21
9.5934
  31
0
  0
LINE
  8
0
  10
3.79863
  20
9.5934
  30
0
  11
3.89832
  21
9.44724
  31
0
  0
LINE
  8
0
  10
3.89832
  20
9.44724
  30
0
  11
3.97353
  21
9.2943
  31
0
  0
LINE
  8
0
  10
3.97353
  20
9.2943
  30
0
  11
4.02096
  21
9.22008
  31
0
  0
LINE
  8
0
  10
4.02096
  20
9.22008
  30
0
  11
4.05788
  21
9.1432
  31
0
  0
LINE
  8
0
  10
4.05788
  20
9.1432
  30
0
  11
4.20565
  21
9.13259
  31
0
  0
LINE
  8
0
  10
4.20565
  20
9.13259
  30
0
  11
4.20565
  21
9.13259
  31
0
  0
LINE
  8
0
  10
4.20565
  20
9.13259
  30
0
  11
4.3381
  21
9.19894
  31
0
  0
LINE
  8
0
  10
4.3381
  20
9.19894
  30
0
  11
4.34279
  21
9.28409
  31
0
  0
LINE
  8
0
  10
4.34279
  20
9.28409
  30
0
  11
4.35821
  21
9.37082
  31
0
  0
LINE
  8
0
  10
4.35821
  20
9.37082
  30
0
  11
4.36917
  21
9.5409
  31
0
  0
LINE
  8
0
  10
4.36917
  20
9.5409
  30
0
  11
4.40534
  21
9.71409
  31
0
  0
LINE
  8
0
  10
4.40534
  20
9.71409
  30
0
  11
4.46075
  21
9.88881
  31
0
  0
LINE
  8
0
  10
4.46075
  20
9.88881
  30
0
  11
4.62534
  21
9.90502
  31
0
  0
LINE
  8
0
  10
4.62534
  20
9.90502
  30
0
  11
4.71378
  21
9.74447
  31
0
  0
LINE
  8
0
  10
4.71378
  20
9.74447
  30
0
  11
4.78304
  21
9.58166
  31
0
  0
LINE
  8
0
  10
4.78304
  20
9.58166
  30
0
  11
4.82697
  21
9.41699
  31
0
  0
LINE
  8
0
  10
4.82697
  20
9.41699
  30
0
  11
4.85901
  21
9.33493
  31
0
  0
LINE
  8
0
  10
4.85901
  20
9.33493
  30
0
  11
4.88022
  21
9.25234
  31
0
  0
LINE
  8
0
  10
4.88022
  20
9.25234
  30
0
  11
5.02308
  21
9.2131
  31
0
  0
LINE
  8
0
  10
5.02308
  20
9.2131
  30
0
  11
5.02308
  21
9.2131
  31
0
  0
LINE
  8
0
  10
5.02308
  20
9.2131
  30
0
  11
5.16593
  21
9.25234
  31
0
  0
LINE
  8
0
  10
5.16593
  20
9.25234
  30
0
  11
5.18715
  21
9.33493
  31
0
  0
LINE
  8
0
  10
5.18715
  20
9.33493
  30
0
  11
5.21919
  21
9.41699
  31
0
  0
LINE
  8
0
  10
5.21919
  20
9.41699
  30
0
  11
5.26312
  21
9.58166
  31
0
  0
LINE
  8
0
  10
5.26312
  20
9.58166
  30
0
  11
5.33238
  21
9.74447
  31
0
  0
LINE
  8
0
  10
5.33238
  20
9.74447
  30
0
  11
5.42082
  21
9.90502
  31
0
  0
LINE
  8
0
  10
5.42082
  20
9.90502
  30
0
  11
5.5854
  21
9.88881
  31
0
  0
LINE
  8
0
  10
5.5854
  20
9.88881
  30
0
  11
5.64082
  21
9.71409
  31
0
  0
LINE
  8
0
  10
5.64082
  20
9.71409
  30
0
  11
5.67699
  21
9.5409
  31
0
  0
LINE
  8
0
  10
5.67699
  20
9.5409
  30
0
  11
5.68794
  21
9.37082
  31
0
  0
LINE
  8
0
  10
5.68794
  20
9.37082
  30
0
  11
5.70336
  21
9.28409
  31
0
  0
LINE
  8
0
  10
5.70336
  20
9.28409
  30
0
  11
5.70805
  21
9.19894
  31
0
  0
LINE
  8
0
  10
5.70805
  20
9.19894
  30
0
  11
5.84051
  21
9.13259
  31
0
  0
LINE
  8
0
  10
5.84051
  20
9.13259
  30
0
  11
5.84051
  21
9.13259
  31
0
  0
LINE
  8
0
  10
5.84051
  20
9.13259
  30
0
  11
5.98828
  21
9.1432
  31
0
  0
LINE
  8
0
  10
5.98828
  20
9.1432
  30
0
  11
6.0252
  21
9.22008
  31
0
  0
LINE
  8
0
  10
6.0252
  20
9.22008
  30
0
  11
6.07263
  21
9.2943
  31
0
  0
LINE
  8
0
  10
6.07263
  20
9.2943
  30
0
  11
6.14784
  21
9.44724
  31
0
  0
LINE
  8
0
  10
6.14784
  20
9.44724
  30
0
  11
6.24753
  21
9.5934
  31
0
  0
LINE
  8
0
  10
6.24753
  20
9.5934
  30
0
  11
6.36559
  21
9.73362
  31
0
  0
LINE
  8
0
  10
6.36559
  20
9.73362
  30
0
  11
6.52385
  21
9.68561
  31
0
  0
LINE
  8
0
  10
6.52385
  20
9.68561
  30
0
  11
6.54412
  21
9.50343
  31
0
  0
LINE
  8
0
  10
6.54412
  20
9.50343
  30
0
  11
6.5458
  21
9.32652
  31
0
  0
LINE
  8
0
  10
6.5458
  20
9.32652
  30
0
  11
6.52337
  21
9.15757
  31
0
  0
LINE
  8
0
  10
6.52337
  20
9.15757
  30
0
  11
6.52157
  21
9.0695
  31
0
  0
LINE
  8
0
  10
6.52157
  20
9.0695
  30
0
  11
6.50956
  21
8.98507
  31
0
  0
LINE
  8
0
  10
6.50956
  20
8.98507
  30
0
  11
6.62653
  21
8.89415
  31
0
  0
LINE
  8
0
  10
6.62653
  20
8.89415
  30
0
  11
6.62653
  21
8.89415
  31
0
  0
LINE
  8
0
  10
6.62653
  20
8.89415
  30
0
  11
6.77353
  21
8.87574
  31
0
  0
LINE
  8
0
  10
6.77353
  20
8.87574
  30
0
  11
6.82474
  21
8.94393
  31
0
  0
LINE
  8
0
  10
6.82474
  20
8.94393
  30
0
  11
6.88574
  21
9.00747
  31
0
  0
LINE
  8
0
  10
6.88574
  20
9.00747
  30
0
  11
6.98934
  21
9.1428
  31
0
  0
LINE
  8
0
  10
6.98934
  20
9.1428
  30
0
  11
7.11563
  21
9.26671
  31
0
  0
LINE
  8
0
  10
7.11563
  20
9.26671
  30
0
  11
7.25878
  21
9.3812
  31
0
  0
LINE
  8
0
  10
7.25878
  20
9.3812
  30
0
  11
7.40463
  21
9.30324
  31
0
  0
LINE
  8
0
  10
7.40463
  20
9.30324
  30
0
  11
7.38897
  21
9.12061
  31
0
  0
LINE
  8
0
  10
7.38897
  20
9.12061
  30
0
  11
7.3561
  21
8.94676
  31
0
  0
LINE
  8
0
  10
7.3561
  20
8.94676
  30
0
  11
7.30114
  21
8.78543
  31
0
  0
LINE
  8
0
  10
7.30114
  20
8.78543
  30
0
  11
7.2822
  21
8.69941
  31
0
  0
LINE
  8
0
  10
7.2822
  20
8.69941
  30
0
  11
7.25395
  21
8.61894
  31
0
  0
LINE
  8
0
  10
7.25395
  20
8.61894
  30
0
  11
7.35093
  21
8.50695
  31
0
  0
LINE
  8
0
  10
7.35093
  20
8.50695
  30
0
  11
7.35093
  21
8.50695
  31
0
  0
LINE
  8
0
  10
7.35093
  20
8.50695
  30
0
  11
7.49151
  21
8.46021
  31
0
  0
LINE
  8
0
  10
7.49151
  20
8.46021
  30
0
  11
7.55504
  21
8.5171
  31
0
  0
LINE
  8
0
  10
7.55504
  20
8.5171
  30
0
  11
7.62726
  21
8.56753
  31
0
  0
LINE
  8
0
  10
7.62726
  20
8.56753
  30
0
  11
7.75527
  21
8.68004
  31
0
  0
LINE
  8
0
  10
7.75527
  20
8.68004
  30
0
  11
7.90331
  21
8.77693
  31
0
  0
LINE
  8
0
  10
7.90331
  20
8.77693
  30
0
  11
8.06605
  21
8.86129
  31
0
  0
LINE
  8
0
  10
8.06605
  20
8.86129
  30
0
  11
8.19389
  21
8.75638
  31
0
  0
LINE
  8
0
  10
8.19389
  20
8.75638
  30
0
  11
8.1429
  21
8.58031
  31
0
  0
LINE
  8
0
  10
8.1429
  20
8.58031
  30
0
  11
8.07675
  21
8.41621
  31
0
  0
LINE
  8
0
  10
8.07675
  20
8.41621
  30
0
  11
7.99137
  21
8.26871
  31
0
  0
LINE
  8
0
  10
7.99137
  20
8.26871
  30
0
  11
7.95601
  21
8.18804
  31
0
  0
LINE
  8
0
  10
7.95601
  20
8.18804
  30
0
  11
7.9126
  21
8.11463
  31
0
  0
LINE
  8
0
  10
7.9126
  20
8.11463
  30
0
  11
7.98587
  21
7.98587
  31
0
  0
LINE
  8
0
  10
7.98587
  20
7.98587
  30
0
  11
7.98587
  21
7.98587
  31
0
  0
LINE
  8
0
  10
7.98587
  20
7.98587
  30
0
  11
8.11463
  21
7.9126
  31
0
  0
LINE
  8
0
  10
8.11463
  20
7.9126
  30
0
  11
8.18804
  21
7.95601
  31
0
  0
LINE
  8
0
  10
8.18804
  20
7.95601
  30
0
  11
8.26871
  21
7.99137
  31
0
  0
LINE
  8
0
  10
8.26871
  20
7.99137
  30
0
  11
8.41621
  21
8.07675
  31
0
  0
LINE
  8
0
  10
8.41621
  20
8.07675
  30
0
  11
8.58031
  21
8.1429
  31
0
  0
LINE
  8
0
  10
8.58031
  20
8.1429
  30
0
  11
8.75638
  21
8.19389
  31
0
  0
LINE
  8
0
  10
8.75638
  20
8.19389
  30
0
  11
8.86129
  21
8.06605
  31
0
  0
LINE
  8
0
  10
8.86129
  20
8.06605
  30
0
  11
8.77693
  21
7.90331
  31
0
  0
LINE
  8
0
  10
8.77693
  20
7.90331
  30
0
  11
8.68004
  21
7.75527
  31
0
  0
LINE
  8
0
  10
8.68004
  20
7.75527
  30
0
  11
8.56753
  21
7.62726
  31
0
  0
LINE
  8
0
  10
8.56753
  20
7.62726
  30
0
  11
8.5171
  21
7.55504
  31
0
  0
LINE
  8
0
  10
8.5171
  20
7.55504
  30
0
  11
8.46021
  21
7.49151
  31
0
  0
LINE
  8
0
  10
8.46021
  20
7.49151
  30
0
  11
8.50695
  21
7.35093
  31
0
  0
LINE
  8
0
  10
8.50695
  20
7.35093
  30
0
  11
8.50695
  21
7.35093
  31
0
  0
LINE
  8
0
  10
8.50695
  20
7.35093
  30
0
  11
8.61894
  21
7.25395
  31
0
  0
LINE
  8
0
  10
8.61894
  20
7.25395
  30
0
  11
8.69941
  21
7.2822
  31
0
  0
LINE
  8
0
  10
8.69941
  20
7.2822
  30
0
  11
8.78543
  21
7.30114
  31
0
  0
LINE
  8
0
  10
8.78543
  20
7.30114
  30
0
  11
8.94676
  21
7.3561
  31
0
  0
LINE
  8
0
  10
8.94676
  20
7.3561
  30
0
  11
9.12061
  21
7.38897
  31
0
  0
LINE
  8
0
  10
9.12061
  20
7.38897
  30
0
  11
9.30324
  21
7.40463
  31
0
  0
LINE
  8
0
  10
9.30324
  20
7.40463
  30
0
  11
9.3812
  21
7.25878
  31
0
  0
LINE
  8
0
  10
9.3812
  20
7.25878
  30
0
  11
9.26671
  21
7.11563
  31
0
  0
LINE
  8
0
  10
9.26671
  20
7.11563
  30
0
  11
9.1428
  21
6.98934
  31
0
  0
LINE
  8
0
  10
9.1428
  20
6.98934
  30
0
  11
9.00747
  21
6.88574
  31
0
  0
LINE
  8
0
  10
9.00747
  20
6.88574
  30
0
  11
8.94393
  21
6.82474
  31
0
  0
LINE
  8
0
  10
8.94393
  20
6.82474
  30
0
  11
8.87574
  21
6.77353
  31
0
  0
LINE
  8
0
  10
8.87574
  20
6.77353
  30
0
  11
8.89415
  21
6.62653
  31
0
  0
LINE
  8
0
  10
8.89415
  20
6.62653
  30
0
  11
8.89415
  21
6.62653
  31
0
  0
LINE
  8
0
  10
8.89415
  20
6.62653
  30
0
  11
8.98507
  21
6.50956
  31
0
  0
LINE
  8
0
  10
8.98507
  20
6.50956
  30
0
  11
9.0695
  21
6.52157
  31
0
  0
LINE
  8
0
  10
9.0695
  20
6.52157
  30
0
  11
9.15757
  21
6.52337
  31
0
  0
LINE
  8
0
  10
9.15757
  20
6.52337
  30
0
  11
9.32652
  21
6.5458
  31
0
  0
LINE
  8
0
  10
9.32652
  20
6.5458
  30
0
  11
9.50343
  21
6.54412
  31
0
  0
LINE
  8
0
  10
9.50343
  20
6.54412
  30
0
  11
9.68561
  21
6.52385
  31
0
  0
LINE
  8
0
  10
9.68561
  20
6.52385
  30
0
  11
9.73362
  21
6.36559
  31
0
  0
LINE
  8
0
  10
9.73362
  20
6.36559
  30
0
  11
9.5934
  21
6.24753
  31
0
  0
LINE
  8
0
  10
9.5934
  20
6.24753
  30
0
  11
9.44724
  21
6.14784
  31
0
  0
LINE
  8
0
  10
9.44724
  20
6.14784
  30
0
  11
9.2943
  21
6.07263
  31
0
  0
LINE
  8
0
  10
9.2943
  20
6.07263
  30
0
  11
9.22008
  21
6.0252
  31
0
  0
LINE
  8
0
  10
9.22008
  20
6.0252
  30
0
  11
9.1432
  21
5.98828
  31
0
  0
LINE
  8
0
  10
9.1432
  20
5.98828
  30
0
  11
9.13259
  21
5.84051
  31
0
  0
LINE
  8
0
  10
9.13259
  20
5.84051
  30
0
  11
9.13259
  21
5.84051
  31
0
  0
LINE
  8
0
  10
9.13259
  20
5.84051
  30
0
  11
9.19894
  21
5.70805
  31
0
  0
LINE
  8
0
  10
9.19894
  20
5.70805
  30
0
  11
9.28409
  21
5.70336
  31
0
  0
LINE
  8
0
  10
9.28409
  20
5.70336
  30
0
  11
9.37082
  21
5.68794
  31
0
  0
LINE
  8
0
  10
9.37082
  20
5.68794
  30
0
  11
9.5409
  21
5.67699
  31
0
  0
LINE
  8
0
  10
9.5409
  20
5.67699
  30
0
  11
9.71409
  21
5.64082
  31
0
  0
LINE
  8
0
  10
9.71409
  20
5.64082
  30
0
  11
9.88881
  21
5.5854
  31
0
  0
LINE
  8
0
  10
9.88881
  20
5.5854
  30
0
  11
9.90502
  21
5.42082
  31
0
  0
LINE
  8
0
  10
9.90502
  20
5.42082
  30
0
  11
9.74447
  21
5.33238
  31
0
  0
LINE
  8
0
  10
9.74447
  20
5.33238
  30
0
  11
9.58166
  21
5.26312
  31
0
  0
LINE
  8
0
  10
9.58166
  20
5.26312
  30
0
  11
9.41699
  21
5.21919
  31
0
  0
LINE
  8
0
  10
9.41699
  20
5.21919
  30
0
  11
9.33493
  21
5.18715
  31
0
  0
LINE
  8
0
  10
9.33493
  20
5.18715
  30
0
  11
9.25234
  21
5.16593
  31
0
  0
LINE
  8
0
  10
9.25234
  20
5.16593
  30
0
  11
9.2131
  21
5.02308
  31
0
  0
LINE
  8
0
  10
9.2131
  20
5.02308
  30
0
  11
9.2131
  21
5.02308
  31
0
  0
LINE
  8
0
  10
5.52308
  20
5.02308
  30
0
  11
5.52308
  21
5.02308
  31
0
  0
LINE
  8
0
  10
5.52308
  20
5.02308
  30
0
  11
5.50604
  21
5.15249
  31
0
  0
LINE
  8
0
  10
5.50604
  20
5.15249
  30
0
  11
5.45609
  21
5.27308
  31
0
  0
LINE
  8
0
  10
5.45609
  20
5.27308
  30
0
  11
5.37663
  21
5.37663
  31
0
  0
LINE
  8
0
  10
5.37663
  20
5.37663
  30
0
  11
5.27308
  21
5.45609
  31
0
  0
LINE
  8
0
  10
5.27308
  20
5.45609
  30
0
  11
5.15249
  21
5.50604
  31
0
  0
LINE
  8
0
  10
5.15249
  20
5.50604
  30
0
  11
5.02308
  21
5.52308
  31
0
  0
LINE
  8
0
  10
5.02308
  20
5.52308
  30
0
  11
4.89367
  21
5.50604
  31
0
  0
LINE
  8
0
  10
4.89367
  20
5.50604
  30
0
  11
4.77308
  21
5.45609
  31
0
  0
LINE
  8
0
  10
4.77308
  20
5.45609
  30
0
  11
4.66952
  21
5.37663
  31
0
  0
LINE
  8
0
  10
4.66952
  20
5.37663
  30
0
  11
4.59007
  21
5.27308
  31
0
  0
LINE
  8
0
  10
4.59007
  20
5.27308
  30
0
  11
4.54012
  21
5.15249
  31
0
  0
LINE
  8
0
  10
4.54012
  20
5.15249
  30
0
  11
4.52308
  21
5.02308
  31
0
  0
LINE
  8
0
  10
4.52308
  20
5.02308
  30
0
  11
4.54012
  21
4.89367
  31
0
  0
LINE
  8
0
  10
4.54012
  20
4.89367
  30
0
  11
4.59007
  21
4.77308
  31
0
  0
LINE
  8
0
  10
4.59007
  20
4.77308
  30
0
  11
4.66952
  21
4.66952
  31
0
  0
LINE
  8
0
  10
4.66952
  20
4.66952
  30
0
  11
4.77308
  21
4.59007
  31
0
  0
LINE
  8
0
  10
4.77308
  20
4.59007
  30
0
  11
4.89367
  21
4.54012
  31
0
  0
LINE
  8
0
  10
4.89367
  20
4.54012
  30
0
  11
5.02308
  21
4.52308
  31
0
  0
LINE
  8
0
  10
5.02308
  20
4.52308
  30
0
  11
5.15249
  21
4.54012
  31
0
  0
LINE
  8
0
  10
5.15249
  20
4.54012
  30
0
  11
5.27308
  21
4.59007
  31
0
  0
LINE
  8
0
  10
5.27308
  20
4.59007
  30
0
  11
5.37663
  21
4.66952
  31
0
  0
LINE
  8
0
  10
5.37663
  20
4.66952
  30
0
  11
5.45609
  21
4.77308
  31
0
  0
LINE
  8
0
  10
5.45609
  20
4.77308
  30
0
  11
5.50604
  21
4.89367
  31
0
  0
LINE
  8
0
  10
5.50604
  20
4.89367
  30
0
  11
5.52308
  21
5.02308
  31
0
  0
LINE
  8
0
  10
5.52308
  20
5.02308
  30
0
  11
5.52308
  21
5.02308
  31
0
  0
ENDSEC
  0
EOF
