  999
file created by gear template generator
  0
SECTION
  2
HEADER
  9
$ACADVER
  1
AC1006
  9
$INSBASE
  10
0.0
  20
0.0
  30
0.0
  9
$EXTMIN
  10
0.0
  20
0.0
  9
$EXTMAX
  10
10000.0
  20
10000.0
  0
ENDSEC
  0
SECTION
  2
ENTITIES
  0
LINE
  8
0
  10
9.35809
  20
4.92735
  30
0
  11
9.35809
  21
4.92735
  31
0
  0
LINE
  8
0
  10
9.35809
  20
4.92735
  30
0
  11
9.39147
  21
4.88178
  31
0
  0
LINE
  8
0
  10
9.39147
  20
4.88178
  30
0
  11
9.45998
  21
4.85874
  31
0
  0
LINE
  8
0
  10
9.45998
  20
4.85874
  30
0
  11
9.52909
  21
4.85297
  31
0
  0
LINE
  8
0
  10
9.52909
  20
4.85297
  30
0
  11
9.66555
  21
4.80142
  31
0
  0
LINE
  8
0
  10
9.66555
  20
4.80142
  30
0
  11
9.8018
  21
4.75394
  31
0
  0
LINE
  8
0
  10
9.8018
  20
4.75394
  30
0
  11
9.93675
  21
4.69181
  31
0
  0
LINE
  8
0
  10
9.93675
  20
4.69181
  30
0
  11
10.03695
  21
4.63698
  31
0
  0
LINE
  8
0
  10
10.03695
  20
4.63698
  30
0
  11
10.01656
  21
4.42999
  31
0
  0
LINE
  8
0
  10
10.01656
  20
4.42999
  30
0
  11
9.90759
  21
4.39576
  31
0
  0
LINE
  8
0
  10
9.90759
  20
4.39576
  30
0
  11
9.76311
  21
4.36115
  31
0
  0
LINE
  8
0
  10
9.76311
  20
4.36115
  30
0
  11
9.62022
  21
4.34116
  31
0
  0
LINE
  8
0
  10
9.62022
  20
4.34116
  30
0
  11
9.47633
  21
4.31723
  31
0
  0
LINE
  8
0
  10
9.47633
  20
4.31723
  30
0
  11
9.40742
  21
4.32505
  31
0
  0
LINE
  8
0
  10
9.40742
  20
4.32505
  30
0
  11
9.33573
  21
4.31582
  31
0
  0
LINE
  8
0
  10
9.33573
  20
4.31582
  30
0
  11
9.2941
  21
4.27764
  31
0
  0
LINE
  8
0
  10
9.2941
  20
4.27764
  30
0
  11
9.2556
  21
4.0841
  31
0
  0
LINE
  8
0
  10
9.2556
  20
4.0841
  30
0
  11
9.27945
  21
4.0329
  31
0
  0
LINE
  8
0
  10
9.27945
  20
4.0329
  30
0
  11
9.34215
  21
3.99694
  31
0
  0
LINE
  8
0
  10
9.34215
  20
3.99694
  30
0
  11
9.40881
  21
3.97779
  31
0
  0
LINE
  8
0
  10
9.40881
  20
3.97779
  30
0
  11
9.53258
  21
3.90061
  31
0
  0
LINE
  8
0
  10
9.53258
  20
3.90061
  30
0
  11
9.65695
  21
3.82746
  31
0
  0
LINE
  8
0
  10
9.65695
  20
3.82746
  30
0
  11
9.77719
  21
3.7402
  31
0
  0
LINE
  8
0
  10
9.77719
  20
3.7402
  30
0
  11
9.86477
  21
3.66687
  31
0
  0
LINE
  8
0
  10
9.86477
  20
3.66687
  30
0
  11
9.80439
  21
3.46783
  31
0
  0
LINE
  8
0
  10
9.80439
  20
3.46783
  30
0
  11
9.69083
  21
3.45552
  31
0
  0
LINE
  8
0
  10
9.69083
  20
3.45552
  30
0
  11
9.54238
  21
3.44977
  31
0
  0
LINE
  8
0
  10
9.54238
  20
3.44977
  30
0
  11
9.39833
  21
3.45804
  31
0
  0
LINE
  8
0
  10
9.39833
  20
3.45804
  30
0
  11
9.25254
  21
3.46263
  31
0
  0
LINE
  8
0
  10
9.25254
  20
3.46263
  30
0
  11
9.18648
  21
3.48375
  31
0
  0
LINE
  8
0
  10
9.18648
  20
3.48375
  30
0
  11
9.11437
  21
3.48868
  31
0
  0
LINE
  8
0
  10
9.11437
  20
3.48868
  30
0
  11
9.06609
  21
3.45935
  31
0
  0
LINE
  8
0
  10
9.06609
  20
3.45935
  30
0
  11
8.99057
  21
3.27705
  31
0
  0
LINE
  8
0
  10
8.99057
  20
3.27705
  30
0
  11
9.00398
  21
3.22217
  31
0
  0
LINE
  8
0
  10
9.00398
  20
3.22217
  30
0
  11
9.05845
  21
3.17467
  31
0
  0
LINE
  8
0
  10
9.05845
  20
3.17467
  30
0
  11
9.1201
  21
3.14289
  31
0
  0
LINE
  8
0
  10
9.1201
  20
3.14289
  30
0
  11
9.22644
  21
3.04305
  31
0
  0
LINE
  8
0
  10
9.22644
  20
3.04305
  30
0
  11
9.33415
  21
2.94703
  31
0
  0
LINE
  8
0
  10
9.33415
  20
2.94703
  30
0
  11
9.43505
  21
2.838
  31
0
  0
LINE
  8
0
  10
9.43505
  20
2.838
  30
0
  11
9.50664
  21
2.74899
  31
0
  0
LINE
  8
0
  10
9.50664
  20
2.74899
  30
0
  11
9.40859
  21
2.56556
  31
0
  0
LINE
  8
0
  10
9.40859
  20
2.56556
  30
0
  11
9.29481
  21
2.57564
  31
0
  0
LINE
  8
0
  10
9.29481
  20
2.57564
  30
0
  11
9.14809
  21
2.59895
  31
0
  0
LINE
  8
0
  10
9.14809
  20
2.59895
  30
0
  11
9.00842
  21
2.63517
  31
0
  0
LINE
  8
0
  10
9.00842
  20
2.63517
  30
0
  11
8.86632
  21
2.66812
  31
0
  0
LINE
  8
0
  10
8.86632
  20
2.66812
  30
0
  11
8.80565
  21
2.70171
  31
0
  0
LINE
  8
0
  10
8.80565
  20
2.70171
  30
0
  11
8.73589
  21
2.72062
  31
0
  0
LINE
  8
0
  10
8.73589
  20
2.72062
  30
0
  11
8.68282
  21
2.70128
  31
0
  0
LINE
  8
0
  10
8.68282
  20
2.70128
  30
0
  11
8.57319
  21
2.53721
  31
0
  0
LINE
  8
0
  10
8.57319
  20
2.53721
  30
0
  11
8.57563
  21
2.48077
  31
0
  0
LINE
  8
0
  10
8.57563
  20
2.48077
  30
0
  11
8.61979
  21
2.42356
  31
0
  0
LINE
  8
0
  10
8.61979
  20
2.42356
  30
0
  11
8.67405
  21
2.38036
  31
0
  0
LINE
  8
0
  10
8.67405
  20
2.38036
  30
0
  11
8.75887
  21
2.26169
  31
0
  0
LINE
  8
0
  10
8.75887
  20
2.26169
  30
0
  11
8.84578
  21
2.14651
  31
0
  0
LINE
  8
0
  10
8.84578
  20
2.14651
  30
0
  11
8.92347
  21
2.01988
  31
0
  0
LINE
  8
0
  10
8.92347
  20
2.01988
  30
0
  11
8.97632
  21
1.91862
  31
0
  0
LINE
  8
0
  10
8.97632
  20
1.91862
  30
0
  11
8.84437
  21
1.75784
  31
0
  0
LINE
  8
0
  10
8.84437
  20
1.75784
  30
0
  11
8.73474
  21
1.78992
  31
0
  0
LINE
  8
0
  10
8.73474
  20
1.78992
  30
0
  11
8.59539
  21
1.84141
  31
0
  0
LINE
  8
0
  10
8.59539
  20
1.84141
  30
0
  11
8.46547
  21
1.90418
  31
0
  0
LINE
  8
0
  10
8.46547
  20
1.90418
  30
0
  11
8.33253
  21
1.96422
  31
0
  0
LINE
  8
0
  10
8.33253
  20
1.96422
  30
0
  11
8.27958
  21
2.009
  31
0
  0
LINE
  8
0
  10
8.27958
  20
2.009
  30
0
  11
8.21485
  21
2.04116
  31
0
  0
LINE
  8
0
  10
8.21485
  20
2.04116
  30
0
  11
8.15902
  21
2.03254
  31
0
  0
LINE
  8
0
  10
8.15902
  20
2.03254
  30
0
  11
8.01949
  21
1.89301
  31
0
  0
LINE
  8
0
  10
8.01949
  20
1.89301
  30
0
  11
8.01087
  21
1.83718
  31
0
  0
LINE
  8
0
  10
8.01087
  20
1.83718
  30
0
  11
8.04302
  21
1.77245
  31
0
  0
LINE
  8
0
  10
8.04302
  20
1.77245
  30
0
  11
8.08781
  21
1.7195
  31
0
  0
LINE
  8
0
  10
8.08781
  20
1.7195
  30
0
  11
8.14785
  21
1.58656
  31
0
  0
LINE
  8
0
  10
8.14785
  20
1.58656
  30
0
  11
8.21062
  21
1.45664
  31
0
  0
LINE
  8
0
  10
8.21062
  20
1.45664
  30
0
  11
8.26211
  21
1.31729
  31
0
  0
LINE
  8
0
  10
8.26211
  20
1.31729
  30
0
  11
8.29419
  21
1.20766
  31
0
  0
LINE
  8
0
  10
8.29419
  20
1.20766
  30
0
  11
8.13341
  21
1.07571
  31
0
  0
LINE
  8
0
  10
8.13341
  20
1.07571
  30
0
  11
8.03215
  21
1.12856
  31
0
  0
LINE
  8
0
  10
8.03215
  20
1.12856
  30
0
  11
7.90552
  21
1.20625
  31
0
  0
LINE
  8
0
  10
7.90552
  20
1.20625
  30
0
  11
7.79034
  21
1.29316
  31
0
  0
LINE
  8
0
  10
7.79034
  20
1.29316
  30
0
  11
7.67167
  21
1.37798
  31
0
  0
LINE
  8
0
  10
7.67167
  20
1.37798
  30
0
  11
7.62847
  21
1.43224
  31
0
  0
LINE
  8
0
  10
7.62847
  20
1.43224
  30
0
  11
7.57126
  21
1.4764
  31
0
  0
LINE
  8
0
  10
7.57126
  20
1.4764
  30
0
  11
7.51482
  21
1.47884
  31
0
  0
LINE
  8
0
  10
7.51482
  20
1.47884
  30
0
  11
7.35075
  21
1.36921
  31
0
  0
LINE
  8
0
  10
7.35075
  20
1.36921
  30
0
  11
7.33141
  21
1.31614
  31
0
  0
LINE
  8
0
  10
7.33141
  20
1.31614
  30
0
  11
7.35031
  21
1.24638
  31
0
  0
LINE
  8
0
  10
7.35031
  20
1.24638
  30
0
  11
7.38391
  21
1.1857
  31
0
  0
LINE
  8
0
  10
7.38391
  20
1.1857
  30
0
  11
7.41686
  21
1.04361
  31
0
  0
LINE
  8
0
  10
7.41686
  20
1.04361
  30
0
  11
7.45308
  21
0.90394
  31
0
  0
LINE
  8
0
  10
7.45308
  20
0.90394
  30
0
  11
7.47639
  21
0.75722
  31
0
  0
LINE
  8
0
  10
7.47639
  20
0.75722
  30
0
  11
7.48647
  21
0.64344
  31
0
  0
LINE
  8
0
  10
7.48647
  20
0.64344
  30
0
  11
7.30304
  21
0.54539
  31
0
  0
LINE
  8
0
  10
7.30304
  20
0.54539
  30
0
  11
7.21403
  21
0.61698
  31
0
  0
LINE
  8
0
  10
7.21403
  20
0.61698
  30
0
  11
7.10499
  21
0.71788
  31
0
  0
LINE
  8
0
  10
7.10499
  20
0.71788
  30
0
  11
7.00898
  21
0.82559
  31
0
  0
LINE
  8
0
  10
7.00898
  20
0.82559
  30
0
  11
6.90914
  21
0.93193
  31
0
  0
LINE
  8
0
  10
6.90914
  20
0.93193
  30
0
  11
6.87736
  21
0.99358
  31
0
  0
LINE
  8
0
  10
6.87736
  20
0.99358
  30
0
  11
6.82986
  21
1.04805
  31
0
  0
LINE
  8
0
  10
6.82986
  20
1.04805
  30
0
  11
6.77498
  21
1.06146
  31
0
  0
LINE
  8
0
  10
6.77498
  20
1.06146
  30
0
  11
6.59268
  21
0.98594
  31
0
  0
LINE
  8
0
  10
6.59268
  20
0.98594
  30
0
  11
6.56335
  21
0.93766
  31
0
  0
LINE
  8
0
  10
6.56335
  20
0.93766
  30
0
  11
6.56828
  21
0.86555
  31
0
  0
LINE
  8
0
  10
6.56828
  20
0.86555
  30
0
  11
6.5894
  21
0.79949
  31
0
  0
LINE
  8
0
  10
6.5894
  20
0.79949
  30
0
  11
6.59399
  21
0.6537
  31
0
  0
LINE
  8
0
  10
6.59399
  20
0.6537
  30
0
  11
6.60226
  21
0.50965
  31
0
  0
LINE
  8
0
  10
6.60226
  20
0.50965
  30
0
  11
6.59651
  21
0.3612
  31
0
  0
LINE
  8
0
  10
6.59651
  20
0.3612
  30
0
  11
6.5842
  21
0.24764
  31
0
  0
LINE
  8
0
  10
6.5842
  20
0.24764
  30
0
  11
6.38516
  21
0.18726
  31
0
  0
LINE
  8
0
  10
6.38516
  20
0.18726
  30
0
  11
6.31183
  21
0.27484
  31
0
  0
LINE
  8
0
  10
6.31183
  20
0.27484
  30
0
  11
6.22457
  21
0.39507
  31
0
  0
LINE
  8
0
  10
6.22457
  20
0.39507
  30
0
  11
6.15142
  21
0.51945
  31
0
  0
LINE
  8
0
  10
6.15142
  20
0.51945
  30
0
  11
6.07424
  21
0.64322
  31
0
  0
LINE
  8
0
  10
6.07424
  20
0.64322
  30
0
  11
6.05509
  21
0.70988
  31
0
  0
LINE
  8
0
  10
6.05509
  20
0.70988
  30
0
  11
6.01913
  21
0.77258
  31
0
  0
LINE
  8
0
  10
6.01913
  20
0.77258
  30
0
  11
5.96793
  21
0.79643
  31
0
  0
LINE
  8
0
  10
5.96793
  20
0.79643
  30
0
  11
5.77439
  21
0.75793
  31
0
  0
LINE
  8
0
  10
5.77439
  20
0.75793
  30
0
  11
5.73621
  21
0.7163
  31
0
  0
LINE
  8
0
  10
5.73621
  20
0.7163
  30
0
  11
5.72698
  21
0.64461
  31
0
  0
LINE
  8
0
  10
5.72698
  20
0.64461
  30
0
  11
5.7348
  21
0.5757
  31
0
  0
LINE
  8
0
  10
5.7348
  20
0.5757
  30
0
  11
5.71087
  21
0.43181
  31
0
  0
LINE
  8
0
  10
5.71087
  20
0.43181
  30
0
  11
5.69088
  21
0.28892
  31
0
  0
LINE
  8
0
  10
5.69088
  20
0.28892
  30
0
  11
5.65627
  21
0.14444
  31
0
  0
LINE
  8
0
  10
5.65627
  20
0.14444
  30
0
  11
5.62204
  21
0.03547
  31
0
  0
LINE
  8
0
  10
5.62204
  20
0.03547
  30
0
  11
5.41505
  21
0.01508
  31
0
  0
LINE
  8
0
  10
5.41505
  20
0.01508
  30
0
  11
5.36022
  21
0.11528
  31
0
  0
LINE
  8
0
  10
5.36022
  20
0.11528
  30
0
  11
5.29809
  21
0.25023
  31
0
  0
LINE
  8
0
  10
5.29809
  20
0.25023
  30
0
  11
5.25061
  21
0.38648
  31
0
  0
LINE
  8
0
  10
5.25061
  20
0.38648
  30
0
  11
5.19906
  21
0.52294
  31
0
  0
LINE
  8
0
  10
5.19906
  20
0.52294
  30
0
  11
5.19328
  21
0.59205
  31
0
  0
LINE
  8
0
  10
5.19328
  20
0.59205
  30
0
  11
5.17025
  21
0.66056
  31
0
  0
LINE
  8
0
  10
5.17025
  20
0.66056
  30
0
  11
5.12468
  21
0.69394
  31
0
  0
LINE
  8
0
  10
5.12468
  20
0.69394
  30
0
  11
4.92735
  21
0.69394
  31
0
  0
LINE
  8
0
  10
4.92735
  20
0.69394
  30
0
  11
4.88178
  21
0.66056
  31
0
  0
LINE
  8
0
  10
4.88178
  20
0.66056
  30
0
  11
4.85874
  21
0.59205
  31
0
  0
LINE
  8
0
  10
4.85874
  20
0.59205
  30
0
  11
4.85297
  21
0.52294
  31
0
  0
LINE
  8
0
  10
4.85297
  20
0.52294
  30
0
  11
4.80142
  21
0.38648
  31
0
  0
LINE
  8
0
  10
4.80142
  20
0.38648
  30
0
  11
4.75394
  21
0.25023
  31
0
  0
LINE
  8
0
  10
4.75394
  20
0.25023
  30
0
  11
4.69181
  21
0.11528
  31
0
  0
LINE
  8
0
  10
4.69181
  20
0.11528
  30
0
  11
4.63698
  21
0.01508
  31
0
  0
LINE
  8
0
  10
4.63698
  20
0.01508
  30
0
  11
4.42999
  21
0.03547
  31
0
  0
LINE
  8
0
  10
4.42999
  20
0.03547
  30
0
  11
4.39576
  21
0.14444
  31
0
  0
LINE
  8
0
  10
4.39576
  20
0.14444
  30
0
  11
4.36115
  21
0.28892
  31
0
  0
LINE
  8
0
  10
4.36115
  20
0.28892
  30
0
  11
4.34116
  21
0.43181
  31
0
  0
LINE
  8
0
  10
4.34116
  20
0.43181
  30
0
  11
4.31723
  21
0.5757
  31
0
  0
LINE
  8
0
  10
4.31723
  20
0.5757
  30
0
  11
4.32505
  21
0.64461
  31
0
  0
LINE
  8
0
  10
4.32505
  20
0.64461
  30
0
  11
4.31582
  21
0.7163
  31
0
  0
LINE
  8
0
  10
4.31582
  20
0.7163
  30
0
  11
4.27764
  21
0.75793
  31
0
  0
LINE
  8
0
  10
4.27764
  20
0.75793
  30
0
  11
4.0841
  21
0.79643
  31
0
  0
LINE
  8
0
  10
4.0841
  20
0.79643
  30
0
  11
4.0329
  21
0.77258
  31
0
  0
LINE
  8
0
  10
4.0329
  20
0.77258
  30
0
  11
3.99694
  21
0.70988
  31
0
  0
LINE
  8
0
  10
3.99694
  20
0.70988
  30
0
  11
3.97779
  21
0.64322
  31
0
  0
LINE
  8
0
  10
3.97779
  20
0.64322
  30
0
  11
3.90061
  21
0.51945
  31
0
  0
LINE
  8
0
  10
3.90061
  20
0.51945
  30
0
  11
3.82746
  21
0.39507
  31
0
  0
LINE
  8
0
  10
3.82746
  20
0.39507
  30
0
  11
3.7402
  21
0.27484
  31
0
  0
LINE
  8
0
  10
3.7402
  20
0.27484
  30
0
  11
3.66687
  21
0.18726
  31
0
  0
LINE
  8
0
  10
3.66687
  20
0.18726
  30
0
  11
3.46783
  21
0.24764
  31
0
  0
LINE
  8
0
  10
3.46783
  20
0.24764
  30
0
  11
3.45552
  21
0.3612
  31
0
  0
LINE
  8
0
  10
3.45552
  20
0.3612
  30
0
  11
3.44977
  21
0.50965
  31
0
  0
LINE
  8
0
  10
3.44977
  20
0.50965
  30
0
  11
3.45804
  21
0.6537
  31
0
  0
LINE
  8
0
  10
3.45804
  20
0.6537
  30
0
  11
3.46263
  21
0.79949
  31
0
  0
LINE
  8
0
  10
3.46263
  20
0.79949
  30
0
  11
3.48375
  21
0.86555
  31
0
  0
LINE
  8
0
  10
3.48375
  20
0.86555
  30
0
  11
3.48868
  21
0.93766
  31
0
  0
LINE
  8
0
  10
3.48868
  20
0.93766
  30
0
  11
3.45935
  21
0.98594
  31
0
  0
LINE
  8
0
  10
3.45935
  20
0.98594
  30
0
  11
3.27705
  21
1.06146
  31
0
  0
LINE
  8
0
  10
3.27705
  20
1.06146
  30
0
  11
3.22217
  21
1.04805
  31
0
  0
LINE
  8
0
  10
3.22217
  20
1.04805
  30
0
  11
3.17467
  21
0.99358
  31
0
  0
LINE
  8
0
  10
3.17467
  20
0.99358
  30
0
  11
3.14289
  21
0.93193
  31
0
  0
LINE
  8
0
  10
3.14289
  20
0.93193
  30
0
  11
3.04305
  21
0.82559
  31
0
  0
LINE
  8
0
  10
3.04305
  20
0.82559
  30
0
  11
2.94703
  21
0.71788
  31
0
  0
LINE
  8
0
  10
2.94703
  20
0.71788
  30
0
  11
2.838
  21
0.61698
  31
0
  0
LINE
  8
0
  10
2.838
  20
0.61698
  30
0
  11
2.74899
  21
0.54539
  31
0
  0
LINE
  8
0
  10
2.74899
  20
0.54539
  30
0
  11
2.56556
  21
0.64344
  31
0
  0
LINE
  8
0
  10
2.56556
  20
0.64344
  30
0
  11
2.57564
  21
0.75722
  31
0
  0
LINE
  8
0
  10
2.57564
  20
0.75722
  30
0
  11
2.59895
  21
0.90394
  31
0
  0
LINE
  8
0
  10
2.59895
  20
0.90394
  30
0
  11
2.63517
  21
1.04361
  31
0
  0
LINE
  8
0
  10
2.63517
  20
1.04361
  30
0
  11
2.66812
  21
1.1857
  31
0
  0
LINE
  8
0
  10
2.66812
  20
1.1857
  30
0
  11
2.70171
  21
1.24638
  31
0
  0
LINE
  8
0
  10
2.70171
  20
1.24638
  30
0
  11
2.72062
  21
1.31614
  31
0
  0
LINE
  8
0
  10
2.72062
  20
1.31614
  30
0
  11
2.70128
  21
1.36921
  31
0
  0
LINE
  8
0
  10
2.70128
  20
1.36921
  30
0
  11
2.53721
  21
1.47884
  31
0
  0
LINE
  8
0
  10
2.53721
  20
1.47884
  30
0
  11
2.48077
  21
1.4764
  31
0
  0
LINE
  8
0
  10
2.48077
  20
1.4764
  30
0
  11
2.42356
  21
1.43224
  31
0
  0
LINE
  8
0
  10
2.42356
  20
1.43224
  30
0
  11
2.38036
  21
1.37798
  31
0
  0
LINE
  8
0
  10
2.38036
  20
1.37798
  30
0
  11
2.26169
  21
1.29316
  31
0
  0
LINE
  8
0
  10
2.26169
  20
1.29316
  30
0
  11
2.14651
  21
1.20625
  31
0
  0
LINE
  8
0
  10
2.14651
  20
1.20625
  30
0
  11
2.01988
  21
1.12856
  31
0
  0
LINE
  8
0
  10
2.01988
  20
1.12856
  30
0
  11
1.91862
  21
1.07571
  31
0
  0
LINE
  8
0
  10
1.91862
  20
1.07571
  30
0
  11
1.75784
  21
1.20766
  31
0
  0
LINE
  8
0
  10
1.75784
  20
1.20766
  30
0
  11
1.78992
  21
1.31729
  31
0
  0
LINE
  8
0
  10
1.78992
  20
1.31729
  30
0
  11
1.84141
  21
1.45664
  31
0
  0
LINE
  8
0
  10
1.84141
  20
1.45664
  30
0
  11
1.90418
  21
1.58656
  31
0
  0
LINE
  8
0
  10
1.90418
  20
1.58656
  30
0
  11
1.96422
  21
1.7195
  31
0
  0
LINE
  8
0
  10
1.96422
  20
1.7195
  30
0
  11
2.009
  21
1.77245
  31
0
  0
LINE
  8
0
  10
2.009
  20
1.77245
  30
0
  11
2.04116
  21
1.83718
  31
0
  0
LINE
  8
0
  10
2.04116
  20
1.83718
  30
0
  11
2.03254
  21
1.89301
  31
0
  0
LINE
  8
0
  10
2.03254
  20
1.89301
  30
0
  11
1.89301
  21
2.03254
  31
0
  0
LINE
  8
0
  10
1.89301
  20
2.03254
  30
0
  11
1.83718
  21
2.04116
  31
0
  0
LINE
  8
0
  10
1.83718
  20
2.04116
  30
0
  11
1.77245
  21
2.009
  31
0
  0
LINE
  8
0
  10
1.77245
  20
2.009
  30
0
  11
1.7195
  21
1.96422
  31
0
  0
LINE
  8
0
  10
1.7195
  20
1.96422
  30
0
  11
1.58656
  21
1.90418
  31
0
  0
LINE
  8
0
  10
1.58656
  20
1.90418
  30
0
  11
1.45664
  21
1.84141
  31
0
  0
LINE
  8
0
  10
1.45664
  20
1.84141
  30
0
  11
1.31729
  21
1.78992
  31
0
  0
LINE
  8
0
  10
1.31729
  20
1.78992
  30
0
  11
1.20766
  21
1.75784
  31
0
  0
LINE
  8
0
  10
1.20766
  20
1.75784
  30
0
  11
1.07571
  21
1.91862
  31
0
  0
LINE
  8
0
  10
1.07571
  20
1.91862
  30
0
  11
1.12856
  21
2.01988
  31
0
  0
LINE
  8
0
  10
1.12856
  20
2.01988
  30
0
  11
1.20625
  21
2.14651
  31
0
  0
LINE
  8
0
  10
1.20625
  20
2.14651
  30
0
  11
1.29316
  21
2.26169
  31
0
  0
LINE
  8
0
  10
1.29316
  20
2.26169
  30
0
  11
1.37798
  21
2.38036
  31
0
  0
LINE
  8
0
  10
1.37798
  20
2.38036
  30
0
  11
1.43224
  21
2.42356
  31
0
  0
LINE
  8
0
  10
1.43224
  20
2.42356
  30
0
  11
1.4764
  21
2.48077
  31
0
  0
LINE
  8
0
  10
1.4764
  20
2.48077
  30
0
  11
1.47884
  21
2.53721
  31
0
  0
LINE
  8
0
  10
1.47884
  20
2.53721
  30
0
  11
1.36921
  21
2.70128
  31
0
  0
LINE
  8
0
  10
1.36921
  20
2.70128
  30
0
  11
1.31614
  21
2.72062
  31
0
  0
LINE
  8
0
  10
1.31614
  20
2.72062
  30
0
  11
1.24638
  21
2.70171
  31
0
  0
LINE
  8
0
  10
1.24638
  20
2.70171
  30
0
  11
1.1857
  21
2.66812
  31
0
  0
LINE
  8
0
  10
1.1857
  20
2.66812
  30
0
  11
1.04361
  21
2.63517
  31
0
  0
LINE
  8
0
  10
1.04361
  20
2.63517
  30
0
  11
0.90394
  21
2.59895
  31
0
  0
LINE
  8
0
  10
0.90394
  20
2.59895
  30
0
  11
0.75722
  21
2.57564
  31
0
  0
LINE
  8
0
  10
0.75722
  20
2.57564
  30
0
  11
0.64344
  21
2.56556
  31
0
  0
LINE
  8
0
  10
0.64344
  20
2.56556
  30
0
  11
0.54539
  21
2.74899
  31
0
  0
LINE
  8
0
  10
0.54539
  20
2.74899
  30
0
  11
0.61698
  21
2.838
  31
0
  0
LINE
  8
0
  10
0.61698
  20
2.838
  30
0
  11
0.71788
  21
2.94703
  31
0
  0
LINE
  8
0
  10
0.71788
  20
2.94703
  30
0
  11
0.82559
  21
3.04305
  31
0
  0
LINE
  8
0
  10
0.82559
  20
3.04305
  30
0
  11
0.93193
  21
3.14289
  31
0
  0
LINE
  8
0
  10
0.93193
  20
3.14289
  30
0
  11
0.99358
  21
3.17467
  31
0
  0
LINE
  8
0
  10
0.99358
  20
3.17467
  30
0
  11
1.04805
  21
3.22217
  31
0
  0
LINE
  8
0
  10
1.04805
  20
3.22217
  30
0
  11
1.06146
  21
3.27705
  31
0
  0
LINE
  8
0
  10
1.06146
  20
3.27705
  30
0
  11
0.98594
  21
3.45935
  31
0
  0
LINE
  8
0
  10
0.98594
  20
3.45935
  30
0
  11
0.93766
  21
3.48868
  31
0
  0
LINE
  8
0
  10
0.93766
  20
3.48868
  30
0
  11
0.86555
  21
3.48375
  31
0
  0
LINE
  8
0
  10
0.86555
  20
3.48375
  30
0
  11
0.79949
  21
3.46263
  31
0
  0
LINE
  8
0
  10
0.79949
  20
3.46263
  30
0
  11
0.6537
  21
3.45804
  31
0
  0
LINE
  8
0
  10
0.6537
  20
3.45804
  30
0
  11
0.50965
  21
3.44977
  31
0
  0
LINE
  8
0
  10
0.50965
  20
3.44977
  30
0
  11
0.3612
  21
3.45552
  31
0
  0
LINE
  8
0
  10
0.3612
  20
3.45552
  30
0
  11
0.24764
  21
3.46783
  31
0
  0
LINE
  8
0
  10
0.24764
  20
3.46783
  30
0
  11
0.18726
  21
3.66687
  31
0
  0
LINE
  8
0
  10
0.18726
  20
3.66687
  30
0
  11
0.27484
  21
3.7402
  31
0
  0
LINE
  8
0
  10
0.27484
  20
3.7402
  30
0
  11
0.39507
  21
3.82746
  31
0
  0
LINE
  8
0
  10
0.39507
  20
3.82746
  30
0
  11
0.51945
  21
3.90061
  31
0
  0
LINE
  8
0
  10
0.51945
  20
3.90061
  30
0
  11
0.64322
  21
3.97779
  31
0
  0
LINE
  8
0
  10
0.64322
  20
3.97779
  30
0
  11
0.70988
  21
3.99694
  31
0
  0
LINE
  8
0
  10
0.70988
  20
3.99694
  30
0
  11
0.77258
  21
4.0329
  31
0
  0
LINE
  8
0
  10
0.77258
  20
4.0329
  30
0
  11
0.79643
  21
4.0841
  31
0
  0
LINE
  8
0
  10
0.79643
  20
4.0841
  30
0
  11
0.75793
  21
4.27764
  31
0
  0
LINE
  8
0
  10
0.75793
  20
4.27764
  30
0
  11
0.7163
  21
4.31582
  31
0
  0
LINE
  8
0
  10
0.7163
  20
4.31582
  30
0
  11
0.64461
  21
4.32505
  31
0
  0
LINE
  8
0
  10
0.64461
  20
4.32505
  30
0
  11
0.5757
  21
4.31723
  31
0
  0
LINE
  8
0
  10
0.5757
  20
4.31723
  30
0
  11
0.43181
  21
4.34116
  31
0
  0
LINE
  8
0
  10
0.43181
  20
4.34116
  30
0
  11
0.28892
  21
4.36115
  31
0
  0
LINE
  8
0
  10
0.28892
  20
4.36115
  30
0
  11
0.14444
  21
4.39576
  31
0
  0
LINE
  8
0
  10
0.14444
  20
4.39576
  30
0
  11
0.03547
  21
4.42999
  31
0
  0
LINE
  8
0
  10
0.03547
  20
4.42999
  30
0
  11
0.01508
  21
4.63698
  31
0
  0
LINE
  8
0
  10
0.01508
  20
4.63698
  30
0
  11
0.11528
  21
4.69181
  31
0
  0
LINE
  8
0
  10
0.11528
  20
4.69181
  30
0
  11
0.25023
  21
4.75394
  31
0
  0
LINE
  8
0
  10
0.25023
  20
4.75394
  30
0
  11
0.38648
  21
4.80142
  31
0
  0
LINE
  8
0
  10
0.38648
  20
4.80142
  30
0
  11
0.52294
  21
4.85297
  31
0
  0
LINE
  8
0
  10
0.52294
  20
4.85297
  30
0
  11
0.59205
  21
4.85874
  31
0
  0
LINE
  8
0
  10
0.59205
  20
4.85874
  30
0
  11
0.66056
  21
4.88178
  31
0
  0
LINE
  8
0
  10
0.66056
  20
4.88178
  30
0
  11
0.69394
  21
4.92735
  31
0
  0
LINE
  8
0
  10
0.69394
  20
4.92735
  30
0
  11
0.69394
  21
5.12468
  31
0
  0
LINE
  8
0
  10
0.69394
  20
5.12468
  30
0
  11
0.66056
  21
5.17025
  31
0
  0
LINE
  8
0
  10
0.66056
  20
5.17025
  30
0
  11
0.59205
  21
5.19328
  31
0
  0
LINE
  8
0
  10
0.59205
  20
5.19328
  30
0
  11
0.52294
  21
5.19906
  31
0
  0
LINE
  8
0
  10
0.52294
  20
5.19906
  30
0
  11
0.38648
  21
5.25061
  31
0
  0
LINE
  8
0
  10
0.38648
  20
5.25061
  30
0
  11
0.25023
  21
5.29809
  31
0
  0
LINE
  8
0
  10
0.25023
  20
5.29809
  30
0
  11
0.11528
  21
5.36022
  31
0
  0
LINE
  8
0
  10
0.11528
  20
5.36022
  30
0
  11
0.01508
  21
5.41505
  31
0
  0
LINE
  8
0
  10
0.01508
  20
5.41505
  30
0
  11
0.03547
  21
5.62204
  31
0
  0
LINE
  8
0
  10
0.03547
  20
5.62204
  30
0
  11
0.14444
  21
5.65627
  31
0
  0
LINE
  8
0
  10
0.14444
  20
5.65627
  30
0
  11
0.28892
  21
5.69088
  31
0
  0
LINE
  8
0
  10
0.28892
  20
5.69088
  30
0
  11
0.43181
  21
5.71087
  31
0
  0
LINE
  8
0
  10
0.43181
  20
5.71087
  30
0
  11
0.5757
  21
5.7348
  31
0
  0
LINE
  8
0
  10
0.5757
  20
5.7348
  30
0
  11
0.64461
  21
5.72698
  31
0
  0
LINE
  8
0
  10
0.64461
  20
5.72698
  30
0
  11
0.7163
  21
5.73621
  31
0
  0
LINE
  8
0
  10
0.7163
  20
5.73621
  30
0
  11
0.75793
  21
5.77439
  31
0
  0
LINE
  8
0
  10
0.75793
  20
5.77439
  30
0
  11
0.79643
  21
5.96793
  31
0
  0
LINE
  8
0
  10
0.79643
  20
5.96793
  30
0
  11
0.77258
  21
6.01913
  31
0
  0
LINE
  8
0
  10
0.77258
  20
6.01913
  30
0
  11
0.70988
  21
6.05509
  31
0
  0
LINE
  8
0
  10
0.70988
  20
6.05509
  30
0
  11
0.64322
  21
6.07424
  31
0
  0
LINE
  8
0
  10
0.64322
  20
6.07424
  30
0
  11
0.51945
  21
6.15142
  31
0
  0
LINE
  8
0
  10
0.51945
  20
6.15142
  30
0
  11
0.39507
  21
6.22457
  31
0
  0
LINE
  8
0
  10
0.39507
  20
6.22457
  30
0
  11
0.27484
  21
6.31183
  31
0
  0
LINE
  8
0
  10
0.27484
  20
6.31183
  30
0
  11
0.18726
  21
6.38516
  31
0
  0
LINE
  8
0
  10
0.18726
  20
6.38516
  30
0
  11
0.24764
  21
6.5842
  31
0
  0
LINE
  8
0
  10
0.24764
  20
6.5842
  30
0
  11
0.3612
  21
6.59651
  31
0
  0
LINE
  8
0
  10
0.3612
  20
6.59651
  30
0
  11
0.50965
  21
6.60226
  31
0
  0
LINE
  8
0
  10
0.50965
  20
6.60226
  30
0
  11
0.6537
  21
6.59399
  31
0
  0
LINE
  8
0
  10
0.6537
  20
6.59399
  30
0
  11
0.79949
  21
6.5894
  31
0
  0
LINE
  8
0
  10
0.79949
  20
6.5894
  30
0
  11
0.86555
  21
6.56828
  31
0
  0
LINE
  8
0
  10
0.86555
  20
6.56828
  30
0
  11
0.93766
  21
6.56335
  31
0
  0
LINE
  8
0
  10
0.93766
  20
6.56335
  30
0
  11
0.98594
  21
6.59268
  31
0
  0
LINE
  8
0
  10
0.98594
  20
6.59268
  30
0
  11
1.06146
  21
6.77498
  31
0
  0
LINE
  8
0
  10
1.06146
  20
6.77498
  30
0
  11
1.04805
  21
6.82986
  31
0
  0
LINE
  8
0
  10
1.04805
  20
6.82986
  30
0
  11
0.99358
  21
6.87736
  31
0
  0
LINE
  8
0
  10
0.99358
  20
6.87736
  30
0
  11
0.93193
  21
6.90914
  31
0
  0
LINE
  8
0
  10
0.93193
  20
6.90914
  30
0
  11
0.82559
  21
7.00898
  31
0
  0
LINE
  8
0
  10
0.82559
  20
7.00898
  30
0
  11
0.71788
  21
7.10499
  31
0
  0
LINE
  8
0
  10
0.71788
  20
7.10499
  30
0
  11
0.61698
  21
7.21403
  31
0
  0
LINE
  8
0
  10
0.61698
  20
7.21403
  30
0
  11
0.54539
  21
7.30304
  31
0
  0
LINE
  8
0
  10
0.54539
  20
7.30304
  30
0
  11
0.64344
  21
7.48647
  31
0
  0
LINE
  8
0
  10
0.64344
  20
7.48647
  30
0
  11
0.75722
  21
7.47639
  31
0
  0
LINE
  8
0
  10
0.75722
  20
7.47639
  30
0
  11
0.90394
  21
7.45308
  31
0
  0
LINE
  8
0
  10
0.90394
  20
7.45308
  30
0
  11
1.04361
  21
7.41686
  31
0
  0
LINE
  8
0
  10
1.04361
  20
7.41686
  30
0
  11
1.1857
  21
7.38391
  31
0
  0
LINE
  8
0
  10
1.1857
  20
7.38391
  30
0
  11
1.24638
  21
7.35031
  31
0
  0
LINE
  8
0
  10
1.24638
  20
7.35031
  30
0
  11
1.31614
  21
7.33141
  31
0
  0
LINE
  8
0
  10
1.31614
  20
7.33141
  30
0
  11
1.36921
  21
7.35075
  31
0
  0
LINE
  8
0
  10
1.36921
  20
7.35075
  30
0
  11
1.47884
  21
7.51482
  31
0
  0
LINE
  8
0
  10
1.47884
  20
7.51482
  30
0
  11
1.4764
  21
7.57126
  31
0
  0
LINE
  8
0
  10
1.4764
  20
7.57126
  30
0
  11
1.43224
  21
7.62847
  31
0
  0
LINE
  8
0
  10
1.43224
  20
7.62847
  30
0
  11
1.37798
  21
7.67167
  31
0
  0
LINE
  8
0
  10
1.37798
  20
7.67167
  30
0
  11
1.29316
  21
7.79034
  31
0
  0
LINE
  8
0
  10
1.29316
  20
7.79034
  30
0
  11
1.20625
  21
7.90552
  31
0
  0
LINE
  8
0
  10
1.20625
  20
7.90552
  30
0
  11
1.12856
  21
8.03215
  31
0
  0
LINE
  8
0
  10
1.12856
  20
8.03215
  30
0
  11
1.07571
  21
8.13341
  31
0
  0
LINE
  8
0
  10
1.07571
  20
8.13341
  30
0
  11
1.20766
  21
8.29419
  31
0
  0
LINE
  8
0
  10
1.20766
  20
8.29419
  30
0
  11
1.31729
  21
8.26211
  31
0
  0
LINE
  8
0
  10
1.31729
  20
8.26211
  30
0
  11
1.45664
  21
8.21062
  31
0
  0
LINE
  8
0
  10
1.45664
  20
8.21062
  30
0
  11
1.58656
  21
8.14785
  31
0
  0
LINE
  8
0
  10
1.58656
  20
8.14785
  30
0
  11
1.7195
  21
8.08781
  31
0
  0
LINE
  8
0
  10
1.7195
  20
8.08781
  30
0
  11
1.77245
  21
8.04302
  31
0
  0
LINE
  8
0
  10
1.77245
  20
8.04302
  30
0
  11
1.83718
  21
8.01087
  31
0
  0
LINE
  8
0
  10
1.83718
  20
8.01087
  30
0
  11
1.89301
  21
8.01949
  31
0
  0
LINE
  8
0
  10
1.89301
  20
8.01949
  30
0
  11
2.03254
  21
8.15902
  31
0
  0
LINE
  8
0
  10
2.03254
  20
8.15902
  30
0
  11
2.04116
  21
8.21485
  31
0
  0
LINE
  8
0
  10
2.04116
  20
8.21485
  30
0
  11
2.009
  21
8.27958
  31
0
  0
LINE
  8
0
  10
2.009
  20
8.27958
  30
0
  11
1.96422
  21
8.33253
  31
0
  0
LINE
  8
0
  10
1.96422
  20
8.33253
  30
0
  11
1.90418
  21
8.46547
  31
0
  0
LINE
  8
0
  10
1.90418
  20
8.46547
  30
0
  11
1.84141
  21
8.59539
  31
0
  0
LINE
  8
0
  10
1.84141
  20
8.59539
  30
0
  11
1.78992
  21
8.73474
  31
0
  0
LINE
  8
0
  10
1.78992
  20
8.73474
  30
0
  11
1.75784
  21
8.84437
  31
0
  0
LINE
  8
0
  10
1.75784
  20
8.84437
  30
0
  11
1.91862
  21
8.97632
  31
0
  0
LINE
  8
0
  10
1.91862
  20
8.97632
  30
0
  11
2.01988
  21
8.92347
  31
0
  0
LINE
  8
0
  10
2.01988
  20
8.92347
  30
0
  11
2.14651
  21
8.84578
  31
0
  0
LINE
  8
0
  10
2.14651
  20
8.84578
  30
0
  11
2.26169
  21
8.75887
  31
0
  0
LINE
  8
0
  10
2.26169
  20
8.75887
  30
0
  11
2.38036
  21
8.67405
  31
0
  0
LINE
  8
0
  10
2.38036
  20
8.67405
  30
0
  11
2.42356
  21
8.61979
  31
0
  0
LINE
  8
0
  10
2.42356
  20
8.61979
  30
0
  11
2.48077
  21
8.57563
  31
0
  0
LINE
  8
0
  10
2.48077
  20
8.57563
  30
0
  11
2.53721
  21
8.57319
  31
0
  0
LINE
  8
0
  10
2.53721
  20
8.57319
  30
0
  11
2.70128
  21
8.68282
  31
0
  0
LINE
  8
0
  10
2.70128
  20
8.68282
  30
0
  11
2.72062
  21
8.73589
  31
0
  0
LINE
  8
0
  10
2.72062
  20
8.73589
  30
0
  11
2.70171
  21
8.80565
  31
0
  0
LINE
  8
0
  10
2.70171
  20
8.80565
  30
0
  11
2.66812
  21
8.86632
  31
0
  0
LINE
  8
0
  10
2.66812
  20
8.86632
  30
0
  11
2.63517
  21
9.00842
  31
0
  0
LINE
  8
0
  10
2.63517
  20
9.00842
  30
0
  11
2.59895
  21
9.14809
  31
0
  0
LINE
  8
0
  10
2.59895
  20
9.14809
  30
0
  11
2.57564
  21
9.29481
  31
0
  0
LINE
  8
0
  10
2.57564
  20
9.29481
  30
0
  11
2.56556
  21
9.40859
  31
0
  0
LINE
  8
0
  10
2.56556
  20
9.40859
  30
0
  11
2.74899
  21
9.50664
  31
0
  0
LINE
  8
0
  10
2.74899
  20
9.50664
  30
0
  11
2.838
  21
9.43505
  31
0
  0
LINE
  8
0
  10
2.838
  20
9.43505
  30
0
  11
2.94703
  21
9.33415
  31
0
  0
LINE
  8
0
  10
2.94703
  20
9.33415
  30
0
  11
3.04305
  21
9.22644
  31
0
  0
LINE
  8
0
  10
3.04305
  20
9.22644
  30
0
  11
3.14289
  21
9.1201
  31
0
  0
LINE
  8
0
  10
3.14289
  20
9.1201
  30
0
  11
3.17467
  21
9.05845
  31
0
  0
LINE
  8
0
  10
3.17467
  20
9.05845
  30
0
  11
3.22217
  21
9.00398
  31
0
  0
LINE
  8
0
  10
3.22217
  20
9.00398
  30
0
  11
3.27705
  21
8.99057
  31
0
  0
LINE
  8
0
  10
3.27705
  20
8.99057
  30
0
  11
3.45935
  21
9.06609
  31
0
  0
LINE
  8
0
  10
3.45935
  20
9.06609
  30
0
  11
3.48868
  21
9.11437
  31
0
  0
LINE
  8
0
  10
3.48868
  20
9.11437
  30
0
  11
3.48375
  21
9.18648
  31
0
  0
LINE
  8
0
  10
3.48375
  20
9.18648
  30
0
  11
3.46263
  21
9.25254
  31
0
  0
LINE
  8
0
  10
3.46263
  20
9.25254
  30
0
  11
3.45804
  21
9.39833
  31
0
  0
LINE
  8
0
  10
3.45804
  20
9.39833
  30
0
  11
3.44977
  21
9.54238
  31
0
  0
LINE
  8
0
  10
3.44977
  20
9.54238
  30
0
  11
3.45552
  21
9.69083
  31
0
  0
LINE
  8
0
  10
3.45552
  20
9.69083
  30
0
  11
3.46783
  21
9.80439
  31
0
  0
LINE
  8
0
  10
3.46783
  20
9.80439
  30
0
  11
3.66687
  21
9.86477
  31
0
  0
LINE
  8
0
  10
3.66687
  20
9.86477
  30
0
  11
3.7402
  21
9.77719
  31
0
  0
LINE
  8
0
  10
3.7402
  20
9.77719
  30
0
  11
3.82746
  21
9.65695
  31
0
  0
LINE
  8
0
  10
3.82746
  20
9.65695
  30
0
  11
3.90061
  21
9.53258
  31
0
  0
LINE
  8
0
  10
3.90061
  20
9.53258
  30
0
  11
3.97779
  21
9.40881
  31
0
  0
LINE
  8
0
  10
3.97779
  20
9.40881
  30
0
  11
3.99694
  21
9.34215
  31
0
  0
LINE
  8
0
  10
3.99694
  20
9.34215
  30
0
  11
4.0329
  21
9.27945
  31
0
  0
LINE
  8
0
  10
4.0329
  20
9.27945
  30
0
  11
4.0841
  21
9.2556
  31
0
  0
LINE
  8
0
  10
4.0841
  20
9.2556
  30
0
  11
4.27764
  21
9.2941
  31
0
  0
LINE
  8
0
  10
4.27764
  20
9.2941
  30
0
  11
4.31582
  21
9.33573
  31
0
  0
LINE
  8
0
  10
4.31582
  20
9.33573
  30
0
  11
4.32505
  21
9.40742
  31
0
  0
LINE
  8
0
  10
4.32505
  20
9.40742
  30
0
  11
4.31723
  21
9.47633
  31
0
  0
LINE
  8
0
  10
4.31723
  20
9.47633
  30
0
  11
4.34116
  21
9.62022
  31
0
  0
LINE
  8
0
  10
4.34116
  20
9.62022
  30
0
  11
4.36115
  21
9.76311
  31
0
  0
LINE
  8
0
  10
4.36115
  20
9.76311
  30
0
  11
4.39576
  21
9.90759
  31
0
  0
LINE
  8
0
  10
4.39576
  20
9.90759
  30
0
  11
4.42999
  21
10.01656
  31
0
  0
LINE
  8
0
  10
4.42999
  20
10.01656
  30
0
  11
4.63698
  21
10.03695
  31
0
  0
LINE
  8
0
  10
4.63698
  20
10.03695
  30
0
  11
4.69181
  21
9.93675
  31
0
  0
LINE
  8
0
  10
4.69181
  20
9.93675
  30
0
  11
4.75394
  21
9.8018
  31
0
  0
LINE
  8
0
  10
4.75394
  20
9.8018
  30
0
  11
4.80142
  21
9.66555
  31
0
  0
LINE
  8
0
  10
4.80142
  20
9.66555
  30
0
  11
4.85297
  21
9.52909
  31
0
  0
LINE
  8
0
  10
4.85297
  20
9.52909
  30
0
  11
4.85874
  21
9.45998
  31
0
  0
LINE
  8
0
  10
4.85874
  20
9.45998
  30
0
  11
4.88178
  21
9.39147
  31
0
  0
LINE
  8
0
  10
4.88178
  20
9.39147
  30
0
  11
4.92735
  21
9.35809
  31
0
  0
LINE
  8
0
  10
4.92735
  20
9.35809
  30
0
  11
5.12468
  21
9.35809
  31
0
  0
LINE
  8
0
  10
5.12468
  20
9.35809
  30
0
  11
5.17025
  21
9.39147
  31
0
  0
LINE
  8
0
  10
5.17025
  20
9.39147
  30
0
  11
5.19328
  21
9.45998
  31
0
  0
LINE
  8
0
  10
5.19328
  20
9.45998
  30
0
  11
5.19906
  21
9.52909
  31
0
  0
LINE
  8
0
  10
5.19906
  20
9.52909
  30
0
  11
5.25061
  21
9.66555
  31
0
  0
LINE
  8
0
  10
5.25061
  20
9.66555
  30
0
  11
5.29809
  21
9.8018
  31
0
  0
LINE
  8
0
  10
5.29809
  20
9.8018
  30
0
  11
5.36022
  21
9.93675
  31
0
  0
LINE
  8
0
  10
5.36022
  20
9.93675
  30
0
  11
5.41505
  21
10.03695
  31
0
  0
LINE
  8
0
  10
5.41505
  20
10.03695
  30
0
  11
5.62204
  21
10.01656
  31
0
  0
LINE
  8
0
  10
5.62204
  20
10.01656
  30
0
  11
5.65627
  21
9.90759
  31
0
  0
LINE
  8
0
  10
5.65627
  20
9.90759
  30
0
  11
5.69088
  21
9.76311
  31
0
  0
LINE
  8
0
  10
5.69088
  20
9.76311
  30
0
  11
5.71087
  21
9.62022
  31
0
  0
LINE
  8
0
  10
5.71087
  20
9.62022
  30
0
  11
5.7348
  21
9.47633
  31
0
  0
LINE
  8
0
  10
5.7348
  20
9.47633
  30
0
  11
5.72698
  21
9.40742
  31
0
  0
LINE
  8
0
  10
5.72698
  20
9.40742
  30
0
  11
5.73621
  21
9.33573
  31
0
  0
LINE
  8
0
  10
5.73621
  20
9.33573
  30
0
  11
5.77439
  21
9.2941
  31
0
  0
LINE
  8
0
  10
5.77439
  20
9.2941
  30
0
  11
5.96793
  21
9.2556
  31
0
  0
LINE
  8
0
  10
5.96793
  20
9.2556
  30
0
  11
6.01913
  21
9.27945
  31
0
  0
LINE
  8
0
  10
6.01913
  20
9.27945
  30
0
  11
6.05509
  21
9.34215
  31
0
  0
LINE
  8
0
  10
6.05509
  20
9.34215
  30
0
  11
6.07424
  21
9.40881
  31
0
  0
LINE
  8
0
  10
6.07424
  20
9.40881
  30
0
  11
6.15142
  21
9.53258
  31
0
  0
LINE
  8
0
  10
6.15142
  20
9.53258
  30
0
  11
6.22457
  21
9.65695
  31
0
  0
LINE
  8
0
  10
6.22457
  20
9.65695
  30
0
  11
6.31183
  21
9.77719
  31
0
  0
LINE
  8
0
  10
6.31183
  20
9.77719
  30
0
  11
6.38516
  21
9.86477
  31
0
  0
LINE
  8
0
  10
6.38516
  20
9.86477
  30
0
  11
6.5842
  21
9.80439
  31
0
  0
LINE
  8
0
  10
6.5842
  20
9.80439
  30
0
  11
6.59651
  21
9.69083
  31
0
  0
LINE
  8
0
  10
6.59651
  20
9.69083
  30
0
  11
6.60226
  21
9.54238
  31
0
  0
LINE
  8
0
  10
6.60226
  20
9.54238
  30
0
  11
6.59399
  21
9.39833
  31
0
  0
LINE
  8
0
  10
6.59399
  20
9.39833
  30
0
  11
6.5894
  21
9.25254
  31
0
  0
LINE
  8
0
  10
6.5894
  20
9.25254
  30
0
  11
6.56828
  21
9.18648
  31
0
  0
LINE
  8
0
  10
6.56828
  20
9.18648
  30
0
  11
6.56335
  21
9.11437
  31
0
  0
LINE
  8
0
  10
6.56335
  20
9.11437
  30
0
  11
6.59268
  21
9.06609
  31
0
  0
LINE
  8
0
  10
6.59268
  20
9.06609
  30
0
  11
6.77498
  21
8.99057
  31
0
  0
LINE
  8
0
  10
6.77498
  20
8.99057
  30
0
  11
6.82986
  21
9.00398
  31
0
  0
LINE
  8
0
  10
6.82986
  20
9.00398
  30
0
  11
6.87736
  21
9.05845
  31
0
  0
LINE
  8
0
  10
6.87736
  20
9.05845
  30
0
  11
6.90914
  21
9.1201
  31
0
  0
LINE
  8
0
  10
6.90914
  20
9.1201
  30
0
  11
7.00898
  21
9.22644
  31
0
  0
LINE
  8
0
  10
7.00898
  20
9.22644
  30
0
  11
7.10499
  21
9.33415
  31
0
  0
LINE
  8
0
  10
7.10499
  20
9.33415
  30
0
  11
7.21403
  21
9.43505
  31
0
  0
LINE
  8
0
  10
7.21403
  20
9.43505
  30
0
  11
7.30304
  21
9.50664
  31
0
  0
LINE
  8
0
  10
7.30304
  20
9.50664
  30
0
  11
7.48647
  21
9.40859
  31
0
  0
LINE
  8
0
  10
7.48647
  20
9.40859
  30
0
  11
7.47639
  21
9.29481
  31
0
  0
LINE
  8
0
  10
7.47639
  20
9.29481
  30
0
  11
7.45308
  21
9.14809
  31
0
  0
LINE
  8
0
  10
7.45308
  20
9.14809
  30
0
  11
7.41686
  21
9.00842
  31
0
  0
LINE
  8
0
  10
7.41686
  20
9.00842
  30
0
  11
7.38391
  21
8.86632
  31
0
  0
LINE
  8
0
  10
7.38391
  20
8.86632
  30
0
  11
7.35031
  21
8.80565
  31
0
  0
LINE
  8
0
  10
7.35031
  20
8.80565
  30
0
  11
7.33141
  21
8.73589
  31
0
  0
LINE
  8
0
  10
7.33141
  20
8.73589
  30
0
  11
7.35075
  21
8.68282
  31
0
  0
LINE
  8
0
  10
7.35075
  20
8.68282
  30
0
  11
7.51482
  21
8.57319
  31
0
  0
LINE
  8
0
  10
7.51482
  20
8.57319
  30
0
  11
7.57126
  21
8.57563
  31
0
  0
LINE
  8
0
  10
7.57126
  20
8.57563
  30
0
  11
7.62847
  21
8.61979
  31
0
  0
LINE
  8
0
  10
7.62847
  20
8.61979
  30
0
  11
7.67167
  21
8.67405
  31
0
  0
LINE
  8
0
  10
7.67167
  20
8.67405
  30
0
  11
7.79034
  21
8.75887
  31
0
  0
LINE
  8
0
  10
7.79034
  20
8.75887
  30
0
  11
7.90552
  21
8.84578
  31
0
  0
LINE
  8
0
  10
7.90552
  20
8.84578
  30
0
  11
8.03215
  21
8.92347
  31
0
  0
LINE
  8
0
  10
8.03215
  20
8.92347
  30
0
  11
8.13341
  21
8.97632
  31
0
  0
LINE
  8
0
  10
8.13341
  20
8.97632
  30
0
  11
8.29419
  21
8.84437
  31
0
  0
LINE
  8
0
  10
8.29419
  20
8.84437
  30
0
  11
8.26211
  21
8.73474
  31
0
  0
LINE
  8
0
  10
8.26211
  20
8.73474
  30
0
  11
8.21062
  21
8.59539
  31
0
  0
LINE
  8
0
  10
8.21062
  20
8.59539
  30
0
  11
8.14785
  21
8.46547
  31
0
  0
LINE
  8
0
  10
8.14785
  20
8.46547
  30
0
  11
8.08781
  21
8.33253
  31
0
  0
LINE
  8
0
  10
8.08781
  20
8.33253
  30
0
  11
8.04302
  21
8.27958
  31
0
  0
LINE
  8
0
  10
8.04302
  20
8.27958
  30
0
  11
8.01087
  21
8.21485
  31
0
  0
LINE
  8
0
  10
8.01087
  20
8.21485
  30
0
  11
8.01949
  21
8.15902
  31
0
  0
LINE
  8
0
  10
8.01949
  20
8.15902
  30
0
  11
8.15902
  21
8.01949
  31
0
  0
LINE
  8
0
  10
8.15902
  20
8.01949
  30
0
  11
8.21485
  21
8.01087
  31
0
  0
LINE
  8
0
  10
8.21485
  20
8.01087
  30
0
  11
8.27958
  21
8.04302
  31
0
  0
LINE
  8
0
  10
8.27958
  20
8.04302
  30
0
  11
8.33253
  21
8.08781
  31
0
  0
LINE
  8
0
  10
8.33253
  20
8.08781
  30
0
  11
8.46547
  21
8.14785
  31
0
  0
LINE
  8
0
  10
8.46547
  20
8.14785
  30
0
  11
8.59539
  21
8.21062
  31
0
  0
LINE
  8
0
  10
8.59539
  20
8.21062
  30
0
  11
8.73474
  21
8.26211
  31
0
  0
LINE
  8
0
  10
8.73474
  20
8.26211
  30
0
  11
8.84437
  21
8.29419
  31
0
  0
LINE
  8
0
  10
8.84437
  20
8.29419
  30
0
  11
8.97632
  21
8.13341
  31
0
  0
LINE
  8
0
  10
8.97632
  20
8.13341
  30
0
  11
8.92347
  21
8.03215
  31
0
  0
LINE
  8
0
  10
8.92347
  20
8.03215
  30
0
  11
8.84578
  21
7.90552
  31
0
  0
LINE
  8
0
  10
8.84578
  20
7.90552
  30
0
  11
8.75887
  21
7.79034
  31
0
  0
LINE
  8
0
  10
8.75887
  20
7.79034
  30
0
  11
8.67405
  21
7.67167
  31
0
  0
LINE
  8
0
  10
8.67405
  20
7.67167
  30
0
  11
8.61979
  21
7.62847
  31
0
  0
LINE
  8
0
  10
8.61979
  20
7.62847
  30
0
  11
8.57563
  21
7.57126
  31
0
  0
LINE
  8
0
  10
8.57563
  20
7.57126
  30
0
  11
8.57319
  21
7.51482
  31
0
  0
LINE
  8
0
  10
8.57319
  20
7.51482
  30
0
  11
8.68282
  21
7.35075
  31
0
  0
LINE
  8
0
  10
8.68282
  20
7.35075
  30
0
  11
8.73589
  21
7.33141
  31
0
  0
LINE
  8
0
  10
8.73589
  20
7.33141
  30
0
  11
8.80565
  21
7.35031
  31
0
  0
LINE
  8
0
  10
8.80565
  20
7.35031
  30
0
  11
8.86632
  21
7.38391
  31
0
  0
LINE
  8
0
  10
8.86632
  20
7.38391
  30
0
  11
9.00842
  21
7.41686
  31
0
  0
LINE
  8
0
  10
9.00842
  20
7.41686
  30
0
  11
9.14809
  21
7.45308
  31
0
  0
LINE
  8
0
  10
9.14809
  20
7.45308
  30
0
  11
9.29481
  21
7.47639
  31
0
  0
LINE
  8
0
  10
9.29481
  20
7.47639
  30
0
  11
9.40859
  21
7.48647
  31
0
  0
LINE
  8
0
  10
9.40859
  20
7.48647
  30
0
  11
9.50664
  21
7.30304
  31
0
  0
LINE
  8
0
  10
9.50664
  20
7.30304
  30
0
  11
9.43505
  21
7.21403
  31
0
  0
LINE
  8
0
  10
9.43505
  20
7.21403
  30
0
  11
9.33415
  21
7.10499
  31
0
  0
LINE
  8
0
  10
9.33415
  20
7.10499
  30
0
  11
9.22644
  21
7.00898
  31
0
  0
LINE
  8
0
  10
9.22644
  20
7.00898
  30
0
  11
9.1201
  21
6.90914
  31
0
  0
LINE
  8
0
  10
9.1201
  20
6.90914
  30
0
  11
9.05845
  21
6.87736
  31
0
  0
LINE
  8
0
  10
9.05845
  20
6.87736
  30
0
  11
9.00398
  21
6.82986
  31
0
  0
LINE
  8
0
  10
9.00398
  20
6.82986
  30
0
  11
8.99057
  21
6.77498
  31
0
  0
LINE
  8
0
  10
8.99057
  20
6.77498
  30
0
  11
9.06609
  21
6.59268
  31
0
  0
LINE
  8
0
  10
9.06609
  20
6.59268
  30
0
  11
9.11437
  21
6.56335
  31
0
  0
LINE
  8
0
  10
9.11437
  20
6.56335
  30
0
  11
9.18648
  21
6.56828
  31
0
  0
LINE
  8
0
  10
9.18648
  20
6.56828
  30
0
  11
9.25254
  21
6.5894
  31
0
  0
LINE
  8
0
  10
9.25254
  20
6.5894
  30
0
  11
9.39833
  21
6.59399
  31
0
  0
LINE
  8
0
  10
9.39833
  20
6.59399
  30
0
  11
9.54238
  21
6.60226
  31
0
  0
LINE
  8
0
  10
9.54238
  20
6.60226
  30
0
  11
9.69083
  21
6.59651
  31
0
  0
LINE
  8
0
  10
9.69083
  20
6.59651
  30
0
  11
9.80439
  21
6.5842
  31
0
  0
LINE
  8
0
  10
9.80439
  20
6.5842
  30
0
  11
9.86477
  21
6.38516
  31
0
  0
LINE
  8
0
  10
9.86477
  20
6.38516
  30
0
  11
9.77719
  21
6.31183
  31
0
  0
LINE
  8
0
  10
9.77719
  20
6.31183
  30
0
  11
9.65695
  21
6.22457
  31
0
  0
LINE
  8
0
  10
9.65695
  20
6.22457
  30
0
  11
9.53258
  21
6.15142
  31
0
  0
LINE
  8
0
  10
9.53258
  20
6.15142
  30
0
  11
9.40881
  21
6.07424
  31
0
  0
LINE
  8
0
  10
9.40881
  20
6.07424
  30
0
  11
9.34215
  21
6.05509
  31
0
  0
LINE
  8
0
  10
9.34215
  20
6.05509
  30
0
  11
9.27945
  21
6.01913
  31
0
  0
LINE
  8
0
  10
9.27945
  20
6.01913
  30
0
  11
9.2556
  21
5.96793
  31
0
  0
LINE
  8
0
  10
9.2556
  20
5.96793
  30
0
  11
9.2941
  21
5.77439
  31
0
  0
LINE
  8
0
  10
9.2941
  20
5.77439
  30
0
  11
9.33573
  21
5.73621
  31
0
  0
LINE
  8
0
  10
9.33573
  20
5.73621
  30
0
  11
9.40742
  21
5.72698
  31
0
  0
LINE
  8
0
  10
9.40742
  20
5.72698
  30
0
  11
9.47633
  21
5.7348
  31
0
  0
LINE
  8
0
  10
9.47633
  20
5.7348
  30
0
  11
9.62022
  21
5.71087
  31
0
  0
LINE
  8
0
  10
9.62022
  20
5.71087
  30
0
  11
9.76311
  21
5.69088
  31
0
  0
LINE
  8
0
  10
9.76311
  20
5.69088
  30
0
  11
9.90759
  21
5.65627
  31
0
  0
LINE
  8
0
  10
9.90759
  20
5.65627
  30
0
  11
10.01656
  21
5.62204
  31
0
  0
LINE
  8
0
  10
10.01656
  20
5.62204
  30
0
  11
10.03695
  21
5.41505
  31
0
  0
LINE
  8
0
  10
10.03695
  20
5.41505
  30
0
  11
9.93675
  21
5.36022
  31
0
  0
LINE
  8
0
  10
9.93675
  20
5.36022
  30
0
  11
9.8018
  21
5.29809
  31
0
  0
LINE
  8
0
  10
9.8018
  20
5.29809
  30
0
  11
9.66555
  21
5.25061
  31
0
  0
LINE
  8
0
  10
9.66555
  20
5.25061
  30
0
  11
9.52909
  21
5.19906
  31
0
  0
LINE
  8
0
  10
9.52909
  20
5.19906
  30
0
  11
9.45998
  21
5.19328
  31
0
  0
LINE
  8
0
  10
9.45998
  20
5.19328
  30
0
  11
9.39147
  21
5.17025
  31
0
  0
LINE
  8
0
  10
9.39147
  20
5.17025
  30
0
  11
9.35809
  21
5.12468
  31
0
  0
LINE
  8
0
  10
9.35809
  20
5.12468
  30
0
  11
9.35809
  21
4.92735
  31
0
  0
LINE
  8
0
  10
5.52601
  20
5.02601
  30
0
  11
5.52601
  21
5.02601
  31
0
  0
LINE
  8
0
  10
5.52601
  20
5.02601
  30
0
  11
5.50898
  21
5.15542
  31
0
  0
LINE
  8
0
  10
5.50898
  20
5.15542
  30
0
  11
5.45903
  21
5.27601
  31
0
  0
LINE
  8
0
  10
5.45903
  20
5.27601
  30
0
  11
5.37957
  21
5.37957
  31
0
  0
LINE
  8
0
  10
5.37957
  20
5.37957
  30
0
  11
5.27601
  21
5.45903
  31
0
  0
LINE
  8
0
  10
5.27601
  20
5.45903
  30
0
  11
5.15542
  21
5.50898
  31
0
  0
LINE
  8
0
  10
5.15542
  20
5.50898
  30
0
  11
5.02601
  21
5.52601
  31
0
  0
LINE
  8
0
  10
5.02601
  20
5.52601
  30
0
  11
4.89661
  21
5.50898
  31
0
  0
LINE
  8
0
  10
4.89661
  20
5.50898
  30
0
  11
4.77601
  21
5.45903
  31
0
  0
LINE
  8
0
  10
4.77601
  20
5.45903
  30
0
  11
4.67246
  21
5.37957
  31
0
  0
LINE
  8
0
  10
4.67246
  20
5.37957
  30
0
  11
4.593
  21
5.27601
  31
0
  0
LINE
  8
0
  10
4.593
  20
5.27601
  30
0
  11
4.54305
  21
5.15542
  31
0
  0
LINE
  8
0
  10
4.54305
  20
5.15542
  30
0
  11
4.52601
  21
5.02601
  31
0
  0
LINE
  8
0
  10
4.52601
  20
5.02601
  30
0
  11
4.54305
  21
4.89661
  31
0
  0
LINE
  8
0
  10
4.54305
  20
4.89661
  30
0
  11
4.593
  21
4.77601
  31
0
  0
LINE
  8
0
  10
4.593
  20
4.77601
  30
0
  11
4.67246
  21
4.67246
  31
0
  0
LINE
  8
0
  10
4.67246
  20
4.67246
  30
0
  11
4.77601
  21
4.593
  31
0
  0
LINE
  8
0
  10
4.77601
  20
4.593
  30
0
  11
4.89661
  21
4.54305
  31
0
  0
LINE
  8
0
  10
4.89661
  20
4.54305
  30
0
  11
5.02601
  21
4.52601
  31
0
  0
LINE
  8
0
  10
5.02601
  20
4.52601
  30
0
  11
5.15542
  21
4.54305
  31
0
  0
LINE
  8
0
  10
5.15542
  20
4.54305
  30
0
  11
5.27601
  21
4.593
  31
0
  0
LINE
  8
0
  10
5.27601
  20
4.593
  30
0
  11
5.37957
  21
4.67246
  31
0
  0
LINE
  8
0
  10
5.37957
  20
4.67246
  30
0
  11
5.45903
  21
4.77601
  31
0
  0
LINE
  8
0
  10
5.45903
  20
4.77601
  30
0
  11
5.50898
  21
4.89661
  31
0
  0
LINE
  8
0
  10
5.50898
  20
4.89661
  30
0
  11
5.52601
  21
5.02601
  31
0
  0
LINE
  8
0
  10
5.52601
  20
5.02601
  30
0
  11
5.52601
  21
5.02601
  31
0
  0
LINE
  8
0
  10
10.05144
  20
4.79101
  30
0
  11
10.05144
  21
4.79101
  31
0
  0
LINE
  8
0
  10
10.05144
  20
4.79101
  30
0
  11
10.00738
  21
4.85474
  31
0
  0
LINE
  8
0
  10
10.00738
  20
4.85474
  30
0
  11
9.97878
  21
4.87568
  31
0
  0
LINE
  8
0
  10
9.97878
  20
4.87568
  30
0
  11
9.92751
  21
4.89783
  31
0
  0
LINE
  8
0
  10
9.92751
  20
4.89783
  30
0
  11
9.87926
  21
4.90721
  31
0
  0
LINE
  8
0
  10
9.87926
  20
4.90721
  30
0
  11
9.78645
  21
4.9037
  31
0
  0
LINE
  8
0
  10
9.78645
  20
4.9037
  30
0
  11
9.69674
  21
4.87854
  31
0
  0
LINE
  8
0
  10
9.69674
  20
4.87854
  30
0
  11
9.61019
  21
4.83546
  31
0
  0
LINE
  8
0
  10
9.61019
  20
4.83546
  30
0
  11
9.52617
  21
4.78353
  31
0
  0
LINE
  8
0
  10
9.52617
  20
4.78353
  30
0
  11
9.4282
  21
4.80368
  31
0
  0
LINE
  8
0
  10
9.4282
  20
4.80368
  30
0
  11
9.32843
  21
4.84412
  31
0
  0
LINE
  8
0
  10
9.32843
  20
4.84412
  30
0
  11
9.31626
  21
5.02601
  31
0
  0
LINE
  8
0
  10
9.31626
  20
5.02601
  30
0
  11
9.32843
  21
5.20791
  31
0
  0
LINE
  8
0
  10
9.32843
  20
5.20791
  30
0
  11
9.4282
  21
5.24835
  31
0
  0
LINE
  8
0
  10
9.4282
  20
5.24835
  30
0
  11
9.52617
  21
5.2685
  31
0
  0
LINE
  8
0
  10
9.52617
  20
5.2685
  30
0
  11
9.61019
  21
5.21657
  31
0
  0
LINE
  8
0
  10
9.61019
  20
5.21657
  30
0
  11
9.69674
  21
5.17349
  31
0
  0
LINE
  8
0
  10
9.69674
  20
5.17349
  30
0
  11
9.78645
  21
5.14833
  31
0
  0
LINE
  8
0
  10
9.78645
  20
5.14833
  30
0
  11
9.87926
  21
5.14481
  31
0
  0
LINE
  8
0
  10
9.87926
  20
5.14481
  30
0
  11
9.92751
  21
5.1542
  31
0
  0
LINE
  8
0
  10
9.92751
  20
5.1542
  30
0
  11
9.97878
  21
5.17634
  31
0
  0
LINE
  8
0
  10
9.97878
  20
5.17634
  30
0
  11
10.00738
  21
5.19729
  31
0
  0
LINE
  8
0
  10
10.00738
  20
5.19729
  30
0
  11
10.05144
  21
5.26102
  31
0
  0
LINE
  8
0
  10
10.05144
  20
5.26102
  30
0
  11
10.06031
  21
5.28357
  31
0
  0
LINE
  8
0
  10
10.06031
  20
5.28357
  30
0
  11
10.06998
  21
5.30578
  31
0
  0
LINE
  8
0
  10
10.06998
  20
5.30578
  30
0
  11
10.08389
  21
5.382
  31
0
  0
LINE
  8
0
  10
10.08389
  20
5.382
  30
0
  11
10.07848
  21
5.41703
  31
0
  0
LINE
  8
0
  10
10.07848
  20
5.41703
  30
0
  11
10.05789
  21
5.46894
  31
0
  0
LINE
  8
0
  10
10.05789
  20
5.46894
  30
0
  11
10.0304
  21
5.5097
  31
0
  0
LINE
  8
0
  10
10.0304
  20
5.5097
  30
0
  11
9.96229
  21
5.57284
  31
0
  0
LINE
  8
0
  10
9.96229
  20
5.57284
  30
0
  11
9.88106
  21
5.61848
  31
0
  0
LINE
  8
0
  10
9.88106
  20
5.61848
  30
0
  11
9.78941
  21
5.64922
  31
0
  0
LINE
  8
0
  10
9.78941
  20
5.64922
  30
0
  11
9.69327
  21
5.67191
  31
0
  0
LINE
  8
0
  10
9.69327
  20
5.67191
  30
0
  11
9.63824
  21
5.75544
  31
0
  0
LINE
  8
0
  10
9.63824
  20
5.75544
  30
0
  11
9.59629
  21
5.85458
  31
0
  0
LINE
  8
0
  10
9.59629
  20
5.85458
  30
0
  11
9.7163
  21
5.9918
  31
0
  0
LINE
  8
0
  10
9.7163
  20
5.9918
  30
0
  11
9.85353
  21
6.11182
  31
0
  0
LINE
  8
0
  10
9.85353
  20
6.11182
  30
0
  11
9.95267
  21
6.06987
  31
0
  0
LINE
  8
0
  10
9.95267
  20
6.06987
  30
0
  11
10.0362
  21
6.01483
  31
0
  0
LINE
  8
0
  10
10.0362
  20
6.01483
  30
0
  11
10.05889
  21
5.9187
  31
0
  0
LINE
  8
0
  10
10.05889
  20
5.9187
  30
0
  11
10.08962
  21
5.82705
  31
0
  0
LINE
  8
0
  10
10.08962
  20
5.82705
  30
0
  11
10.13527
  21
5.74582
  31
0
  0
LINE
  8
0
  10
10.13527
  20
5.74582
  30
0
  11
10.19841
  21
5.67771
  31
0
  0
LINE
  8
0
  10
10.19841
  20
5.67771
  30
0
  11
10.23916
  21
5.65022
  31
0
  0
LINE
  8
0
  10
10.23916
  20
5.65022
  30
0
  11
10.29107
  21
5.62963
  31
0
  0
LINE
  8
0
  10
10.29107
  20
5.62963
  30
0
  11
10.32611
  21
5.62421
  31
0
  0
LINE
  8
0
  10
10.32611
  20
5.62421
  30
0
  11
10.40233
  21
5.63813
  31
0
  0
LINE
  8
0
  10
10.40233
  20
5.63813
  30
0
  11
10.42454
  21
5.6478
  31
0
  0
LINE
  8
0
  10
10.42454
  20
5.6478
  30
0
  11
10.44709
  21
5.65666
  31
0
  0
LINE
  8
0
  10
10.44709
  20
5.65666
  30
0
  11
10.51082
  21
5.70072
  31
0
  0
LINE
  8
0
  10
10.51082
  20
5.70072
  30
0
  11
10.53176
  21
5.72933
  31
0
  0
LINE
  8
0
  10
10.53176
  20
5.72933
  30
0
  11
10.55391
  21
5.78059
  31
0
  0
LINE
  8
0
  10
10.55391
  20
5.78059
  30
0
  11
10.56329
  21
5.82885
  31
0
  0
LINE
  8
0
  10
10.56329
  20
5.82885
  30
0
  11
10.55978
  21
5.92165
  31
0
  0
LINE
  8
0
  10
10.55978
  20
5.92165
  30
0
  11
10.53462
  21
6.01137
  31
0
  0
LINE
  8
0
  10
10.53462
  20
6.01137
  30
0
  11
10.49154
  21
6.09791
  31
0
  0
LINE
  8
0
  10
10.49154
  20
6.09791
  30
0
  11
10.43961
  21
6.18193
  31
0
  0
LINE
  8
0
  10
10.43961
  20
6.18193
  30
0
  11
10.45976
  21
6.27991
  31
0
  0
LINE
  8
0
  10
10.45976
  20
6.27991
  30
0
  11
10.50019
  21
6.37968
  31
0
  0
LINE
  8
0
  10
10.50019
  20
6.37968
  30
0
  11
10.68209
  21
6.39185
  31
0
  0
LINE
  8
0
  10
10.68209
  20
6.39185
  30
0
  11
10.86399
  21
6.37968
  31
0
  0
LINE
  8
0
  10
10.86399
  20
6.37968
  30
0
  11
10.90442
  21
6.27991
  31
0
  0
LINE
  8
0
  10
10.90442
  20
6.27991
  30
0
  11
10.92458
  21
6.18193
  31
0
  0
LINE
  8
0
  10
10.92458
  20
6.18193
  30
0
  11
10.87264
  21
6.09791
  31
0
  0
LINE
  8
0
  10
10.87264
  20
6.09791
  30
0
  11
10.82957
  21
6.01137
  31
0
  0
LINE
  8
0
  10
10.82957
  20
6.01137
  30
0
  11
10.80441
  21
5.92165
  31
0
  0
LINE
  8
0
  10
10.80441
  20
5.92165
  30
0
  11
10.80089
  21
5.82885
  31
0
  0
LINE
  8
0
  10
10.80089
  20
5.82885
  30
0
  11
10.81028
  21
5.78059
  31
0
  0
LINE
  8
0
  10
10.81028
  20
5.78059
  30
0
  11
10.83242
  21
5.72933
  31
0
  0
LINE
  8
0
  10
10.83242
  20
5.72933
  30
0
  11
10.85337
  21
5.70072
  31
0
  0
LINE
  8
0
  10
10.85337
  20
5.70072
  30
0
  11
10.9171
  21
5.65666
  31
0
  0
LINE
  8
0
  10
10.9171
  20
5.65666
  30
0
  11
10.93964
  21
5.6478
  31
0
  0
LINE
  8
0
  10
10.93964
  20
5.6478
  30
0
  11
10.96185
  21
5.63813
  31
0
  0
LINE
  8
0
  10
10.96185
  20
5.63813
  30
0
  11
11.03808
  21
5.62421
  31
0
  0
LINE
  8
0
  10
11.03808
  20
5.62421
  30
0
  11
11.07311
  21
5.62963
  31
0
  0
LINE
  8
0
  10
11.07311
  20
5.62963
  30
0
  11
11.12502
  21
5.65022
  31
0
  0
LINE
  8
0
  10
11.12502
  20
5.65022
  30
0
  11
11.16578
  21
5.67771
  31
0
  0
LINE
  8
0
  10
11.16578
  20
5.67771
  30
0
  11
11.22892
  21
5.74582
  31
0
  0
LINE
  8
0
  10
11.22892
  20
5.74582
  30
0
  11
11.27456
  21
5.82705
  31
0
  0
LINE
  8
0
  10
11.27456
  20
5.82705
  30
0
  11
11.3053
  21
5.9187
  31
0
  0
LINE
  8
0
  10
11.3053
  20
5.9187
  30
0
  11
11.32799
  21
6.01483
  31
0
  0
LINE
  8
0
  10
11.32799
  20
6.01483
  30
0
  11
11.41152
  21
6.06987
  31
0
  0
LINE
  8
0
  10
11.41152
  20
6.06987
  30
0
  11
11.51066
  21
6.11182
  31
0
  0
LINE
  8
0
  10
11.51066
  20
6.11182
  30
0
  11
11.64788
  21
5.9918
  31
0
  0
LINE
  8
0
  10
11.64788
  20
5.9918
  30
0
  11
11.7679
  21
5.85458
  31
0
  0
LINE
  8
0
  10
11.7679
  20
5.85458
  30
0
  11
11.72594
  21
5.75544
  31
0
  0
LINE
  8
0
  10
11.72594
  20
5.75544
  30
0
  11
11.67091
  21
5.67191
  31
0
  0
LINE
  8
0
  10
11.67091
  20
5.67191
  30
0
  11
11.57478
  21
5.64922
  31
0
  0
LINE
  8
0
  10
11.57478
  20
5.64922
  30
0
  11
11.48312
  21
5.61848
  31
0
  0
LINE
  8
0
  10
11.48312
  20
5.61848
  30
0
  11
11.40189
  21
5.57284
  31
0
  0
LINE
  8
0
  10
11.40189
  20
5.57284
  30
0
  11
11.33379
  21
5.5097
  31
0
  0
LINE
  8
0
  10
11.33379
  20
5.5097
  30
0
  11
11.3063
  21
5.46894
  31
0
  0
LINE
  8
0
  10
11.3063
  20
5.46894
  30
0
  11
11.28571
  21
5.41703
  31
0
  0
LINE
  8
0
  10
11.28571
  20
5.41703
  30
0
  11
11.28029
  21
5.382
  31
0
  0
LINE
  8
0
  10
11.28029
  20
5.382
  30
0
  11
11.29421
  21
5.30578
  31
0
  0
LINE
  8
0
  10
11.29421
  20
5.30578
  30
0
  11
11.30388
  21
5.28357
  31
0
  0
LINE
  8
0
  10
11.30388
  20
5.28357
  30
0
  11
11.31274
  21
5.26102
  31
0
  0
LINE
  8
0
  10
11.31274
  20
5.26102
  30
0
  11
11.3568
  21
5.19729
  31
0
  0
LINE
  8
0
  10
11.3568
  20
5.19729
  30
0
  11
11.38541
  21
5.17634
  31
0
  0
LINE
  8
0
  10
11.38541
  20
5.17634
  30
0
  11
11.43667
  21
5.1542
  31
0
  0
LINE
  8
0
  10
11.43667
  20
5.1542
  30
0
  11
11.48493
  21
5.14481
  31
0
  0
LINE
  8
0
  10
11.48493
  20
5.14481
  30
0
  11
11.57773
  21
5.14833
  31
0
  0
LINE
  8
0
  10
11.57773
  20
5.14833
  30
0
  11
11.66745
  21
5.17349
  31
0
  0
LINE
  8
0
  10
11.66745
  20
5.17349
  30
0
  11
11.75399
  21
5.21657
  31
0
  0
LINE
  8
0
  10
11.75399
  20
5.21657
  30
0
  11
11.83801
  21
5.2685
  31
0
  0
LINE
  8
0
  10
11.83801
  20
5.2685
  30
0
  11
11.93599
  21
5.24835
  31
0
  0
LINE
  8
0
  10
11.93599
  20
5.24835
  30
0
  11
12.03576
  21
5.20791
  31
0
  0
LINE
  8
0
  10
12.03576
  20
5.20791
  30
0
  11
12.04792
  21
5.02601
  31
0
  0
LINE
  8
0
  10
12.04792
  20
5.02601
  30
0
  11
12.03576
  21
4.84412
  31
0
  0
LINE
  8
0
  10
12.03576
  20
4.84412
  30
0
  11
11.93599
  21
4.80368
  31
0
  0
LINE
  8
0
  10
11.93599
  20
4.80368
  30
0
  11
11.83801
  21
4.78353
  31
0
  0
LINE
  8
0
  10
11.83801
  20
4.78353
  30
0
  11
11.75399
  21
4.83546
  31
0
  0
LINE
  8
0
  10
11.75399
  20
4.83546
  30
0
  11
11.66745
  21
4.87854
  31
0
  0
LINE
  8
0
  10
11.66745
  20
4.87854
  30
0
  11
11.57773
  21
4.9037
  31
0
  0
LINE
  8
0
  10
11.57773
  20
4.9037
  30
0
  11
11.48493
  21
4.90721
  31
0
  0
LINE
  8
0
  10
11.48493
  20
4.90721
  30
0
  11
11.43667
  21
4.89783
  31
0
  0
LINE
  8
0
  10
11.43667
  20
4.89783
  30
0
  11
11.38541
  21
4.87568
  31
0
  0
LINE
  8
0
  10
11.38541
  20
4.87568
  30
0
  11
11.3568
  21
4.85474
  31
0
  0
LINE
  8
0
  10
11.3568
  20
4.85474
  30
0
  11
11.31274
  21
4.79101
  31
0
  0
LINE
  8
0
  10
11.31274
  20
4.79101
  30
0
  11
11.30388
  21
4.76846
  31
0
  0
LINE
  8
0
  10
11.30388
  20
4.76846
  30
0
  11
11.29421
  21
4.74625
  31
0
  0
LINE
  8
0
  10
11.29421
  20
4.74625
  30
0
  11
11.28029
  21
4.67003
  31
0
  0
LINE
  8
0
  10
11.28029
  20
4.67003
  30
0
  11
11.28571
  21
4.63499
  31
0
  0
LINE
  8
0
  10
11.28571
  20
4.63499
  30
0
  11
11.3063
  21
4.58308
  31
0
  0
LINE
  8
0
  10
11.3063
  20
4.58308
  30
0
  11
11.33379
  21
4.54233
  31
0
  0
LINE
  8
0
  10
11.33379
  20
4.54233
  30
0
  11
11.40189
  21
4.47919
  31
0
  0
LINE
  8
0
  10
11.40189
  20
4.47919
  30
0
  11
11.48312
  21
4.43354
  31
0
  0
LINE
  8
0
  10
11.48312
  20
4.43354
  30
0
  11
11.57478
  21
4.40281
  31
0
  0
LINE
  8
0
  10
11.57478
  20
4.40281
  30
0
  11
11.67091
  21
4.38012
  31
0
  0
LINE
  8
0
  10
11.67091
  20
4.38012
  30
0
  11
11.72594
  21
4.29659
  31
0
  0
LINE
  8
0
  10
11.72594
  20
4.29659
  30
0
  11
11.7679
  21
4.19745
  31
0
  0
LINE
  8
0
  10
11.7679
  20
4.19745
  30
0
  11
11.64788
  21
4.06023
  31
0
  0
LINE
  8
0
  10
11.64788
  20
4.06023
  30
0
  11
11.51066
  21
3.94021
  31
0
  0
LINE
  8
0
  10
11.51066
  20
3.94021
  30
0
  11
11.41152
  21
3.98216
  31
0
  0
LINE
  8
0
  10
11.41152
  20
3.98216
  30
0
  11
11.32799
  21
4.03719
  31
0
  0
LINE
  8
0
  10
11.32799
  20
4.03719
  30
0
  11
11.3053
  21
4.13333
  31
0
  0
LINE
  8
0
  10
11.3053
  20
4.13333
  30
0
  11
11.27456
  21
4.22498
  31
0
  0
LINE
  8
0
  10
11.27456
  20
4.22498
  30
0
  11
11.22892
  21
4.30621
  31
0
  0
LINE
  8
0
  10
11.22892
  20
4.30621
  30
0
  11
11.16578
  21
4.37432
  31
0
  0
LINE
  8
0
  10
11.16578
  20
4.37432
  30
0
  11
11.12502
  21
4.40181
  31
0
  0
LINE
  8
0
  10
11.12502
  20
4.40181
  30
0
  11
11.07311
  21
4.4224
  31
0
  0
LINE
  8
0
  10
11.07311
  20
4.4224
  30
0
  11
11.03808
  21
4.42782
  31
0
  0
LINE
  8
0
  10
11.03808
  20
4.42782
  30
0
  11
10.96185
  21
4.4139
  31
0
  0
LINE
  8
0
  10
10.96185
  20
4.4139
  30
0
  11
10.93964
  21
4.40423
  31
0
  0
LINE
  8
0
  10
10.93964
  20
4.40423
  30
0
  11
10.9171
  21
4.39536
  31
0
  0
LINE
  8
0
  10
10.9171
  20
4.39536
  30
0
  11
10.85337
  21
4.35131
  31
0
  0
LINE
  8
0
  10
10.85337
  20
4.35131
  30
0
  11
10.83242
  21
4.3227
  31
0
  0
LINE
  8
0
  10
10.83242
  20
4.3227
  30
0
  11
10.81028
  21
4.27143
  31
0
  0
LINE
  8
0
  10
10.81028
  20
4.27143
  30
0
  11
10.80089
  21
4.22318
  31
0
  0
LINE
  8
0
  10
10.80089
  20
4.22318
  30
0
  11
10.80441
  21
4.13037
  31
0
  0
LINE
  8
0
  10
10.80441
  20
4.13037
  30
0
  11
10.82957
  21
4.04066
  31
0
  0
LINE
  8
0
  10
10.82957
  20
4.04066
  30
0
  11
10.87264
  21
3.95412
  31
0
  0
LINE
  8
0
  10
10.87264
  20
3.95412
  30
0
  11
10.92458
  21
3.87009
  31
0
  0
LINE
  8
0
  10
10.92458
  20
3.87009
  30
0
  11
10.90442
  21
3.77212
  31
0
  0
LINE
  8
0
  10
10.90442
  20
3.77212
  30
0
  11
10.86399
  21
3.67235
  31
0
  0
LINE
  8
0
  10
10.86399
  20
3.67235
  30
0
  11
10.68209
  21
3.66018
  31
0
  0
LINE
  8
0
  10
10.68209
  20
3.66018
  30
0
  11
10.50019
  21
3.67235
  31
0
  0
LINE
  8
0
  10
10.50019
  20
3.67235
  30
0
  11
10.45976
  21
3.77212
  31
0
  0
LINE
  8
0
  10
10.45976
  20
3.77212
  30
0
  11
10.43961
  21
3.87009
  31
0
  0
LINE
  8
0
  10
10.43961
  20
3.87009
  30
0
  11
10.49154
  21
3.95412
  31
0
  0
LINE
  8
0
  10
10.49154
  20
3.95412
  30
0
  11
10.53462
  21
4.04066
  31
0
  0
LINE
  8
0
  10
10.53462
  20
4.04066
  30
0
  11
10.55978
  21
4.13037
  31
0
  0
LINE
  8
0
  10
10.55978
  20
4.13037
  30
0
  11
10.56329
  21
4.22318
  31
0
  0
LINE
  8
0
  10
10.56329
  20
4.22318
  30
0
  11
10.55391
  21
4.27143
  31
0
  0
LINE
  8
0
  10
10.55391
  20
4.27143
  30
0
  11
10.53176
  21
4.3227
  31
0
  0
LINE
  8
0
  10
10.53176
  20
4.3227
  30
0
  11
10.51082
  21
4.35131
  31
0
  0
LINE
  8
0
  10
10.51082
  20
4.35131
  30
0
  11
10.44709
  21
4.39536
  31
0
  0
LINE
  8
0
  10
10.44709
  20
4.39536
  30
0
  11
10.42454
  21
4.40423
  31
0
  0
LINE
  8
0
  10
10.42454
  20
4.40423
  30
0
  11
10.40233
  21
4.4139
  31
0
  0
LINE
  8
0
  10
10.40233
  20
4.4139
  30
0
  11
10.32611
  21
4.42782
  31
0
  0
LINE
  8
0
  10
10.32611
  20
4.42782
  30
0
  11
10.29107
  21
4.4224
  31
0
  0
LINE
  8
0
  10
10.29107
  20
4.4224
  30
0
  11
10.23916
  21
4.40181
  31
0
  0
LINE
  8
0
  10
10.23916
  20
4.40181
  30
0
  11
10.19841
  21
4.37432
  31
0
  0
LINE
  8
0
  10
10.19841
  20
4.37432
  30
0
  11
10.13527
  21
4.30621
  31
0
  0
LINE
  8
0
  10
10.13527
  20
4.30621
  30
0
  11
10.08962
  21
4.22498
  31
0
  0
LINE
  8
0
  10
10.08962
  20
4.22498
  30
0
  11
10.05889
  21
4.13333
  31
0
  0
LINE
  8
0
  10
10.05889
  20
4.13333
  30
0
  11
10.0362
  21
4.03719
  31
0
  0
LINE
  8
0
  10
10.0362
  20
4.03719
  30
0
  11
9.95267
  21
3.98216
  31
0
  0
LINE
  8
0
  10
9.95267
  20
3.98216
  30
0
  11
9.85353
  21
3.94021
  31
0
  0
LINE
  8
0
  10
9.85353
  20
3.94021
  30
0
  11
9.7163
  21
4.06023
  31
0
  0
LINE
  8
0
  10
9.7163
  20
4.06023
  30
0
  11
9.59629
  21
4.19745
  31
0
  0
LINE
  8
0
  10
9.59629
  20
4.19745
  30
0
  11
9.63824
  21
4.29659
  31
0
  0
LINE
  8
0
  10
9.63824
  20
4.29659
  30
0
  11
9.69327
  21
4.38012
  31
0
  0
LINE
  8
0
  10
9.69327
  20
4.38012
  30
0
  11
9.78941
  21
4.40281
  31
0
  0
LINE
  8
0
  10
9.78941
  20
4.40281
  30
0
  11
9.88106
  21
4.43354
  31
0
  0
LINE
  8
0
  10
9.88106
  20
4.43354
  30
0
  11
9.96229
  21
4.47919
  31
0
  0
LINE
  8
0
  10
9.96229
  20
4.47919
  30
0
  11
10.0304
  21
4.54233
  31
0
  0
LINE
  8
0
  10
10.0304
  20
4.54233
  30
0
  11
10.05789
  21
4.58308
  31
0
  0
LINE
  8
0
  10
10.05789
  20
4.58308
  30
0
  11
10.07848
  21
4.63499
  31
0
  0
LINE
  8
0
  10
10.07848
  20
4.63499
  30
0
  11
10.08389
  21
4.67003
  31
0
  0
LINE
  8
0
  10
10.08389
  20
4.67003
  30
0
  11
10.06998
  21
4.74625
  31
0
  0
LINE
  8
0
  10
10.06998
  20
4.74625
  30
0
  11
10.06031
  21
4.76846
  31
0
  0
LINE
  8
0
  10
10.06031
  20
4.76846
  30
0
  11
10.05144
  21
4.79101
  31
0
  0
LINE
  8
0
  10
11.18209
  20
5.02601
  30
0
  11
11.18209
  21
5.02601
  31
0
  0
LINE
  8
0
  10
11.18209
  20
5.02601
  30
0
  11
11.16506
  21
5.15542
  31
0
  0
LINE
  8
0
  10
11.16506
  20
5.15542
  30
0
  11
11.11511
  21
5.27601
  31
0
  0
LINE
  8
0
  10
11.11511
  20
5.27601
  30
0
  11
11.03565
  21
5.37957
  31
0
  0
LINE
  8
0
  10
11.03565
  20
5.37957
  30
0
  11
10.93209
  21
5.45903
  31
0
  0
LINE
  8
0
  10
10.93209
  20
5.45903
  30
0
  11
10.8115
  21
5.50898
  31
0
  0
LINE
  8
0
  10
10.8115
  20
5.50898
  30
0
  11
10.68209
  21
5.52601
  31
0
  0
LINE
  8
0
  10
10.68209
  20
5.52601
  30
0
  11
10.55268
  21
5.50898
  31
0
  0
LINE
  8
0
  10
10.55268
  20
5.50898
  30
0
  11
10.43209
  21
5.45903
  31
0
  0
LINE
  8
0
  10
10.43209
  20
5.45903
  30
0
  11
10.32854
  21
5.37957
  31
0
  0
LINE
  8
0
  10
10.32854
  20
5.37957
  30
0
  11
10.24908
  21
5.27601
  31
0
  0
LINE
  8
0
  10
10.24908
  20
5.27601
  30
0
  11
10.19913
  21
5.15542
  31
0
  0
LINE
  8
0
  10
10.19913
  20
5.15542
  30
0
  11
10.18209
  21
5.02601
  31
0
  0
LINE
  8
0
  10
10.18209
  20
5.02601
  30
0
  11
10.19913
  21
4.89661
  31
0
  0
LINE
  8
0
  10
10.19913
  20
4.89661
  30
0
  11
10.24908
  21
4.77601
  31
0
  0
LINE
  8
0
  10
10.24908
  20
4.77601
  30
0
  11
10.32854
  21
4.67246
  31
0
  0
LINE
  8
0
  10
10.32854
  20
4.67246
  30
0
  11
10.43209
  21
4.593
  31
0
  0
LINE
  8
0
  10
10.43209
  20
4.593
  30
0
  11
10.55268
  21
4.54305
  31
0
  0
LINE
  8
0
  10
10.55268
  20
4.54305
  30
0
  11
10.68209
  21
4.52601
  31
0
  0
LINE
  8
0
  10
10.68209
  20
4.52601
  30
0
  11
10.8115
  21
4.54305
  31
0
  0
LINE
  8
0
  10
10.8115
  20
4.54305
  30
0
  11
10.93209
  21
4.593
  31
0
  0
LINE
  8
0
  10
10.93209
  20
4.593
  30
0
  11
11.03565
  21
4.67246
  31
0
  0
LINE
  8
0
  10
11.03565
  20
4.67246
  30
0
  11
11.11511
  21
4.77601
  31
0
  0
LINE
  8
0
  10
11.11511
  20
4.77601
  30
0
  11
11.16506
  21
4.89661
  31
0
  0
LINE
  8
0
  10
11.16506
  20
4.89661
  30
0
  11
11.18209
  21
5.02601
  31
0
  0
LINE
  8
0
  10
11.18209
  20
5.02601
  30
0
  11
11.18209
  21
5.02601
  31
0
  0
ENDSEC
  0
EOF
