  999
file created by gear template generator
  0
SECTION
  2
HEADER
  9
$ACADVER
  1
AC1006
  9
$INSBASE
  10
0.0
  20
0.0
  30
0.0
  9
$EXTMIN
  10
0.0
  20
0.0
  9
$EXTMAX
  10
10000.0
  20
10000.0
  0
ENDSEC
  0
SECTION
  2
ENTITIES
  0
LINE
  8
0
  10
9.31687
  20
5.00804
  30
0
  11
9.31687
  21
5.00804
  31
0
  0
LINE
  8
0
  10
9.31687
  20
5.00804
  30
0
  11
9.34958
  21
4.90184
  31
0
  0
LINE
  8
0
  10
9.34958
  20
4.90184
  30
0
  11
9.4156
  21
4.85019
  31
0
  0
LINE
  8
0
  10
9.4156
  20
4.85019
  30
0
  11
9.48206
  21
4.82295
  31
0
  0
LINE
  8
0
  10
9.48206
  20
4.82295
  30
0
  11
9.61608
  21
4.80107
  31
0
  0
LINE
  8
0
  10
9.61608
  20
4.80107
  30
0
  11
9.74878
  21
4.75304
  31
0
  0
LINE
  8
0
  10
9.74878
  20
4.75304
  30
0
  11
9.87982
  21
4.68395
  31
0
  0
LINE
  8
0
  10
9.87982
  20
4.68395
  30
0
  11
9.97707
  21
4.62477
  31
0
  0
LINE
  8
0
  10
9.97707
  20
4.62477
  30
0
  11
9.9626
  21
4.46503
  31
0
  0
LINE
  8
0
  10
9.9626
  20
4.46503
  30
0
  11
9.85631
  21
4.42428
  31
0
  0
LINE
  8
0
  10
9.85631
  20
4.42428
  30
0
  11
9.71498
  21
4.37986
  31
0
  0
LINE
  8
0
  10
9.71498
  20
4.37986
  30
0
  11
9.57581
  21
4.35645
  31
0
  0
LINE
  8
0
  10
9.57581
  20
4.35645
  30
0
  11
9.44004
  21
4.359
  31
0
  0
LINE
  8
0
  10
9.44004
  20
4.359
  30
0
  11
9.36976
  21
4.34415
  31
0
  0
LINE
  8
0
  10
9.36976
  20
4.34415
  30
0
  11
9.29555
  21
4.3052
  31
0
  0
LINE
  8
0
  10
9.29555
  20
4.3052
  30
0
  11
9.24429
  21
4.20661
  31
0
  0
LINE
  8
0
  10
9.24429
  20
4.20661
  30
0
  11
9.2363
  21
4.16472
  31
0
  0
LINE
  8
0
  10
9.2363
  20
4.16472
  30
0
  11
9.24766
  21
4.05418
  31
0
  0
LINE
  8
0
  10
9.24766
  20
4.05418
  30
0
  11
9.30233
  21
3.99065
  31
0
  0
LINE
  8
0
  10
9.30233
  20
3.99065
  30
0
  11
9.36221
  21
3.95097
  31
0
  0
LINE
  8
0
  10
9.36221
  20
3.95097
  30
0
  11
9.48938
  21
3.90336
  31
0
  0
LINE
  8
0
  10
9.48938
  20
3.90336
  30
0
  11
9.61016
  21
3.83037
  31
0
  0
LINE
  8
0
  10
9.61016
  20
3.83037
  30
0
  11
9.72521
  21
3.73703
  31
0
  0
LINE
  8
0
  10
9.72521
  20
3.73703
  30
0
  11
9.80904
  21
3.66002
  31
0
  0
LINE
  8
0
  10
9.80904
  20
3.66002
  30
0
  11
9.76368
  21
3.50617
  31
0
  0
LINE
  8
0
  10
9.76368
  20
3.50617
  30
0
  11
9.65148
  21
3.48695
  31
0
  0
LINE
  8
0
  10
9.65148
  20
3.48695
  30
0
  11
9.50421
  21
3.47094
  31
0
  0
LINE
  8
0
  10
9.50421
  20
3.47094
  30
0
  11
9.36315
  21
3.47514
  31
0
  0
LINE
  8
0
  10
9.36315
  20
3.47514
  30
0
  11
9.23048
  21
3.50413
  31
0
  0
LINE
  8
0
  10
9.23048
  20
3.50413
  30
0
  11
9.15866
  21
3.50327
  31
0
  0
LINE
  8
0
  10
9.15866
  20
3.50327
  30
0
  11
9.07827
  21
3.47955
  31
0
  0
LINE
  8
0
  10
9.07827
  20
3.47955
  30
0
  11
9.00876
  21
3.39285
  31
0
  0
LINE
  8
0
  10
9.00876
  20
3.39285
  30
0
  11
8.99275
  21
3.35333
  31
0
  0
LINE
  8
0
  10
8.99275
  20
3.35333
  30
0
  11
8.98233
  21
3.2427
  31
0
  0
LINE
  8
0
  10
8.98233
  20
3.2427
  30
0
  11
9.02356
  21
3.16972
  31
0
  0
LINE
  8
0
  10
9.02356
  20
3.16972
  30
0
  11
9.07454
  21
3.11912
  31
0
  0
LINE
  8
0
  10
9.07454
  20
3.11912
  30
0
  11
9.18998
  21
3.04761
  31
0
  0
LINE
  8
0
  10
9.18998
  20
3.04761
  30
0
  11
9.2942
  21
2.95246
  31
0
  0
LINE
  8
0
  10
9.2942
  20
2.95246
  30
0
  11
9.38883
  21
2.83848
  31
0
  0
LINE
  8
0
  10
9.38883
  20
2.83848
  30
0
  11
9.45602
  21
2.74659
  31
0
  0
LINE
  8
0
  10
9.45602
  20
2.74659
  30
0
  11
9.38153
  21
2.60455
  31
0
  0
LINE
  8
0
  10
9.38153
  20
2.60455
  30
0
  11
9.26773
  21
2.60758
  31
0
  0
LINE
  8
0
  10
9.26773
  20
2.60758
  30
0
  11
9.12016
  21
2.62062
  31
0
  0
LINE
  8
0
  10
9.12016
  20
2.62062
  30
0
  11
8.98263
  21
2.65225
  31
0
  0
LINE
  8
0
  10
8.98263
  20
2.65225
  30
0
  11
8.85817
  21
2.70656
  31
0
  0
LINE
  8
0
  10
8.85817
  20
2.70656
  30
0
  11
8.78756
  21
2.71973
  31
0
  0
LINE
  8
0
  10
8.78756
  20
2.71973
  30
0
  11
8.70408
  21
2.71216
  31
0
  0
LINE
  8
0
  10
8.70408
  20
2.71216
  30
0
  11
8.619
  21
2.64068
  31
0
  0
LINE
  8
0
  10
8.619
  20
2.64068
  30
0
  11
8.59559
  21
2.60504
  31
0
  0
LINE
  8
0
  10
8.59559
  20
2.60504
  30
0
  11
8.56378
  21
2.49857
  31
0
  0
LINE
  8
0
  10
8.56378
  20
2.49857
  30
0
  11
8.58998
  21
2.41895
  31
0
  0
LINE
  8
0
  10
8.58998
  20
2.41895
  30
0
  11
8.63011
  21
2.35937
  31
0
  0
LINE
  8
0
  10
8.63011
  20
2.35937
  30
0
  11
8.72939
  21
2.26672
  31
0
  0
LINE
  8
0
  10
8.72939
  20
2.26672
  30
0
  11
8.81304
  21
2.15307
  31
0
  0
LINE
  8
0
  10
8.81304
  20
2.15307
  30
0
  11
8.88361
  21
2.02281
  31
0
  0
LINE
  8
0
  10
8.88361
  20
2.02281
  30
0
  11
8.93159
  21
1.91958
  31
0
  0
LINE
  8
0
  10
8.93159
  20
1.91958
  30
0
  11
8.83081
  21
1.7948
  31
0
  0
LINE
  8
0
  10
8.83081
  20
1.7948
  30
0
  11
8.71979
  21
1.81997
  31
0
  0
LINE
  8
0
  10
8.71979
  20
1.81997
  30
0
  11
8.5776
  21
1.86155
  31
0
  0
LINE
  8
0
  10
8.5776
  20
1.86155
  30
0
  11
8.44889
  21
1.91941
  31
0
  0
LINE
  8
0
  10
8.44889
  20
1.91941
  30
0
  11
8.33742
  21
1.99696
  31
0
  0
LINE
  8
0
  10
8.33742
  20
1.99696
  30
0
  11
8.27073
  21
2.02365
  31
0
  0
LINE
  8
0
  10
8.27073
  20
2.02365
  30
0
  11
8.18738
  21
2.0325
  31
0
  0
LINE
  8
0
  10
8.18738
  20
2.0325
  30
0
  11
8.08999
  21
1.979
  31
0
  0
LINE
  8
0
  10
8.08999
  20
1.979
  30
0
  11
8.06007
  21
1.94861
  31
0
  0
LINE
  8
0
  10
8.06007
  20
1.94861
  30
0
  11
8.00811
  21
1.85039
  31
0
  0
LINE
  8
0
  10
8.00811
  20
1.85039
  30
0
  11
8.01827
  21
1.76719
  31
0
  0
LINE
  8
0
  10
8.01827
  20
1.76719
  30
0
  11
8.046
  21
1.70093
  31
0
  0
LINE
  8
0
  10
8.046
  20
1.70093
  30
0
  11
8.1253
  21
1.59069
  31
0
  0
LINE
  8
0
  10
8.1253
  20
1.59069
  30
0
  11
8.18517
  21
1.4629
  31
0
  0
LINE
  8
0
  10
8.18517
  20
1.4629
  30
0
  11
8.22897
  21
1.32138
  31
0
  0
LINE
  8
0
  10
8.22897
  20
1.32138
  30
0
  11
8.25589
  21
1.21077
  31
0
  0
LINE
  8
0
  10
8.25589
  20
1.21077
  30
0
  11
8.13271
  21
1.10805
  31
0
  0
LINE
  8
0
  10
8.13271
  20
1.10805
  30
0
  11
8.02873
  21
1.1544
  31
0
  0
LINE
  8
0
  10
8.02873
  20
1.1544
  30
0
  11
7.89739
  21
1.22292
  31
0
  0
LINE
  8
0
  10
7.89739
  20
1.22292
  30
0
  11
7.78243
  21
1.30477
  31
0
  0
LINE
  8
0
  10
7.78243
  20
1.30477
  30
0
  11
7.68823
  21
1.40258
  31
0
  0
LINE
  8
0
  10
7.68823
  20
1.40258
  30
0
  11
7.62803
  21
1.44177
  31
0
  0
LINE
  8
0
  10
7.62803
  20
1.44177
  30
0
  11
7.54801
  21
1.46671
  31
0
  0
LINE
  8
0
  10
7.54801
  20
1.46671
  30
0
  11
7.44205
  21
1.43324
  31
0
  0
LINE
  8
0
  10
7.44205
  20
1.43324
  30
0
  11
7.40678
  21
1.40927
  31
0
  0
LINE
  8
0
  10
7.40678
  20
1.40927
  30
0
  11
7.33665
  21
1.32307
  31
0
  0
LINE
  8
0
  10
7.33665
  20
1.32307
  30
0
  11
7.33039
  21
1.23949
  31
0
  0
LINE
  8
0
  10
7.33039
  20
1.23949
  30
0
  11
7.34467
  21
1.16909
  31
0
  0
LINE
  8
0
  10
7.34467
  20
1.16909
  30
0
  11
7.40093
  21
1.04551
  31
0
  0
LINE
  8
0
  10
7.40093
  20
1.04551
  30
0
  11
7.43472
  21
0.90849
  31
0
  0
LINE
  8
0
  10
7.43472
  20
0.90849
  30
0
  11
7.45007
  21
0.76114
  31
0
  0
LINE
  8
0
  10
7.45007
  20
0.76114
  30
0
  11
7.45489
  21
0.64741
  31
0
  0
LINE
  8
0
  10
7.45489
  20
0.64741
  30
0
  11
7.31404
  21
0.57069
  31
0
  0
LINE
  8
0
  10
7.31404
  20
0.57069
  30
0
  11
7.2211
  21
0.63643
  31
0
  0
LINE
  8
0
  10
7.2211
  20
0.63643
  30
0
  11
7.10565
  21
0.72926
  31
0
  0
LINE
  8
0
  10
7.10565
  20
0.72926
  30
0
  11
7.00887
  21
0.83197
  31
0
  0
LINE
  8
0
  10
7.00887
  20
0.83197
  30
0
  11
6.93556
  21
0.94627
  31
0
  0
LINE
  8
0
  10
6.93556
  20
0.94627
  30
0
  11
6.88416
  21
0.99646
  31
0
  0
LINE
  8
0
  10
6.88416
  20
0.99646
  30
0
  11
6.81055
  21
1.03653
  31
0
  0
LINE
  8
0
  10
6.81055
  20
1.03653
  30
0
  11
6.70009
  21
1.02438
  31
0
  0
LINE
  8
0
  10
6.70009
  20
1.02438
  30
0
  11
6.66082
  21
1.00775
  31
0
  0
LINE
  8
0
  10
6.66082
  20
1.00775
  30
0
  11
6.57523
  21
0.93689
  31
0
  0
LINE
  8
0
  10
6.57523
  20
0.93689
  30
0
  11
6.55278
  21
0.85613
  31
0
  0
LINE
  8
0
  10
6.55278
  20
0.85613
  30
0
  11
6.55305
  21
0.7843
  31
0
  0
LINE
  8
0
  10
6.55305
  20
0.7843
  30
0
  11
6.58412
  21
0.65211
  31
0
  0
LINE
  8
0
  10
6.58412
  20
0.65211
  30
0
  11
6.59053
  21
0.51113
  31
0
  0
LINE
  8
0
  10
6.59053
  20
0.51113
  30
0
  11
6.57684
  21
0.36362
  31
0
  0
LINE
  8
0
  10
6.57684
  20
0.36362
  30
0
  11
6.55938
  21
0.25113
  31
0
  0
LINE
  8
0
  10
6.55938
  20
0.25113
  30
0
  11
6.40626
  21
0.20337
  31
0
  0
LINE
  8
0
  10
6.40626
  20
0.20337
  30
0
  11
6.32794
  21
0.28598
  31
0
  0
LINE
  8
0
  10
6.32794
  20
0.28598
  30
0
  11
6.23281
  21
0.39955
  31
0
  0
LINE
  8
0
  10
6.23281
  20
0.39955
  30
0
  11
6.15793
  21
0.51916
  31
0
  0
LINE
  8
0
  10
6.15793
  20
0.51916
  30
0
  11
6.10833
  21
0.64557
  31
0
  0
LINE
  8
0
  10
6.10833
  20
0.64557
  30
0
  11
6.06771
  21
0.70482
  31
0
  0
LINE
  8
0
  10
6.06771
  20
0.70482
  30
0
  11
6.00333
  21
0.75849
  31
0
  0
LINE
  8
0
  10
6.00333
  20
0.75849
  30
0
  11
5.89263
  21
0.76811
  31
0
  0
LINE
  8
0
  10
5.89263
  20
0.76811
  30
0
  11
5.85087
  21
0.75946
  31
0
  0
LINE
  8
0
  10
5.85087
  20
0.75946
  30
0
  11
5.75309
  21
0.70666
  31
0
  0
LINE
  8
0
  10
5.75309
  20
0.70666
  30
0
  11
5.71532
  21
0.63184
  31
0
  0
LINE
  8
0
  10
5.71532
  20
0.63184
  30
0
  11
5.70157
  21
0.56134
  31
0
  0
LINE
  8
0
  10
5.70157
  20
0.56134
  30
0
  11
5.70625
  21
0.42563
  31
0
  0
LINE
  8
0
  10
5.70625
  20
0.42563
  30
0
  11
5.68504
  21
0.28611
  31
0
  0
LINE
  8
0
  10
5.68504
  20
0.28611
  30
0
  11
5.64284
  21
0.1441
  31
0
  0
LINE
  8
0
  10
5.64284
  20
0.1441
  30
0
  11
5.60376
  21
0.03718
  31
0
  0
LINE
  8
0
  10
5.60376
  20
0.03718
  30
0
  11
5.44427
  21
0.02021
  31
0
  0
LINE
  8
0
  10
5.44427
  20
0.02021
  30
0
  11
5.38357
  21
0.11651
  31
0
  0
LINE
  8
0
  10
5.38357
  20
0.11651
  30
0
  11
5.31243
  21
0.24645
  31
0
  0
LINE
  8
0
  10
5.31243
  20
0.24645
  30
0
  11
5.26232
  21
0.37838
  31
0
  0
LINE
  8
0
  10
5.26232
  20
0.37838
  30
0
  11
5.23833
  21
0.51204
  31
0
  0
LINE
  8
0
  10
5.23833
  20
0.51204
  30
0
  11
5.21005
  21
0.57807
  31
0
  0
LINE
  8
0
  10
5.21005
  20
0.57807
  30
0
  11
5.15738
  21
0.64326
  31
0
  0
LINE
  8
0
  10
5.15738
  20
0.64326
  30
0
  11
5.05068
  21
0.6743
  31
0
  0
LINE
  8
0
  10
5.05068
  20
0.6743
  30
0
  11
5.00804
  21
0.67397
  31
0
  0
LINE
  8
0
  10
5.00804
  20
0.67397
  30
0
  11
4.90184
  21
0.64126
  31
0
  0
LINE
  8
0
  10
4.90184
  20
0.64126
  30
0
  11
4.85019
  21
0.57524
  31
0
  0
LINE
  8
0
  10
4.85019
  20
0.57524
  30
0
  11
4.82295
  21
0.50877
  31
0
  0
LINE
  8
0
  10
4.82295
  20
0.50877
  30
0
  11
4.80107
  21
0.37476
  31
0
  0
LINE
  8
0
  10
4.80107
  20
0.37476
  30
0
  11
4.75304
  21
0.24206
  31
0
  0
LINE
  8
0
  10
4.75304
  20
0.24206
  30
0
  11
4.68395
  21
0.11101
  31
0
  0
LINE
  8
0
  10
4.68395
  20
0.11101
  30
0
  11
4.62477
  21
0.01377
  31
0
  0
LINE
  8
0
  10
4.62477
  20
0.01377
  30
0
  11
4.46503
  21
0.02824
  31
0
  0
LINE
  8
0
  10
4.46503
  20
0.02824
  30
0
  11
4.42428
  21
0.13453
  31
0
  0
LINE
  8
0
  10
4.42428
  20
0.13453
  30
0
  11
4.37986
  21
0.27586
  31
0
  0
LINE
  8
0
  10
4.37986
  20
0.27586
  30
0
  11
4.35645
  21
0.41503
  31
0
  0
LINE
  8
0
  10
4.35645
  20
0.41503
  30
0
  11
4.359
  21
0.55079
  31
0
  0
LINE
  8
0
  10
4.359
  20
0.55079
  30
0
  11
4.34415
  21
0.62107
  31
0
  0
LINE
  8
0
  10
4.34415
  20
0.62107
  30
0
  11
4.3052
  21
0.69529
  31
0
  0
LINE
  8
0
  10
4.3052
  20
0.69529
  30
0
  11
4.20661
  21
0.74655
  31
0
  0
LINE
  8
0
  10
4.20661
  20
0.74655
  30
0
  11
4.16472
  21
0.75454
  31
0
  0
LINE
  8
0
  10
4.16472
  20
0.75454
  30
0
  11
4.05418
  21
0.74318
  31
0
  0
LINE
  8
0
  10
4.05418
  20
0.74318
  30
0
  11
3.99065
  21
0.68851
  31
0
  0
LINE
  8
0
  10
3.99065
  20
0.68851
  30
0
  11
3.95097
  21
0.62863
  31
0
  0
LINE
  8
0
  10
3.95097
  20
0.62863
  30
0
  11
3.90336
  21
0.50146
  31
0
  0
LINE
  8
0
  10
3.90336
  20
0.50146
  30
0
  11
3.83037
  21
0.38068
  31
0
  0
LINE
  8
0
  10
3.83037
  20
0.38068
  30
0
  11
3.73703
  21
0.26563
  31
0
  0
LINE
  8
0
  10
3.73703
  20
0.26563
  30
0
  11
3.66002
  21
0.1818
  31
0
  0
LINE
  8
0
  10
3.66002
  20
0.1818
  30
0
  11
3.50617
  21
0.22715
  31
0
  0
LINE
  8
0
  10
3.50617
  20
0.22715
  30
0
  11
3.48695
  21
0.33935
  31
0
  0
LINE
  8
0
  10
3.48695
  20
0.33935
  30
0
  11
3.47094
  21
0.48663
  31
0
  0
LINE
  8
0
  10
3.47094
  20
0.48663
  30
0
  11
3.47514
  21
0.62769
  31
0
  0
LINE
  8
0
  10
3.47514
  20
0.62769
  30
0
  11
3.50413
  21
0.76035
  31
0
  0
LINE
  8
0
  10
3.50413
  20
0.76035
  30
0
  11
3.50327
  21
0.83218
  31
0
  0
LINE
  8
0
  10
3.50327
  20
0.83218
  30
0
  11
3.47955
  21
0.91257
  31
0
  0
LINE
  8
0
  10
3.47955
  20
0.91257
  30
0
  11
3.39285
  21
0.98208
  31
0
  0
LINE
  8
0
  10
3.39285
  20
0.98208
  30
0
  11
3.35333
  21
0.99809
  31
0
  0
LINE
  8
0
  10
3.35333
  20
0.99809
  30
0
  11
3.2427
  21
1.00851
  31
0
  0
LINE
  8
0
  10
3.2427
  20
1.00851
  30
0
  11
3.16972
  21
0.96728
  31
0
  0
LINE
  8
0
  10
3.16972
  20
0.96728
  30
0
  11
3.11912
  21
0.9163
  31
0
  0
LINE
  8
0
  10
3.11912
  20
0.9163
  30
0
  11
3.04761
  21
0.80086
  31
0
  0
LINE
  8
0
  10
3.04761
  20
0.80086
  30
0
  11
2.95246
  21
0.69664
  31
0
  0
LINE
  8
0
  10
2.95246
  20
0.69664
  30
0
  11
2.83848
  21
0.60201
  31
0
  0
LINE
  8
0
  10
2.83848
  20
0.60201
  30
0
  11
2.74659
  21
0.53482
  31
0
  0
LINE
  8
0
  10
2.74659
  20
0.53482
  30
0
  11
2.60455
  21
0.60931
  31
0
  0
LINE
  8
0
  10
2.60455
  20
0.60931
  30
0
  11
2.60758
  21
0.72311
  31
0
  0
LINE
  8
0
  10
2.60758
  20
0.72311
  30
0
  11
2.62062
  21
0.87068
  31
0
  0
LINE
  8
0
  10
2.62062
  20
0.87068
  30
0
  11
2.65225
  21
1.00821
  31
0
  0
LINE
  8
0
  10
2.65225
  20
1.00821
  30
0
  11
2.70656
  21
1.13267
  31
0
  0
LINE
  8
0
  10
2.70656
  20
1.13267
  30
0
  11
2.71973
  21
1.20328
  31
0
  0
LINE
  8
0
  10
2.71973
  20
1.20328
  30
0
  11
2.71216
  21
1.28675
  31
0
  0
LINE
  8
0
  10
2.71216
  20
1.28675
  30
0
  11
2.64068
  21
1.37184
  31
0
  0
LINE
  8
0
  10
2.64068
  20
1.37184
  30
0
  11
2.60504
  21
1.39525
  31
0
  0
LINE
  8
0
  10
2.60504
  20
1.39525
  30
0
  11
2.49857
  21
1.42706
  31
0
  0
LINE
  8
0
  10
2.49857
  20
1.42706
  30
0
  11
2.41895
  21
1.40086
  31
0
  0
LINE
  8
0
  10
2.41895
  20
1.40086
  30
0
  11
2.35937
  21
1.36073
  31
0
  0
LINE
  8
0
  10
2.35937
  20
1.36073
  30
0
  11
2.26672
  21
1.26145
  31
0
  0
LINE
  8
0
  10
2.26672
  20
1.26145
  30
0
  11
2.15307
  21
1.1778
  31
0
  0
LINE
  8
0
  10
2.15307
  20
1.1778
  30
0
  11
2.02281
  21
1.10723
  31
0
  0
LINE
  8
0
  10
2.02281
  20
1.10723
  30
0
  11
1.91958
  21
1.05925
  31
0
  0
LINE
  8
0
  10
1.91958
  20
1.05925
  30
0
  11
1.7948
  21
1.16002
  31
0
  0
LINE
  8
0
  10
1.7948
  20
1.16002
  30
0
  11
1.81997
  21
1.27104
  31
0
  0
LINE
  8
0
  10
1.81997
  20
1.27104
  30
0
  11
1.86155
  21
1.41323
  31
0
  0
LINE
  8
0
  10
1.86155
  20
1.41323
  30
0
  11
1.91941
  21
1.54195
  31
0
  0
LINE
  8
0
  10
1.91941
  20
1.54195
  30
0
  11
1.99696
  21
1.65342
  31
0
  0
LINE
  8
0
  10
1.99696
  20
1.65342
  30
0
  11
2.02365
  21
1.72011
  31
0
  0
LINE
  8
0
  10
2.02365
  20
1.72011
  30
0
  11
2.0325
  21
1.80346
  31
0
  0
LINE
  8
0
  10
2.0325
  20
1.80346
  30
0
  11
1.979
  21
1.90085
  31
0
  0
LINE
  8
0
  10
1.979
  20
1.90085
  30
0
  11
1.94861
  21
1.93077
  31
0
  0
LINE
  8
0
  10
1.94861
  20
1.93077
  30
0
  11
1.85039
  21
1.98273
  31
0
  0
LINE
  8
0
  10
1.85039
  20
1.98273
  30
0
  11
1.76719
  21
1.97257
  31
0
  0
LINE
  8
0
  10
1.76719
  20
1.97257
  30
0
  11
1.70093
  21
1.94483
  31
0
  0
LINE
  8
0
  10
1.70093
  20
1.94483
  30
0
  11
1.59069
  21
1.86554
  31
0
  0
LINE
  8
0
  10
1.59069
  20
1.86554
  30
0
  11
1.4629
  21
1.80567
  31
0
  0
LINE
  8
0
  10
1.4629
  20
1.80567
  30
0
  11
1.32138
  21
1.76186
  31
0
  0
LINE
  8
0
  10
1.32138
  20
1.76186
  30
0
  11
1.21077
  21
1.73495
  31
0
  0
LINE
  8
0
  10
1.21077
  20
1.73495
  30
0
  11
1.10805
  21
1.85813
  31
0
  0
LINE
  8
0
  10
1.10805
  20
1.85813
  30
0
  11
1.1544
  21
1.96211
  31
0
  0
LINE
  8
0
  10
1.1544
  20
1.96211
  30
0
  11
1.22292
  21
2.09345
  31
0
  0
LINE
  8
0
  10
1.22292
  20
2.09345
  30
0
  11
1.30477
  21
2.20841
  31
0
  0
LINE
  8
0
  10
1.30477
  20
2.20841
  30
0
  11
1.40258
  21
2.30261
  31
0
  0
LINE
  8
0
  10
1.40258
  20
2.30261
  30
0
  11
1.44177
  21
2.36281
  31
0
  0
LINE
  8
0
  10
1.44177
  20
2.36281
  30
0
  11
1.46671
  21
2.44283
  31
0
  0
LINE
  8
0
  10
1.46671
  20
2.44283
  30
0
  11
1.43324
  21
2.54879
  31
0
  0
LINE
  8
0
  10
1.43324
  20
2.54879
  30
0
  11
1.40927
  21
2.58406
  31
0
  0
LINE
  8
0
  10
1.40927
  20
2.58406
  30
0
  11
1.32307
  21
2.65419
  31
0
  0
LINE
  8
0
  10
1.32307
  20
2.65419
  30
0
  11
1.23949
  21
2.66045
  31
0
  0
LINE
  8
0
  10
1.23949
  20
2.66045
  30
0
  11
1.16909
  21
2.64617
  31
0
  0
LINE
  8
0
  10
1.16909
  20
2.64617
  30
0
  11
1.04551
  21
2.58991
  31
0
  0
LINE
  8
0
  10
1.04551
  20
2.58991
  30
0
  11
0.90849
  21
2.55612
  31
0
  0
LINE
  8
0
  10
0.90849
  20
2.55612
  30
0
  11
0.76114
  21
2.54076
  31
0
  0
LINE
  8
0
  10
0.76114
  20
2.54076
  30
0
  11
0.64741
  21
2.53595
  31
0
  0
LINE
  8
0
  10
0.64741
  20
2.53595
  30
0
  11
0.57069
  21
2.6768
  31
0
  0
LINE
  8
0
  10
0.57069
  20
2.6768
  30
0
  11
0.63643
  21
2.76974
  31
0
  0
LINE
  8
0
  10
0.63643
  20
2.76974
  30
0
  11
0.72926
  21
2.88519
  31
0
  0
LINE
  8
0
  10
0.72926
  20
2.88519
  30
0
  11
0.83197
  21
2.98197
  31
0
  0
LINE
  8
0
  10
0.83197
  20
2.98197
  30
0
  11
0.94627
  21
3.05528
  31
0
  0
LINE
  8
0
  10
0.94627
  20
3.05528
  30
0
  11
0.99646
  21
3.10667
  31
0
  0
LINE
  8
0
  10
0.99646
  20
3.10667
  30
0
  11
1.03653
  21
3.18029
  31
0
  0
LINE
  8
0
  10
1.03653
  20
3.18029
  30
0
  11
1.02438
  21
3.29074
  31
0
  0
LINE
  8
0
  10
1.02438
  20
3.29074
  30
0
  11
1.00775
  21
3.33001
  31
0
  0
LINE
  8
0
  10
1.00775
  20
3.33001
  30
0
  11
0.93689
  21
3.41561
  31
0
  0
LINE
  8
0
  10
0.93689
  20
3.41561
  30
0
  11
0.85613
  21
3.43806
  31
0
  0
LINE
  8
0
  10
0.85613
  20
3.43806
  30
0
  11
0.7843
  21
3.43779
  31
0
  0
LINE
  8
0
  10
0.7843
  20
3.43779
  30
0
  11
0.65211
  21
3.40672
  31
0
  0
LINE
  8
0
  10
0.65211
  20
3.40672
  30
0
  11
0.51113
  21
3.40031
  31
0
  0
LINE
  8
0
  10
0.51113
  20
3.40031
  30
0
  11
0.36362
  21
3.414
  31
0
  0
LINE
  8
0
  10
0.36362
  20
3.414
  30
0
  11
0.25113
  21
3.43146
  31
0
  0
LINE
  8
0
  10
0.25113
  20
3.43146
  30
0
  11
0.20337
  21
3.58457
  31
0
  0
LINE
  8
0
  10
0.20337
  20
3.58457
  30
0
  11
0.28598
  21
3.6629
  31
0
  0
LINE
  8
0
  10
0.28598
  20
3.6629
  30
0
  11
0.39955
  21
3.75803
  31
0
  0
LINE
  8
0
  10
0.39955
  20
3.75803
  30
0
  11
0.51916
  21
3.83291
  31
0
  0
LINE
  8
0
  10
0.51916
  20
3.83291
  30
0
  11
0.64557
  21
3.88251
  31
0
  0
LINE
  8
0
  10
0.64557
  20
3.88251
  30
0
  11
0.70482
  21
3.92313
  31
0
  0
LINE
  8
0
  10
0.70482
  20
3.92313
  30
0
  11
0.75849
  21
3.98751
  31
0
  0
LINE
  8
0
  10
0.75849
  20
3.98751
  30
0
  11
0.76811
  21
4.09821
  31
0
  0
LINE
  8
0
  10
0.76811
  20
4.09821
  30
0
  11
0.75946
  21
4.13997
  31
0
  0
LINE
  8
0
  10
0.75946
  20
4.13997
  30
0
  11
0.70666
  21
4.23775
  31
0
  0
LINE
  8
0
  10
0.70666
  20
4.23775
  30
0
  11
0.63184
  21
4.27552
  31
0
  0
LINE
  8
0
  10
0.63184
  20
4.27552
  30
0
  11
0.56134
  21
4.28927
  31
0
  0
LINE
  8
0
  10
0.56134
  20
4.28927
  30
0
  11
0.42563
  21
4.28459
  31
0
  0
LINE
  8
0
  10
0.42563
  20
4.28459
  30
0
  11
0.28611
  21
4.3058
  31
0
  0
LINE
  8
0
  10
0.28611
  20
4.3058
  30
0
  11
0.1441
  21
4.348
  31
0
  0
LINE
  8
0
  10
0.1441
  20
4.348
  30
0
  11
0.03718
  21
4.38708
  31
0
  0
LINE
  8
0
  10
0.03718
  20
4.38708
  30
0
  11
0.02021
  21
4.54657
  31
0
  0
LINE
  8
0
  10
0.02021
  20
4.54657
  30
0
  11
0.11651
  21
4.60727
  31
0
  0
LINE
  8
0
  10
0.11651
  20
4.60727
  30
0
  11
0.24645
  21
4.67841
  31
0
  0
LINE
  8
0
  10
0.24645
  20
4.67841
  30
0
  11
0.37838
  21
4.72852
  31
0
  0
LINE
  8
0
  10
0.37838
  20
4.72852
  30
0
  11
0.51204
  21
4.7525
  31
0
  0
LINE
  8
0
  10
0.51204
  20
4.7525
  30
0
  11
0.57807
  21
4.78078
  31
0
  0
LINE
  8
0
  10
0.57807
  20
4.78078
  30
0
  11
0.64326
  21
4.83346
  31
0
  0
LINE
  8
0
  10
0.64326
  20
4.83346
  30
0
  11
0.6743
  21
4.94016
  31
0
  0
LINE
  8
0
  10
0.6743
  20
4.94016
  30
0
  11
0.67397
  21
4.9828
  31
0
  0
LINE
  8
0
  10
0.67397
  20
4.9828
  30
0
  11
0.64126
  21
5.089
  31
0
  0
LINE
  8
0
  10
0.64126
  20
5.089
  30
0
  11
0.57524
  21
5.14064
  31
0
  0
LINE
  8
0
  10
0.57524
  20
5.14064
  30
0
  11
0.50877
  21
5.16788
  31
0
  0
LINE
  8
0
  10
0.50877
  20
5.16788
  30
0
  11
0.37476
  21
5.18977
  31
0
  0
LINE
  8
0
  10
0.37476
  20
5.18977
  30
0
  11
0.24206
  21
5.23779
  31
0
  0
LINE
  8
0
  10
0.24206
  20
5.23779
  30
0
  11
0.11101
  21
5.30689
  31
0
  0
LINE
  8
0
  10
0.11101
  20
5.30689
  30
0
  11
0.01377
  21
5.36607
  31
0
  0
LINE
  8
0
  10
0.01377
  20
5.36607
  30
0
  11
0.02824
  21
5.52581
  31
0
  0
LINE
  8
0
  10
0.02824
  20
5.52581
  30
0
  11
0.13453
  21
5.56655
  31
0
  0
LINE
  8
0
  10
0.13453
  20
5.56655
  30
0
  11
0.27586
  21
5.61098
  31
0
  0
LINE
  8
0
  10
0.27586
  20
5.61098
  30
0
  11
0.41503
  21
5.63439
  31
0
  0
LINE
  8
0
  10
0.41503
  20
5.63439
  30
0
  11
0.55079
  21
5.63183
  31
0
  0
LINE
  8
0
  10
0.55079
  20
5.63183
  30
0
  11
0.62107
  21
5.64669
  31
0
  0
LINE
  8
0
  10
0.62107
  20
5.64669
  30
0
  11
0.69529
  21
5.68563
  31
0
  0
LINE
  8
0
  10
0.69529
  20
5.68563
  30
0
  11
0.74655
  21
5.78423
  31
0
  0
LINE
  8
0
  10
0.74655
  20
5.78423
  30
0
  11
0.75454
  21
5.82612
  31
0
  0
LINE
  8
0
  10
0.75454
  20
5.82612
  30
0
  11
0.74318
  21
5.93666
  31
0
  0
LINE
  8
0
  10
0.74318
  20
5.93666
  30
0
  11
0.68851
  21
6.00019
  31
0
  0
LINE
  8
0
  10
0.68851
  20
6.00019
  30
0
  11
0.62863
  21
6.03987
  31
0
  0
LINE
  8
0
  10
0.62863
  20
6.03987
  30
0
  11
0.50146
  21
6.08748
  31
0
  0
LINE
  8
0
  10
0.50146
  20
6.08748
  30
0
  11
0.38068
  21
6.16047
  31
0
  0
LINE
  8
0
  10
0.38068
  20
6.16047
  30
0
  11
0.26563
  21
6.2538
  31
0
  0
LINE
  8
0
  10
0.26563
  20
6.2538
  30
0
  11
0.1818
  21
6.33082
  31
0
  0
LINE
  8
0
  10
0.1818
  20
6.33082
  30
0
  11
0.22715
  21
6.48466
  31
0
  0
LINE
  8
0
  10
0.22715
  20
6.48466
  30
0
  11
0.33935
  21
6.50389
  31
0
  0
LINE
  8
0
  10
0.33935
  20
6.50389
  30
0
  11
0.48663
  21
6.51989
  31
0
  0
LINE
  8
0
  10
0.48663
  20
6.51989
  30
0
  11
0.62769
  21
6.5157
  31
0
  0
LINE
  8
0
  10
0.62769
  20
6.5157
  30
0
  11
0.76035
  21
6.48671
  31
0
  0
LINE
  8
0
  10
0.76035
  20
6.48671
  30
0
  11
0.83218
  21
6.48757
  31
0
  0
LINE
  8
0
  10
0.83218
  20
6.48757
  30
0
  11
0.91257
  21
6.51128
  31
0
  0
LINE
  8
0
  10
0.91257
  20
6.51128
  30
0
  11
0.98208
  21
6.59798
  31
0
  0
LINE
  8
0
  10
0.98208
  20
6.59798
  30
0
  11
0.99809
  21
6.63751
  31
0
  0
LINE
  8
0
  10
0.99809
  20
6.63751
  30
0
  11
1.00851
  21
6.74814
  31
0
  0
LINE
  8
0
  10
1.00851
  20
6.74814
  30
0
  11
0.96728
  21
6.82112
  31
0
  0
LINE
  8
0
  10
0.96728
  20
6.82112
  30
0
  11
0.9163
  21
6.87172
  31
0
  0
LINE
  8
0
  10
0.9163
  20
6.87172
  30
0
  11
0.80086
  21
6.94322
  31
0
  0
LINE
  8
0
  10
0.80086
  20
6.94322
  30
0
  11
0.69664
  21
7.03838
  31
0
  0
LINE
  8
0
  10
0.69664
  20
7.03838
  30
0
  11
0.60201
  21
7.15236
  31
0
  0
LINE
  8
0
  10
0.60201
  20
7.15236
  30
0
  11
0.53482
  21
7.24425
  31
0
  0
LINE
  8
0
  10
0.53482
  20
7.24425
  30
0
  11
0.60931
  21
7.38629
  31
0
  0
LINE
  8
0
  10
0.60931
  20
7.38629
  30
0
  11
0.72311
  21
7.38326
  31
0
  0
LINE
  8
0
  10
0.72311
  20
7.38326
  30
0
  11
0.87068
  21
7.37022
  31
0
  0
LINE
  8
0
  10
0.87068
  20
7.37022
  30
0
  11
1.00821
  21
7.33859
  31
0
  0
LINE
  8
0
  10
1.00821
  20
7.33859
  30
0
  11
1.13267
  21
7.28427
  31
0
  0
LINE
  8
0
  10
1.13267
  20
7.28427
  30
0
  11
1.20328
  21
7.27111
  31
0
  0
LINE
  8
0
  10
1.20328
  20
7.27111
  30
0
  11
1.28675
  21
7.27868
  31
0
  0
LINE
  8
0
  10
1.28675
  20
7.27868
  30
0
  11
1.37184
  21
7.35015
  31
0
  0
LINE
  8
0
  10
1.37184
  20
7.35015
  30
0
  11
1.39525
  21
7.3858
  31
0
  0
LINE
  8
0
  10
1.39525
  20
7.3858
  30
0
  11
1.42706
  21
7.49227
  31
0
  0
LINE
  8
0
  10
1.42706
  20
7.49227
  30
0
  11
1.40086
  21
7.57189
  31
0
  0
LINE
  8
0
  10
1.40086
  20
7.57189
  30
0
  11
1.36073
  21
7.63146
  31
0
  0
LINE
  8
0
  10
1.36073
  20
7.63146
  30
0
  11
1.26145
  21
7.72411
  31
0
  0
LINE
  8
0
  10
1.26145
  20
7.72411
  30
0
  11
1.1778
  21
7.83777
  31
0
  0
LINE
  8
0
  10
1.1778
  20
7.83777
  30
0
  11
1.10723
  21
7.96803
  31
0
  0
LINE
  8
0
  10
1.10723
  20
7.96803
  30
0
  11
1.05925
  21
8.07126
  31
0
  0
LINE
  8
0
  10
1.05925
  20
8.07126
  30
0
  11
1.16002
  21
8.19604
  31
0
  0
LINE
  8
0
  10
1.16002
  20
8.19604
  30
0
  11
1.27104
  21
8.17087
  31
0
  0
LINE
  8
0
  10
1.27104
  20
8.17087
  30
0
  11
1.41323
  21
8.12929
  31
0
  0
LINE
  8
0
  10
1.41323
  20
8.12929
  30
0
  11
1.54195
  21
8.07143
  31
0
  0
LINE
  8
0
  10
1.54195
  20
8.07143
  30
0
  11
1.65342
  21
7.99388
  31
0
  0
LINE
  8
0
  10
1.65342
  20
7.99388
  30
0
  11
1.72011
  21
7.96719
  31
0
  0
LINE
  8
0
  10
1.72011
  20
7.96719
  30
0
  11
1.80346
  21
7.95833
  31
0
  0
LINE
  8
0
  10
1.80346
  20
7.95833
  30
0
  11
1.90085
  21
8.01183
  31
0
  0
LINE
  8
0
  10
1.90085
  20
8.01183
  30
0
  11
1.93077
  21
8.04222
  31
0
  0
LINE
  8
0
  10
1.93077
  20
8.04222
  30
0
  11
1.98273
  21
8.14045
  31
0
  0
LINE
  8
0
  10
1.98273
  20
8.14045
  30
0
  11
1.97257
  21
8.22364
  31
0
  0
LINE
  8
0
  10
1.97257
  20
8.22364
  30
0
  11
1.94483
  21
8.28991
  31
0
  0
LINE
  8
0
  10
1.94483
  20
8.28991
  30
0
  11
1.86554
  21
8.40014
  31
0
  0
LINE
  8
0
  10
1.86554
  20
8.40014
  30
0
  11
1.80567
  21
8.52794
  31
0
  0
LINE
  8
0
  10
1.80567
  20
8.52794
  30
0
  11
1.76186
  21
8.66946
  31
0
  0
LINE
  8
0
  10
1.76186
  20
8.66946
  30
0
  11
1.73495
  21
8.78007
  31
0
  0
LINE
  8
0
  10
1.73495
  20
8.78007
  30
0
  11
1.85813
  21
8.88279
  31
0
  0
LINE
  8
0
  10
1.85813
  20
8.88279
  30
0
  11
1.96211
  21
8.83644
  31
0
  0
LINE
  8
0
  10
1.96211
  20
8.83644
  30
0
  11
2.09345
  21
8.76792
  31
0
  0
LINE
  8
0
  10
2.09345
  20
8.76792
  30
0
  11
2.20841
  21
8.68606
  31
0
  0
LINE
  8
0
  10
2.20841
  20
8.68606
  30
0
  11
2.30261
  21
8.58826
  31
0
  0
LINE
  8
0
  10
2.30261
  20
8.58826
  30
0
  11
2.36281
  21
8.54907
  31
0
  0
LINE
  8
0
  10
2.36281
  20
8.54907
  30
0
  11
2.44283
  21
8.52412
  31
0
  0
LINE
  8
0
  10
2.44283
  20
8.52412
  30
0
  11
2.54879
  21
8.55759
  31
0
  0
LINE
  8
0
  10
2.54879
  20
8.55759
  30
0
  11
2.58406
  21
8.58156
  31
0
  0
LINE
  8
0
  10
2.58406
  20
8.58156
  30
0
  11
2.65419
  21
8.66776
  31
0
  0
LINE
  8
0
  10
2.65419
  20
8.66776
  30
0
  11
2.66045
  21
8.75134
  31
0
  0
LINE
  8
0
  10
2.66045
  20
8.75134
  30
0
  11
2.64617
  21
8.82174
  31
0
  0
LINE
  8
0
  10
2.64617
  20
8.82174
  30
0
  11
2.58991
  21
8.94533
  31
0
  0
LINE
  8
0
  10
2.58991
  20
8.94533
  30
0
  11
2.55612
  21
9.08235
  31
0
  0
LINE
  8
0
  10
2.55612
  20
9.08235
  30
0
  11
2.54076
  21
9.2297
  31
0
  0
LINE
  8
0
  10
2.54076
  20
9.2297
  30
0
  11
2.53595
  21
9.34343
  31
0
  0
LINE
  8
0
  10
2.53595
  20
9.34343
  30
0
  11
2.6768
  21
9.42015
  31
0
  0
LINE
  8
0
  10
2.6768
  20
9.42015
  30
0
  11
2.76974
  21
9.35441
  31
0
  0
LINE
  8
0
  10
2.76974
  20
9.35441
  30
0
  11
2.88519
  21
9.26158
  31
0
  0
LINE
  8
0
  10
2.88519
  20
9.26158
  30
0
  11
2.98197
  21
9.15887
  31
0
  0
LINE
  8
0
  10
2.98197
  20
9.15887
  30
0
  11
3.05528
  21
9.04456
  31
0
  0
LINE
  8
0
  10
3.05528
  20
9.04456
  30
0
  11
3.10667
  21
8.99438
  31
0
  0
LINE
  8
0
  10
3.10667
  20
8.99438
  30
0
  11
3.18029
  21
8.95431
  31
0
  0
LINE
  8
0
  10
3.18029
  20
8.95431
  30
0
  11
3.29074
  21
8.96646
  31
0
  0
LINE
  8
0
  10
3.29074
  20
8.96646
  30
0
  11
3.33001
  21
8.98309
  31
0
  0
LINE
  8
0
  10
3.33001
  20
8.98309
  30
0
  11
3.41561
  21
9.05395
  31
0
  0
LINE
  8
0
  10
3.41561
  20
9.05395
  30
0
  11
3.43806
  21
9.1347
  31
0
  0
LINE
  8
0
  10
3.43806
  20
9.1347
  30
0
  11
3.43779
  21
9.20654
  31
0
  0
LINE
  8
0
  10
3.43779
  20
9.20654
  30
0
  11
3.40672
  21
9.33873
  31
0
  0
LINE
  8
0
  10
3.40672
  20
9.33873
  30
0
  11
3.40031
  21
9.4797
  31
0
  0
LINE
  8
0
  10
3.40031
  20
9.4797
  30
0
  11
3.414
  21
9.62722
  31
0
  0
LINE
  8
0
  10
3.414
  20
9.62722
  30
0
  11
3.43146
  21
9.7397
  31
0
  0
LINE
  8
0
  10
3.43146
  20
9.7397
  30
0
  11
3.58457
  21
9.78747
  31
0
  0
LINE
  8
0
  10
3.58457
  20
9.78747
  30
0
  11
3.6629
  21
9.70486
  31
0
  0
LINE
  8
0
  10
3.6629
  20
9.70486
  30
0
  11
3.75803
  21
9.59129
  31
0
  0
LINE
  8
0
  10
3.75803
  20
9.59129
  30
0
  11
3.83291
  21
9.47167
  31
0
  0
LINE
  8
0
  10
3.83291
  20
9.47167
  30
0
  11
3.88251
  21
9.34526
  31
0
  0
LINE
  8
0
  10
3.88251
  20
9.34526
  30
0
  11
3.92313
  21
9.28602
  31
0
  0
LINE
  8
0
  10
3.92313
  20
9.28602
  30
0
  11
3.98751
  21
9.23235
  31
0
  0
LINE
  8
0
  10
3.98751
  20
9.23235
  30
0
  11
4.09821
  21
9.22273
  31
0
  0
LINE
  8
0
  10
4.09821
  20
9.22273
  30
0
  11
4.13997
  21
9.23137
  31
0
  0
LINE
  8
0
  10
4.13997
  20
9.23137
  30
0
  11
4.23775
  21
9.28417
  31
0
  0
LINE
  8
0
  10
4.23775
  20
9.28417
  30
0
  11
4.27552
  21
9.359
  31
0
  0
LINE
  8
0
  10
4.27552
  20
9.359
  30
0
  11
4.28927
  21
9.4295
  31
0
  0
LINE
  8
0
  10
4.28927
  20
9.4295
  30
0
  11
4.28459
  21
9.56521
  31
0
  0
LINE
  8
0
  10
4.28459
  20
9.56521
  30
0
  11
4.3058
  21
9.70473
  31
0
  0
LINE
  8
0
  10
4.3058
  20
9.70473
  30
0
  11
4.348
  21
9.84674
  31
0
  0
LINE
  8
0
  10
4.348
  20
9.84674
  30
0
  11
4.38708
  21
9.95366
  31
0
  0
LINE
  8
0
  10
4.38708
  20
9.95366
  30
0
  11
4.54657
  21
9.97063
  31
0
  0
LINE
  8
0
  10
4.54657
  20
9.97063
  30
0
  11
4.60727
  21
9.87433
  31
0
  0
LINE
  8
0
  10
4.60727
  20
9.87433
  30
0
  11
4.67841
  21
9.74439
  31
0
  0
LINE
  8
0
  10
4.67841
  20
9.74439
  30
0
  11
4.72852
  21
9.61246
  31
0
  0
LINE
  8
0
  10
4.72852
  20
9.61246
  30
0
  11
4.7525
  21
9.4788
  31
0
  0
LINE
  8
0
  10
4.7525
  20
9.4788
  30
0
  11
4.78078
  21
9.41277
  31
0
  0
LINE
  8
0
  10
4.78078
  20
9.41277
  30
0
  11
4.83346
  21
9.34757
  31
0
  0
LINE
  8
0
  10
4.83346
  20
9.34757
  30
0
  11
4.94016
  21
9.31654
  31
0
  0
LINE
  8
0
  10
4.94016
  20
9.31654
  30
0
  11
4.9828
  21
9.31687
  31
0
  0
LINE
  8
0
  10
4.9828
  20
9.31687
  30
0
  11
5.089
  21
9.34958
  31
0
  0
LINE
  8
0
  10
5.089
  20
9.34958
  30
0
  11
5.14064
  21
9.4156
  31
0
  0
LINE
  8
0
  10
5.14064
  20
9.4156
  30
0
  11
5.16788
  21
9.48206
  31
0
  0
LINE
  8
0
  10
5.16788
  20
9.48206
  30
0
  11
5.18977
  21
9.61608
  31
0
  0
LINE
  8
0
  10
5.18977
  20
9.61608
  30
0
  11
5.23779
  21
9.74878
  31
0
  0
LINE
  8
0
  10
5.23779
  20
9.74878
  30
0
  11
5.30689
  21
9.87982
  31
0
  0
LINE
  8
0
  10
5.30689
  20
9.87982
  30
0
  11
5.36607
  21
9.97707
  31
0
  0
LINE
  8
0
  10
5.36607
  20
9.97707
  30
0
  11
5.52581
  21
9.9626
  31
0
  0
LINE
  8
0
  10
5.52581
  20
9.9626
  30
0
  11
5.56655
  21
9.85631
  31
0
  0
LINE
  8
0
  10
5.56655
  20
9.85631
  30
0
  11
5.61098
  21
9.71498
  31
0
  0
LINE
  8
0
  10
5.61098
  20
9.71498
  30
0
  11
5.63439
  21
9.57581
  31
0
  0
LINE
  8
0
  10
5.63439
  20
9.57581
  30
0
  11
5.63183
  21
9.44004
  31
0
  0
LINE
  8
0
  10
5.63183
  20
9.44004
  30
0
  11
5.64669
  21
9.36976
  31
0
  0
LINE
  8
0
  10
5.64669
  20
9.36976
  30
0
  11
5.68563
  21
9.29555
  31
0
  0
LINE
  8
0
  10
5.68563
  20
9.29555
  30
0
  11
5.78423
  21
9.24429
  31
0
  0
LINE
  8
0
  10
5.78423
  20
9.24429
  30
0
  11
5.82612
  21
9.2363
  31
0
  0
LINE
  8
0
  10
5.82612
  20
9.2363
  30
0
  11
5.93666
  21
9.24766
  31
0
  0
LINE
  8
0
  10
5.93666
  20
9.24766
  30
0
  11
6.00019
  21
9.30233
  31
0
  0
LINE
  8
0
  10
6.00019
  20
9.30233
  30
0
  11
6.03987
  21
9.36221
  31
0
  0
LINE
  8
0
  10
6.03987
  20
9.36221
  30
0
  11
6.08748
  21
9.48938
  31
0
  0
LINE
  8
0
  10
6.08748
  20
9.48938
  30
0
  11
6.16047
  21
9.61016
  31
0
  0
LINE
  8
0
  10
6.16047
  20
9.61016
  30
0
  11
6.2538
  21
9.72521
  31
0
  0
LINE
  8
0
  10
6.2538
  20
9.72521
  30
0
  11
6.33082
  21
9.80904
  31
0
  0
LINE
  8
0
  10
6.33082
  20
9.80904
  30
0
  11
6.48466
  21
9.76368
  31
0
  0
LINE
  8
0
  10
6.48466
  20
9.76368
  30
0
  11
6.50389
  21
9.65148
  31
0
  0
LINE
  8
0
  10
6.50389
  20
9.65148
  30
0
  11
6.51989
  21
9.50421
  31
0
  0
LINE
  8
0
  10
6.51989
  20
9.50421
  30
0
  11
6.5157
  21
9.36315
  31
0
  0
LINE
  8
0
  10
6.5157
  20
9.36315
  30
0
  11
6.48671
  21
9.23048
  31
0
  0
LINE
  8
0
  10
6.48671
  20
9.23048
  30
0
  11
6.48757
  21
9.15866
  31
0
  0
LINE
  8
0
  10
6.48757
  20
9.15866
  30
0
  11
6.51128
  21
9.07827
  31
0
  0
LINE
  8
0
  10
6.51128
  20
9.07827
  30
0
  11
6.59798
  21
9.00876
  31
0
  0
LINE
  8
0
  10
6.59798
  20
9.00876
  30
0
  11
6.63751
  21
8.99275
  31
0
  0
LINE
  8
0
  10
6.63751
  20
8.99275
  30
0
  11
6.74814
  21
8.98233
  31
0
  0
LINE
  8
0
  10
6.74814
  20
8.98233
  30
0
  11
6.82112
  21
9.02356
  31
0
  0
LINE
  8
0
  10
6.82112
  20
9.02356
  30
0
  11
6.87172
  21
9.07454
  31
0
  0
LINE
  8
0
  10
6.87172
  20
9.07454
  30
0
  11
6.94322
  21
9.18998
  31
0
  0
LINE
  8
0
  10
6.94322
  20
9.18998
  30
0
  11
7.03838
  21
9.2942
  31
0
  0
LINE
  8
0
  10
7.03838
  20
9.2942
  30
0
  11
7.15236
  21
9.38883
  31
0
  0
LINE
  8
0
  10
7.15236
  20
9.38883
  30
0
  11
7.24425
  21
9.45602
  31
0
  0
LINE
  8
0
  10
7.24425
  20
9.45602
  30
0
  11
7.38629
  21
9.38153
  31
0
  0
LINE
  8
0
  10
7.38629
  20
9.38153
  30
0
  11
7.38326
  21
9.26773
  31
0
  0
LINE
  8
0
  10
7.38326
  20
9.26773
  30
0
  11
7.37022
  21
9.12016
  31
0
  0
LINE
  8
0
  10
7.37022
  20
9.12016
  30
0
  11
7.33859
  21
8.98263
  31
0
  0
LINE
  8
0
  10
7.33859
  20
8.98263
  30
0
  11
7.28427
  21
8.85817
  31
0
  0
LINE
  8
0
  10
7.28427
  20
8.85817
  30
0
  11
7.27111
  21
8.78756
  31
0
  0
LINE
  8
0
  10
7.27111
  20
8.78756
  30
0
  11
7.27868
  21
8.70408
  31
0
  0
LINE
  8
0
  10
7.27868
  20
8.70408
  30
0
  11
7.35015
  21
8.619
  31
0
  0
LINE
  8
0
  10
7.35015
  20
8.619
  30
0
  11
7.3858
  21
8.59559
  31
0
  0
LINE
  8
0
  10
7.3858
  20
8.59559
  30
0
  11
7.49227
  21
8.56378
  31
0
  0
LINE
  8
0
  10
7.49227
  20
8.56378
  30
0
  11
7.57189
  21
8.58998
  31
0
  0
LINE
  8
0
  10
7.57189
  20
8.58998
  30
0
  11
7.63146
  21
8.63011
  31
0
  0
LINE
  8
0
  10
7.63146
  20
8.63011
  30
0
  11
7.72411
  21
8.72939
  31
0
  0
LINE
  8
0
  10
7.72411
  20
8.72939
  30
0
  11
7.83777
  21
8.81304
  31
0
  0
LINE
  8
0
  10
7.83777
  20
8.81304
  30
0
  11
7.96803
  21
8.88361
  31
0
  0
LINE
  8
0
  10
7.96803
  20
8.88361
  30
0
  11
8.07126
  21
8.93159
  31
0
  0
LINE
  8
0
  10
8.07126
  20
8.93159
  30
0
  11
8.19604
  21
8.83081
  31
0
  0
LINE
  8
0
  10
8.19604
  20
8.83081
  30
0
  11
8.17087
  21
8.71979
  31
0
  0
LINE
  8
0
  10
8.17087
  20
8.71979
  30
0
  11
8.12929
  21
8.5776
  31
0
  0
LINE
  8
0
  10
8.12929
  20
8.5776
  30
0
  11
8.07143
  21
8.44889
  31
0
  0
LINE
  8
0
  10
8.07143
  20
8.44889
  30
0
  11
7.99388
  21
8.33742
  31
0
  0
LINE
  8
0
  10
7.99388
  20
8.33742
  30
0
  11
7.96719
  21
8.27073
  31
0
  0
LINE
  8
0
  10
7.96719
  20
8.27073
  30
0
  11
7.95833
  21
8.18738
  31
0
  0
LINE
  8
0
  10
7.95833
  20
8.18738
  30
0
  11
8.01183
  21
8.08999
  31
0
  0
LINE
  8
0
  10
8.01183
  20
8.08999
  30
0
  11
8.04222
  21
8.06007
  31
0
  0
LINE
  8
0
  10
8.04222
  20
8.06007
  30
0
  11
8.14045
  21
8.00811
  31
0
  0
LINE
  8
0
  10
8.14045
  20
8.00811
  30
0
  11
8.22364
  21
8.01827
  31
0
  0
LINE
  8
0
  10
8.22364
  20
8.01827
  30
0
  11
8.28991
  21
8.046
  31
0
  0
LINE
  8
0
  10
8.28991
  20
8.046
  30
0
  11
8.40014
  21
8.1253
  31
0
  0
LINE
  8
0
  10
8.40014
  20
8.1253
  30
0
  11
8.52794
  21
8.18517
  31
0
  0
LINE
  8
0
  10
8.52794
  20
8.18517
  30
0
  11
8.66946
  21
8.22897
  31
0
  0
LINE
  8
0
  10
8.66946
  20
8.22897
  30
0
  11
8.78007
  21
8.25589
  31
0
  0
LINE
  8
0
  10
8.78007
  20
8.25589
  30
0
  11
8.88279
  21
8.13271
  31
0
  0
LINE
  8
0
  10
8.88279
  20
8.13271
  30
0
  11
8.83644
  21
8.02873
  31
0
  0
LINE
  8
0
  10
8.83644
  20
8.02873
  30
0
  11
8.76792
  21
7.89739
  31
0
  0
LINE
  8
0
  10
8.76792
  20
7.89739
  30
0
  11
8.68606
  21
7.78243
  31
0
  0
LINE
  8
0
  10
8.68606
  20
7.78243
  30
0
  11
8.58826
  21
7.68823
  31
0
  0
LINE
  8
0
  10
8.58826
  20
7.68823
  30
0
  11
8.54907
  21
7.62803
  31
0
  0
LINE
  8
0
  10
8.54907
  20
7.62803
  30
0
  11
8.52412
  21
7.54801
  31
0
  0
LINE
  8
0
  10
8.52412
  20
7.54801
  30
0
  11
8.55759
  21
7.44205
  31
0
  0
LINE
  8
0
  10
8.55759
  20
7.44205
  30
0
  11
8.58156
  21
7.40678
  31
0
  0
LINE
  8
0
  10
8.58156
  20
7.40678
  30
0
  11
8.66776
  21
7.33665
  31
0
  0
LINE
  8
0
  10
8.66776
  20
7.33665
  30
0
  11
8.75134
  21
7.33039
  31
0
  0
LINE
  8
0
  10
8.75134
  20
7.33039
  30
0
  11
8.82174
  21
7.34467
  31
0
  0
LINE
  8
0
  10
8.82174
  20
7.34467
  30
0
  11
8.94533
  21
7.40093
  31
0
  0
LINE
  8
0
  10
8.94533
  20
7.40093
  30
0
  11
9.08235
  21
7.43472
  31
0
  0
LINE
  8
0
  10
9.08235
  20
7.43472
  30
0
  11
9.2297
  21
7.45007
  31
0
  0
LINE
  8
0
  10
9.2297
  20
7.45007
  30
0
  11
9.34343
  21
7.45489
  31
0
  0
LINE
  8
0
  10
9.34343
  20
7.45489
  30
0
  11
9.42015
  21
7.31404
  31
0
  0
LINE
  8
0
  10
9.42015
  20
7.31404
  30
0
  11
9.35441
  21
7.2211
  31
0
  0
LINE
  8
0
  10
9.35441
  20
7.2211
  30
0
  11
9.26158
  21
7.10565
  31
0
  0
LINE
  8
0
  10
9.26158
  20
7.10565
  30
0
  11
9.15887
  21
7.00887
  31
0
  0
LINE
  8
0
  10
9.15887
  20
7.00887
  30
0
  11
9.04456
  21
6.93556
  31
0
  0
LINE
  8
0
  10
9.04456
  20
6.93556
  30
0
  11
8.99438
  21
6.88416
  31
0
  0
LINE
  8
0
  10
8.99438
  20
6.88416
  30
0
  11
8.95431
  21
6.81055
  31
0
  0
LINE
  8
0
  10
8.95431
  20
6.81055
  30
0
  11
8.96646
  21
6.70009
  31
0
  0
LINE
  8
0
  10
8.96646
  20
6.70009
  30
0
  11
8.98309
  21
6.66082
  31
0
  0
LINE
  8
0
  10
8.98309
  20
6.66082
  30
0
  11
9.05395
  21
6.57523
  31
0
  0
LINE
  8
0
  10
9.05395
  20
6.57523
  30
0
  11
9.1347
  21
6.55278
  31
0
  0
LINE
  8
0
  10
9.1347
  20
6.55278
  30
0
  11
9.20654
  21
6.55305
  31
0
  0
LINE
  8
0
  10
9.20654
  20
6.55305
  30
0
  11
9.33873
  21
6.58412
  31
0
  0
LINE
  8
0
  10
9.33873
  20
6.58412
  30
0
  11
9.4797
  21
6.59053
  31
0
  0
LINE
  8
0
  10
9.4797
  20
6.59053
  30
0
  11
9.62722
  21
6.57684
  31
0
  0
LINE
  8
0
  10
9.62722
  20
6.57684
  30
0
  11
9.7397
  21
6.55938
  31
0
  0
LINE
  8
0
  10
9.7397
  20
6.55938
  30
0
  11
9.78747
  21
6.40626
  31
0
  0
LINE
  8
0
  10
9.78747
  20
6.40626
  30
0
  11
9.70486
  21
6.32794
  31
0
  0
LINE
  8
0
  10
9.70486
  20
6.32794
  30
0
  11
9.59129
  21
6.23281
  31
0
  0
LINE
  8
0
  10
9.59129
  20
6.23281
  30
0
  11
9.47167
  21
6.15793
  31
0
  0
LINE
  8
0
  10
9.47167
  20
6.15793
  30
0
  11
9.34526
  21
6.10833
  31
0
  0
LINE
  8
0
  10
9.34526
  20
6.10833
  30
0
  11
9.28602
  21
6.06771
  31
0
  0
LINE
  8
0
  10
9.28602
  20
6.06771
  30
0
  11
9.23235
  21
6.00333
  31
0
  0
LINE
  8
0
  10
9.23235
  20
6.00333
  30
0
  11
9.22273
  21
5.89263
  31
0
  0
LINE
  8
0
  10
9.22273
  20
5.89263
  30
0
  11
9.23137
  21
5.85087
  31
0
  0
LINE
  8
0
  10
9.23137
  20
5.85087
  30
0
  11
9.28417
  21
5.75309
  31
0
  0
LINE
  8
0
  10
9.28417
  20
5.75309
  30
0
  11
9.359
  21
5.71532
  31
0
  0
LINE
  8
0
  10
9.359
  20
5.71532
  30
0
  11
9.4295
  21
5.70157
  31
0
  0
LINE
  8
0
  10
9.4295
  20
5.70157
  30
0
  11
9.56521
  21
5.70625
  31
0
  0
LINE
  8
0
  10
9.56521
  20
5.70625
  30
0
  11
9.70473
  21
5.68504
  31
0
  0
LINE
  8
0
  10
9.70473
  20
5.68504
  30
0
  11
9.84674
  21
5.64284
  31
0
  0
LINE
  8
0
  10
9.84674
  20
5.64284
  30
0
  11
9.95366
  21
5.60376
  31
0
  0
LINE
  8
0
  10
9.95366
  20
5.60376
  30
0
  11
9.97063
  21
5.44427
  31
0
  0
LINE
  8
0
  10
9.97063
  20
5.44427
  30
0
  11
9.87433
  21
5.38357
  31
0
  0
LINE
  8
0
  10
9.87433
  20
5.38357
  30
0
  11
9.74439
  21
5.31243
  31
0
  0
LINE
  8
0
  10
9.74439
  20
5.31243
  30
0
  11
9.61246
  21
5.26232
  31
0
  0
LINE
  8
0
  10
9.61246
  20
5.26232
  30
0
  11
9.4788
  21
5.23833
  31
0
  0
LINE
  8
0
  10
9.4788
  20
5.23833
  30
0
  11
9.41277
  21
5.21005
  31
0
  0
LINE
  8
0
  10
9.41277
  20
5.21005
  30
0
  11
9.34757
  21
5.15738
  31
0
  0
LINE
  8
0
  10
9.34757
  20
5.15738
  30
0
  11
9.31654
  21
5.05068
  31
0
  0
LINE
  8
0
  10
9.31654
  20
5.05068
  30
0
  11
9.31687
  21
5.00804
  31
0
  0
LINE
  8
0
  10
5.49542
  20
4.99542
  30
0
  11
5.49542
  21
4.99542
  31
0
  0
LINE
  8
0
  10
5.49542
  20
4.99542
  30
0
  11
5.47838
  21
5.12483
  31
0
  0
LINE
  8
0
  10
5.47838
  20
5.12483
  30
0
  11
5.42843
  21
5.24542
  31
0
  0
LINE
  8
0
  10
5.42843
  20
5.24542
  30
0
  11
5.34897
  21
5.34897
  31
0
  0
LINE
  8
0
  10
5.34897
  20
5.34897
  30
0
  11
5.24542
  21
5.42843
  31
0
  0
LINE
  8
0
  10
5.24542
  20
5.42843
  30
0
  11
5.12483
  21
5.47838
  31
0
  0
LINE
  8
0
  10
5.12483
  20
5.47838
  30
0
  11
4.99542
  21
5.49542
  31
0
  0
LINE
  8
0
  10
4.99542
  20
5.49542
  30
0
  11
4.86601
  21
5.47838
  31
0
  0
LINE
  8
0
  10
4.86601
  20
5.47838
  30
0
  11
4.74542
  21
5.42843
  31
0
  0
LINE
  8
0
  10
4.74542
  20
5.42843
  30
0
  11
4.64187
  21
5.34897
  31
0
  0
LINE
  8
0
  10
4.64187
  20
5.34897
  30
0
  11
4.56241
  21
5.24542
  31
0
  0
LINE
  8
0
  10
4.56241
  20
5.24542
  30
0
  11
4.51246
  21
5.12483
  31
0
  0
LINE
  8
0
  10
4.51246
  20
5.12483
  30
0
  11
4.49542
  21
4.99542
  31
0
  0
LINE
  8
0
  10
4.49542
  20
4.99542
  30
0
  11
4.51246
  21
4.86601
  31
0
  0
LINE
  8
0
  10
4.51246
  20
4.86601
  30
0
  11
4.56241
  21
4.74542
  31
0
  0
LINE
  8
0
  10
4.56241
  20
4.74542
  30
0
  11
4.64187
  21
4.64187
  31
0
  0
LINE
  8
0
  10
4.64187
  20
4.64187
  30
0
  11
4.74542
  21
4.56241
  31
0
  0
LINE
  8
0
  10
4.74542
  20
4.56241
  30
0
  11
4.86601
  21
4.51246
  31
0
  0
LINE
  8
0
  10
4.86601
  20
4.51246
  30
0
  11
4.99542
  21
4.49542
  31
0
  0
LINE
  8
0
  10
4.99542
  20
4.49542
  30
0
  11
5.12483
  21
4.51246
  31
0
  0
LINE
  8
0
  10
5.12483
  20
4.51246
  30
0
  11
5.24542
  21
4.56241
  31
0
  0
LINE
  8
0
  10
5.24542
  20
4.56241
  30
0
  11
5.34897
  21
4.64187
  31
0
  0
LINE
  8
0
  10
5.34897
  20
4.64187
  30
0
  11
5.42843
  21
4.74542
  31
0
  0
LINE
  8
0
  10
5.42843
  20
4.74542
  30
0
  11
5.47838
  21
4.86601
  31
0
  0
LINE
  8
0
  10
5.47838
  20
4.86601
  30
0
  11
5.49542
  21
4.99542
  31
0
  0
LINE
  8
0
  10
5.49542
  20
4.99542
  30
0
  11
5.49542
  21
4.99542
  31
0
  0
ENDSEC
  0
EOF
