  999
file created by gear template generator
  0
SECTION
  2
HEADER
  9
$ACADVER
  1
AC1006
  9
$INSBASE
  10
0.0
  20
0.0
  30
0.0
  9
$EXTMIN
  10
0.0
  20
0.0
  9
$EXTMAX
  10
10000.0
  20
10000.0
  0
ENDSEC
  0
SECTION
  2
ENTITIES
  0
LINE
  8
0
  10
2.79742
  20
1.62324
  30
0
  11
2.79742
  21
1.62324
  31
0
  0
LINE
  8
0
  10
2.79742
  20
1.62324
  30
0
  11
2.80804
  21
1.54995
  31
0
  0
LINE
  8
0
  10
2.80804
  20
1.54995
  30
0
  11
2.82808
  21
1.51935
  31
0
  0
LINE
  8
0
  10
2.82808
  20
1.51935
  30
0
  11
2.87359
  21
1.47862
  31
0
  0
LINE
  8
0
  10
2.87359
  20
1.47862
  30
0
  11
2.9233
  21
1.45149
  31
0
  0
LINE
  8
0
  10
2.9233
  20
1.45149
  30
0
  11
3.03105
  21
1.42177
  31
0
  0
LINE
  8
0
  10
3.03105
  20
1.42177
  30
0
  11
3.14023
  21
1.39647
  31
0
  0
LINE
  8
0
  10
3.14023
  20
1.39647
  30
0
  11
3.2268
  21
1.30623
  31
0
  0
LINE
  8
0
  10
3.2268
  20
1.30623
  30
0
  11
3.30214
  21
1.1944
  31
0
  0
LINE
  8
0
  10
3.30214
  20
1.1944
  30
0
  11
3.36471
  21
1.06405
  31
0
  0
LINE
  8
0
  10
3.36471
  20
1.06405
  30
0
  11
3.41345
  21
0.91864
  31
0
  0
LINE
  8
0
  10
3.41345
  20
0.91864
  30
0
  11
3.41345
  21
0.91864
  31
0
  0
LINE
  8
0
  10
3.41345
  20
0.91864
  30
0
  11
3.26334
  21
0.88724
  31
0
  0
LINE
  8
0
  10
3.26334
  20
0.88724
  30
0
  11
3.11924
  21
0.8754
  31
0
  0
LINE
  8
0
  10
3.11924
  20
0.8754
  30
0
  11
2.98467
  21
0.88392
  31
0
  0
LINE
  8
0
  10
2.98467
  20
0.88392
  30
0
  11
2.86305
  21
0.91305
  31
0
  0
LINE
  8
0
  10
2.86305
  20
0.91305
  30
0
  11
2.78606
  21
0.99449
  31
0
  0
LINE
  8
0
  10
2.78606
  20
0.99449
  30
0
  11
2.70598
  21
1.07247
  31
0
  0
LINE
  8
0
  10
2.70598
  20
1.07247
  30
0
  11
2.65746
  21
1.10167
  31
0
  0
LINE
  8
0
  10
2.65746
  20
1.10167
  30
0
  11
2.59932
  21
1.12037
  31
0
  0
LINE
  8
0
  10
2.59932
  20
1.12037
  30
0
  11
2.56279
  21
1.1222
  31
0
  0
LINE
  8
0
  10
2.56279
  20
1.1222
  30
0
  11
2.49417
  21
1.09434
  31
0
  0
LINE
  8
0
  10
2.49417
  20
1.09434
  30
0
  11
2.38848
  21
1.0107
  31
0
  0
LINE
  8
0
  10
2.38848
  20
1.0107
  30
0
  11
2.27242
  21
0.94218
  31
0
  0
LINE
  8
0
  10
2.27242
  20
0.94218
  30
0
  11
2.22174
  21
0.88818
  31
0
  0
LINE
  8
0
  10
2.22174
  20
0.88818
  30
0
  11
2.2103
  21
0.85344
  31
0
  0
LINE
  8
0
  10
2.2103
  20
0.85344
  30
0
  11
2.20684
  21
0.79246
  31
0
  0
LINE
  8
0
  10
2.20684
  20
0.79246
  30
0
  11
2.21662
  21
0.73668
  31
0
  0
LINE
  8
0
  10
2.21662
  20
0.73668
  30
0
  11
2.26057
  21
0.63391
  31
0
  0
LINE
  8
0
  10
2.26057
  20
0.63391
  30
0
  11
2.30886
  21
0.53278
  31
0
  0
LINE
  8
0
  10
2.30886
  20
0.53278
  30
0
  11
2.29228
  21
0.40882
  31
0
  0
LINE
  8
0
  10
2.29228
  20
0.40882
  30
0
  11
2.25182
  21
0.28019
  31
0
  0
LINE
  8
0
  10
2.25182
  20
0.28019
  30
0
  11
2.18893
  21
0.15
  31
0
  0
LINE
  8
0
  10
2.18893
  20
0.15
  30
0
  11
2.10563
  21
0.02124
  31
0
  0
LINE
  8
0
  10
2.10563
  20
0.02124
  30
0
  11
2.10563
  21
0.02124
  31
0
  0
LINE
  8
0
  10
2.10563
  20
0.02124
  30
0
  11
1.98749
  21
0.11902
  31
0
  0
LINE
  8
0
  10
1.98749
  20
0.11902
  30
0
  11
1.88838
  21
0.2243
  31
0
  0
LINE
  8
0
  10
1.88838
  20
0.2243
  30
0
  11
1.81114
  21
0.33483
  31
0
  0
LINE
  8
0
  10
1.81114
  20
0.33483
  30
0
  11
1.75808
  21
0.44807
  31
0
  0
LINE
  8
0
  10
1.75808
  20
0.44807
  30
0
  11
1.77375
  21
0.55904
  31
0
  0
LINE
  8
0
  10
1.77375
  20
0.55904
  30
0
  11
1.78479
  21
0.67027
  31
0
  0
LINE
  8
0
  10
1.78479
  20
0.67027
  30
0
  11
1.77737
  21
0.72641
  31
0
  0
LINE
  8
0
  10
1.77737
  20
0.72641
  30
0
  11
1.75574
  21
0.78353
  31
0
  0
LINE
  8
0
  10
1.75574
  20
0.78353
  30
0
  11
1.7344
  21
0.81323
  31
0
  0
LINE
  8
0
  10
1.7344
  20
0.81323
  30
0
  11
1.66983
  21
0.84951
  31
0
  0
LINE
  8
0
  10
1.66983
  20
0.84951
  30
0
  11
1.53854
  21
0.87999
  31
0
  0
LINE
  8
0
  10
1.53854
  20
0.87999
  30
0
  11
1.41261
  21
0.92801
  31
0
  0
LINE
  8
0
  10
1.41261
  20
0.92801
  30
0
  11
1.33879
  21
0.93397
  31
0
  0
LINE
  8
0
  10
1.33879
  20
0.93397
  30
0
  11
1.3045
  21
0.92124
  31
0
  0
LINE
  8
0
  10
1.3045
  20
0.92124
  30
0
  11
1.25466
  21
0.88593
  31
0
  0
LINE
  8
0
  10
1.25466
  20
0.88593
  30
0
  11
1.21715
  21
0.8435
  31
0
  0
LINE
  8
0
  10
1.21715
  20
0.8435
  30
0
  11
1.16421
  21
0.74507
  31
0
  0
LINE
  8
0
  10
1.16421
  20
0.74507
  30
0
  11
1.11525
  21
0.64426
  31
0
  0
LINE
  8
0
  10
1.11525
  20
0.64426
  30
0
  11
1.008
  21
0.57993
  31
0
  0
LINE
  8
0
  10
1.008
  20
0.57993
  30
0
  11
0.8822
  21
0.53137
  31
0
  0
LINE
  8
0
  10
0.8822
  20
0.53137
  30
0
  11
0.7412
  21
0.49937
  31
0
  0
LINE
  8
0
  10
0.7412
  20
0.49937
  30
0
  11
0.5886
  21
0.48421
  31
0
  0
LINE
  8
0
  10
0.5886
  20
0.48421
  30
0
  11
0.5886
  21
0.48421
  31
0
  0
LINE
  8
0
  10
0.5886
  20
0.48421
  30
0
  11
0.59139
  21
0.63755
  31
0
  0
LINE
  8
0
  10
0.59139
  20
0.63755
  30
0
  11
0.6119
  21
0.78067
  31
0
  0
LINE
  8
0
  10
0.6119
  20
0.78067
  30
0
  11
0.65016
  21
0.90997
  31
0
  0
LINE
  8
0
  10
0.65016
  20
0.90997
  30
0
  11
0.70562
  21
1.02206
  31
0
  0
LINE
  8
0
  10
0.70562
  20
1.02206
  30
0
  11
0.80215
  21
1.079
  31
0
  0
LINE
  8
0
  10
0.80215
  20
1.079
  30
0
  11
0.89599
  21
1.13972
  31
0
  0
LINE
  8
0
  10
0.89599
  20
1.13972
  30
0
  11
0.93526
  21
1.18053
  31
0
  0
LINE
  8
0
  10
0.93526
  20
1.18053
  30
0
  11
0.96643
  21
1.23305
  31
0
  0
LINE
  8
0
  10
0.96643
  20
1.23305
  30
0
  11
0.97634
  21
1.26825
  31
0
  0
LINE
  8
0
  10
0.97634
  20
1.26825
  30
0
  11
0.96445
  21
1.34135
  31
0
  0
LINE
  8
0
  10
0.96445
  20
1.34135
  30
0
  11
0.90643
  21
1.463
  31
0
  0
LINE
  8
0
  10
0.90643
  20
1.463
  30
0
  11
0.86545
  21
1.5914
  31
0
  0
LINE
  8
0
  10
0.86545
  20
1.5914
  30
0
  11
0.82408
  21
1.65283
  31
0
  0
LINE
  8
0
  10
0.82408
  20
1.65283
  30
0
  11
0.79275
  21
1.67171
  31
0
  0
LINE
  8
0
  10
0.79275
  20
1.67171
  30
0
  11
0.73407
  21
1.68866
  31
0
  0
LINE
  8
0
  10
0.73407
  20
1.68866
  30
0
  11
0.67751
  21
1.69153
  31
0
  0
LINE
  8
0
  10
0.67751
  20
1.69153
  30
0
  11
0.56754
  21
1.67155
  31
0
  0
LINE
  8
0
  10
0.56754
  20
1.67155
  30
0
  11
0.4582
  21
1.64697
  31
0
  0
LINE
  8
0
  10
0.4582
  20
1.64697
  30
0
  11
0.34104
  21
1.69072
  31
0
  0
LINE
  8
0
  10
0.34104
  20
1.69072
  30
0
  11
0.22464
  21
1.75879
  31
0
  0
LINE
  8
0
  10
0.22464
  20
1.75879
  30
0
  11
0.11171
  21
1.84908
  31
0
  0
LINE
  8
0
  10
0.11171
  20
1.84908
  30
0
  11
0.00471
  21
1.95894
  31
0
  0
LINE
  8
0
  10
0.00471
  20
1.95894
  30
0
  11
0.00471
  21
1.95894
  31
0
  0
LINE
  8
0
  10
0.00471
  20
1.95894
  30
0
  11
0.12633
  21
2.05236
  31
0
  0
LINE
  8
0
  10
0.12633
  20
2.05236
  30
0
  11
0.25102
  21
2.12555
  31
0
  0
LINE
  8
0
  10
0.25102
  20
2.12555
  30
0
  11
0.37597
  21
2.17626
  31
0
  0
LINE
  8
0
  10
0.37597
  20
2.17626
  30
0
  11
0.49818
  21
2.20279
  31
0
  0
LINE
  8
0
  10
0.49818
  20
2.20279
  30
0
  11
0.60288
  21
2.16282
  31
0
  0
LINE
  8
0
  10
0.60288
  20
2.16282
  30
0
  11
0.70886
  21
2.12731
  31
0
  0
LINE
  8
0
  10
0.70886
  20
2.12731
  30
0
  11
0.76525
  21
2.12205
  31
0
  0
LINE
  8
0
  10
0.76525
  20
2.12205
  30
0
  11
0.82575
  21
2.13043
  31
0
  0
LINE
  8
0
  10
0.82575
  20
2.13043
  30
0
  11
0.85945
  21
2.14463
  31
0
  0
LINE
  8
0
  10
0.85945
  20
2.14463
  30
0
  11
0.90919
  21
2.1995
  31
0
  0
LINE
  8
0
  10
0.90919
  20
2.1995
  30
0
  11
0.96812
  21
2.32071
  31
0
  0
LINE
  8
0
  10
0.96812
  20
2.32071
  30
0
  11
1.04296
  21
2.43281
  31
0
  0
LINE
  8
0
  10
1.04296
  20
2.43281
  30
0
  11
1.06519
  21
2.50345
  31
0
  0
LINE
  8
0
  10
1.06519
  20
2.50345
  30
0
  11
1.06042
  21
2.53971
  31
0
  0
LINE
  8
0
  10
1.06042
  20
2.53971
  30
0
  11
1.03708
  21
2.59616
  31
0
  0
LINE
  8
0
  10
1.03708
  20
2.59616
  30
0
  11
1.00406
  21
2.64217
  31
0
  0
LINE
  8
0
  10
1.00406
  20
2.64217
  30
0
  11
0.91988
  21
2.71569
  31
0
  0
LINE
  8
0
  10
0.91988
  20
2.71569
  30
0
  11
0.83249
  21
2.78585
  31
0
  0
LINE
  8
0
  10
0.83249
  20
2.78585
  30
0
  11
0.79364
  21
2.90473
  31
0
  0
LINE
  8
0
  10
0.79364
  20
2.90473
  30
0
  11
0.77429
  21
3.03817
  31
0
  0
LINE
  8
0
  10
0.77429
  20
3.03817
  30
0
  11
0.77447
  21
3.18276
  31
0
  0
LINE
  8
0
  10
0.77447
  20
3.18276
  30
0
  11
0.79365
  21
3.33491
  31
0
  0
LINE
  8
0
  10
0.79365
  20
3.33491
  30
0
  11
0.79365
  21
3.33491
  31
0
  0
LINE
  8
0
  10
0.79365
  20
3.33491
  30
0
  11
0.94252
  21
3.29807
  31
0
  0
LINE
  8
0
  10
0.94252
  20
3.29807
  30
0
  11
1.07749
  21
3.24622
  31
0
  0
LINE
  8
0
  10
1.07749
  20
3.24622
  30
0
  11
1.19504
  21
3.18015
  31
0
  0
LINE
  8
0
  10
1.19504
  20
3.18015
  30
0
  11
1.29197
  21
3.10114
  31
0
  0
LINE
  8
0
  10
1.29197
  20
3.10114
  30
0
  11
1.326
  21
2.99436
  31
0
  0
LINE
  8
0
  10
1.326
  20
2.99436
  30
0
  11
1.36432
  21
2.88936
  31
0
  0
LINE
  8
0
  10
1.36432
  20
2.88936
  30
0
  11
1.39536
  21
2.842
  31
0
  0
LINE
  8
0
  10
1.39536
  20
2.842
  30
0
  11
1.43963
  21
2.79992
  31
0
  0
LINE
  8
0
  10
1.43963
  20
2.79992
  30
0
  11
1.47175
  21
2.78242
  31
0
  0
LINE
  8
0
  10
1.47175
  20
2.78242
  30
0
  11
1.54566
  21
2.77775
  31
0
  0
LINE
  8
0
  10
1.54566
  20
2.77775
  30
0
  11
1.67717
  21
2.80725
  31
0
  0
LINE
  8
0
  10
1.67717
  20
2.80725
  30
0
  11
1.81147
  21
2.81863
  31
0
  0
LINE
  8
0
  10
1.81147
  20
2.81863
  30
0
  11
1.88057
  21
2.84529
  31
0
  0
LINE
  8
0
  10
1.88057
  20
2.84529
  30
0
  11
1.90594
  21
2.87163
  31
0
  0
LINE
  8
0
  10
1.90594
  20
2.87163
  30
0
  11
1.93552
  21
2.92507
  31
0
  0
LINE
  8
0
  10
1.93552
  20
2.92507
  30
0
  11
1.9509
  21
2.97957
  31
0
  0
LINE
  8
0
  10
1.9509
  20
2.97957
  30
0
  11
1.9559
  21
3.09123
  31
0
  0
LINE
  8
0
  10
1.9559
  20
3.09123
  30
0
  11
1.95627
  21
3.2033
  31
0
  0
LINE
  8
0
  10
1.95627
  20
3.2033
  30
0
  11
2.02499
  21
3.30779
  31
0
  0
LINE
  8
0
  10
2.02499
  20
3.30779
  30
0
  11
2.11725
  21
3.40612
  31
0
  0
LINE
  8
0
  10
2.11725
  20
3.40612
  30
0
  11
2.23041
  21
3.49613
  31
0
  0
LINE
  8
0
  10
2.23041
  20
3.49613
  30
0
  11
2.36133
  21
3.576
  31
0
  0
LINE
  8
0
  10
2.36133
  20
3.576
  30
0
  11
2.36133
  21
3.576
  31
0
  0
LINE
  8
0
  10
2.36133
  20
3.576
  30
0
  11
2.42534
  21
3.43664
  31
0
  0
LINE
  8
0
  10
2.42534
  20
3.43664
  30
0
  11
2.46895
  21
3.29879
  31
0
  0
LINE
  8
0
  10
2.46895
  20
3.29879
  30
0
  11
2.49059
  21
3.16569
  31
0
  0
LINE
  8
0
  10
2.49059
  20
3.16569
  30
0
  11
2.48926
  21
3.04064
  31
0
  0
LINE
  8
0
  10
2.48926
  20
3.04064
  30
0
  11
2.42699
  21
2.94746
  31
0
  0
LINE
  8
0
  10
2.42699
  20
2.94746
  30
0
  11
2.36878
  21
2.85204
  31
0
  0
LINE
  8
0
  10
2.36878
  20
2.85204
  30
0
  11
2.35111
  21
2.79824
  31
0
  0
LINE
  8
0
  10
2.35111
  20
2.79824
  30
0
  11
2.34582
  21
2.73739
  31
0
  0
LINE
  8
0
  10
2.34582
  20
2.73739
  30
0
  11
2.35216
  21
2.70137
  31
0
  0
LINE
  8
0
  10
2.35216
  20
2.70137
  30
0
  11
2.39459
  21
2.64067
  31
0
  0
LINE
  8
0
  10
2.39459
  20
2.64067
  30
0
  11
2.49965
  21
2.55624
  31
0
  0
LINE
  8
0
  10
2.49965
  20
2.55624
  30
0
  11
2.59228
  21
2.45834
  31
0
  0
LINE
  8
0
  10
2.59228
  20
2.45834
  30
0
  11
2.65621
  21
2.42094
  31
0
  0
LINE
  8
0
  10
2.65621
  20
2.42094
  30
0
  11
2.69262
  21
2.41753
  31
0
  0
LINE
  8
0
  10
2.69262
  20
2.41753
  30
0
  11
2.75284
  21
2.42772
  31
0
  0
LINE
  8
0
  10
2.75284
  20
2.42772
  30
0
  11
2.80505
  21
2.44967
  31
0
  0
LINE
  8
0
  10
2.80505
  20
2.44967
  30
0
  11
2.89546
  21
2.51539
  31
0
  0
LINE
  8
0
  10
2.89546
  20
2.51539
  30
0
  11
2.98331
  21
2.58497
  31
0
  0
LINE
  8
0
  10
2.98331
  20
2.58497
  30
0
  11
3.10785
  21
2.59639
  31
0
  0
LINE
  8
0
  10
3.10785
  20
2.59639
  30
0
  11
3.24225
  21
2.58557
  31
0
  0
LINE
  8
0
  10
3.24225
  20
2.58557
  30
0
  11
3.38318
  21
2.55322
  31
0
  0
LINE
  8
0
  10
3.38318
  20
2.55322
  30
0
  11
3.52725
  21
2.50066
  31
0
  0
LINE
  8
0
  10
3.52725
  20
2.50066
  30
0
  11
3.52725
  21
2.50066
  31
0
  0
LINE
  8
0
  10
3.52725
  20
2.50066
  30
0
  11
3.4582
  21
2.36372
  31
0
  0
LINE
  8
0
  10
3.4582
  20
2.36372
  30
0
  11
3.37762
  21
2.24367
  31
0
  0
LINE
  8
0
  10
3.37762
  20
2.24367
  30
0
  11
3.28705
  21
2.14378
  31
0
  0
LINE
  8
0
  10
3.28705
  20
2.14378
  30
0
  11
3.18845
  21
2.06685
  31
0
  0
LINE
  8
0
  10
3.18845
  20
2.06685
  30
0
  11
3.07678
  21
2.05744
  31
0
  0
LINE
  8
0
  10
3.07678
  20
2.05744
  30
0
  11
2.96588
  21
2.04345
  31
0
  0
LINE
  8
0
  10
2.96588
  20
2.04345
  30
0
  11
2.9128
  21
2.02371
  31
0
  0
LINE
  8
0
  10
2.9128
  20
2.02371
  30
0
  11
2.86192
  21
1.98992
  31
0
  0
LINE
  8
0
  10
2.86192
  20
1.98992
  30
0
  11
2.83772
  21
1.9625
  31
0
  0
LINE
  8
0
  10
2.83772
  20
1.9625
  30
0
  11
2.81672
  21
1.89148
  31
0
  0
LINE
  8
0
  10
2.81672
  20
1.89148
  30
0
  11
2.81621
  21
1.7567
  31
0
  0
LINE
  8
0
  10
2.81621
  20
1.7567
  30
0
  11
2.79742
  21
1.62324
  31
0
  0
LINE
  8
0
  10
2.3278
  20
1.8278
  30
0
  11
2.3278
  21
1.8278
  31
0
  0
LINE
  8
0
  10
2.3278
  20
1.8278
  30
0
  11
2.31076
  21
1.95721
  31
0
  0
LINE
  8
0
  10
2.31076
  20
1.95721
  30
0
  11
2.26081
  21
2.0778
  31
0
  0
LINE
  8
0
  10
2.26081
  20
2.0778
  30
0
  11
2.18135
  21
2.18135
  31
0
  0
LINE
  8
0
  10
2.18135
  20
2.18135
  30
0
  11
2.0778
  21
2.26081
  31
0
  0
LINE
  8
0
  10
2.0778
  20
2.26081
  30
0
  11
1.95721
  21
2.31076
  31
0
  0
LINE
  8
0
  10
1.95721
  20
2.31076
  30
0
  11
1.8278
  21
2.3278
  31
0
  0
LINE
  8
0
  10
1.8278
  20
2.3278
  30
0
  11
1.69839
  21
2.31076
  31
0
  0
LINE
  8
0
  10
1.69839
  20
2.31076
  30
0
  11
1.5778
  21
2.26081
  31
0
  0
LINE
  8
0
  10
1.5778
  20
2.26081
  30
0
  11
1.47425
  21
2.18135
  31
0
  0
LINE
  8
0
  10
1.47425
  20
2.18135
  30
0
  11
1.39479
  21
2.0778
  31
0
  0
LINE
  8
0
  10
1.39479
  20
2.0778
  30
0
  11
1.34484
  21
1.95721
  31
0
  0
LINE
  8
0
  10
1.34484
  20
1.95721
  30
0
  11
1.3278
  21
1.8278
  31
0
  0
LINE
  8
0
  10
1.3278
  20
1.8278
  30
0
  11
1.34484
  21
1.69839
  31
0
  0
LINE
  8
0
  10
1.34484
  20
1.69839
  30
0
  11
1.39479
  21
1.5778
  31
0
  0
LINE
  8
0
  10
1.39479
  20
1.5778
  30
0
  11
1.47425
  21
1.47425
  31
0
  0
LINE
  8
0
  10
1.47425
  20
1.47425
  30
0
  11
1.5778
  21
1.39479
  31
0
  0
LINE
  8
0
  10
1.5778
  20
1.39479
  30
0
  11
1.69839
  21
1.34484
  31
0
  0
LINE
  8
0
  10
1.69839
  20
1.34484
  30
0
  11
1.8278
  21
1.3278
  31
0
  0
LINE
  8
0
  10
1.8278
  20
1.3278
  30
0
  11
1.95721
  21
1.34484
  31
0
  0
LINE
  8
0
  10
1.95721
  20
1.34484
  30
0
  11
2.0778
  21
1.39479
  31
0
  0
LINE
  8
0
  10
2.0778
  20
1.39479
  30
0
  11
2.18135
  21
1.47425
  31
0
  0
LINE
  8
0
  10
2.18135
  20
1.47425
  30
0
  11
2.26081
  21
1.5778
  31
0
  0
LINE
  8
0
  10
2.26081
  20
1.5778
  30
0
  11
2.31076
  21
1.69839
  31
0
  0
LINE
  8
0
  10
2.31076
  20
1.69839
  30
0
  11
2.3278
  21
1.8278
  31
0
  0
LINE
  8
0
  10
2.3278
  20
1.8278
  30
0
  11
2.3278
  21
1.8278
  31
0
  0
ENDSEC
  0
EOF
