  999
file created by gear template generator
  0
SECTION
  2
HEADER
  9
$ACADVER
  1
AC1006
  9
$INSBASE
  10
0.0
  20
0.0
  30
0.0
  9
$EXTMIN
  10
0.0
  20
0.0
  9
$EXTMAX
  10
10000.0
  20
10000.0
  0
ENDSEC
  0
SECTION
  2
ENTITIES
  0
LINE
  8
0
  10
2.73894
  20
1.47535
  30
0
  11
2.73894
  21
1.47535
  31
0
  0
LINE
  8
0
  10
2.73894
  20
1.47535
  30
0
  11
2.74064
  21
1.40351
  31
0
  0
LINE
  8
0
  10
2.74064
  20
1.40351
  30
0
  11
2.75582
  21
1.37186
  31
0
  0
LINE
  8
0
  10
2.75582
  20
1.37186
  30
0
  11
2.79337
  21
1.32752
  31
0
  0
LINE
  8
0
  10
2.79337
  20
1.32752
  30
0
  11
2.83617
  21
1.29554
  31
0
  0
LINE
  8
0
  10
2.83617
  20
1.29554
  30
0
  11
2.93181
  21
1.25333
  31
0
  0
LINE
  8
0
  10
2.93181
  20
1.25333
  30
0
  11
3.03678
  21
1.23172
  31
0
  0
LINE
  8
0
  10
3.03678
  20
1.23172
  30
0
  11
3.11197
  21
1.14539
  31
0
  0
LINE
  8
0
  10
3.11197
  20
1.14539
  30
0
  11
3.17561
  21
1.04015
  31
0
  0
LINE
  8
0
  10
3.17561
  20
1.04015
  30
0
  11
3.22699
  21
0.91916
  31
0
  0
LINE
  8
0
  10
3.22699
  20
0.91916
  30
0
  11
3.26495
  21
0.7845
  31
0
  0
LINE
  8
0
  10
3.26495
  20
0.7845
  30
0
  11
3.19568
  21
0.68916
  31
0
  0
LINE
  8
0
  10
3.19568
  20
0.68916
  30
0
  11
3.05589
  21
0.68365
  31
0
  0
LINE
  8
0
  10
3.05589
  20
0.68365
  30
0
  11
2.92494
  21
0.69514
  31
0
  0
LINE
  8
0
  10
2.92494
  20
0.69514
  30
0
  11
2.80519
  21
0.72314
  31
0
  0
LINE
  8
0
  10
2.80519
  20
0.72314
  30
0
  11
2.69985
  21
0.76797
  31
0
  0
LINE
  8
0
  10
2.69985
  20
0.76797
  30
0
  11
2.64685
  21
0.86112
  31
0
  0
LINE
  8
0
  10
2.64685
  20
0.86112
  30
0
  11
2.57716
  21
0.93904
  31
0
  0
LINE
  8
0
  10
2.57716
  20
0.93904
  30
0
  11
2.53352
  21
0.96987
  31
0
  0
LINE
  8
0
  10
2.53352
  20
0.96987
  30
0
  11
2.47974
  21
0.99188
  31
0
  0
LINE
  8
0
  10
2.47974
  20
0.99188
  30
0
  11
2.44495
  21
0.99653
  31
0
  0
LINE
  8
0
  10
2.44495
  20
0.99653
  30
0
  11
2.3761
  21
0.97595
  31
0
  0
LINE
  8
0
  10
2.3761
  20
0.97595
  30
0
  11
2.26103
  21
0.90356
  31
0
  0
LINE
  8
0
  10
2.26103
  20
0.90356
  30
0
  11
2.13723
  21
0.84741
  31
0
  0
LINE
  8
0
  10
2.13723
  20
0.84741
  30
0
  11
2.08212
  21
0.80128
  31
0
  0
LINE
  8
0
  10
2.08212
  20
0.80128
  30
0
  11
2.06684
  21
0.76968
  31
0
  0
LINE
  8
0
  10
2.06684
  20
0.76968
  30
0
  11
2.05558
  21
0.71268
  31
0
  0
LINE
  8
0
  10
2.05558
  20
0.71268
  30
0
  11
2.05726
  21
0.65928
  31
0
  0
LINE
  8
0
  10
2.05726
  20
0.65928
  30
0
  11
2.0839
  21
0.55819
  31
0
  0
LINE
  8
0
  10
2.0839
  20
0.55819
  30
0
  11
2.13245
  21
0.46264
  31
0
  0
LINE
  8
0
  10
2.13245
  20
0.46264
  30
0
  11
2.11183
  21
0.35003
  31
0
  0
LINE
  8
0
  10
2.11183
  20
0.35003
  30
0
  11
2.06923
  21
0.23466
  31
0
  0
LINE
  8
0
  10
2.06923
  20
0.23466
  30
0
  11
2.00667
  21
0.11905
  31
0
  0
LINE
  8
0
  10
2.00667
  20
0.11905
  30
0
  11
1.92507
  21
0.00541
  31
0
  0
LINE
  8
0
  10
1.92507
  20
0.00541
  30
0
  11
1.80733
  21
0.00013
  31
0
  0
LINE
  8
0
  10
1.80733
  20
0.00013
  30
0
  11
1.71587
  21
0.10599
  31
0
  0
LINE
  8
0
  10
1.71587
  20
0.10599
  30
0
  11
1.64321
  21
0.21553
  31
0
  0
LINE
  8
0
  10
1.64321
  20
0.21553
  30
0
  11
1.59043
  21
0.32661
  31
0
  0
LINE
  8
0
  10
1.59043
  20
0.32661
  30
0
  11
1.5598
  21
0.43692
  31
0
  0
LINE
  8
0
  10
1.5598
  20
0.43692
  30
0
  11
1.59959
  21
0.53644
  31
0
  0
LINE
  8
0
  10
1.59959
  20
0.53644
  30
0
  11
1.61706
  21
0.63951
  31
0
  0
LINE
  8
0
  10
1.61706
  20
0.63951
  30
0
  11
1.61395
  21
0.69284
  31
0
  0
LINE
  8
0
  10
1.61395
  20
0.69284
  30
0
  11
1.59763
  21
0.74861
  31
0
  0
LINE
  8
0
  10
1.59763
  20
0.74861
  30
0
  11
1.57957
  21
0.77871
  31
0
  0
LINE
  8
0
  10
1.57957
  20
0.77871
  30
0
  11
1.52055
  21
0.81971
  31
0
  0
LINE
  8
0
  10
1.52055
  20
0.81971
  30
0
  11
1.39221
  21
0.86454
  31
0
  0
LINE
  8
0
  10
1.39221
  20
0.86454
  30
0
  11
1.27112
  21
0.92632
  31
0
  0
LINE
  8
0
  10
1.27112
  20
0.92632
  30
0
  11
1.2007
  21
0.94065
  31
0
  0
LINE
  8
0
  10
1.2007
  20
0.94065
  30
0
  11
1.16647
  21
0.9329
  31
0
  0
LINE
  8
0
  10
1.16647
  20
0.9329
  30
0
  11
1.11488
  21
0.90616
  31
0
  0
LINE
  8
0
  10
1.11488
  20
0.90616
  30
0
  11
1.07418
  21
0.87154
  31
0
  0
LINE
  8
0
  10
1.07418
  20
0.87154
  30
0
  11
1.01175
  21
0.78769
  31
0
  0
LINE
  8
0
  10
1.01175
  20
0.78769
  30
0
  11
0.96732
  21
0.69016
  31
0
  0
LINE
  8
0
  10
0.96732
  20
0.69016
  30
0
  11
0.86642
  21
0.63607
  31
0
  0
LINE
  8
0
  10
0.86642
  20
0.63607
  30
0
  11
0.74966
  21
0.59745
  31
0
  0
LINE
  8
0
  10
0.74966
  20
0.59745
  30
0
  11
0.62027
  21
0.57427
  31
0
  0
LINE
  8
0
  10
0.62027
  20
0.57427
  30
0
  11
0.48054
  21
0.56722
  31
0
  0
LINE
  8
0
  10
0.48054
  20
0.56722
  30
0
  11
0.403
  21
0.65597
  31
0
  0
LINE
  8
0
  10
0.403
  20
0.65597
  30
0
  11
0.42874
  21
0.79349
  31
0
  0
LINE
  8
0
  10
0.42874
  20
0.79349
  30
0
  11
0.46908
  21
0.9186
  31
0
  0
LINE
  8
0
  10
0.46908
  20
0.9186
  30
0
  11
0.52303
  21
1.02912
  31
0
  0
LINE
  8
0
  10
0.52303
  20
1.02912
  30
0
  11
0.59017
  21
1.12184
  31
0
  0
LINE
  8
0
  10
0.59017
  20
1.12184
  30
0
  11
0.69278
  21
1.15278
  31
0
  0
LINE
  8
0
  10
0.69278
  20
1.15278
  30
0
  11
0.78426
  21
1.20339
  31
0
  0
LINE
  8
0
  10
0.78426
  20
1.20339
  30
0
  11
0.82402
  21
1.23907
  31
0
  0
LINE
  8
0
  10
0.82402
  20
1.23907
  30
0
  11
0.85744
  21
1.28661
  31
0
  0
LINE
  8
0
  10
0.85744
  20
1.28661
  30
0
  11
0.86972
  21
1.31949
  31
0
  0
LINE
  8
0
  10
0.86972
  20
1.31949
  30
0
  11
0.86498
  21
1.39119
  31
0
  0
LINE
  8
0
  10
0.86498
  20
1.39119
  30
0
  11
0.82001
  21
1.51948
  31
0
  0
LINE
  8
0
  10
0.82001
  20
1.51948
  30
0
  11
0.79281
  21
1.65268
  31
0
  0
LINE
  8
0
  10
0.79281
  20
1.65268
  30
0
  11
0.76011
  21
1.71666
  31
0
  0
LINE
  8
0
  10
0.76011
  20
1.71666
  30
0
  11
0.7327
  21
1.7386
  31
0
  0
LINE
  8
0
  10
0.7327
  20
1.7386
  30
0
  11
0.67963
  21
1.76226
  31
0
  0
LINE
  8
0
  10
0.67963
  20
1.76226
  30
0
  11
0.62719
  21
1.7725
  31
0
  0
LINE
  8
0
  10
0.62719
  20
1.7725
  30
0
  11
0.52271
  21
1.76903
  31
0
  0
LINE
  8
0
  10
0.52271
  20
1.76903
  30
0
  11
0.41875
  21
1.74295
  31
0
  0
LINE
  8
0
  10
0.41875
  20
1.74295
  30
0
  11
0.31356
  21
1.78811
  31
0
  0
LINE
  8
0
  10
0.31356
  20
1.78811
  30
0
  11
0.21056
  21
1.85532
  31
0
  0
LINE
  8
0
  10
0.21056
  20
1.85532
  30
0
  11
0.11176
  21
1.94204
  31
0
  0
LINE
  8
0
  10
0.11176
  20
1.94204
  30
0
  11
0.01914
  21
2.04688
  31
0
  0
LINE
  8
0
  10
0.01914
  20
2.04688
  30
0
  11
0.04018
  21
2.16284
  31
0
  0
LINE
  8
0
  10
0.04018
  20
2.16284
  30
0
  11
0.16374
  21
2.22845
  31
0
  0
LINE
  8
0
  10
0.16374
  20
2.22845
  30
0
  11
0.2867
  21
2.27492
  31
0
  0
LINE
  8
0
  10
0.2867
  20
2.27492
  30
0
  11
0.40675
  21
2.30165
  31
0
  0
LINE
  8
0
  10
0.40675
  20
2.30165
  30
0
  11
0.52111
  21
2.30697
  31
0
  0
LINE
  8
0
  10
0.52111
  20
2.30697
  30
0
  11
0.60927
  21
2.24603
  31
0
  0
LINE
  8
0
  10
0.60927
  20
2.24603
  30
0
  11
0.70587
  21
2.20607
  31
0
  0
LINE
  8
0
  10
0.70587
  20
2.20607
  30
0
  11
0.75856
  21
2.19723
  31
0
  0
LINE
  8
0
  10
0.75856
  20
2.19723
  30
0
  11
0.81657
  21
2.20074
  31
0
  0
LINE
  8
0
  10
0.81657
  20
2.20074
  30
0
  11
0.84993
  21
2.21164
  31
0
  0
LINE
  8
0
  10
0.84993
  20
2.21164
  30
0
  11
0.90303
  21
2.26005
  31
0
  0
LINE
  8
0
  10
0.90303
  20
2.26005
  30
0
  11
0.9753
  21
2.3752
  31
0
  0
LINE
  8
0
  10
0.9753
  20
2.3752
  30
0
  11
1.06248
  21
2.47951
  31
0
  0
LINE
  8
0
  10
1.06248
  20
2.47951
  30
0
  11
1.09211
  21
2.54497
  31
0
  0
LINE
  8
0
  10
1.09211
  20
2.54497
  30
0
  11
1.09217
  21
2.58008
  31
0
  0
LINE
  8
0
  10
1.09217
  20
2.58008
  30
0
  11
1.07758
  21
2.63632
  31
0
  0
LINE
  8
0
  10
1.07758
  20
2.63632
  30
0
  11
1.0529
  21
2.68371
  31
0
  0
LINE
  8
0
  10
1.0529
  20
2.68371
  30
0
  11
0.98504
  21
2.76323
  31
0
  0
LINE
  8
0
  10
0.98504
  20
2.76323
  30
0
  11
0.89984
  21
2.82825
  31
0
  0
LINE
  8
0
  10
0.89984
  20
2.82825
  30
0
  11
0.86955
  21
2.93865
  31
0
  0
LINE
  8
0
  10
0.86955
  20
2.93865
  30
0
  11
0.85788
  21
3.06108
  31
0
  0
LINE
  8
0
  10
0.85788
  20
3.06108
  30
0
  11
0.86408
  21
3.19239
  31
0
  0
LINE
  8
0
  10
0.86408
  20
3.19239
  30
0
  11
0.8883
  21
3.33017
  31
0
  0
LINE
  8
0
  10
0.8883
  20
3.33017
  30
0
  11
0.99208
  21
3.38602
  31
0
  0
LINE
  8
0
  10
0.99208
  20
3.38602
  30
0
  11
1.12042
  21
3.33033
  31
0
  0
LINE
  8
0
  10
1.12042
  20
3.33033
  30
0
  11
1.23341
  21
3.26316
  31
0
  0
LINE
  8
0
  10
1.23341
  20
3.26316
  30
0
  11
1.32916
  21
3.18597
  31
0
  0
LINE
  8
0
  10
1.32916
  20
3.18597
  30
0
  11
1.40462
  21
3.09988
  31
0
  0
LINE
  8
0
  10
1.40462
  20
3.09988
  30
0
  11
1.41194
  21
2.99296
  31
0
  0
LINE
  8
0
  10
1.41194
  20
2.99296
  30
0
  11
1.44093
  21
2.89252
  31
0
  0
LINE
  8
0
  10
1.44093
  20
2.89252
  30
0
  11
1.46687
  21
2.84581
  31
0
  0
LINE
  8
0
  10
1.46687
  20
2.84581
  30
0
  11
1.50578
  21
2.80265
  31
0
  0
LINE
  8
0
  10
1.50578
  20
2.80265
  30
0
  11
1.53511
  21
2.78336
  31
0
  0
LINE
  8
0
  10
1.53511
  20
2.78336
  30
0
  11
1.60606
  21
2.77203
  31
0
  0
LINE
  8
0
  10
1.60606
  20
2.77203
  30
0
  11
1.74115
  21
2.78732
  31
0
  0
LINE
  8
0
  10
1.74115
  20
2.78732
  30
0
  11
1.87706
  21
2.7842
  31
0
  0
LINE
  8
0
  10
1.87706
  20
2.7842
  30
0
  11
1.94671
  21
2.80184
  31
0
  0
LINE
  8
0
  10
1.94671
  20
2.80184
  30
0
  11
1.9742
  21
2.82368
  31
0
  0
LINE
  8
0
  10
1.9742
  20
2.82368
  30
0
  11
2.00907
  21
2.87016
  31
0
  0
LINE
  8
0
  10
2.00907
  20
2.87016
  30
0
  11
2.03073
  21
2.919
  31
0
  0
LINE
  8
0
  10
2.03073
  20
2.919
  30
0
  11
2.05059
  21
3.02164
  31
0
  0
LINE
  8
0
  10
2.05059
  20
3.02164
  30
0
  11
2.0483
  21
3.12879
  31
0
  0
LINE
  8
0
  10
2.0483
  20
3.12879
  30
0
  11
2.11574
  21
3.2213
  31
0
  0
LINE
  8
0
  10
2.11574
  20
3.2213
  30
0
  11
2.20418
  21
3.30676
  31
0
  0
LINE
  8
0
  10
2.20418
  20
3.30676
  30
0
  11
2.3107
  21
3.38378
  31
0
  0
LINE
  8
0
  10
2.3107
  20
3.38378
  30
0
  11
2.43353
  21
3.45076
  31
0
  0
LINE
  8
0
  10
2.43353
  20
3.45076
  30
0
  11
2.5419
  21
3.40444
  31
0
  0
LINE
  8
0
  10
2.5419
  20
3.40444
  30
0
  11
2.57837
  21
3.26938
  31
0
  0
LINE
  8
0
  10
2.57837
  20
3.26938
  30
0
  11
2.59632
  21
3.13916
  31
0
  0
LINE
  8
0
  10
2.59632
  20
3.13916
  30
0
  11
2.59566
  21
3.01617
  31
0
  0
LINE
  8
0
  10
2.59566
  20
3.01617
  30
0
  11
2.5754
  21
2.9035
  31
0
  0
LINE
  8
0
  10
2.5754
  20
2.9035
  30
0
  11
2.49637
  21
2.8311
  31
0
  0
LINE
  8
0
  10
2.49637
  20
2.8311
  30
0
  11
2.43592
  21
2.74582
  31
0
  0
LINE
  8
0
  10
2.43592
  20
2.74582
  30
0
  11
2.41558
  21
2.69641
  31
0
  0
LINE
  8
0
  10
2.41558
  20
2.69641
  30
0
  11
2.40608
  21
2.63908
  31
0
  0
LINE
  8
0
  10
2.40608
  20
2.63908
  30
0
  11
2.40929
  21
2.60413
  31
0
  0
LINE
  8
0
  10
2.40929
  20
2.60413
  30
0
  11
2.44467
  21
2.54159
  31
0
  0
LINE
  8
0
  10
2.44467
  20
2.54159
  30
0
  11
2.54086
  21
2.44551
  31
0
  0
LINE
  8
0
  10
2.54086
  20
2.44551
  30
0
  11
2.62315
  21
2.3373
  31
0
  0
LINE
  8
0
  10
2.62315
  20
2.3373
  30
0
  11
2.68038
  21
2.29385
  31
0
  0
LINE
  8
0
  10
2.68038
  20
2.29385
  30
0
  11
2.71459
  21
2.28598
  31
0
  0
LINE
  8
0
  10
2.71459
  20
2.28598
  30
0
  11
2.77267
  21
2.28769
  31
0
  0
LINE
  8
0
  10
2.77267
  20
2.28769
  30
0
  11
2.82436
  21
2.30121
  31
0
  0
LINE
  8
0
  10
2.82436
  20
2.30121
  30
0
  11
2.91699
  21
2.34967
  31
0
  0
LINE
  8
0
  10
2.91699
  20
2.34967
  30
0
  11
2.99933
  21
2.41827
  31
0
  0
LINE
  8
0
  10
2.99933
  20
2.41827
  30
0
  11
3.11371
  21
2.42322
  31
0
  0
LINE
  8
0
  10
3.11371
  20
2.42322
  30
0
  11
3.23567
  21
2.40736
  31
0
  0
LINE
  8
0
  10
3.23567
  20
2.40736
  30
0
  11
3.3623
  21
2.3721
  31
0
  0
LINE
  8
0
  10
3.3623
  20
2.3721
  30
0
  11
3.49124
  21
2.31783
  31
0
  0
LINE
  8
0
  10
3.49124
  20
2.31783
  30
0
  11
3.52259
  21
2.20422
  31
0
  0
LINE
  8
0
  10
3.52259
  20
2.20422
  30
0
  11
3.43974
  21
2.0915
  31
0
  0
LINE
  8
0
  10
3.43974
  20
2.0915
  30
0
  11
3.34912
  21
1.99628
  31
0
  0
LINE
  8
0
  10
3.34912
  20
1.99628
  30
0
  11
3.25256
  21
1.92011
  31
0
  0
LINE
  8
0
  10
3.25256
  20
1.92011
  30
0
  11
3.15183
  21
1.8657
  31
0
  0
LINE
  8
0
  10
3.15183
  20
1.8657
  30
0
  11
3.04596
  21
1.88235
  31
0
  0
LINE
  8
0
  10
3.04596
  20
1.88235
  30
0
  11
2.94159
  21
1.87644
  31
0
  0
LINE
  8
0
  10
2.94159
  20
1.87644
  30
0
  11
2.89028
  21
1.86154
  31
0
  0
LINE
  8
0
  10
2.89028
  20
1.86154
  30
0
  11
2.83954
  21
1.83322
  31
0
  0
LINE
  8
0
  10
2.83954
  20
1.83322
  30
0
  11
2.81421
  21
1.80891
  31
0
  0
LINE
  8
0
  10
2.81421
  20
1.80891
  30
0
  11
2.78737
  21
1.74226
  31
0
  0
LINE
  8
0
  10
2.78737
  20
1.74226
  30
0
  11
2.77223
  21
1.60716
  31
0
  0
LINE
  8
0
  10
2.77223
  20
1.60716
  30
0
  11
2.73894
  21
1.47535
  31
0
  0
LINE
  8
0
  10
2.28611
  20
1.78611
  30
0
  11
2.28611
  21
1.78611
  31
0
  0
LINE
  8
0
  10
2.28611
  20
1.78611
  30
0
  11
2.26907
  21
1.91552
  31
0
  0
LINE
  8
0
  10
2.26907
  20
1.91552
  30
0
  11
2.21912
  21
2.03611
  31
0
  0
LINE
  8
0
  10
2.21912
  20
2.03611
  30
0
  11
2.13966
  21
2.13966
  31
0
  0
LINE
  8
0
  10
2.13966
  20
2.13966
  30
0
  11
2.03611
  21
2.21912
  31
0
  0
LINE
  8
0
  10
2.03611
  20
2.21912
  30
0
  11
1.91552
  21
2.26907
  31
0
  0
LINE
  8
0
  10
1.91552
  20
2.26907
  30
0
  11
1.78611
  21
2.28611
  31
0
  0
LINE
  8
0
  10
1.78611
  20
2.28611
  30
0
  11
1.6567
  21
2.26907
  31
0
  0
LINE
  8
0
  10
1.6567
  20
2.26907
  30
0
  11
1.53611
  21
2.21912
  31
0
  0
LINE
  8
0
  10
1.53611
  20
2.21912
  30
0
  11
1.43256
  21
2.13966
  31
0
  0
LINE
  8
0
  10
1.43256
  20
2.13966
  30
0
  11
1.3531
  21
2.03611
  31
0
  0
LINE
  8
0
  10
1.3531
  20
2.03611
  30
0
  11
1.30315
  21
1.91552
  31
0
  0
LINE
  8
0
  10
1.30315
  20
1.91552
  30
0
  11
1.28611
  21
1.78611
  31
0
  0
LINE
  8
0
  10
1.28611
  20
1.78611
  30
0
  11
1.30315
  21
1.6567
  31
0
  0
LINE
  8
0
  10
1.30315
  20
1.6567
  30
0
  11
1.3531
  21
1.53611
  31
0
  0
LINE
  8
0
  10
1.3531
  20
1.53611
  30
0
  11
1.43256
  21
1.43256
  31
0
  0
LINE
  8
0
  10
1.43256
  20
1.43256
  30
0
  11
1.53611
  21
1.3531
  31
0
  0
LINE
  8
0
  10
1.53611
  20
1.3531
  30
0
  11
1.6567
  21
1.30315
  31
0
  0
LINE
  8
0
  10
1.6567
  20
1.30315
  30
0
  11
1.78611
  21
1.28611
  31
0
  0
LINE
  8
0
  10
1.78611
  20
1.28611
  30
0
  11
1.91552
  21
1.30315
  31
0
  0
LINE
  8
0
  10
1.91552
  20
1.30315
  30
0
  11
2.03611
  21
1.3531
  31
0
  0
LINE
  8
0
  10
2.03611
  20
1.3531
  30
0
  11
2.13966
  21
1.43256
  31
0
  0
LINE
  8
0
  10
2.13966
  20
1.43256
  30
0
  11
2.21912
  21
1.53611
  31
0
  0
LINE
  8
0
  10
2.21912
  20
1.53611
  30
0
  11
2.26907
  21
1.6567
  31
0
  0
LINE
  8
0
  10
2.26907
  20
1.6567
  30
0
  11
2.28611
  21
1.78611
  31
0
  0
LINE
  8
0
  10
2.28611
  20
1.78611
  30
0
  11
2.28611
  21
1.78611
  31
0
  0
ENDSEC
  0
EOF
