  999
file created by gear template generator
  0
SECTION
  2
HEADER
  9
$ACADVER
  1
AC1006
  9
$INSBASE
  10
0.0
  20
0.0
  30
0.0
  9
$EXTMIN
  10
0.0
  20
0.0
  9
$EXTMAX
  10
10000.0
  20
10000.0
  0
ENDSEC
  0
SECTION
  2
ENTITIES
  0
LINE
  8
0
  10
9.44236
  20
5.30568
  30
0
  11
9.44236
  21
5.30568
  31
0
  0
LINE
  8
0
  10
9.44236
  20
5.30568
  30
0
  11
9.47169
  21
5.27185
  31
0
  0
LINE
  8
0
  10
9.47169
  20
5.27185
  30
0
  11
9.52776
  21
5.23934
  31
0
  0
LINE
  8
0
  10
9.52776
  20
5.23934
  30
0
  11
9.5827
  21
5.2246
  31
0
  0
LINE
  8
0
  10
9.5827
  20
5.2246
  30
0
  11
9.69183
  21
5.20799
  31
0
  0
LINE
  8
0
  10
9.69183
  20
5.20799
  30
0
  11
9.80229
  21
5.15223
  31
0
  0
LINE
  8
0
  10
9.80229
  20
5.15223
  30
0
  11
9.91215
  21
5.08941
  31
0
  0
LINE
  8
0
  10
9.91215
  20
5.08941
  30
0
  11
9.99402
  21
5.03782
  31
0
  0
LINE
  8
0
  10
9.99402
  20
5.03782
  30
0
  11
9.99354
  21
4.91712
  31
0
  0
LINE
  8
0
  10
9.99354
  20
4.91712
  30
0
  11
9.91127
  21
4.86617
  31
0
  0
LINE
  8
0
  10
9.91127
  20
4.86617
  30
0
  11
9.80092
  21
4.80422
  31
0
  0
LINE
  8
0
  10
9.80092
  20
4.80422
  30
0
  11
9.69003
  21
4.74932
  31
0
  0
LINE
  8
0
  10
9.69003
  20
4.74932
  30
0
  11
9.58077
  21
4.73358
  31
0
  0
LINE
  8
0
  10
9.58077
  20
4.73358
  30
0
  11
9.52572
  21
4.71926
  31
0
  0
LINE
  8
0
  10
9.52572
  20
4.71926
  30
0
  11
9.46939
  21
4.6872
  31
0
  0
LINE
  8
0
  10
9.46939
  20
4.6872
  30
0
  11
9.4398
  21
4.6536
  31
0
  0
LINE
  8
0
  10
9.4398
  20
4.6536
  30
0
  11
9.41715
  21
4.43252
  31
0
  0
LINE
  8
0
  10
9.41715
  20
4.43252
  30
0
  11
9.43932
  21
4.39362
  31
0
  0
LINE
  8
0
  10
9.43932
  20
4.39362
  30
0
  11
9.48796
  21
4.3508
  31
0
  0
LINE
  8
0
  10
9.48796
  20
4.3508
  30
0
  11
9.53898
  21
4.32562
  31
0
  0
LINE
  8
0
  10
9.53898
  20
4.32562
  30
0
  11
9.64277
  21
4.28804
  31
0
  0
LINE
  8
0
  10
9.64277
  20
4.28804
  30
0
  11
9.74022
  21
4.2118
  31
0
  0
LINE
  8
0
  10
9.74022
  20
4.2118
  30
0
  11
9.83572
  21
4.12876
  31
0
  0
LINE
  8
0
  10
9.83572
  20
4.12876
  30
0
  11
9.90595
  21
4.06219
  31
0
  0
LINE
  8
0
  10
9.90595
  20
4.06219
  30
0
  11
9.88194
  21
3.94389
  31
0
  0
LINE
  8
0
  10
9.88194
  20
3.94389
  30
0
  11
9.79131
  21
3.90998
  31
0
  0
LINE
  8
0
  10
9.79131
  20
3.90998
  30
0
  11
9.67099
  21
3.87074
  31
0
  0
LINE
  8
0
  10
9.67099
  20
3.87074
  30
0
  11
9.55152
  21
3.83854
  31
0
  0
LINE
  8
0
  10
9.55152
  20
3.83854
  30
0
  11
9.44129
  21
3.84441
  31
0
  0
LINE
  8
0
  10
9.44129
  20
3.84441
  30
0
  11
9.3845
  21
3.84111
  31
0
  0
LINE
  8
0
  10
9.3845
  20
3.84111
  30
0
  11
9.323
  21
3.82065
  31
0
  0
LINE
  8
0
  10
9.323
  20
3.82065
  30
0
  11
9.28743
  21
3.79347
  31
0
  0
LINE
  8
0
  10
9.28743
  20
3.79347
  30
0
  11
9.22208
  21
3.58106
  31
0
  0
LINE
  8
0
  10
9.22208
  20
3.58106
  30
0
  11
9.23623
  21
3.53858
  31
0
  0
LINE
  8
0
  10
9.23623
  20
3.53858
  30
0
  11
9.27559
  21
3.48709
  31
0
  0
LINE
  8
0
  10
9.27559
  20
3.48709
  30
0
  11
9.32071
  21
3.45244
  31
0
  0
LINE
  8
0
  10
9.32071
  20
3.45244
  30
0
  11
9.41518
  21
3.39534
  31
0
  0
LINE
  8
0
  10
9.41518
  20
3.39534
  30
0
  11
9.49588
  21
3.30155
  31
0
  0
LINE
  8
0
  10
9.49588
  20
3.30155
  30
0
  11
9.57334
  21
3.20147
  31
0
  0
LINE
  8
0
  10
9.57334
  20
3.20147
  30
0
  11
9.62924
  21
3.12248
  31
0
  0
LINE
  8
0
  10
9.62924
  20
3.12248
  30
0
  11
9.58261
  21
3.01115
  31
0
  0
LINE
  8
0
  10
9.58261
  20
3.01115
  30
0
  11
9.4871
  21
2.99556
  31
0
  0
LINE
  8
0
  10
9.4871
  20
2.99556
  30
0
  11
9.36144
  21
2.98055
  31
0
  0
LINE
  8
0
  10
9.36144
  20
2.98055
  30
0
  11
9.23798
  21
2.97227
  31
0
  0
LINE
  8
0
  10
9.23798
  20
2.97227
  30
0
  11
9.13102
  21
2.99954
  31
0
  0
LINE
  8
0
  10
9.13102
  20
2.99954
  30
0
  11
9.07468
  21
3.00738
  31
0
  0
LINE
  8
0
  10
9.07468
  20
3.00738
  30
0
  11
9.01037
  21
2.99931
  31
0
  0
LINE
  8
0
  10
9.01037
  20
2.99931
  30
0
  11
8.97017
  21
2.97959
  31
0
  0
LINE
  8
0
  10
8.97017
  20
2.97959
  30
0
  11
8.86464
  21
2.78401
  31
0
  0
LINE
  8
0
  10
8.86464
  20
2.78401
  30
0
  11
8.87023
  21
2.73959
  31
0
  0
LINE
  8
0
  10
8.87023
  20
2.73959
  30
0
  11
8.89879
  21
2.68141
  31
0
  0
LINE
  8
0
  10
8.89879
  20
2.68141
  30
0
  11
8.93628
  21
2.63863
  31
0
  0
LINE
  8
0
  10
8.93628
  20
2.63863
  30
0
  11
9.0178
  21
2.56419
  31
0
  0
LINE
  8
0
  10
9.0178
  20
2.56419
  30
0
  11
9.07866
  21
2.45646
  31
0
  0
LINE
  8
0
  10
9.07866
  20
2.45646
  30
0
  11
9.1351
  21
2.34319
  31
0
  0
LINE
  8
0
  10
9.1351
  20
2.34319
  30
0
  11
9.17451
  21
2.25481
  31
0
  0
LINE
  8
0
  10
9.17451
  20
2.25481
  30
0
  11
9.10706
  21
2.15472
  31
0
  0
LINE
  8
0
  10
9.10706
  20
2.15472
  30
0
  11
9.01035
  21
2.15806
  31
0
  0
LINE
  8
0
  10
9.01035
  20
2.15806
  30
0
  11
8.88417
  21
2.16786
  31
0
  0
LINE
  8
0
  10
8.88417
  20
2.16786
  30
0
  11
8.76147
  21
2.18382
  31
0
  0
LINE
  8
0
  10
8.76147
  20
2.18382
  30
0
  11
8.66188
  21
2.23143
  31
0
  0
LINE
  8
0
  10
8.66188
  20
2.23143
  30
0
  11
8.60815
  21
2.25012
  31
0
  0
LINE
  8
0
  10
8.60815
  20
2.25012
  30
0
  11
8.54351
  21
2.25474
  31
0
  0
LINE
  8
0
  10
8.54351
  20
2.25474
  30
0
  11
8.50024
  21
2.24325
  31
0
  0
LINE
  8
0
  10
8.50024
  20
2.24325
  30
0
  11
8.35858
  21
2.07202
  31
0
  0
LINE
  8
0
  10
8.35858
  20
2.07202
  30
0
  11
8.3554
  21
2.02736
  31
0
  0
LINE
  8
0
  10
8.3554
  20
2.02736
  30
0
  11
8.37205
  21
1.96472
  31
0
  0
LINE
  8
0
  10
8.37205
  20
1.96472
  30
0
  11
8.40048
  21
1.91545
  31
0
  0
LINE
  8
0
  10
8.40048
  20
1.91545
  30
0
  11
8.46591
  21
1.82654
  31
0
  0
LINE
  8
0
  10
8.46591
  20
1.82654
  30
0
  11
8.50458
  21
1.709
  31
0
  0
LINE
  8
0
  10
8.50458
  20
1.709
  30
0
  11
8.53784
  21
1.5869
  31
0
  0
LINE
  8
0
  10
8.53784
  20
1.5869
  30
0
  11
8.55925
  21
1.49253
  31
0
  0
LINE
  8
0
  10
8.55925
  20
1.49253
  30
0
  11
8.47357
  21
1.40752
  31
0
  0
LINE
  8
0
  10
8.47357
  20
1.40752
  30
0
  11
8.37937
  21
1.42967
  31
0
  0
LINE
  8
0
  10
8.37937
  20
1.42967
  30
0
  11
8.25753
  21
1.46389
  31
0
  0
LINE
  8
0
  10
8.25753
  20
1.46389
  30
0
  11
8.1403
  21
1.50348
  31
0
  0
LINE
  8
0
  10
8.1403
  20
1.50348
  30
0
  11
8.05191
  21
1.56961
  31
0
  0
LINE
  8
0
  10
8.05191
  20
1.56961
  30
0
  11
8.00286
  21
1.59842
  31
0
  0
LINE
  8
0
  10
8.00286
  20
1.59842
  30
0
  11
7.94036
  21
1.61557
  31
0
  0
LINE
  8
0
  10
7.94036
  20
1.61557
  30
0
  11
7.89568
  21
1.61273
  31
0
  0
LINE
  8
0
  10
7.89568
  20
1.61273
  30
0
  11
7.72334
  21
1.47243
  31
0
  0
LINE
  8
0
  10
7.72334
  20
1.47243
  30
0
  11
7.7115
  21
1.42925
  31
0
  0
LINE
  8
0
  10
7.7115
  20
1.42925
  30
0
  11
7.71562
  21
1.36457
  31
0
  0
LINE
  8
0
  10
7.71562
  20
1.36457
  30
0
  11
7.73388
  21
1.31069
  31
0
  0
LINE
  8
0
  10
7.73388
  20
1.31069
  30
0
  11
7.78071
  21
1.21073
  31
0
  0
LINE
  8
0
  10
7.78071
  20
1.21073
  30
0
  11
7.79571
  21
1.08791
  31
0
  0
LINE
  8
0
  10
7.79571
  20
1.08791
  30
0
  11
7.80451
  21
0.96166
  31
0
  0
LINE
  8
0
  10
7.80451
  20
0.96166
  30
0
  11
7.8071
  21
0.86493
  31
0
  0
LINE
  8
0
  10
7.8071
  20
0.86493
  30
0
  11
7.70647
  21
0.79826
  31
0
  0
LINE
  8
0
  10
7.70647
  20
0.79826
  30
0
  11
7.61841
  21
0.83837
  31
0
  0
LINE
  8
0
  10
7.61841
  20
0.83837
  30
0
  11
7.50559
  21
0.8957
  31
0
  0
LINE
  8
0
  10
7.50559
  20
0.8957
  30
0
  11
7.39834
  21
0.9574
  31
0
  0
LINE
  8
0
  10
7.39834
  20
0.9574
  30
0
  11
7.32454
  21
1.0395
  31
0
  0
LINE
  8
0
  10
7.32454
  20
1.0395
  30
0
  11
7.28206
  21
1.07732
  31
0
  0
LINE
  8
0
  10
7.28206
  20
1.07732
  30
0
  11
7.2241
  21
1.10634
  31
0
  0
LINE
  8
0
  10
7.2241
  20
1.10634
  30
0
  11
7.17972
  21
1.11228
  31
0
  0
LINE
  8
0
  10
7.17972
  20
1.11228
  30
0
  11
6.98332
  21
1.00829
  31
0
  0
LINE
  8
0
  10
6.98332
  20
1.00829
  30
0
  11
6.96329
  21
0.96825
  31
0
  0
LINE
  8
0
  10
6.96329
  20
0.96825
  30
0
  11
6.95471
  21
0.90401
  31
0
  0
LINE
  8
0
  10
6.95471
  20
0.90401
  30
0
  11
6.96212
  21
0.8476
  31
0
  0
LINE
  8
0
  10
6.96212
  20
0.8476
  30
0
  11
6.98854
  21
0.74043
  31
0
  0
LINE
  8
0
  10
6.98854
  20
0.74043
  30
0
  11
6.97929
  21
0.61704
  31
0
  0
LINE
  8
0
  10
6.97929
  20
0.61704
  30
0
  11
6.96329
  21
0.4915
  31
0
  0
LINE
  8
0
  10
6.96329
  20
0.4915
  30
0
  11
6.94696
  21
0.39612
  31
0
  0
LINE
  8
0
  10
6.94696
  20
0.39612
  30
0
  11
6.83526
  21
0.35037
  31
0
  0
LINE
  8
0
  10
6.83526
  20
0.35037
  30
0
  11
6.75671
  21
0.40688
  31
0
  0
LINE
  8
0
  10
6.75671
  20
0.40688
  30
0
  11
6.65725
  21
0.48512
  31
0
  0
LINE
  8
0
  10
6.65725
  20
0.48512
  30
0
  11
6.56409
  21
0.56656
  31
0
  0
LINE
  8
0
  10
6.56409
  20
0.56656
  30
0
  11
6.50774
  21
0.66148
  31
0
  0
LINE
  8
0
  10
6.50774
  20
0.66148
  30
0
  11
6.47344
  21
0.70687
  31
0
  0
LINE
  8
0
  10
6.47344
  20
0.70687
  30
0
  11
6.42226
  21
0.74663
  31
0
  0
LINE
  8
0
  10
6.42226
  20
0.74663
  30
0
  11
6.3799
  21
0.76111
  31
0
  0
LINE
  8
0
  10
6.3799
  20
0.76111
  30
0
  11
6.16698
  21
0.69744
  31
0
  0
LINE
  8
0
  10
6.16698
  20
0.69744
  30
0
  11
6.13952
  21
0.66207
  31
0
  0
LINE
  8
0
  10
6.13952
  20
0.66207
  30
0
  11
6.11858
  21
0.60074
  31
0
  0
LINE
  8
0
  10
6.11858
  20
0.60074
  30
0
  11
6.11483
  21
0.54398
  31
0
  0
LINE
  8
0
  10
6.11483
  20
0.54398
  30
0
  11
6.11984
  21
0.4337
  31
0
  0
LINE
  8
0
  10
6.11984
  20
0.4337
  30
0
  11
6.0867
  21
0.31449
  31
0
  0
LINE
  8
0
  10
6.0867
  20
0.31449
  30
0
  11
6.04652
  21
0.19449
  31
0
  0
LINE
  8
0
  10
6.04652
  20
0.19449
  30
0
  11
6.01189
  21
0.10413
  31
0
  0
LINE
  8
0
  10
6.01189
  20
0.10413
  30
0
  11
5.89341
  21
0.08104
  31
0
  0
LINE
  8
0
  10
5.89341
  20
0.08104
  30
0
  11
5.8274
  21
0.1518
  31
0
  0
LINE
  8
0
  10
5.8274
  20
0.1518
  30
0
  11
5.7451
  21
0.24794
  31
0
  0
LINE
  8
0
  10
5.7451
  20
0.24794
  30
0
  11
5.66963
  21
0.34599
  31
0
  0
LINE
  8
0
  10
5.66963
  20
0.34599
  30
0
  11
5.63287
  21
0.45007
  31
0
  0
LINE
  8
0
  10
5.63287
  20
0.45007
  30
0
  11
5.60809
  21
0.50128
  31
0
  0
LINE
  8
0
  10
5.60809
  20
0.50128
  30
0
  11
5.56565
  21
0.55026
  31
0
  0
LINE
  8
0
  10
5.56565
  20
0.55026
  30
0
  11
5.52693
  21
0.57273
  31
0
  0
LINE
  8
0
  10
5.52693
  20
0.57273
  30
0
  11
5.30568
  21
0.55182
  31
0
  0
LINE
  8
0
  10
5.30568
  20
0.55182
  30
0
  11
5.27185
  21
0.52249
  31
0
  0
LINE
  8
0
  10
5.27185
  20
0.52249
  30
0
  11
5.23934
  21
0.46642
  31
0
  0
LINE
  8
0
  10
5.23934
  20
0.46642
  30
0
  11
5.2246
  21
0.41148
  31
0
  0
LINE
  8
0
  10
5.2246
  20
0.41148
  30
0
  11
5.20799
  21
0.30235
  31
0
  0
LINE
  8
0
  10
5.20799
  20
0.30235
  30
0
  11
5.15223
  21
0.1919
  31
0
  0
LINE
  8
0
  10
5.15223
  20
0.1919
  30
0
  11
5.08941
  21
0.08203
  31
0
  0
LINE
  8
0
  10
5.08941
  20
0.08203
  30
0
  11
5.03782
  21
0.00017
  31
0
  0
LINE
  8
0
  10
5.03782
  20
0.00017
  30
0
  11
4.91712
  21
0.00064
  31
0
  0
LINE
  8
0
  10
4.91712
  20
0.00064
  30
0
  11
4.86617
  21
0.08291
  31
0
  0
LINE
  8
0
  10
4.86617
  20
0.08291
  30
0
  11
4.80422
  21
0.19326
  31
0
  0
LINE
  8
0
  10
4.80422
  20
0.19326
  30
0
  11
4.74932
  21
0.30415
  31
0
  0
LINE
  8
0
  10
4.74932
  20
0.30415
  30
0
  11
4.73358
  21
0.41341
  31
0
  0
LINE
  8
0
  10
4.73358
  20
0.41341
  30
0
  11
4.71926
  21
0.46847
  31
0
  0
LINE
  8
0
  10
4.71926
  20
0.46847
  30
0
  11
4.6872
  21
0.52479
  31
0
  0
LINE
  8
0
  10
4.6872
  20
0.52479
  30
0
  11
4.6536
  21
0.55438
  31
0
  0
LINE
  8
0
  10
4.6536
  20
0.55438
  30
0
  11
4.43252
  21
0.57703
  31
0
  0
LINE
  8
0
  10
4.43252
  20
0.57703
  30
0
  11
4.39362
  21
0.55487
  31
0
  0
LINE
  8
0
  10
4.39362
  20
0.55487
  30
0
  11
4.3508
  21
0.50622
  31
0
  0
LINE
  8
0
  10
4.3508
  20
0.50622
  30
0
  11
4.32562
  21
0.45521
  31
0
  0
LINE
  8
0
  10
4.32562
  20
0.45521
  30
0
  11
4.28804
  21
0.35141
  31
0
  0
LINE
  8
0
  10
4.28804
  20
0.35141
  30
0
  11
4.2118
  21
0.25396
  31
0
  0
LINE
  8
0
  10
4.2118
  20
0.25396
  30
0
  11
4.12876
  21
0.15847
  31
0
  0
LINE
  8
0
  10
4.12876
  20
0.15847
  30
0
  11
4.06219
  21
0.08823
  31
0
  0
LINE
  8
0
  10
4.06219
  20
0.08823
  30
0
  11
3.94389
  21
0.11225
  31
0
  0
LINE
  8
0
  10
3.94389
  20
0.11225
  30
0
  11
3.90998
  21
0.20288
  31
0
  0
LINE
  8
0
  10
3.90998
  20
0.20288
  30
0
  11
3.87074
  21
0.32319
  31
0
  0
LINE
  8
0
  10
3.87074
  20
0.32319
  30
0
  11
3.83854
  21
0.44266
  31
0
  0
LINE
  8
0
  10
3.83854
  20
0.44266
  30
0
  11
3.84441
  21
0.55289
  31
0
  0
LINE
  8
0
  10
3.84441
  20
0.55289
  30
0
  11
3.84111
  21
0.60968
  31
0
  0
LINE
  8
0
  10
3.84111
  20
0.60968
  30
0
  11
3.82065
  21
0.67118
  31
0
  0
LINE
  8
0
  10
3.82065
  20
0.67118
  30
0
  11
3.79347
  21
0.70676
  31
0
  0
LINE
  8
0
  10
3.79347
  20
0.70676
  30
0
  11
3.58106
  21
0.7721
  31
0
  0
LINE
  8
0
  10
3.58106
  20
0.7721
  30
0
  11
3.53858
  21
0.75795
  31
0
  0
LINE
  8
0
  10
3.53858
  20
0.75795
  30
0
  11
3.48709
  21
0.7186
  31
0
  0
LINE
  8
0
  10
3.48709
  20
0.7186
  30
0
  11
3.45244
  21
0.67348
  31
0
  0
LINE
  8
0
  10
3.45244
  20
0.67348
  30
0
  11
3.39534
  21
0.57901
  31
0
  0
LINE
  8
0
  10
3.39534
  20
0.57901
  30
0
  11
3.30155
  21
0.4983
  31
0
  0
LINE
  8
0
  10
3.30155
  20
0.4983
  30
0
  11
3.20147
  21
0.42084
  31
0
  0
LINE
  8
0
  10
3.20147
  20
0.42084
  30
0
  11
3.12248
  21
0.36495
  31
0
  0
LINE
  8
0
  10
3.12248
  20
0.36495
  30
0
  11
3.01115
  21
0.41158
  31
0
  0
LINE
  8
0
  10
3.01115
  20
0.41158
  30
0
  11
2.99556
  21
0.50708
  31
0
  0
LINE
  8
0
  10
2.99556
  20
0.50708
  30
0
  11
2.98055
  21
0.63274
  31
0
  0
LINE
  8
0
  10
2.98055
  20
0.63274
  30
0
  11
2.97227
  21
0.7562
  31
0
  0
LINE
  8
0
  10
2.97227
  20
0.7562
  30
0
  11
2.99954
  21
0.86316
  31
0
  0
LINE
  8
0
  10
2.99954
  20
0.86316
  30
0
  11
3.00738
  21
0.91951
  31
0
  0
LINE
  8
0
  10
3.00738
  20
0.91951
  30
0
  11
2.99931
  21
0.98381
  31
0
  0
LINE
  8
0
  10
2.99931
  20
0.98381
  30
0
  11
2.97959
  21
1.02401
  31
0
  0
LINE
  8
0
  10
2.97959
  20
1.02401
  30
0
  11
2.78401
  21
1.12954
  31
0
  0
LINE
  8
0
  10
2.78401
  20
1.12954
  30
0
  11
2.73959
  21
1.12395
  31
0
  0
LINE
  8
0
  10
2.73959
  20
1.12395
  30
0
  11
2.68141
  21
1.09539
  31
0
  0
LINE
  8
0
  10
2.68141
  20
1.09539
  30
0
  11
2.63863
  21
1.0579
  31
0
  0
LINE
  8
0
  10
2.63863
  20
1.0579
  30
0
  11
2.56419
  21
0.97639
  31
0
  0
LINE
  8
0
  10
2.56419
  20
0.97639
  30
0
  11
2.45646
  21
0.91553
  31
0
  0
LINE
  8
0
  10
2.45646
  20
0.91553
  30
0
  11
2.34319
  21
0.85908
  31
0
  0
LINE
  8
0
  10
2.34319
  20
0.85908
  30
0
  11
2.25481
  21
0.81967
  31
0
  0
LINE
  8
0
  10
2.25481
  20
0.81967
  30
0
  11
2.15472
  21
0.88713
  31
0
  0
LINE
  8
0
  10
2.15472
  20
0.88713
  30
0
  11
2.15806
  21
0.98384
  31
0
  0
LINE
  8
0
  10
2.15806
  20
0.98384
  30
0
  11
2.16786
  21
1.11001
  31
0
  0
LINE
  8
0
  10
2.16786
  20
1.11001
  30
0
  11
2.18382
  21
1.23271
  31
0
  0
LINE
  8
0
  10
2.18382
  20
1.23271
  30
0
  11
2.23143
  21
1.3323
  31
0
  0
LINE
  8
0
  10
2.23143
  20
1.3323
  30
0
  11
2.25012
  21
1.38603
  31
0
  0
LINE
  8
0
  10
2.25012
  20
1.38603
  30
0
  11
2.25474
  21
1.45068
  31
0
  0
LINE
  8
0
  10
2.25474
  20
1.45068
  30
0
  11
2.24325
  21
1.49395
  31
0
  0
LINE
  8
0
  10
2.24325
  20
1.49395
  30
0
  11
2.07202
  21
1.6356
  31
0
  0
LINE
  8
0
  10
2.07202
  20
1.6356
  30
0
  11
2.02736
  21
1.63879
  31
0
  0
LINE
  8
0
  10
2.02736
  20
1.63879
  30
0
  11
1.96472
  21
1.62213
  31
0
  0
LINE
  8
0
  10
1.96472
  20
1.62213
  30
0
  11
1.91545
  21
1.5937
  31
0
  0
LINE
  8
0
  10
1.91545
  20
1.5937
  30
0
  11
1.82654
  21
1.52828
  31
0
  0
LINE
  8
0
  10
1.82654
  20
1.52828
  30
0
  11
1.709
  21
1.48961
  31
0
  0
LINE
  8
0
  10
1.709
  20
1.48961
  30
0
  11
1.5869
  21
1.45634
  31
0
  0
LINE
  8
0
  10
1.5869
  20
1.45634
  30
0
  11
1.49253
  21
1.43493
  31
0
  0
LINE
  8
0
  10
1.49253
  20
1.43493
  30
0
  11
1.40752
  21
1.52062
  31
0
  0
LINE
  8
0
  10
1.40752
  20
1.52062
  30
0
  11
1.42967
  21
1.61482
  31
0
  0
LINE
  8
0
  10
1.42967
  20
1.61482
  30
0
  11
1.46389
  21
1.73665
  31
0
  0
LINE
  8
0
  10
1.46389
  20
1.73665
  30
0
  11
1.50348
  21
1.85388
  31
0
  0
LINE
  8
0
  10
1.50348
  20
1.85388
  30
0
  11
1.56961
  21
1.94227
  31
0
  0
LINE
  8
0
  10
1.56961
  20
1.94227
  30
0
  11
1.59842
  21
1.99132
  31
0
  0
LINE
  8
0
  10
1.59842
  20
1.99132
  30
0
  11
1.61557
  21
2.05382
  31
0
  0
LINE
  8
0
  10
1.61557
  20
2.05382
  30
0
  11
1.61273
  21
2.09851
  31
0
  0
LINE
  8
0
  10
1.61273
  20
2.09851
  30
0
  11
1.47243
  21
2.27085
  31
0
  0
LINE
  8
0
  10
1.47243
  20
2.27085
  30
0
  11
1.42925
  21
2.28268
  31
0
  0
LINE
  8
0
  10
1.42925
  20
2.28268
  30
0
  11
1.36457
  21
2.27856
  31
0
  0
LINE
  8
0
  10
1.36457
  20
2.27856
  30
0
  11
1.31069
  21
2.2603
  31
0
  0
LINE
  8
0
  10
1.31069
  20
2.2603
  30
0
  11
1.21073
  21
2.21347
  31
0
  0
LINE
  8
0
  10
1.21073
  20
2.21347
  30
0
  11
1.08791
  21
2.19847
  31
0
  0
LINE
  8
0
  10
1.08791
  20
2.19847
  30
0
  11
0.96166
  21
2.18967
  31
0
  0
LINE
  8
0
  10
0.96166
  20
2.18967
  30
0
  11
0.86493
  21
2.18708
  31
0
  0
LINE
  8
0
  10
0.86493
  20
2.18708
  30
0
  11
0.79826
  21
2.28771
  31
0
  0
LINE
  8
0
  10
0.79826
  20
2.28771
  30
0
  11
0.83837
  21
2.37578
  31
0
  0
LINE
  8
0
  10
0.83837
  20
2.37578
  30
0
  11
0.8957
  21
2.4886
  31
0
  0
LINE
  8
0
  10
0.8957
  20
2.4886
  30
0
  11
0.9574
  21
2.59585
  31
0
  0
LINE
  8
0
  10
0.9574
  20
2.59585
  30
0
  11
1.0395
  21
2.66964
  31
0
  0
LINE
  8
0
  10
1.0395
  20
2.66964
  30
0
  11
1.07732
  21
2.71213
  31
0
  0
LINE
  8
0
  10
1.07732
  20
2.71213
  30
0
  11
1.10634
  21
2.77008
  31
0
  0
LINE
  8
0
  10
1.10634
  20
2.77008
  30
0
  11
1.11228
  21
2.81446
  31
0
  0
LINE
  8
0
  10
1.11228
  20
2.81446
  30
0
  11
1.00829
  21
3.01086
  31
0
  0
LINE
  8
0
  10
1.00829
  20
3.01086
  30
0
  11
0.96825
  21
3.03089
  31
0
  0
LINE
  8
0
  10
0.96825
  20
3.03089
  30
0
  11
0.90401
  21
3.03947
  31
0
  0
LINE
  8
0
  10
0.90401
  20
3.03947
  30
0
  11
0.8476
  21
3.03207
  31
0
  0
LINE
  8
0
  10
0.8476
  20
3.03207
  30
0
  11
0.74043
  21
3.00564
  31
0
  0
LINE
  8
0
  10
0.74043
  20
3.00564
  30
0
  11
0.61704
  21
3.01489
  31
0
  0
LINE
  8
0
  10
0.61704
  20
3.01489
  30
0
  11
0.4915
  21
3.03089
  31
0
  0
LINE
  8
0
  10
0.4915
  20
3.03089
  30
0
  11
0.39612
  21
3.04722
  31
0
  0
LINE
  8
0
  10
0.39612
  20
3.04722
  30
0
  11
0.35037
  21
3.15892
  31
0
  0
LINE
  8
0
  10
0.35037
  20
3.15892
  30
0
  11
0.40688
  21
3.23747
  31
0
  0
LINE
  8
0
  10
0.40688
  20
3.23747
  30
0
  11
0.48512
  21
3.33694
  31
0
  0
LINE
  8
0
  10
0.48512
  20
3.33694
  30
0
  11
0.56656
  21
3.43009
  31
0
  0
LINE
  8
0
  10
0.56656
  20
3.43009
  30
0
  11
0.66148
  21
3.48645
  31
0
  0
LINE
  8
0
  10
0.66148
  20
3.48645
  30
0
  11
0.70687
  21
3.52074
  31
0
  0
LINE
  8
0
  10
0.70687
  20
3.52074
  30
0
  11
0.74663
  21
3.57192
  31
0
  0
LINE
  8
0
  10
0.74663
  20
3.57192
  30
0
  11
0.76111
  21
3.61429
  31
0
  0
LINE
  8
0
  10
0.76111
  20
3.61429
  30
0
  11
0.69744
  21
3.8272
  31
0
  0
LINE
  8
0
  10
0.69744
  20
3.8272
  30
0
  11
0.66207
  21
3.85466
  31
0
  0
LINE
  8
0
  10
0.66207
  20
3.85466
  30
0
  11
0.60074
  21
3.87561
  31
0
  0
LINE
  8
0
  10
0.60074
  20
3.87561
  30
0
  11
0.54398
  21
3.87935
  31
0
  0
LINE
  8
0
  10
0.54398
  20
3.87935
  30
0
  11
0.4337
  21
3.87434
  31
0
  0
LINE
  8
0
  10
0.4337
  20
3.87434
  30
0
  11
0.31449
  21
3.90749
  31
0
  0
LINE
  8
0
  10
0.31449
  20
3.90749
  30
0
  11
0.19449
  21
3.94766
  31
0
  0
LINE
  8
0
  10
0.19449
  20
3.94766
  30
0
  11
0.10413
  21
3.98229
  31
0
  0
LINE
  8
0
  10
0.10413
  20
3.98229
  30
0
  11
0.08104
  21
4.10077
  31
0
  0
LINE
  8
0
  10
0.08104
  20
4.10077
  30
0
  11
0.1518
  21
4.16679
  31
0
  0
LINE
  8
0
  10
0.1518
  20
4.16679
  30
0
  11
0.24794
  21
4.24908
  31
0
  0
LINE
  8
0
  10
0.24794
  20
4.24908
  30
0
  11
0.34599
  21
4.32455
  31
0
  0
LINE
  8
0
  10
0.34599
  20
4.32455
  30
0
  11
0.45007
  21
4.36131
  31
0
  0
LINE
  8
0
  10
0.45007
  20
4.36131
  30
0
  11
0.50128
  21
4.38609
  31
0
  0
LINE
  8
0
  10
0.50128
  20
4.38609
  30
0
  11
0.55026
  21
4.42853
  31
0
  0
LINE
  8
0
  10
0.55026
  20
4.42853
  30
0
  11
0.57273
  21
4.46726
  31
0
  0
LINE
  8
0
  10
0.57273
  20
4.46726
  30
0
  11
0.55182
  21
4.6885
  31
0
  0
LINE
  8
0
  10
0.55182
  20
4.6885
  30
0
  11
0.52249
  21
4.72233
  31
0
  0
LINE
  8
0
  10
0.52249
  20
4.72233
  30
0
  11
0.46642
  21
4.75484
  31
0
  0
LINE
  8
0
  10
0.46642
  20
4.75484
  30
0
  11
0.41148
  21
4.76959
  31
0
  0
LINE
  8
0
  10
0.41148
  20
4.76959
  30
0
  11
0.30235
  21
4.78619
  31
0
  0
LINE
  8
0
  10
0.30235
  20
4.78619
  30
0
  11
0.1919
  21
4.84195
  31
0
  0
LINE
  8
0
  10
0.1919
  20
4.84195
  30
0
  11
0.08203
  21
4.90477
  31
0
  0
LINE
  8
0
  10
0.08203
  20
4.90477
  30
0
  11
0.00017
  21
4.95636
  31
0
  0
LINE
  8
0
  10
0.00017
  20
4.95636
  30
0
  11
0.00064
  21
5.07707
  31
0
  0
LINE
  8
0
  10
0.00064
  20
5.07707
  30
0
  11
0.08291
  21
5.12801
  31
0
  0
LINE
  8
0
  10
0.08291
  20
5.12801
  30
0
  11
0.19326
  21
5.18997
  31
0
  0
LINE
  8
0
  10
0.19326
  20
5.18997
  30
0
  11
0.30415
  21
5.24486
  31
0
  0
LINE
  8
0
  10
0.30415
  20
5.24486
  30
0
  11
0.41341
  21
5.26061
  31
0
  0
LINE
  8
0
  10
0.41341
  20
5.26061
  30
0
  11
0.46847
  21
5.27492
  31
0
  0
LINE
  8
0
  10
0.46847
  20
5.27492
  30
0
  11
0.52479
  21
5.30699
  31
0
  0
LINE
  8
0
  10
0.52479
  20
5.30699
  30
0
  11
0.55438
  21
5.34059
  31
0
  0
LINE
  8
0
  10
0.55438
  20
5.34059
  30
0
  11
0.57703
  21
5.56166
  31
0
  0
LINE
  8
0
  10
0.57703
  20
5.56166
  30
0
  11
0.55487
  21
5.60056
  31
0
  0
LINE
  8
0
  10
0.55487
  20
5.60056
  30
0
  11
0.50622
  21
5.64338
  31
0
  0
LINE
  8
0
  10
0.50622
  20
5.64338
  30
0
  11
0.45521
  21
5.66856
  31
0
  0
LINE
  8
0
  10
0.45521
  20
5.66856
  30
0
  11
0.35141
  21
5.70614
  31
0
  0
LINE
  8
0
  10
0.35141
  20
5.70614
  30
0
  11
0.25396
  21
5.78238
  31
0
  0
LINE
  8
0
  10
0.25396
  20
5.78238
  30
0
  11
0.15847
  21
5.86542
  31
0
  0
LINE
  8
0
  10
0.15847
  20
5.86542
  30
0
  11
0.08823
  21
5.932
  31
0
  0
LINE
  8
0
  10
0.08823
  20
5.932
  30
0
  11
0.11225
  21
6.05029
  31
0
  0
LINE
  8
0
  10
0.11225
  20
6.05029
  30
0
  11
0.20288
  21
6.0842
  31
0
  0
LINE
  8
0
  10
0.20288
  20
6.0842
  30
0
  11
0.32319
  21
6.12344
  31
0
  0
LINE
  8
0
  10
0.32319
  20
6.12344
  30
0
  11
0.44266
  21
6.15565
  31
0
  0
LINE
  8
0
  10
0.44266
  20
6.15565
  30
0
  11
0.55289
  21
6.14977
  31
0
  0
LINE
  8
0
  10
0.55289
  20
6.14977
  30
0
  11
0.60968
  21
6.15307
  31
0
  0
LINE
  8
0
  10
0.60968
  20
6.15307
  30
0
  11
0.67118
  21
6.17353
  31
0
  0
LINE
  8
0
  10
0.67118
  20
6.17353
  30
0
  11
0.70676
  21
6.20072
  31
0
  0
LINE
  8
0
  10
0.70676
  20
6.20072
  30
0
  11
0.7721
  21
6.41312
  31
0
  0
LINE
  8
0
  10
0.7721
  20
6.41312
  30
0
  11
0.75795
  21
6.4556
  31
0
  0
LINE
  8
0
  10
0.75795
  20
6.4556
  30
0
  11
0.7186
  21
6.50709
  31
0
  0
LINE
  8
0
  10
0.7186
  20
6.50709
  30
0
  11
0.67348
  21
6.54174
  31
0
  0
LINE
  8
0
  10
0.67348
  20
6.54174
  30
0
  11
0.57901
  21
6.59884
  31
0
  0
LINE
  8
0
  10
0.57901
  20
6.59884
  30
0
  11
0.4983
  21
6.69263
  31
0
  0
LINE
  8
0
  10
0.4983
  20
6.69263
  30
0
  11
0.42084
  21
6.79271
  31
0
  0
LINE
  8
0
  10
0.42084
  20
6.79271
  30
0
  11
0.36495
  21
6.8717
  31
0
  0
LINE
  8
0
  10
0.36495
  20
6.8717
  30
0
  11
0.41158
  21
6.98304
  31
0
  0
LINE
  8
0
  10
0.41158
  20
6.98304
  30
0
  11
0.50708
  21
6.99862
  31
0
  0
LINE
  8
0
  10
0.50708
  20
6.99862
  30
0
  11
0.63274
  21
7.01363
  31
0
  0
LINE
  8
0
  10
0.63274
  20
7.01363
  30
0
  11
0.7562
  21
7.02191
  31
0
  0
LINE
  8
0
  10
0.7562
  20
7.02191
  30
0
  11
0.86316
  21
6.99465
  31
0
  0
LINE
  8
0
  10
0.86316
  20
6.99465
  30
0
  11
0.91951
  21
6.9868
  31
0
  0
LINE
  8
0
  10
0.91951
  20
6.9868
  30
0
  11
0.98381
  21
6.99487
  31
0
  0
LINE
  8
0
  10
0.98381
  20
6.99487
  30
0
  11
1.02401
  21
7.01459
  31
0
  0
LINE
  8
0
  10
1.02401
  20
7.01459
  30
0
  11
1.12954
  21
7.21017
  31
0
  0
LINE
  8
0
  10
1.12954
  20
7.21017
  30
0
  11
1.12395
  21
7.25459
  31
0
  0
LINE
  8
0
  10
1.12395
  20
7.25459
  30
0
  11
1.09539
  21
7.31277
  31
0
  0
LINE
  8
0
  10
1.09539
  20
7.31277
  30
0
  11
1.0579
  21
7.35556
  31
0
  0
LINE
  8
0
  10
1.0579
  20
7.35556
  30
0
  11
0.97639
  21
7.42999
  31
0
  0
LINE
  8
0
  10
0.97639
  20
7.42999
  30
0
  11
0.91553
  21
7.53772
  31
0
  0
LINE
  8
0
  10
0.91553
  20
7.53772
  30
0
  11
0.85908
  21
7.65099
  31
0
  0
LINE
  8
0
  10
0.85908
  20
7.65099
  30
0
  11
0.81967
  21
7.73937
  31
0
  0
LINE
  8
0
  10
0.81967
  20
7.73937
  30
0
  11
0.88713
  21
7.83947
  31
0
  0
LINE
  8
0
  10
0.88713
  20
7.83947
  30
0
  11
0.98384
  21
7.83612
  31
0
  0
LINE
  8
0
  10
0.98384
  20
7.83612
  30
0
  11
1.11001
  21
7.82632
  31
0
  0
LINE
  8
0
  10
1.11001
  20
7.82632
  30
0
  11
1.23271
  21
7.81036
  31
0
  0
LINE
  8
0
  10
1.23271
  20
7.81036
  30
0
  11
1.3323
  21
7.76275
  31
0
  0
LINE
  8
0
  10
1.3323
  20
7.76275
  30
0
  11
1.38603
  21
7.74407
  31
0
  0
LINE
  8
0
  10
1.38603
  20
7.74407
  30
0
  11
1.45068
  21
7.73944
  31
0
  0
LINE
  8
0
  10
1.45068
  20
7.73944
  30
0
  11
1.49395
  21
7.75093
  31
0
  0
LINE
  8
0
  10
1.49395
  20
7.75093
  30
0
  11
1.6356
  21
7.92217
  31
0
  0
LINE
  8
0
  10
1.6356
  20
7.92217
  30
0
  11
1.63879
  21
7.96683
  31
0
  0
LINE
  8
0
  10
1.63879
  20
7.96683
  30
0
  11
1.62213
  21
8.02946
  31
0
  0
LINE
  8
0
  10
1.62213
  20
8.02946
  30
0
  11
1.5937
  21
8.07874
  31
0
  0
LINE
  8
0
  10
1.5937
  20
8.07874
  30
0
  11
1.52828
  21
8.16764
  31
0
  0
LINE
  8
0
  10
1.52828
  20
8.16764
  30
0
  11
1.48961
  21
8.28518
  31
0
  0
LINE
  8
0
  10
1.48961
  20
8.28518
  30
0
  11
1.45634
  21
8.40728
  31
0
  0
LINE
  8
0
  10
1.45634
  20
8.40728
  30
0
  11
1.43493
  21
8.50165
  31
0
  0
LINE
  8
0
  10
1.43493
  20
8.50165
  30
0
  11
1.52062
  21
8.58667
  31
0
  0
LINE
  8
0
  10
1.52062
  20
8.58667
  30
0
  11
1.61482
  21
8.56452
  31
0
  0
LINE
  8
0
  10
1.61482
  20
8.56452
  30
0
  11
1.73665
  21
8.53029
  31
0
  0
LINE
  8
0
  10
1.73665
  20
8.53029
  30
0
  11
1.85388
  21
8.4907
  31
0
  0
LINE
  8
0
  10
1.85388
  20
8.4907
  30
0
  11
1.94227
  21
8.42458
  31
0
  0
LINE
  8
0
  10
1.94227
  20
8.42458
  30
0
  11
1.99132
  21
8.39577
  31
0
  0
LINE
  8
0
  10
1.99132
  20
8.39577
  30
0
  11
2.05382
  21
8.37862
  31
0
  0
LINE
  8
0
  10
2.05382
  20
8.37862
  30
0
  11
2.09851
  21
8.38145
  31
0
  0
LINE
  8
0
  10
2.09851
  20
8.38145
  30
0
  11
2.27085
  21
8.52176
  31
0
  0
LINE
  8
0
  10
2.27085
  20
8.52176
  30
0
  11
2.28268
  21
8.56494
  31
0
  0
LINE
  8
0
  10
2.28268
  20
8.56494
  30
0
  11
2.27856
  21
8.62962
  31
0
  0
LINE
  8
0
  10
2.27856
  20
8.62962
  30
0
  11
2.2603
  21
8.68349
  31
0
  0
LINE
  8
0
  10
2.2603
  20
8.68349
  30
0
  11
2.21347
  21
8.78345
  31
0
  0
LINE
  8
0
  10
2.21347
  20
8.78345
  30
0
  11
2.19847
  21
8.90627
  31
0
  0
LINE
  8
0
  10
2.19847
  20
8.90627
  30
0
  11
2.18967
  21
9.03252
  31
0
  0
LINE
  8
0
  10
2.18967
  20
9.03252
  30
0
  11
2.18708
  21
9.12925
  31
0
  0
LINE
  8
0
  10
2.18708
  20
9.12925
  30
0
  11
2.28771
  21
9.19592
  31
0
  0
LINE
  8
0
  10
2.28771
  20
9.19592
  30
0
  11
2.37578
  21
9.15582
  31
0
  0
LINE
  8
0
  10
2.37578
  20
9.15582
  30
0
  11
2.4886
  21
9.09848
  31
0
  0
LINE
  8
0
  10
2.4886
  20
9.09848
  30
0
  11
2.59585
  21
9.03678
  31
0
  0
LINE
  8
0
  10
2.59585
  20
9.03678
  30
0
  11
2.66964
  21
8.95468
  31
0
  0
LINE
  8
0
  10
2.66964
  20
8.95468
  30
0
  11
2.71213
  21
8.91686
  31
0
  0
LINE
  8
0
  10
2.71213
  20
8.91686
  30
0
  11
2.77008
  21
8.88784
  31
0
  0
LINE
  8
0
  10
2.77008
  20
8.88784
  30
0
  11
2.81446
  21
8.88191
  31
0
  0
LINE
  8
0
  10
2.81446
  20
8.88191
  30
0
  11
3.01086
  21
8.9859
  31
0
  0
LINE
  8
0
  10
3.01086
  20
8.9859
  30
0
  11
3.03089
  21
9.02594
  31
0
  0
LINE
  8
0
  10
3.03089
  20
9.02594
  30
0
  11
3.03947
  21
9.09018
  31
0
  0
LINE
  8
0
  10
3.03947
  20
9.09018
  30
0
  11
3.03207
  21
9.14658
  31
0
  0
LINE
  8
0
  10
3.03207
  20
9.14658
  30
0
  11
3.00564
  21
9.25376
  31
0
  0
LINE
  8
0
  10
3.00564
  20
9.25376
  30
0
  11
3.01489
  21
9.37714
  31
0
  0
LINE
  8
0
  10
3.01489
  20
9.37714
  30
0
  11
3.03089
  21
9.50268
  31
0
  0
LINE
  8
0
  10
3.03089
  20
9.50268
  30
0
  11
3.04722
  21
9.59806
  31
0
  0
LINE
  8
0
  10
3.04722
  20
9.59806
  30
0
  11
3.15892
  21
9.64382
  31
0
  0
LINE
  8
0
  10
3.15892
  20
9.64382
  30
0
  11
3.23747
  21
9.5873
  31
0
  0
LINE
  8
0
  10
3.23747
  20
9.5873
  30
0
  11
3.33694
  21
9.50906
  31
0
  0
LINE
  8
0
  10
3.33694
  20
9.50906
  30
0
  11
3.43009
  21
9.42762
  31
0
  0
LINE
  8
0
  10
3.43009
  20
9.42762
  30
0
  11
3.48645
  21
9.3327
  31
0
  0
LINE
  8
0
  10
3.48645
  20
9.3327
  30
0
  11
3.52074
  21
9.28731
  31
0
  0
LINE
  8
0
  10
3.52074
  20
9.28731
  30
0
  11
3.57192
  21
9.24755
  31
0
  0
LINE
  8
0
  10
3.57192
  20
9.24755
  30
0
  11
3.61429
  21
9.23307
  31
0
  0
LINE
  8
0
  10
3.61429
  20
9.23307
  30
0
  11
3.8272
  21
9.29675
  31
0
  0
LINE
  8
0
  10
3.8272
  20
9.29675
  30
0
  11
3.85466
  21
9.33211
  31
0
  0
LINE
  8
0
  10
3.85466
  20
9.33211
  30
0
  11
3.87561
  21
9.39344
  31
0
  0
LINE
  8
0
  10
3.87561
  20
9.39344
  30
0
  11
3.87935
  21
9.45021
  31
0
  0
LINE
  8
0
  10
3.87935
  20
9.45021
  30
0
  11
3.87434
  21
9.56048
  31
0
  0
LINE
  8
0
  10
3.87434
  20
9.56048
  30
0
  11
3.90749
  21
9.67969
  31
0
  0
LINE
  8
0
  10
3.90749
  20
9.67969
  30
0
  11
3.94766
  21
9.7997
  31
0
  0
LINE
  8
0
  10
3.94766
  20
9.7997
  30
0
  11
3.98229
  21
9.89006
  31
0
  0
LINE
  8
0
  10
3.98229
  20
9.89006
  30
0
  11
4.10077
  21
9.91314
  31
0
  0
LINE
  8
0
  10
4.10077
  20
9.91314
  30
0
  11
4.16679
  21
9.84239
  31
0
  0
LINE
  8
0
  10
4.16679
  20
9.84239
  30
0
  11
4.24908
  21
9.74624
  31
0
  0
LINE
  8
0
  10
4.24908
  20
9.74624
  30
0
  11
4.32455
  21
9.64819
  31
0
  0
LINE
  8
0
  10
4.32455
  20
9.64819
  30
0
  11
4.36131
  21
9.54411
  31
0
  0
LINE
  8
0
  10
4.36131
  20
9.54411
  30
0
  11
4.38609
  21
9.4929
  31
0
  0
LINE
  8
0
  10
4.38609
  20
9.4929
  30
0
  11
4.42853
  21
9.44392
  31
0
  0
LINE
  8
0
  10
4.42853
  20
9.44392
  30
0
  11
4.46726
  21
9.42145
  31
0
  0
LINE
  8
0
  10
4.46726
  20
9.42145
  30
0
  11
4.6885
  21
9.44236
  31
0
  0
LINE
  8
0
  10
4.6885
  20
9.44236
  30
0
  11
4.72233
  21
9.47169
  31
0
  0
LINE
  8
0
  10
4.72233
  20
9.47169
  30
0
  11
4.75484
  21
9.52776
  31
0
  0
LINE
  8
0
  10
4.75484
  20
9.52776
  30
0
  11
4.76959
  21
9.5827
  31
0
  0
LINE
  8
0
  10
4.76959
  20
9.5827
  30
0
  11
4.78619
  21
9.69183
  31
0
  0
LINE
  8
0
  10
4.78619
  20
9.69183
  30
0
  11
4.84195
  21
9.80229
  31
0
  0
LINE
  8
0
  10
4.84195
  20
9.80229
  30
0
  11
4.90477
  21
9.91215
  31
0
  0
LINE
  8
0
  10
4.90477
  20
9.91215
  30
0
  11
4.95636
  21
9.99402
  31
0
  0
LINE
  8
0
  10
4.95636
  20
9.99402
  30
0
  11
5.07707
  21
9.99354
  31
0
  0
LINE
  8
0
  10
5.07707
  20
9.99354
  30
0
  11
5.12801
  21
9.91127
  31
0
  0
LINE
  8
0
  10
5.12801
  20
9.91127
  30
0
  11
5.18997
  21
9.80092
  31
0
  0
LINE
  8
0
  10
5.18997
  20
9.80092
  30
0
  11
5.24486
  21
9.69003
  31
0
  0
LINE
  8
0
  10
5.24486
  20
9.69003
  30
0
  11
5.26061
  21
9.58077
  31
0
  0
LINE
  8
0
  10
5.26061
  20
9.58077
  30
0
  11
5.27492
  21
9.52572
  31
0
  0
LINE
  8
0
  10
5.27492
  20
9.52572
  30
0
  11
5.30699
  21
9.46939
  31
0
  0
LINE
  8
0
  10
5.30699
  20
9.46939
  30
0
  11
5.34059
  21
9.4398
  31
0
  0
LINE
  8
0
  10
5.34059
  20
9.4398
  30
0
  11
5.56166
  21
9.41715
  31
0
  0
LINE
  8
0
  10
5.56166
  20
9.41715
  30
0
  11
5.60056
  21
9.43932
  31
0
  0
LINE
  8
0
  10
5.60056
  20
9.43932
  30
0
  11
5.64338
  21
9.48796
  31
0
  0
LINE
  8
0
  10
5.64338
  20
9.48796
  30
0
  11
5.66856
  21
9.53898
  31
0
  0
LINE
  8
0
  10
5.66856
  20
9.53898
  30
0
  11
5.70614
  21
9.64277
  31
0
  0
LINE
  8
0
  10
5.70614
  20
9.64277
  30
0
  11
5.78238
  21
9.74022
  31
0
  0
LINE
  8
0
  10
5.78238
  20
9.74022
  30
0
  11
5.86542
  21
9.83572
  31
0
  0
LINE
  8
0
  10
5.86542
  20
9.83572
  30
0
  11
5.932
  21
9.90595
  31
0
  0
LINE
  8
0
  10
5.932
  20
9.90595
  30
0
  11
6.05029
  21
9.88194
  31
0
  0
LINE
  8
0
  10
6.05029
  20
9.88194
  30
0
  11
6.0842
  21
9.79131
  31
0
  0
LINE
  8
0
  10
6.0842
  20
9.79131
  30
0
  11
6.12344
  21
9.67099
  31
0
  0
LINE
  8
0
  10
6.12344
  20
9.67099
  30
0
  11
6.15565
  21
9.55152
  31
0
  0
LINE
  8
0
  10
6.15565
  20
9.55152
  30
0
  11
6.14977
  21
9.44129
  31
0
  0
LINE
  8
0
  10
6.14977
  20
9.44129
  30
0
  11
6.15307
  21
9.3845
  31
0
  0
LINE
  8
0
  10
6.15307
  20
9.3845
  30
0
  11
6.17353
  21
9.323
  31
0
  0
LINE
  8
0
  10
6.17353
  20
9.323
  30
0
  11
6.20072
  21
9.28743
  31
0
  0
LINE
  8
0
  10
6.20072
  20
9.28743
  30
0
  11
6.41312
  21
9.22208
  31
0
  0
LINE
  8
0
  10
6.41312
  20
9.22208
  30
0
  11
6.4556
  21
9.23623
  31
0
  0
LINE
  8
0
  10
6.4556
  20
9.23623
  30
0
  11
6.50709
  21
9.27559
  31
0
  0
LINE
  8
0
  10
6.50709
  20
9.27559
  30
0
  11
6.54174
  21
9.32071
  31
0
  0
LINE
  8
0
  10
6.54174
  20
9.32071
  30
0
  11
6.59884
  21
9.41518
  31
0
  0
LINE
  8
0
  10
6.59884
  20
9.41518
  30
0
  11
6.69263
  21
9.49588
  31
0
  0
LINE
  8
0
  10
6.69263
  20
9.49588
  30
0
  11
6.79271
  21
9.57334
  31
0
  0
LINE
  8
0
  10
6.79271
  20
9.57334
  30
0
  11
6.8717
  21
9.62924
  31
0
  0
LINE
  8
0
  10
6.8717
  20
9.62924
  30
0
  11
6.98304
  21
9.58261
  31
0
  0
LINE
  8
0
  10
6.98304
  20
9.58261
  30
0
  11
6.99862
  21
9.4871
  31
0
  0
LINE
  8
0
  10
6.99862
  20
9.4871
  30
0
  11
7.01363
  21
9.36144
  31
0
  0
LINE
  8
0
  10
7.01363
  20
9.36144
  30
0
  11
7.02191
  21
9.23798
  31
0
  0
LINE
  8
0
  10
7.02191
  20
9.23798
  30
0
  11
6.99465
  21
9.13102
  31
0
  0
LINE
  8
0
  10
6.99465
  20
9.13102
  30
0
  11
6.9868
  21
9.07468
  31
0
  0
LINE
  8
0
  10
6.9868
  20
9.07468
  30
0
  11
6.99487
  21
9.01037
  31
0
  0
LINE
  8
0
  10
6.99487
  20
9.01037
  30
0
  11
7.01459
  21
8.97017
  31
0
  0
LINE
  8
0
  10
7.01459
  20
8.97017
  30
0
  11
7.21017
  21
8.86464
  31
0
  0
LINE
  8
0
  10
7.21017
  20
8.86464
  30
0
  11
7.25459
  21
8.87023
  31
0
  0
LINE
  8
0
  10
7.25459
  20
8.87023
  30
0
  11
7.31277
  21
8.89879
  31
0
  0
LINE
  8
0
  10
7.31277
  20
8.89879
  30
0
  11
7.35556
  21
8.93628
  31
0
  0
LINE
  8
0
  10
7.35556
  20
8.93628
  30
0
  11
7.42999
  21
9.0178
  31
0
  0
LINE
  8
0
  10
7.42999
  20
9.0178
  30
0
  11
7.53772
  21
9.07866
  31
0
  0
LINE
  8
0
  10
7.53772
  20
9.07866
  30
0
  11
7.65099
  21
9.1351
  31
0
  0
LINE
  8
0
  10
7.65099
  20
9.1351
  30
0
  11
7.73937
  21
9.17451
  31
0
  0
LINE
  8
0
  10
7.73937
  20
9.17451
  30
0
  11
7.83947
  21
9.10706
  31
0
  0
LINE
  8
0
  10
7.83947
  20
9.10706
  30
0
  11
7.83612
  21
9.01035
  31
0
  0
LINE
  8
0
  10
7.83612
  20
9.01035
  30
0
  11
7.82632
  21
8.88417
  31
0
  0
LINE
  8
0
  10
7.82632
  20
8.88417
  30
0
  11
7.81036
  21
8.76147
  31
0
  0
LINE
  8
0
  10
7.81036
  20
8.76147
  30
0
  11
7.76275
  21
8.66188
  31
0
  0
LINE
  8
0
  10
7.76275
  20
8.66188
  30
0
  11
7.74407
  21
8.60815
  31
0
  0
LINE
  8
0
  10
7.74407
  20
8.60815
  30
0
  11
7.73944
  21
8.54351
  31
0
  0
LINE
  8
0
  10
7.73944
  20
8.54351
  30
0
  11
7.75093
  21
8.50024
  31
0
  0
LINE
  8
0
  10
7.75093
  20
8.50024
  30
0
  11
7.92217
  21
8.35858
  31
0
  0
LINE
  8
0
  10
7.92217
  20
8.35858
  30
0
  11
7.96683
  21
8.3554
  31
0
  0
LINE
  8
0
  10
7.96683
  20
8.3554
  30
0
  11
8.02946
  21
8.37205
  31
0
  0
LINE
  8
0
  10
8.02946
  20
8.37205
  30
0
  11
8.07874
  21
8.40048
  31
0
  0
LINE
  8
0
  10
8.07874
  20
8.40048
  30
0
  11
8.16764
  21
8.46591
  31
0
  0
LINE
  8
0
  10
8.16764
  20
8.46591
  30
0
  11
8.28518
  21
8.50458
  31
0
  0
LINE
  8
0
  10
8.28518
  20
8.50458
  30
0
  11
8.40728
  21
8.53784
  31
0
  0
LINE
  8
0
  10
8.40728
  20
8.53784
  30
0
  11
8.50165
  21
8.55925
  31
0
  0
LINE
  8
0
  10
8.50165
  20
8.55925
  30
0
  11
8.58667
  21
8.47357
  31
0
  0
LINE
  8
0
  10
8.58667
  20
8.47357
  30
0
  11
8.56452
  21
8.37937
  31
0
  0
LINE
  8
0
  10
8.56452
  20
8.37937
  30
0
  11
8.53029
  21
8.25753
  31
0
  0
LINE
  8
0
  10
8.53029
  20
8.25753
  30
0
  11
8.4907
  21
8.1403
  31
0
  0
LINE
  8
0
  10
8.4907
  20
8.1403
  30
0
  11
8.42458
  21
8.05191
  31
0
  0
LINE
  8
0
  10
8.42458
  20
8.05191
  30
0
  11
8.39577
  21
8.00286
  31
0
  0
LINE
  8
0
  10
8.39577
  20
8.00286
  30
0
  11
8.37862
  21
7.94036
  31
0
  0
LINE
  8
0
  10
8.37862
  20
7.94036
  30
0
  11
8.38145
  21
7.89568
  31
0
  0
LINE
  8
0
  10
8.38145
  20
7.89568
  30
0
  11
8.52176
  21
7.72334
  31
0
  0
LINE
  8
0
  10
8.52176
  20
7.72334
  30
0
  11
8.56494
  21
7.7115
  31
0
  0
LINE
  8
0
  10
8.56494
  20
7.7115
  30
0
  11
8.62962
  21
7.71562
  31
0
  0
LINE
  8
0
  10
8.62962
  20
7.71562
  30
0
  11
8.68349
  21
7.73388
  31
0
  0
LINE
  8
0
  10
8.68349
  20
7.73388
  30
0
  11
8.78345
  21
7.78071
  31
0
  0
LINE
  8
0
  10
8.78345
  20
7.78071
  30
0
  11
8.90627
  21
7.79571
  31
0
  0
LINE
  8
0
  10
8.90627
  20
7.79571
  30
0
  11
9.03252
  21
7.80451
  31
0
  0
LINE
  8
0
  10
9.03252
  20
7.80451
  30
0
  11
9.12925
  21
7.8071
  31
0
  0
LINE
  8
0
  10
9.12925
  20
7.8071
  30
0
  11
9.19592
  21
7.70647
  31
0
  0
LINE
  8
0
  10
9.19592
  20
7.70647
  30
0
  11
9.15582
  21
7.61841
  31
0
  0
LINE
  8
0
  10
9.15582
  20
7.61841
  30
0
  11
9.09848
  21
7.50559
  31
0
  0
LINE
  8
0
  10
9.09848
  20
7.50559
  30
0
  11
9.03678
  21
7.39834
  31
0
  0
LINE
  8
0
  10
9.03678
  20
7.39834
  30
0
  11
8.95468
  21
7.32454
  31
0
  0
LINE
  8
0
  10
8.95468
  20
7.32454
  30
0
  11
8.91686
  21
7.28206
  31
0
  0
LINE
  8
0
  10
8.91686
  20
7.28206
  30
0
  11
8.88784
  21
7.2241
  31
0
  0
LINE
  8
0
  10
8.88784
  20
7.2241
  30
0
  11
8.88191
  21
7.17972
  31
0
  0
LINE
  8
0
  10
8.88191
  20
7.17972
  30
0
  11
8.9859
  21
6.98332
  31
0
  0
LINE
  8
0
  10
8.9859
  20
6.98332
  30
0
  11
9.02594
  21
6.96329
  31
0
  0
LINE
  8
0
  10
9.02594
  20
6.96329
  30
0
  11
9.09018
  21
6.95471
  31
0
  0
LINE
  8
0
  10
9.09018
  20
6.95471
  30
0
  11
9.14658
  21
6.96212
  31
0
  0
LINE
  8
0
  10
9.14658
  20
6.96212
  30
0
  11
9.25376
  21
6.98854
  31
0
  0
LINE
  8
0
  10
9.25376
  20
6.98854
  30
0
  11
9.37714
  21
6.97929
  31
0
  0
LINE
  8
0
  10
9.37714
  20
6.97929
  30
0
  11
9.50268
  21
6.96329
  31
0
  0
LINE
  8
0
  10
9.50268
  20
6.96329
  30
0
  11
9.59806
  21
6.94696
  31
0
  0
LINE
  8
0
  10
9.59806
  20
6.94696
  30
0
  11
9.64382
  21
6.83526
  31
0
  0
LINE
  8
0
  10
9.64382
  20
6.83526
  30
0
  11
9.5873
  21
6.75671
  31
0
  0
LINE
  8
0
  10
9.5873
  20
6.75671
  30
0
  11
9.50906
  21
6.65725
  31
0
  0
LINE
  8
0
  10
9.50906
  20
6.65725
  30
0
  11
9.42762
  21
6.56409
  31
0
  0
LINE
  8
0
  10
9.42762
  20
6.56409
  30
0
  11
9.3327
  21
6.50774
  31
0
  0
LINE
  8
0
  10
9.3327
  20
6.50774
  30
0
  11
9.28731
  21
6.47344
  31
0
  0
LINE
  8
0
  10
9.28731
  20
6.47344
  30
0
  11
9.24755
  21
6.42226
  31
0
  0
LINE
  8
0
  10
9.24755
  20
6.42226
  30
0
  11
9.23307
  21
6.3799
  31
0
  0
LINE
  8
0
  10
9.23307
  20
6.3799
  30
0
  11
9.29675
  21
6.16698
  31
0
  0
LINE
  8
0
  10
9.29675
  20
6.16698
  30
0
  11
9.33211
  21
6.13952
  31
0
  0
LINE
  8
0
  10
9.33211
  20
6.13952
  30
0
  11
9.39344
  21
6.11858
  31
0
  0
LINE
  8
0
  10
9.39344
  20
6.11858
  30
0
  11
9.45021
  21
6.11483
  31
0
  0
LINE
  8
0
  10
9.45021
  20
6.11483
  30
0
  11
9.56048
  21
6.11984
  31
0
  0
LINE
  8
0
  10
9.56048
  20
6.11984
  30
0
  11
9.67969
  21
6.0867
  31
0
  0
LINE
  8
0
  10
9.67969
  20
6.0867
  30
0
  11
9.7997
  21
6.04652
  31
0
  0
LINE
  8
0
  10
9.7997
  20
6.04652
  30
0
  11
9.89006
  21
6.01189
  31
0
  0
LINE
  8
0
  10
9.89006
  20
6.01189
  30
0
  11
9.91314
  21
5.89341
  31
0
  0
LINE
  8
0
  10
9.91314
  20
5.89341
  30
0
  11
9.84239
  21
5.8274
  31
0
  0
LINE
  8
0
  10
9.84239
  20
5.8274
  30
0
  11
9.74624
  21
5.7451
  31
0
  0
LINE
  8
0
  10
9.74624
  20
5.7451
  30
0
  11
9.64819
  21
5.66963
  31
0
  0
LINE
  8
0
  10
9.64819
  20
5.66963
  30
0
  11
9.54411
  21
5.63287
  31
0
  0
LINE
  8
0
  10
9.54411
  20
5.63287
  30
0
  11
9.4929
  21
5.60809
  31
0
  0
LINE
  8
0
  10
9.4929
  20
5.60809
  30
0
  11
9.44392
  21
5.56565
  31
0
  0
LINE
  8
0
  10
9.44392
  20
5.56565
  30
0
  11
9.42145
  21
5.52693
  31
0
  0
LINE
  8
0
  10
9.42145
  20
5.52693
  30
0
  11
9.44236
  21
5.30568
  31
0
  0
LINE
  8
0
  10
5.49709
  20
4.99709
  30
0
  11
5.49709
  21
4.99709
  31
0
  0
LINE
  8
0
  10
5.49709
  20
4.99709
  30
0
  11
5.48005
  21
5.1265
  31
0
  0
LINE
  8
0
  10
5.48005
  20
5.1265
  30
0
  11
5.4301
  21
5.24709
  31
0
  0
LINE
  8
0
  10
5.4301
  20
5.24709
  30
0
  11
5.35064
  21
5.35064
  31
0
  0
LINE
  8
0
  10
5.35064
  20
5.35064
  30
0
  11
5.24709
  21
5.4301
  31
0
  0
LINE
  8
0
  10
5.24709
  20
5.4301
  30
0
  11
5.1265
  21
5.48005
  31
0
  0
LINE
  8
0
  10
5.1265
  20
5.48005
  30
0
  11
4.99709
  21
5.49709
  31
0
  0
LINE
  8
0
  10
4.99709
  20
5.49709
  30
0
  11
4.86768
  21
5.48005
  31
0
  0
LINE
  8
0
  10
4.86768
  20
5.48005
  30
0
  11
4.74709
  21
5.4301
  31
0
  0
LINE
  8
0
  10
4.74709
  20
5.4301
  30
0
  11
4.64354
  21
5.35064
  31
0
  0
LINE
  8
0
  10
4.64354
  20
5.35064
  30
0
  11
4.56408
  21
5.24709
  31
0
  0
LINE
  8
0
  10
4.56408
  20
5.24709
  30
0
  11
4.51413
  21
5.1265
  31
0
  0
LINE
  8
0
  10
4.51413
  20
5.1265
  30
0
  11
4.49709
  21
4.99709
  31
0
  0
LINE
  8
0
  10
4.49709
  20
4.99709
  30
0
  11
4.51413
  21
4.86768
  31
0
  0
LINE
  8
0
  10
4.51413
  20
4.86768
  30
0
  11
4.56408
  21
4.74709
  31
0
  0
LINE
  8
0
  10
4.56408
  20
4.74709
  30
0
  11
4.64354
  21
4.64354
  31
0
  0
LINE
  8
0
  10
4.64354
  20
4.64354
  30
0
  11
4.74709
  21
4.56408
  31
0
  0
LINE
  8
0
  10
4.74709
  20
4.56408
  30
0
  11
4.86768
  21
4.51413
  31
0
  0
LINE
  8
0
  10
4.86768
  20
4.51413
  30
0
  11
4.99709
  21
4.49709
  31
0
  0
LINE
  8
0
  10
4.99709
  20
4.49709
  30
0
  11
5.1265
  21
4.51413
  31
0
  0
LINE
  8
0
  10
5.1265
  20
4.51413
  30
0
  11
5.24709
  21
4.56408
  31
0
  0
LINE
  8
0
  10
5.24709
  20
4.56408
  30
0
  11
5.35064
  21
4.64354
  31
0
  0
LINE
  8
0
  10
5.35064
  20
4.64354
  30
0
  11
5.4301
  21
4.74709
  31
0
  0
LINE
  8
0
  10
5.4301
  20
4.74709
  30
0
  11
5.48005
  21
4.86768
  31
0
  0
LINE
  8
0
  10
5.48005
  20
4.86768
  30
0
  11
5.49709
  21
4.99709
  31
0
  0
LINE
  8
0
  10
5.49709
  20
4.99709
  30
0
  11
5.49709
  21
4.99709
  31
0
  0
ENDSEC
  0
EOF
