  999
file created by gear template generator
  0
SECTION
  2
HEADER
  9
$ACADVER
  1
AC1006
  9
$INSBASE
  10
0.0
  20
0.0
  30
0.0
  9
$EXTMIN
  10
0.0
  20
0.0
  9
$EXTMAX
  10
10000.0
  20
10000.0
  0
ENDSEC
  0
SECTION
  2
ENTITIES
  0
LINE
  8
0
  10
9.36282
  20
4.94926
  30
0
  11
9.36282
  21
4.94926
  31
0
  0
LINE
  8
0
  10
9.36282
  20
4.94926
  30
0
  11
9.39382
  21
4.92109
  31
0
  0
LINE
  8
0
  10
9.39382
  20
4.92109
  30
0
  11
9.45566
  21
4.87725
  31
0
  0
LINE
  8
0
  10
9.45566
  20
4.87725
  30
0
  11
9.51782
  21
4.85486
  31
0
  0
LINE
  8
0
  10
9.51782
  20
4.85486
  30
0
  11
9.64181
  21
4.80875
  31
0
  0
LINE
  8
0
  10
9.64181
  20
4.80875
  30
0
  11
9.76372
  21
4.72978
  31
0
  0
LINE
  8
0
  10
9.76372
  20
4.72978
  30
0
  11
9.88387
  21
4.64144
  31
0
  0
LINE
  8
0
  10
9.88387
  20
4.64144
  30
0
  11
9.97263
  21
4.56927
  31
0
  0
LINE
  8
0
  10
9.97263
  20
4.56927
  30
0
  11
9.9682
  21
4.52042
  31
0
  0
LINE
  8
0
  10
9.9682
  20
4.52042
  30
0
  11
9.86793
  21
4.46537
  31
0
  0
LINE
  8
0
  10
9.86793
  20
4.46537
  30
0
  11
9.73386
  21
4.40006
  31
0
  0
LINE
  8
0
  10
9.73386
  20
4.40006
  30
0
  11
9.59975
  21
4.34427
  31
0
  0
LINE
  8
0
  10
9.59975
  20
4.34427
  30
0
  11
9.46949
  21
4.32119
  31
0
  0
LINE
  8
0
  10
9.46949
  20
4.32119
  30
0
  11
9.40432
  21
4.31034
  31
0
  0
LINE
  8
0
  10
9.40432
  20
4.31034
  30
0
  11
9.33561
  21
4.27832
  31
0
  0
LINE
  8
0
  10
9.33561
  20
4.27832
  30
0
  11
9.30005
  21
4.25617
  31
0
  0
LINE
  8
0
  10
9.30005
  20
4.25617
  30
0
  11
9.2699
  21
4.09811
  31
0
  0
LINE
  8
0
  10
9.2699
  20
4.09811
  30
0
  11
9.29481
  21
4.06443
  31
0
  0
LINE
  8
0
  10
9.29481
  20
4.06443
  30
0
  11
9.34691
  21
4.00937
  31
0
  0
LINE
  8
0
  10
9.34691
  20
4.00937
  30
0
  11
9.4035
  21
3.97528
  31
0
  0
LINE
  8
0
  10
9.4035
  20
3.97528
  30
0
  11
9.51612
  21
3.90587
  31
0
  0
LINE
  8
0
  10
9.51612
  20
3.90587
  30
0
  11
9.62028
  21
3.80463
  31
0
  0
LINE
  8
0
  10
9.62028
  20
3.80463
  30
0
  11
9.72088
  21
3.69455
  31
0
  0
LINE
  8
0
  10
9.72088
  20
3.69455
  30
0
  11
9.79386
  21
3.60646
  31
0
  0
LINE
  8
0
  10
9.79386
  20
3.60646
  30
0
  11
9.77999
  21
3.55941
  31
0
  0
LINE
  8
0
  10
9.77999
  20
3.55941
  30
0
  11
9.6709
  21
3.52498
  31
0
  0
LINE
  8
0
  10
9.6709
  20
3.52498
  30
0
  11
9.52666
  21
3.48708
  31
0
  0
LINE
  8
0
  10
9.52666
  20
3.48708
  30
0
  11
9.38424
  21
3.45852
  31
0
  0
LINE
  8
0
  10
9.38424
  20
3.45852
  30
0
  11
9.25199
  21
3.4613
  31
0
  0
LINE
  8
0
  10
9.25199
  20
3.4613
  30
0
  11
9.18595
  21
3.46337
  31
0
  0
LINE
  8
0
  10
9.18595
  20
3.46337
  30
0
  11
9.11231
  21
3.44537
  31
0
  0
LINE
  8
0
  10
9.11231
  20
3.44537
  30
0
  11
9.07312
  21
3.43059
  31
0
  0
LINE
  8
0
  10
9.07312
  20
3.43059
  30
0
  11
9.01271
  21
3.28145
  31
0
  0
LINE
  8
0
  10
9.01271
  20
3.28145
  30
0
  11
9.03057
  21
3.24355
  31
0
  0
LINE
  8
0
  10
9.03057
  20
3.24355
  30
0
  11
9.07092
  21
3.17938
  31
0
  0
LINE
  8
0
  10
9.07092
  20
3.17938
  30
0
  11
9.11978
  21
3.13491
  31
0
  0
LINE
  8
0
  10
9.11978
  20
3.13491
  30
0
  11
9.21669
  21
3.04487
  31
0
  0
LINE
  8
0
  10
9.21669
  20
3.04487
  30
0
  11
9.2991
  21
2.92525
  31
0
  0
LINE
  8
0
  10
9.2991
  20
2.92525
  30
0
  11
9.3763
  21
2.79766
  31
0
  0
LINE
  8
0
  10
9.3763
  20
2.79766
  30
0
  11
9.43068
  21
2.69702
  31
0
  0
LINE
  8
0
  10
9.43068
  20
2.69702
  30
0
  11
9.4079
  21
2.65358
  31
0
  0
LINE
  8
0
  10
9.4079
  20
2.65358
  30
0
  11
9.29419
  21
2.64109
  31
0
  0
LINE
  8
0
  10
9.29419
  20
2.64109
  30
0
  11
9.14533
  21
2.63206
  31
0
  0
LINE
  8
0
  10
9.14533
  20
2.63206
  30
0
  11
9.00008
  21
2.63184
  31
0
  0
LINE
  8
0
  10
9.00008
  20
2.63184
  30
0
  11
8.87091
  21
2.66036
  31
0
  0
LINE
  8
0
  10
8.87091
  20
2.66036
  30
0
  11
8.80654
  21
2.67527
  31
0
  0
LINE
  8
0
  10
8.80654
  20
2.67527
  30
0
  11
8.73081
  21
2.67198
  31
0
  0
LINE
  8
0
  10
8.73081
  20
2.67198
  30
0
  11
8.68948
  21
2.66513
  31
0
  0
LINE
  8
0
  10
8.68948
  20
2.66513
  30
0
  11
8.60114
  21
2.53065
  31
0
  0
LINE
  8
0
  10
8.60114
  20
2.53065
  30
0
  11
8.61126
  21
2.48999
  31
0
  0
LINE
  8
0
  10
8.61126
  20
2.48999
  30
0
  11
8.63832
  21
2.41918
  31
0
  0
LINE
  8
0
  10
8.63832
  20
2.41918
  30
0
  11
8.67757
  21
2.36603
  31
0
  0
LINE
  8
0
  10
8.67757
  20
2.36603
  30
0
  11
8.75505
  21
2.25881
  31
0
  0
LINE
  8
0
  10
8.75505
  20
2.25881
  30
0
  11
8.81254
  21
2.12542
  31
0
  0
LINE
  8
0
  10
8.81254
  20
2.12542
  30
0
  11
8.86336
  21
1.98522
  31
0
  0
LINE
  8
0
  10
8.86336
  20
1.98522
  30
0
  11
8.89706
  21
1.8759
  31
0
  0
LINE
  8
0
  10
8.89706
  20
1.8759
  30
0
  11
8.86624
  21
1.83774
  31
0
  0
LINE
  8
0
  10
8.86624
  20
1.83774
  30
0
  11
8.75228
  21
1.84768
  31
0
  0
LINE
  8
0
  10
8.75228
  20
1.84768
  30
0
  11
8.60453
  21
1.86786
  31
0
  0
LINE
  8
0
  10
8.60453
  20
1.86786
  30
0
  11
8.46202
  21
1.89598
  31
0
  0
LINE
  8
0
  10
8.46202
  20
1.89598
  30
0
  11
8.34089
  21
1.94916
  31
0
  0
LINE
  8
0
  10
8.34089
  20
1.94916
  30
0
  11
8.28068
  21
1.97634
  31
0
  0
LINE
  8
0
  10
8.28068
  20
1.97634
  30
0
  11
8.20575
  21
1.98789
  31
0
  0
LINE
  8
0
  10
8.20575
  20
1.98789
  30
0
  11
8.16388
  21
1.98923
  31
0
  0
LINE
  8
0
  10
8.16388
  20
1.98923
  30
0
  11
8.051
  21
1.87456
  31
0
  0
LINE
  8
0
  10
8.051
  20
1.87456
  30
0
  11
8.053
  21
1.83272
  31
0
  0
LINE
  8
0
  10
8.053
  20
1.83272
  30
0
  11
8.06573
  21
1.75799
  31
0
  0
LINE
  8
0
  10
8.06573
  20
1.75799
  30
0
  11
8.09385
  21
1.6982
  31
0
  0
LINE
  8
0
  10
8.09385
  20
1.6982
  30
0
  11
8.14892
  21
1.57793
  31
0
  0
LINE
  8
0
  10
8.14892
  20
1.57793
  30
0
  11
8.17928
  21
1.43588
  31
0
  0
LINE
  8
0
  10
8.17928
  20
1.43588
  30
0
  11
8.20178
  21
1.28846
  31
0
  0
LINE
  8
0
  10
8.20178
  20
1.28846
  30
0
  11
8.21351
  21
1.17467
  31
0
  0
LINE
  8
0
  10
8.21351
  20
1.17467
  30
0
  11
8.17583
  21
1.14326
  31
0
  0
LINE
  8
0
  10
8.17583
  20
1.14326
  30
0
  11
8.066
  21
1.17524
  31
0
  0
LINE
  8
0
  10
8.066
  20
1.17524
  30
0
  11
7.92502
  21
1.22385
  31
0
  0
LINE
  8
0
  10
7.92502
  20
1.22385
  30
0
  11
7.79074
  21
1.27924
  31
0
  0
LINE
  8
0
  10
7.79074
  20
1.27924
  30
0
  11
7.68232
  21
1.35502
  31
0
  0
LINE
  8
0
  10
7.68232
  20
1.35502
  30
0
  11
7.62856
  21
1.39343
  31
0
  0
LINE
  8
0
  10
7.62856
  20
1.39343
  30
0
  11
7.55733
  21
1.41937
  31
0
  0
LINE
  8
0
  10
7.55733
  20
1.41937
  30
0
  11
7.51652
  21
1.42886
  31
0
  0
LINE
  8
0
  10
7.51652
  20
1.42886
  30
0
  11
7.38344
  21
1.33842
  31
0
  0
LINE
  8
0
  10
7.38344
  20
1.33842
  30
0
  11
7.37724
  21
1.29698
  31
0
  0
LINE
  8
0
  10
7.37724
  20
1.29698
  30
0
  11
7.37514
  21
1.22121
  31
0
  0
LINE
  8
0
  10
7.37514
  20
1.22121
  30
0
  11
7.39106
  21
1.15709
  31
0
  0
LINE
  8
0
  10
7.39106
  20
1.15709
  30
0
  11
7.42161
  21
1.02838
  31
0
  0
LINE
  8
0
  10
7.42161
  20
1.02838
  30
0
  11
7.42367
  21
0.88314
  31
0
  0
LINE
  8
0
  10
7.42367
  20
0.88314
  30
0
  11
7.41698
  21
0.73416
  31
0
  0
LINE
  8
0
  10
7.41698
  20
0.73416
  30
0
  11
7.40628
  21
0.62027
  31
0
  0
LINE
  8
0
  10
7.40628
  20
0.62027
  30
0
  11
7.3632
  21
0.59681
  31
0
  0
LINE
  8
0
  10
7.3632
  20
0.59681
  30
0
  11
7.26172
  21
0.6496
  31
0
  0
LINE
  8
0
  10
7.26172
  20
0.6496
  30
0
  11
7.13293
  21
0.72478
  31
0
  0
LINE
  8
0
  10
7.13293
  20
0.72478
  30
0
  11
7.01204
  21
0.8053
  31
0
  0
LINE
  8
0
  10
7.01204
  20
0.8053
  30
0
  11
6.92048
  21
0.90079
  31
0
  0
LINE
  8
0
  10
6.92048
  20
0.90079
  30
0
  11
6.87525
  21
0.94894
  31
0
  0
LINE
  8
0
  10
6.87525
  20
0.94894
  30
0
  11
6.81045
  21
0.98828
  31
0
  0
LINE
  8
0
  10
6.81045
  20
0.98828
  30
0
  11
6.77228
  21
1.00555
  31
0
  0
LINE
  8
0
  10
6.77228
  20
1.00555
  30
0
  11
6.62411
  21
0.9428
  31
0
  0
LINE
  8
0
  10
6.62411
  20
0.9428
  30
0
  11
6.60994
  21
0.90338
  31
0
  0
LINE
  8
0
  10
6.60994
  20
0.90338
  30
0
  11
6.5931
  21
0.82947
  31
0
  0
LINE
  8
0
  10
6.5931
  20
0.82947
  30
0
  11
6.59621
  21
0.76347
  31
0
  0
LINE
  8
0
  10
6.59621
  20
0.76347
  30
0
  11
6.60106
  21
0.63128
  31
0
  0
LINE
  8
0
  10
6.60106
  20
0.63128
  30
0
  11
6.57475
  21
0.48842
  31
0
  0
LINE
  8
0
  10
6.57475
  20
0.48842
  30
0
  11
6.53912
  21
0.34362
  31
0
  0
LINE
  8
0
  10
6.53912
  20
0.34362
  30
0
  11
6.50641
  21
0.234
  31
0
  0
LINE
  8
0
  10
6.50641
  20
0.234
  30
0
  11
6.45958
  21
0.21939
  31
0
  0
LINE
  8
0
  10
6.45958
  20
0.21939
  30
0
  11
6.37035
  21
0.29097
  31
0
  0
LINE
  8
0
  10
6.37035
  20
0.29097
  30
0
  11
6.2587
  21
0.38984
  31
0
  0
LINE
  8
0
  10
6.2587
  20
0.38984
  30
0
  11
6.15584
  21
0.49239
  31
0
  0
LINE
  8
0
  10
6.15584
  20
0.49239
  30
0
  11
6.08467
  21
0.6039
  31
0
  0
LINE
  8
0
  10
6.08467
  20
0.6039
  30
0
  11
6.0497
  21
0.65996
  31
0
  0
LINE
  8
0
  10
6.0497
  20
0.65996
  30
0
  11
5.99382
  21
0.71118
  31
0
  0
LINE
  8
0
  10
5.99382
  20
0.71118
  30
0
  11
5.95975
  21
0.73556
  31
0
  0
LINE
  8
0
  10
5.95975
  20
0.73556
  30
0
  11
5.80219
  21
0.70293
  31
0
  0
LINE
  8
0
  10
5.80219
  20
0.70293
  30
0
  11
5.7806
  21
0.66703
  31
0
  0
LINE
  8
0
  10
5.7806
  20
0.66703
  30
0
  11
5.74967
  21
0.59782
  31
0
  0
LINE
  8
0
  10
5.74967
  20
0.59782
  30
0
  11
5.73984
  21
0.53249
  31
0
  0
LINE
  8
0
  10
5.73984
  20
0.53249
  30
0
  11
5.71881
  21
0.40189
  31
0
  0
LINE
  8
0
  10
5.71881
  20
0.40189
  30
0
  11
5.66513
  21
0.26691
  31
0
  0
LINE
  8
0
  10
5.66513
  20
0.26691
  30
0
  11
5.60193
  21
0.13184
  31
0
  0
LINE
  8
0
  10
5.60193
  20
0.13184
  30
0
  11
5.54847
  21
0.03071
  31
0
  0
LINE
  8
0
  10
5.54847
  20
0.03071
  30
0
  11
5.49969
  21
0.02552
  31
0
  0
LINE
  8
0
  10
5.49969
  20
0.02552
  30
0
  11
5.42614
  21
0.11313
  31
0
  0
LINE
  8
0
  10
5.42614
  20
0.11313
  30
0
  11
5.33592
  21
0.23188
  31
0
  0
LINE
  8
0
  10
5.33592
  20
0.23188
  30
0
  11
5.25504
  21
0.35253
  31
0
  0
LINE
  8
0
  10
5.25504
  20
0.35253
  30
0
  11
5.207
  21
0.47578
  31
0
  0
LINE
  8
0
  10
5.207
  20
0.47578
  30
0
  11
5.18364
  21
0.53758
  31
0
  0
LINE
  8
0
  10
5.18364
  20
0.53758
  30
0
  11
5.13883
  21
0.59872
  31
0
  0
LINE
  8
0
  10
5.13883
  20
0.59872
  30
0
  11
5.11017
  21
0.62928
  31
0
  0
LINE
  8
0
  10
5.11017
  20
0.62928
  30
0
  11
4.94926
  21
0.62802
  31
0
  0
LINE
  8
0
  10
4.94926
  20
0.62802
  30
0
  11
4.92109
  21
0.59701
  31
0
  0
LINE
  8
0
  10
4.92109
  20
0.59701
  30
0
  11
4.87725
  21
0.53517
  31
0
  0
LINE
  8
0
  10
4.87725
  20
0.53517
  30
0
  11
4.85486
  21
0.47302
  31
0
  0
LINE
  8
0
  10
4.85486
  20
0.47302
  30
0
  11
4.80875
  21
0.34902
  31
0
  0
LINE
  8
0
  10
4.80875
  20
0.34902
  30
0
  11
4.72978
  21
0.22711
  31
0
  0
LINE
  8
0
  10
4.72978
  20
0.22711
  30
0
  11
4.64144
  21
0.10697
  31
0
  0
LINE
  8
0
  10
4.64144
  20
0.10697
  30
0
  11
4.56927
  21
0.01821
  31
0
  0
LINE
  8
0
  10
4.56927
  20
0.01821
  30
0
  11
4.52042
  21
0.02263
  31
0
  0
LINE
  8
0
  10
4.52042
  20
0.02263
  30
0
  11
4.46537
  21
0.12291
  31
0
  0
LINE
  8
0
  10
4.46537
  20
0.12291
  30
0
  11
4.40006
  21
0.25698
  31
0
  0
LINE
  8
0
  10
4.40006
  20
0.25698
  30
0
  11
4.34427
  21
0.39109
  31
0
  0
LINE
  8
0
  10
4.34427
  20
0.39109
  30
0
  11
4.32119
  21
0.52135
  31
0
  0
LINE
  8
0
  10
4.32119
  20
0.52135
  30
0
  11
4.31034
  21
0.58652
  31
0
  0
LINE
  8
0
  10
4.31034
  20
0.58652
  30
0
  11
4.27832
  21
0.65523
  31
0
  0
LINE
  8
0
  10
4.27832
  20
0.65523
  30
0
  11
4.25617
  21
0.69079
  31
0
  0
LINE
  8
0
  10
4.25617
  20
0.69079
  30
0
  11
4.09811
  21
0.72094
  31
0
  0
LINE
  8
0
  10
4.09811
  20
0.72094
  30
0
  11
4.06443
  21
0.69603
  31
0
  0
LINE
  8
0
  10
4.06443
  20
0.69603
  30
0
  11
4.00937
  21
0.64393
  31
0
  0
LINE
  8
0
  10
4.00937
  20
0.64393
  30
0
  11
3.97528
  21
0.58733
  31
0
  0
LINE
  8
0
  10
3.97528
  20
0.58733
  30
0
  11
3.90587
  21
0.47472
  31
0
  0
LINE
  8
0
  10
3.90587
  20
0.47472
  30
0
  11
3.80463
  21
0.37056
  31
0
  0
LINE
  8
0
  10
3.80463
  20
0.37056
  30
0
  11
3.69455
  21
0.26995
  31
0
  0
LINE
  8
0
  10
3.69455
  20
0.26995
  30
0
  11
3.60646
  21
0.19698
  31
0
  0
LINE
  8
0
  10
3.60646
  20
0.19698
  30
0
  11
3.55941
  21
0.21085
  31
0
  0
LINE
  8
0
  10
3.55941
  20
0.21085
  30
0
  11
3.52498
  21
0.31994
  31
0
  0
LINE
  8
0
  10
3.52498
  20
0.31994
  30
0
  11
3.48708
  21
0.46417
  31
0
  0
LINE
  8
0
  10
3.48708
  20
0.46417
  30
0
  11
3.45852
  21
0.60659
  31
0
  0
LINE
  8
0
  10
3.45852
  20
0.60659
  30
0
  11
3.4613
  21
0.73885
  31
0
  0
LINE
  8
0
  10
3.4613
  20
0.73885
  30
0
  11
3.46337
  21
0.80489
  31
0
  0
LINE
  8
0
  10
3.46337
  20
0.80489
  30
0
  11
3.44537
  21
0.87852
  31
0
  0
LINE
  8
0
  10
3.44537
  20
0.87852
  30
0
  11
3.43059
  21
0.91772
  31
0
  0
LINE
  8
0
  10
3.43059
  20
0.91772
  30
0
  11
3.28145
  21
0.97813
  31
0
  0
LINE
  8
0
  10
3.28145
  20
0.97813
  30
0
  11
3.24355
  21
0.96027
  31
0
  0
LINE
  8
0
  10
3.24355
  20
0.96027
  30
0
  11
3.17938
  21
0.91991
  31
0
  0
LINE
  8
0
  10
3.17938
  20
0.91991
  30
0
  11
3.13491
  21
0.87105
  31
0
  0
LINE
  8
0
  10
3.13491
  20
0.87105
  30
0
  11
3.04487
  21
0.77414
  31
0
  0
LINE
  8
0
  10
3.04487
  20
0.77414
  30
0
  11
2.92525
  21
0.69174
  31
0
  0
LINE
  8
0
  10
2.92525
  20
0.69174
  30
0
  11
2.79766
  21
0.61454
  31
0
  0
LINE
  8
0
  10
2.79766
  20
0.61454
  30
0
  11
2.69702
  21
0.56016
  31
0
  0
LINE
  8
0
  10
2.69702
  20
0.56016
  30
0
  11
2.65358
  21
0.58294
  31
0
  0
LINE
  8
0
  10
2.65358
  20
0.58294
  30
0
  11
2.64109
  21
0.69665
  31
0
  0
LINE
  8
0
  10
2.64109
  20
0.69665
  30
0
  11
2.63206
  21
0.8455
  31
0
  0
LINE
  8
0
  10
2.63206
  20
0.8455
  30
0
  11
2.63184
  21
0.99076
  31
0
  0
LINE
  8
0
  10
2.63184
  20
0.99076
  30
0
  11
2.66036
  21
1.11993
  31
0
  0
LINE
  8
0
  10
2.66036
  20
1.11993
  30
0
  11
2.67527
  21
1.18429
  31
0
  0
LINE
  8
0
  10
2.67527
  20
1.18429
  30
0
  11
2.67198
  21
1.26003
  31
0
  0
LINE
  8
0
  10
2.67198
  20
1.26003
  30
0
  11
2.66513
  21
1.30136
  31
0
  0
LINE
  8
0
  10
2.66513
  20
1.30136
  30
0
  11
2.53065
  21
1.3897
  31
0
  0
LINE
  8
0
  10
2.53065
  20
1.3897
  30
0
  11
2.48999
  21
1.37957
  31
0
  0
LINE
  8
0
  10
2.48999
  20
1.37957
  30
0
  11
2.41918
  21
1.35251
  31
0
  0
LINE
  8
0
  10
2.41918
  20
1.35251
  30
0
  11
2.36603
  21
1.31327
  31
0
  0
LINE
  8
0
  10
2.36603
  20
1.31327
  30
0
  11
2.25881
  21
1.23579
  31
0
  0
LINE
  8
0
  10
2.25881
  20
1.23579
  30
0
  11
2.12542
  21
1.1783
  31
0
  0
LINE
  8
0
  10
2.12542
  20
1.1783
  30
0
  11
1.98522
  21
1.12748
  31
0
  0
LINE
  8
0
  10
1.98522
  20
1.12748
  30
0
  11
1.8759
  21
1.09377
  31
0
  0
LINE
  8
0
  10
1.8759
  20
1.09377
  30
0
  11
1.83774
  21
1.12459
  31
0
  0
LINE
  8
0
  10
1.83774
  20
1.12459
  30
0
  11
1.84768
  21
1.23855
  31
0
  0
LINE
  8
0
  10
1.84768
  20
1.23855
  30
0
  11
1.86786
  21
1.38631
  31
0
  0
LINE
  8
0
  10
1.86786
  20
1.38631
  30
0
  11
1.89598
  21
1.52882
  31
0
  0
LINE
  8
0
  10
1.89598
  20
1.52882
  30
0
  11
1.94916
  21
1.64994
  31
0
  0
LINE
  8
0
  10
1.94916
  20
1.64994
  30
0
  11
1.97634
  21
1.71016
  31
0
  0
LINE
  8
0
  10
1.97634
  20
1.71016
  30
0
  11
1.98789
  21
1.78508
  31
0
  0
LINE
  8
0
  10
1.98789
  20
1.78508
  30
0
  11
1.98923
  21
1.82695
  31
0
  0
LINE
  8
0
  10
1.98923
  20
1.82695
  30
0
  11
1.87456
  21
1.93984
  31
0
  0
LINE
  8
0
  10
1.87456
  20
1.93984
  30
0
  11
1.83272
  21
1.93784
  31
0
  0
LINE
  8
0
  10
1.83272
  20
1.93784
  30
0
  11
1.75799
  21
1.92511
  31
0
  0
LINE
  8
0
  10
1.75799
  20
1.92511
  30
0
  11
1.6982
  21
1.89699
  31
0
  0
LINE
  8
0
  10
1.6982
  20
1.89699
  30
0
  11
1.57793
  21
1.84191
  31
0
  0
LINE
  8
0
  10
1.57793
  20
1.84191
  30
0
  11
1.43588
  21
1.81156
  31
0
  0
LINE
  8
0
  10
1.43588
  20
1.81156
  30
0
  11
1.28846
  21
1.78906
  31
0
  0
LINE
  8
0
  10
1.28846
  20
1.78906
  30
0
  11
1.17467
  21
1.77733
  31
0
  0
LINE
  8
0
  10
1.17467
  20
1.77733
  30
0
  11
1.14326
  21
1.815
  31
0
  0
LINE
  8
0
  10
1.14326
  20
1.815
  30
0
  11
1.17524
  21
1.92483
  31
0
  0
LINE
  8
0
  10
1.17524
  20
1.92483
  30
0
  11
1.22385
  21
2.06582
  31
0
  0
LINE
  8
0
  10
1.22385
  20
2.06582
  30
0
  11
1.27924
  21
2.2001
  31
0
  0
LINE
  8
0
  10
1.27924
  20
2.2001
  30
0
  11
1.35502
  21
2.30852
  31
0
  0
LINE
  8
0
  10
1.35502
  20
2.30852
  30
0
  11
1.39343
  21
2.36228
  31
0
  0
LINE
  8
0
  10
1.39343
  20
2.36228
  30
0
  11
1.41937
  21
2.43351
  31
0
  0
LINE
  8
0
  10
1.41937
  20
2.43351
  30
0
  11
1.42886
  21
2.47431
  31
0
  0
LINE
  8
0
  10
1.42886
  20
2.47431
  30
0
  11
1.33842
  21
2.6074
  31
0
  0
LINE
  8
0
  10
1.33842
  20
2.6074
  30
0
  11
1.29698
  21
2.6136
  31
0
  0
LINE
  8
0
  10
1.29698
  20
2.6136
  30
0
  11
1.22121
  21
2.6157
  31
0
  0
LINE
  8
0
  10
1.22121
  20
2.6157
  30
0
  11
1.15709
  21
2.59978
  31
0
  0
LINE
  8
0
  10
1.15709
  20
2.59978
  30
0
  11
1.02838
  21
2.56923
  31
0
  0
LINE
  8
0
  10
1.02838
  20
2.56923
  30
0
  11
0.88314
  21
2.56716
  31
0
  0
LINE
  8
0
  10
0.88314
  20
2.56716
  30
0
  11
0.73416
  21
2.57386
  31
0
  0
LINE
  8
0
  10
0.73416
  20
2.57386
  30
0
  11
0.62027
  21
2.58456
  31
0
  0
LINE
  8
0
  10
0.62027
  20
2.58456
  30
0
  11
0.59681
  21
2.62763
  31
0
  0
LINE
  8
0
  10
0.59681
  20
2.62763
  30
0
  11
0.6496
  21
2.72912
  31
0
  0
LINE
  8
0
  10
0.6496
  20
2.72912
  30
0
  11
0.72478
  21
2.8579
  31
0
  0
LINE
  8
0
  10
0.72478
  20
2.8579
  30
0
  11
0.8053
  21
2.9788
  31
0
  0
LINE
  8
0
  10
0.8053
  20
2.9788
  30
0
  11
0.90079
  21
3.07036
  31
0
  0
LINE
  8
0
  10
0.90079
  20
3.07036
  30
0
  11
0.94894
  21
3.11559
  31
0
  0
LINE
  8
0
  10
0.94894
  20
3.11559
  30
0
  11
0.98828
  21
3.18039
  31
0
  0
LINE
  8
0
  10
0.98828
  20
3.18039
  30
0
  11
1.00555
  21
3.21856
  31
0
  0
LINE
  8
0
  10
1.00555
  20
3.21856
  30
0
  11
0.9428
  21
3.36673
  31
0
  0
LINE
  8
0
  10
0.9428
  20
3.36673
  30
0
  11
0.90338
  21
3.38089
  31
0
  0
LINE
  8
0
  10
0.90338
  20
3.38089
  30
0
  11
0.82947
  21
3.39773
  31
0
  0
LINE
  8
0
  10
0.82947
  20
3.39773
  30
0
  11
0.76347
  21
3.39463
  31
0
  0
LINE
  8
0
  10
0.76347
  20
3.39463
  30
0
  11
0.63128
  21
3.38978
  31
0
  0
LINE
  8
0
  10
0.63128
  20
3.38978
  30
0
  11
0.48842
  21
3.41609
  31
0
  0
LINE
  8
0
  10
0.48842
  20
3.41609
  30
0
  11
0.34362
  21
3.45172
  31
0
  0
LINE
  8
0
  10
0.34362
  20
3.45172
  30
0
  11
0.234
  21
3.48443
  31
0
  0
LINE
  8
0
  10
0.234
  20
3.48443
  30
0
  11
0.21939
  21
3.53126
  31
0
  0
LINE
  8
0
  10
0.21939
  20
3.53126
  30
0
  11
0.29097
  21
3.62049
  31
0
  0
LINE
  8
0
  10
0.29097
  20
3.62049
  30
0
  11
0.38984
  21
3.73214
  31
0
  0
LINE
  8
0
  10
0.38984
  20
3.73214
  30
0
  11
0.49239
  21
3.835
  31
0
  0
LINE
  8
0
  10
0.49239
  20
3.835
  30
0
  11
0.6039
  21
3.90617
  31
0
  0
LINE
  8
0
  10
0.6039
  20
3.90617
  30
0
  11
0.65996
  21
3.94114
  31
0
  0
LINE
  8
0
  10
0.65996
  20
3.94114
  30
0
  11
0.71118
  21
3.99702
  31
0
  0
LINE
  8
0
  10
0.71118
  20
3.99702
  30
0
  11
0.73556
  21
4.03108
  31
0
  0
LINE
  8
0
  10
0.73556
  20
4.03108
  30
0
  11
0.70293
  21
4.18865
  31
0
  0
LINE
  8
0
  10
0.70293
  20
4.18865
  30
0
  11
0.66703
  21
4.21023
  31
0
  0
LINE
  8
0
  10
0.66703
  20
4.21023
  30
0
  11
0.59782
  21
4.24117
  31
0
  0
LINE
  8
0
  10
0.59782
  20
4.24117
  30
0
  11
0.53249
  21
4.251
  31
0
  0
LINE
  8
0
  10
0.53249
  20
4.251
  30
0
  11
0.40189
  21
4.27203
  31
0
  0
LINE
  8
0
  10
0.40189
  20
4.27203
  30
0
  11
0.26691
  21
4.32571
  31
0
  0
LINE
  8
0
  10
0.26691
  20
4.32571
  30
0
  11
0.13184
  21
4.3889
  31
0
  0
LINE
  8
0
  10
0.13184
  20
4.3889
  30
0
  11
0.03071
  21
4.44237
  31
0
  0
LINE
  8
0
  10
0.03071
  20
4.44237
  30
0
  11
0.02552
  21
4.49115
  31
0
  0
LINE
  8
0
  10
0.02552
  20
4.49115
  30
0
  11
0.11313
  21
4.5647
  31
0
  0
LINE
  8
0
  10
0.11313
  20
4.5647
  30
0
  11
0.23188
  21
4.65491
  31
0
  0
LINE
  8
0
  10
0.23188
  20
4.65491
  30
0
  11
0.35253
  21
4.7358
  31
0
  0
LINE
  8
0
  10
0.35253
  20
4.7358
  30
0
  11
0.47578
  21
4.78384
  31
0
  0
LINE
  8
0
  10
0.47578
  20
4.78384
  30
0
  11
0.53758
  21
4.8072
  31
0
  0
LINE
  8
0
  10
0.53758
  20
4.8072
  30
0
  11
0.59872
  21
4.85201
  31
0
  0
LINE
  8
0
  10
0.59872
  20
4.85201
  30
0
  11
0.62928
  21
4.88067
  31
0
  0
LINE
  8
0
  10
0.62928
  20
4.88067
  30
0
  11
0.62802
  21
5.04157
  31
0
  0
LINE
  8
0
  10
0.62802
  20
5.04157
  30
0
  11
0.59701
  21
5.06975
  31
0
  0
LINE
  8
0
  10
0.59701
  20
5.06975
  30
0
  11
0.53517
  21
5.11359
  31
0
  0
LINE
  8
0
  10
0.53517
  20
5.11359
  30
0
  11
0.47302
  21
5.13598
  31
0
  0
LINE
  8
0
  10
0.47302
  20
5.13598
  30
0
  11
0.34902
  21
5.18208
  31
0
  0
LINE
  8
0
  10
0.34902
  20
5.18208
  30
0
  11
0.22711
  21
5.26106
  31
0
  0
LINE
  8
0
  10
0.22711
  20
5.26106
  30
0
  11
0.10697
  21
5.3494
  31
0
  0
LINE
  8
0
  10
0.10697
  20
5.3494
  30
0
  11
0.01821
  21
5.42156
  31
0
  0
LINE
  8
0
  10
0.01821
  20
5.42156
  30
0
  11
0.02263
  21
5.47042
  31
0
  0
LINE
  8
0
  10
0.02263
  20
5.47042
  30
0
  11
0.12291
  21
5.52546
  31
0
  0
LINE
  8
0
  10
0.12291
  20
5.52546
  30
0
  11
0.25698
  21
5.59078
  31
0
  0
LINE
  8
0
  10
0.25698
  20
5.59078
  30
0
  11
0.39109
  21
5.64657
  31
0
  0
LINE
  8
0
  10
0.39109
  20
5.64657
  30
0
  11
0.52135
  21
5.66964
  31
0
  0
LINE
  8
0
  10
0.52135
  20
5.66964
  30
0
  11
0.58652
  21
5.6805
  31
0
  0
LINE
  8
0
  10
0.58652
  20
5.6805
  30
0
  11
0.65523
  21
5.71252
  31
0
  0
LINE
  8
0
  10
0.65523
  20
5.71252
  30
0
  11
0.69079
  21
5.73467
  31
0
  0
LINE
  8
0
  10
0.69079
  20
5.73467
  30
0
  11
0.72094
  21
5.89272
  31
0
  0
LINE
  8
0
  10
0.72094
  20
5.89272
  30
0
  11
0.69603
  21
5.92641
  31
0
  0
LINE
  8
0
  10
0.69603
  20
5.92641
  30
0
  11
0.64393
  21
5.98147
  31
0
  0
LINE
  8
0
  10
0.64393
  20
5.98147
  30
0
  11
0.58733
  21
6.01556
  31
0
  0
LINE
  8
0
  10
0.58733
  20
6.01556
  30
0
  11
0.47472
  21
6.08496
  31
0
  0
LINE
  8
0
  10
0.47472
  20
6.08496
  30
0
  11
0.37056
  21
6.18621
  31
0
  0
LINE
  8
0
  10
0.37056
  20
6.18621
  30
0
  11
0.26995
  21
6.29628
  31
0
  0
LINE
  8
0
  10
0.26995
  20
6.29628
  30
0
  11
0.19698
  21
6.38438
  31
0
  0
LINE
  8
0
  10
0.19698
  20
6.38438
  30
0
  11
0.21085
  21
6.43143
  31
0
  0
LINE
  8
0
  10
0.21085
  20
6.43143
  30
0
  11
0.31994
  21
6.46586
  31
0
  0
LINE
  8
0
  10
0.31994
  20
6.46586
  30
0
  11
0.46417
  21
6.50376
  31
0
  0
LINE
  8
0
  10
0.46417
  20
6.50376
  30
0
  11
0.60659
  21
6.53231
  31
0
  0
LINE
  8
0
  10
0.60659
  20
6.53231
  30
0
  11
0.73885
  21
6.52954
  31
0
  0
LINE
  8
0
  10
0.73885
  20
6.52954
  30
0
  11
0.80489
  21
6.52747
  31
0
  0
LINE
  8
0
  10
0.80489
  20
6.52747
  30
0
  11
0.87852
  21
6.54547
  31
0
  0
LINE
  8
0
  10
0.87852
  20
6.54547
  30
0
  11
0.91772
  21
6.56025
  31
0
  0
LINE
  8
0
  10
0.91772
  20
6.56025
  30
0
  11
0.97813
  21
6.70939
  31
0
  0
LINE
  8
0
  10
0.97813
  20
6.70939
  30
0
  11
0.96027
  21
6.74729
  31
0
  0
LINE
  8
0
  10
0.96027
  20
6.74729
  30
0
  11
0.91991
  21
6.81146
  31
0
  0
LINE
  8
0
  10
0.91991
  20
6.81146
  30
0
  11
0.87105
  21
6.85593
  31
0
  0
LINE
  8
0
  10
0.87105
  20
6.85593
  30
0
  11
0.77414
  21
6.94597
  31
0
  0
LINE
  8
0
  10
0.77414
  20
6.94597
  30
0
  11
0.69174
  21
7.06559
  31
0
  0
LINE
  8
0
  10
0.69174
  20
7.06559
  30
0
  11
0.61454
  21
7.19318
  31
0
  0
LINE
  8
0
  10
0.61454
  20
7.19318
  30
0
  11
0.56016
  21
7.29382
  31
0
  0
LINE
  8
0
  10
0.56016
  20
7.29382
  30
0
  11
0.58294
  21
7.33726
  31
0
  0
LINE
  8
0
  10
0.58294
  20
7.33726
  30
0
  11
0.69665
  21
7.34975
  31
0
  0
LINE
  8
0
  10
0.69665
  20
7.34975
  30
0
  11
0.8455
  21
7.35878
  31
0
  0
LINE
  8
0
  10
0.8455
  20
7.35878
  30
0
  11
0.99076
  21
7.359
  31
0
  0
LINE
  8
0
  10
0.99076
  20
7.359
  30
0
  11
1.11993
  21
7.33047
  31
0
  0
LINE
  8
0
  10
1.11993
  20
7.33047
  30
0
  11
1.18429
  21
7.31556
  31
0
  0
LINE
  8
0
  10
1.18429
  20
7.31556
  30
0
  11
1.26003
  21
7.31885
  31
0
  0
LINE
  8
0
  10
1.26003
  20
7.31885
  30
0
  11
1.30136
  21
7.3257
  31
0
  0
LINE
  8
0
  10
1.30136
  20
7.3257
  30
0
  11
1.3897
  21
7.46019
  31
0
  0
LINE
  8
0
  10
1.3897
  20
7.46019
  30
0
  11
1.37957
  21
7.50084
  31
0
  0
LINE
  8
0
  10
1.37957
  20
7.50084
  30
0
  11
1.35251
  21
7.57166
  31
0
  0
LINE
  8
0
  10
1.35251
  20
7.57166
  30
0
  11
1.31327
  21
7.6248
  31
0
  0
LINE
  8
0
  10
1.31327
  20
7.6248
  30
0
  11
1.23579
  21
7.73202
  31
0
  0
LINE
  8
0
  10
1.23579
  20
7.73202
  30
0
  11
1.1783
  21
7.86542
  31
0
  0
LINE
  8
0
  10
1.1783
  20
7.86542
  30
0
  11
1.12748
  21
8.00562
  31
0
  0
LINE
  8
0
  10
1.12748
  20
8.00562
  30
0
  11
1.09377
  21
8.11493
  31
0
  0
LINE
  8
0
  10
1.09377
  20
8.11493
  30
0
  11
1.12459
  21
8.1531
  31
0
  0
LINE
  8
0
  10
1.12459
  20
8.1531
  30
0
  11
1.23855
  21
8.14316
  31
0
  0
LINE
  8
0
  10
1.23855
  20
8.14316
  30
0
  11
1.38631
  21
8.12298
  31
0
  0
LINE
  8
0
  10
1.38631
  20
8.12298
  30
0
  11
1.52882
  21
8.09486
  31
0
  0
LINE
  8
0
  10
1.52882
  20
8.09486
  30
0
  11
1.64994
  21
8.04168
  31
0
  0
LINE
  8
0
  10
1.64994
  20
8.04168
  30
0
  11
1.71016
  21
8.0145
  31
0
  0
LINE
  8
0
  10
1.71016
  20
8.0145
  30
0
  11
1.78508
  21
8.00295
  31
0
  0
LINE
  8
0
  10
1.78508
  20
8.00295
  30
0
  11
1.82695
  21
8.0016
  31
0
  0
LINE
  8
0
  10
1.82695
  20
8.0016
  30
0
  11
1.93984
  21
8.11627
  31
0
  0
LINE
  8
0
  10
1.93984
  20
8.11627
  30
0
  11
1.93784
  21
8.15812
  31
0
  0
LINE
  8
0
  10
1.93784
  20
8.15812
  30
0
  11
1.92511
  21
8.23285
  31
0
  0
LINE
  8
0
  10
1.92511
  20
8.23285
  30
0
  11
1.89699
  21
8.29263
  31
0
  0
LINE
  8
0
  10
1.89699
  20
8.29263
  30
0
  11
1.84191
  21
8.41291
  31
0
  0
LINE
  8
0
  10
1.84191
  20
8.41291
  30
0
  11
1.81156
  21
8.55496
  31
0
  0
LINE
  8
0
  10
1.81156
  20
8.55496
  30
0
  11
1.78906
  21
8.70238
  31
0
  0
LINE
  8
0
  10
1.78906
  20
8.70238
  30
0
  11
1.77733
  21
8.81617
  31
0
  0
LINE
  8
0
  10
1.77733
  20
8.81617
  30
0
  11
1.815
  21
8.84758
  31
0
  0
LINE
  8
0
  10
1.815
  20
8.84758
  30
0
  11
1.92483
  21
8.8156
  31
0
  0
LINE
  8
0
  10
1.92483
  20
8.8156
  30
0
  11
2.06582
  21
8.76699
  31
0
  0
LINE
  8
0
  10
2.06582
  20
8.76699
  30
0
  11
2.2001
  21
8.7116
  31
0
  0
LINE
  8
0
  10
2.2001
  20
8.7116
  30
0
  11
2.30852
  21
8.63581
  31
0
  0
LINE
  8
0
  10
2.30852
  20
8.63581
  30
0
  11
2.36228
  21
8.59741
  31
0
  0
LINE
  8
0
  10
2.36228
  20
8.59741
  30
0
  11
2.43351
  21
8.57146
  31
0
  0
LINE
  8
0
  10
2.43351
  20
8.57146
  30
0
  11
2.47431
  21
8.56198
  31
0
  0
LINE
  8
0
  10
2.47431
  20
8.56198
  30
0
  11
2.6074
  21
8.65242
  31
0
  0
LINE
  8
0
  10
2.6074
  20
8.65242
  30
0
  11
2.6136
  21
8.69385
  31
0
  0
LINE
  8
0
  10
2.6136
  20
8.69385
  30
0
  11
2.6157
  21
8.76963
  31
0
  0
LINE
  8
0
  10
2.6157
  20
8.76963
  30
0
  11
2.59978
  21
8.83375
  31
0
  0
LINE
  8
0
  10
2.59978
  20
8.83375
  30
0
  11
2.56923
  21
8.96246
  31
0
  0
LINE
  8
0
  10
2.56923
  20
8.96246
  30
0
  11
2.56716
  21
9.1077
  31
0
  0
LINE
  8
0
  10
2.56716
  20
9.1077
  30
0
  11
2.57386
  21
9.25668
  31
0
  0
LINE
  8
0
  10
2.57386
  20
9.25668
  30
0
  11
2.58456
  21
9.37057
  31
0
  0
LINE
  8
0
  10
2.58456
  20
9.37057
  30
0
  11
2.62763
  21
9.39403
  31
0
  0
LINE
  8
0
  10
2.62763
  20
9.39403
  30
0
  11
2.72912
  21
9.34124
  31
0
  0
LINE
  8
0
  10
2.72912
  20
9.34124
  30
0
  11
2.8579
  21
9.26605
  31
0
  0
LINE
  8
0
  10
2.8579
  20
9.26605
  30
0
  11
2.9788
  21
9.18554
  31
0
  0
LINE
  8
0
  10
2.9788
  20
9.18554
  30
0
  11
3.07036
  21
9.09005
  31
0
  0
LINE
  8
0
  10
3.07036
  20
9.09005
  30
0
  11
3.11559
  21
9.0419
  31
0
  0
LINE
  8
0
  10
3.11559
  20
9.0419
  30
0
  11
3.18039
  21
9.00256
  31
0
  0
LINE
  8
0
  10
3.18039
  20
9.00256
  30
0
  11
3.21856
  21
8.98529
  31
0
  0
LINE
  8
0
  10
3.21856
  20
8.98529
  30
0
  11
3.36673
  21
9.04803
  31
0
  0
LINE
  8
0
  10
3.36673
  20
9.04803
  30
0
  11
3.38089
  21
9.08746
  31
0
  0
LINE
  8
0
  10
3.38089
  20
9.08746
  30
0
  11
3.39773
  21
9.16137
  31
0
  0
LINE
  8
0
  10
3.39773
  20
9.16137
  30
0
  11
3.39463
  21
9.22737
  31
0
  0
LINE
  8
0
  10
3.39463
  20
9.22737
  30
0
  11
3.38978
  21
9.35956
  31
0
  0
LINE
  8
0
  10
3.38978
  20
9.35956
  30
0
  11
3.41609
  21
9.50241
  31
0
  0
LINE
  8
0
  10
3.41609
  20
9.50241
  30
0
  11
3.45172
  21
9.64722
  31
0
  0
LINE
  8
0
  10
3.45172
  20
9.64722
  30
0
  11
3.48443
  21
9.75684
  31
0
  0
LINE
  8
0
  10
3.48443
  20
9.75684
  30
0
  11
3.53126
  21
9.77145
  31
0
  0
LINE
  8
0
  10
3.53126
  20
9.77145
  30
0
  11
3.62049
  21
9.69987
  31
0
  0
LINE
  8
0
  10
3.62049
  20
9.69987
  30
0
  11
3.73214
  21
9.601
  31
0
  0
LINE
  8
0
  10
3.73214
  20
9.601
  30
0
  11
3.835
  21
9.49845
  31
0
  0
LINE
  8
0
  10
3.835
  20
9.49845
  30
0
  11
3.90617
  21
9.38694
  31
0
  0
LINE
  8
0
  10
3.90617
  20
9.38694
  30
0
  11
3.94114
  21
9.33088
  31
0
  0
LINE
  8
0
  10
3.94114
  20
9.33088
  30
0
  11
3.99702
  21
9.27965
  31
0
  0
LINE
  8
0
  10
3.99702
  20
9.27965
  30
0
  11
4.03108
  21
9.25527
  31
0
  0
LINE
  8
0
  10
4.03108
  20
9.25527
  30
0
  11
4.18865
  21
9.2879
  31
0
  0
LINE
  8
0
  10
4.18865
  20
9.2879
  30
0
  11
4.21023
  21
9.32381
  31
0
  0
LINE
  8
0
  10
4.21023
  20
9.32381
  30
0
  11
4.24117
  21
9.39302
  31
0
  0
LINE
  8
0
  10
4.24117
  20
9.39302
  30
0
  11
4.251
  21
9.45835
  31
0
  0
LINE
  8
0
  10
4.251
  20
9.45835
  30
0
  11
4.27203
  21
9.58895
  31
0
  0
LINE
  8
0
  10
4.27203
  20
9.58895
  30
0
  11
4.32571
  21
9.72392
  31
0
  0
LINE
  8
0
  10
4.32571
  20
9.72392
  30
0
  11
4.3889
  21
9.859
  31
0
  0
LINE
  8
0
  10
4.3889
  20
9.859
  30
0
  11
4.44237
  21
9.96013
  31
0
  0
LINE
  8
0
  10
4.44237
  20
9.96013
  30
0
  11
4.49115
  21
9.96532
  31
0
  0
LINE
  8
0
  10
4.49115
  20
9.96532
  30
0
  11
4.5647
  21
9.87771
  31
0
  0
LINE
  8
0
  10
4.5647
  20
9.87771
  30
0
  11
4.65491
  21
9.75896
  31
0
  0
LINE
  8
0
  10
4.65491
  20
9.75896
  30
0
  11
4.7358
  21
9.63831
  31
0
  0
LINE
  8
0
  10
4.7358
  20
9.63831
  30
0
  11
4.78384
  21
9.51506
  31
0
  0
LINE
  8
0
  10
4.78384
  20
9.51506
  30
0
  11
4.8072
  21
9.45326
  31
0
  0
LINE
  8
0
  10
4.8072
  20
9.45326
  30
0
  11
4.85201
  21
9.39211
  31
0
  0
LINE
  8
0
  10
4.85201
  20
9.39211
  30
0
  11
4.88067
  21
9.36155
  31
0
  0
LINE
  8
0
  10
4.88067
  20
9.36155
  30
0
  11
5.04157
  21
9.36282
  31
0
  0
LINE
  8
0
  10
5.04157
  20
9.36282
  30
0
  11
5.06975
  21
9.39382
  31
0
  0
LINE
  8
0
  10
5.06975
  20
9.39382
  30
0
  11
5.11359
  21
9.45566
  31
0
  0
LINE
  8
0
  10
5.11359
  20
9.45566
  30
0
  11
5.13598
  21
9.51782
  31
0
  0
LINE
  8
0
  10
5.13598
  20
9.51782
  30
0
  11
5.18208
  21
9.64181
  31
0
  0
LINE
  8
0
  10
5.18208
  20
9.64181
  30
0
  11
5.26106
  21
9.76372
  31
0
  0
LINE
  8
0
  10
5.26106
  20
9.76372
  30
0
  11
5.3494
  21
9.88387
  31
0
  0
LINE
  8
0
  10
5.3494
  20
9.88387
  30
0
  11
5.42156
  21
9.97263
  31
0
  0
LINE
  8
0
  10
5.42156
  20
9.97263
  30
0
  11
5.47042
  21
9.9682
  31
0
  0
LINE
  8
0
  10
5.47042
  20
9.9682
  30
0
  11
5.52546
  21
9.86793
  31
0
  0
LINE
  8
0
  10
5.52546
  20
9.86793
  30
0
  11
5.59078
  21
9.73386
  31
0
  0
LINE
  8
0
  10
5.59078
  20
9.73386
  30
0
  11
5.64657
  21
9.59975
  31
0
  0
LINE
  8
0
  10
5.64657
  20
9.59975
  30
0
  11
5.66964
  21
9.46949
  31
0
  0
LINE
  8
0
  10
5.66964
  20
9.46949
  30
0
  11
5.6805
  21
9.40432
  31
0
  0
LINE
  8
0
  10
5.6805
  20
9.40432
  30
0
  11
5.71252
  21
9.33561
  31
0
  0
LINE
  8
0
  10
5.71252
  20
9.33561
  30
0
  11
5.73467
  21
9.30005
  31
0
  0
LINE
  8
0
  10
5.73467
  20
9.30005
  30
0
  11
5.89272
  21
9.2699
  31
0
  0
LINE
  8
0
  10
5.89272
  20
9.2699
  30
0
  11
5.92641
  21
9.29481
  31
0
  0
LINE
  8
0
  10
5.92641
  20
9.29481
  30
0
  11
5.98147
  21
9.34691
  31
0
  0
LINE
  8
0
  10
5.98147
  20
9.34691
  30
0
  11
6.01556
  21
9.4035
  31
0
  0
LINE
  8
0
  10
6.01556
  20
9.4035
  30
0
  11
6.08496
  21
9.51612
  31
0
  0
LINE
  8
0
  10
6.08496
  20
9.51612
  30
0
  11
6.18621
  21
9.62028
  31
0
  0
LINE
  8
0
  10
6.18621
  20
9.62028
  30
0
  11
6.29628
  21
9.72088
  31
0
  0
LINE
  8
0
  10
6.29628
  20
9.72088
  30
0
  11
6.38438
  21
9.79386
  31
0
  0
LINE
  8
0
  10
6.38438
  20
9.79386
  30
0
  11
6.43143
  21
9.77999
  31
0
  0
LINE
  8
0
  10
6.43143
  20
9.77999
  30
0
  11
6.46586
  21
9.6709
  31
0
  0
LINE
  8
0
  10
6.46586
  20
9.6709
  30
0
  11
6.50376
  21
9.52666
  31
0
  0
LINE
  8
0
  10
6.50376
  20
9.52666
  30
0
  11
6.53231
  21
9.38424
  31
0
  0
LINE
  8
0
  10
6.53231
  20
9.38424
  30
0
  11
6.52954
  21
9.25199
  31
0
  0
LINE
  8
0
  10
6.52954
  20
9.25199
  30
0
  11
6.52747
  21
9.18595
  31
0
  0
LINE
  8
0
  10
6.52747
  20
9.18595
  30
0
  11
6.54547
  21
9.11231
  31
0
  0
LINE
  8
0
  10
6.54547
  20
9.11231
  30
0
  11
6.56025
  21
9.07312
  31
0
  0
LINE
  8
0
  10
6.56025
  20
9.07312
  30
0
  11
6.70939
  21
9.01271
  31
0
  0
LINE
  8
0
  10
6.70939
  20
9.01271
  30
0
  11
6.74729
  21
9.03057
  31
0
  0
LINE
  8
0
  10
6.74729
  20
9.03057
  30
0
  11
6.81146
  21
9.07092
  31
0
  0
LINE
  8
0
  10
6.81146
  20
9.07092
  30
0
  11
6.85593
  21
9.11978
  31
0
  0
LINE
  8
0
  10
6.85593
  20
9.11978
  30
0
  11
6.94597
  21
9.21669
  31
0
  0
LINE
  8
0
  10
6.94597
  20
9.21669
  30
0
  11
7.06559
  21
9.2991
  31
0
  0
LINE
  8
0
  10
7.06559
  20
9.2991
  30
0
  11
7.19318
  21
9.3763
  31
0
  0
LINE
  8
0
  10
7.19318
  20
9.3763
  30
0
  11
7.29382
  21
9.43068
  31
0
  0
LINE
  8
0
  10
7.29382
  20
9.43068
  30
0
  11
7.33726
  21
9.4079
  31
0
  0
LINE
  8
0
  10
7.33726
  20
9.4079
  30
0
  11
7.34975
  21
9.29419
  31
0
  0
LINE
  8
0
  10
7.34975
  20
9.29419
  30
0
  11
7.35878
  21
9.14533
  31
0
  0
LINE
  8
0
  10
7.35878
  20
9.14533
  30
0
  11
7.359
  21
9.00008
  31
0
  0
LINE
  8
0
  10
7.359
  20
9.00008
  30
0
  11
7.33047
  21
8.87091
  31
0
  0
LINE
  8
0
  10
7.33047
  20
8.87091
  30
0
  11
7.31556
  21
8.80654
  31
0
  0
LINE
  8
0
  10
7.31556
  20
8.80654
  30
0
  11
7.31885
  21
8.73081
  31
0
  0
LINE
  8
0
  10
7.31885
  20
8.73081
  30
0
  11
7.3257
  21
8.68948
  31
0
  0
LINE
  8
0
  10
7.3257
  20
8.68948
  30
0
  11
7.46019
  21
8.60114
  31
0
  0
LINE
  8
0
  10
7.46019
  20
8.60114
  30
0
  11
7.50084
  21
8.61126
  31
0
  0
LINE
  8
0
  10
7.50084
  20
8.61126
  30
0
  11
7.57166
  21
8.63832
  31
0
  0
LINE
  8
0
  10
7.57166
  20
8.63832
  30
0
  11
7.6248
  21
8.67757
  31
0
  0
LINE
  8
0
  10
7.6248
  20
8.67757
  30
0
  11
7.73202
  21
8.75505
  31
0
  0
LINE
  8
0
  10
7.73202
  20
8.75505
  30
0
  11
7.86542
  21
8.81254
  31
0
  0
LINE
  8
0
  10
7.86542
  20
8.81254
  30
0
  11
8.00562
  21
8.86336
  31
0
  0
LINE
  8
0
  10
8.00562
  20
8.86336
  30
0
  11
8.11493
  21
8.89706
  31
0
  0
LINE
  8
0
  10
8.11493
  20
8.89706
  30
0
  11
8.1531
  21
8.86624
  31
0
  0
LINE
  8
0
  10
8.1531
  20
8.86624
  30
0
  11
8.14316
  21
8.75228
  31
0
  0
LINE
  8
0
  10
8.14316
  20
8.75228
  30
0
  11
8.12298
  21
8.60453
  31
0
  0
LINE
  8
0
  10
8.12298
  20
8.60453
  30
0
  11
8.09486
  21
8.46202
  31
0
  0
LINE
  8
0
  10
8.09486
  20
8.46202
  30
0
  11
8.04168
  21
8.34089
  31
0
  0
LINE
  8
0
  10
8.04168
  20
8.34089
  30
0
  11
8.0145
  21
8.28068
  31
0
  0
LINE
  8
0
  10
8.0145
  20
8.28068
  30
0
  11
8.00295
  21
8.20575
  31
0
  0
LINE
  8
0
  10
8.00295
  20
8.20575
  30
0
  11
8.0016
  21
8.16388
  31
0
  0
LINE
  8
0
  10
8.0016
  20
8.16388
  30
0
  11
8.11627
  21
8.051
  31
0
  0
LINE
  8
0
  10
8.11627
  20
8.051
  30
0
  11
8.15812
  21
8.053
  31
0
  0
LINE
  8
0
  10
8.15812
  20
8.053
  30
0
  11
8.23285
  21
8.06573
  31
0
  0
LINE
  8
0
  10
8.23285
  20
8.06573
  30
0
  11
8.29263
  21
8.09385
  31
0
  0
LINE
  8
0
  10
8.29263
  20
8.09385
  30
0
  11
8.41291
  21
8.14892
  31
0
  0
LINE
  8
0
  10
8.41291
  20
8.14892
  30
0
  11
8.55496
  21
8.17928
  31
0
  0
LINE
  8
0
  10
8.55496
  20
8.17928
  30
0
  11
8.70238
  21
8.20178
  31
0
  0
LINE
  8
0
  10
8.70238
  20
8.20178
  30
0
  11
8.81617
  21
8.21351
  31
0
  0
LINE
  8
0
  10
8.81617
  20
8.21351
  30
0
  11
8.84758
  21
8.17583
  31
0
  0
LINE
  8
0
  10
8.84758
  20
8.17583
  30
0
  11
8.8156
  21
8.066
  31
0
  0
LINE
  8
0
  10
8.8156
  20
8.066
  30
0
  11
8.76699
  21
7.92502
  31
0
  0
LINE
  8
0
  10
8.76699
  20
7.92502
  30
0
  11
8.7116
  21
7.79074
  31
0
  0
LINE
  8
0
  10
8.7116
  20
7.79074
  30
0
  11
8.63581
  21
7.68232
  31
0
  0
LINE
  8
0
  10
8.63581
  20
7.68232
  30
0
  11
8.59741
  21
7.62856
  31
0
  0
LINE
  8
0
  10
8.59741
  20
7.62856
  30
0
  11
8.57146
  21
7.55733
  31
0
  0
LINE
  8
0
  10
8.57146
  20
7.55733
  30
0
  11
8.56198
  21
7.51652
  31
0
  0
LINE
  8
0
  10
8.56198
  20
7.51652
  30
0
  11
8.65242
  21
7.38344
  31
0
  0
LINE
  8
0
  10
8.65242
  20
7.38344
  30
0
  11
8.69385
  21
7.37724
  31
0
  0
LINE
  8
0
  10
8.69385
  20
7.37724
  30
0
  11
8.76963
  21
7.37514
  31
0
  0
LINE
  8
0
  10
8.76963
  20
7.37514
  30
0
  11
8.83375
  21
7.39106
  31
0
  0
LINE
  8
0
  10
8.83375
  20
7.39106
  30
0
  11
8.96246
  21
7.42161
  31
0
  0
LINE
  8
0
  10
8.96246
  20
7.42161
  30
0
  11
9.1077
  21
7.42367
  31
0
  0
LINE
  8
0
  10
9.1077
  20
7.42367
  30
0
  11
9.25668
  21
7.41698
  31
0
  0
LINE
  8
0
  10
9.25668
  20
7.41698
  30
0
  11
9.37057
  21
7.40628
  31
0
  0
LINE
  8
0
  10
9.37057
  20
7.40628
  30
0
  11
9.39403
  21
7.3632
  31
0
  0
LINE
  8
0
  10
9.39403
  20
7.3632
  30
0
  11
9.34124
  21
7.26172
  31
0
  0
LINE
  8
0
  10
9.34124
  20
7.26172
  30
0
  11
9.26605
  21
7.13293
  31
0
  0
LINE
  8
0
  10
9.26605
  20
7.13293
  30
0
  11
9.18554
  21
7.01204
  31
0
  0
LINE
  8
0
  10
9.18554
  20
7.01204
  30
0
  11
9.09005
  21
6.92048
  31
0
  0
LINE
  8
0
  10
9.09005
  20
6.92048
  30
0
  11
9.0419
  21
6.87525
  31
0
  0
LINE
  8
0
  10
9.0419
  20
6.87525
  30
0
  11
9.00256
  21
6.81045
  31
0
  0
LINE
  8
0
  10
9.00256
  20
6.81045
  30
0
  11
8.98529
  21
6.77228
  31
0
  0
LINE
  8
0
  10
8.98529
  20
6.77228
  30
0
  11
9.04803
  21
6.62411
  31
0
  0
LINE
  8
0
  10
9.04803
  20
6.62411
  30
0
  11
9.08746
  21
6.60994
  31
0
  0
LINE
  8
0
  10
9.08746
  20
6.60994
  30
0
  11
9.16137
  21
6.5931
  31
0
  0
LINE
  8
0
  10
9.16137
  20
6.5931
  30
0
  11
9.22737
  21
6.59621
  31
0
  0
LINE
  8
0
  10
9.22737
  20
6.59621
  30
0
  11
9.35956
  21
6.60106
  31
0
  0
LINE
  8
0
  10
9.35956
  20
6.60106
  30
0
  11
9.50241
  21
6.57475
  31
0
  0
LINE
  8
0
  10
9.50241
  20
6.57475
  30
0
  11
9.64722
  21
6.53912
  31
0
  0
LINE
  8
0
  10
9.64722
  20
6.53912
  30
0
  11
9.75684
  21
6.50641
  31
0
  0
LINE
  8
0
  10
9.75684
  20
6.50641
  30
0
  11
9.77145
  21
6.45958
  31
0
  0
LINE
  8
0
  10
9.77145
  20
6.45958
  30
0
  11
9.69987
  21
6.37035
  31
0
  0
LINE
  8
0
  10
9.69987
  20
6.37035
  30
0
  11
9.601
  21
6.2587
  31
0
  0
LINE
  8
0
  10
9.601
  20
6.2587
  30
0
  11
9.49845
  21
6.15584
  31
0
  0
LINE
  8
0
  10
9.49845
  20
6.15584
  30
0
  11
9.38694
  21
6.08467
  31
0
  0
LINE
  8
0
  10
9.38694
  20
6.08467
  30
0
  11
9.33088
  21
6.0497
  31
0
  0
LINE
  8
0
  10
9.33088
  20
6.0497
  30
0
  11
9.27965
  21
5.99382
  31
0
  0
LINE
  8
0
  10
9.27965
  20
5.99382
  30
0
  11
9.25527
  21
5.95975
  31
0
  0
LINE
  8
0
  10
9.25527
  20
5.95975
  30
0
  11
9.2879
  21
5.80219
  31
0
  0
LINE
  8
0
  10
9.2879
  20
5.80219
  30
0
  11
9.32381
  21
5.7806
  31
0
  0
LINE
  8
0
  10
9.32381
  20
5.7806
  30
0
  11
9.39302
  21
5.74967
  31
0
  0
LINE
  8
0
  10
9.39302
  20
5.74967
  30
0
  11
9.45835
  21
5.73984
  31
0
  0
LINE
  8
0
  10
9.45835
  20
5.73984
  30
0
  11
9.58895
  21
5.71881
  31
0
  0
LINE
  8
0
  10
9.58895
  20
5.71881
  30
0
  11
9.72392
  21
5.66513
  31
0
  0
LINE
  8
0
  10
9.72392
  20
5.66513
  30
0
  11
9.859
  21
5.60193
  31
0
  0
LINE
  8
0
  10
9.859
  20
5.60193
  30
0
  11
9.96013
  21
5.54847
  31
0
  0
LINE
  8
0
  10
9.96013
  20
5.54847
  30
0
  11
9.96532
  21
5.49969
  31
0
  0
LINE
  8
0
  10
9.96532
  20
5.49969
  30
0
  11
9.87771
  21
5.42614
  31
0
  0
LINE
  8
0
  10
9.87771
  20
5.42614
  30
0
  11
9.75896
  21
5.33592
  31
0
  0
LINE
  8
0
  10
9.75896
  20
5.33592
  30
0
  11
9.63831
  21
5.25504
  31
0
  0
LINE
  8
0
  10
9.63831
  20
5.25504
  30
0
  11
9.51506
  21
5.207
  31
0
  0
LINE
  8
0
  10
9.51506
  20
5.207
  30
0
  11
9.45326
  21
5.18364
  31
0
  0
LINE
  8
0
  10
9.45326
  20
5.18364
  30
0
  11
9.39211
  21
5.13883
  31
0
  0
LINE
  8
0
  10
9.39211
  20
5.13883
  30
0
  11
9.36155
  21
5.11017
  31
0
  0
LINE
  8
0
  10
9.36155
  20
5.11017
  30
0
  11
9.36282
  21
4.94926
  31
0
  0
LINE
  8
0
  10
5.49542
  20
4.99542
  30
0
  11
5.49542
  21
4.99542
  31
0
  0
LINE
  8
0
  10
5.49542
  20
4.99542
  30
0
  11
5.47838
  21
5.12483
  31
0
  0
LINE
  8
0
  10
5.47838
  20
5.12483
  30
0
  11
5.42843
  21
5.24542
  31
0
  0
LINE
  8
0
  10
5.42843
  20
5.24542
  30
0
  11
5.34897
  21
5.34897
  31
0
  0
LINE
  8
0
  10
5.34897
  20
5.34897
  30
0
  11
5.24542
  21
5.42843
  31
0
  0
LINE
  8
0
  10
5.24542
  20
5.42843
  30
0
  11
5.12483
  21
5.47838
  31
0
  0
LINE
  8
0
  10
5.12483
  20
5.47838
  30
0
  11
4.99542
  21
5.49542
  31
0
  0
LINE
  8
0
  10
4.99542
  20
5.49542
  30
0
  11
4.86601
  21
5.47838
  31
0
  0
LINE
  8
0
  10
4.86601
  20
5.47838
  30
0
  11
4.74542
  21
5.42843
  31
0
  0
LINE
  8
0
  10
4.74542
  20
5.42843
  30
0
  11
4.64187
  21
5.34897
  31
0
  0
LINE
  8
0
  10
4.64187
  20
5.34897
  30
0
  11
4.56241
  21
5.24542
  31
0
  0
LINE
  8
0
  10
4.56241
  20
5.24542
  30
0
  11
4.51246
  21
5.12483
  31
0
  0
LINE
  8
0
  10
4.51246
  20
5.12483
  30
0
  11
4.49542
  21
4.99542
  31
0
  0
LINE
  8
0
  10
4.49542
  20
4.99542
  30
0
  11
4.51246
  21
4.86601
  31
0
  0
LINE
  8
0
  10
4.51246
  20
4.86601
  30
0
  11
4.56241
  21
4.74542
  31
0
  0
LINE
  8
0
  10
4.56241
  20
4.74542
  30
0
  11
4.64187
  21
4.64187
  31
0
  0
LINE
  8
0
  10
4.64187
  20
4.64187
  30
0
  11
4.74542
  21
4.56241
  31
0
  0
LINE
  8
0
  10
4.74542
  20
4.56241
  30
0
  11
4.86601
  21
4.51246
  31
0
  0
LINE
  8
0
  10
4.86601
  20
4.51246
  30
0
  11
4.99542
  21
4.49542
  31
0
  0
LINE
  8
0
  10
4.99542
  20
4.49542
  30
0
  11
5.12483
  21
4.51246
  31
0
  0
LINE
  8
0
  10
5.12483
  20
4.51246
  30
0
  11
5.24542
  21
4.56241
  31
0
  0
LINE
  8
0
  10
5.24542
  20
4.56241
  30
0
  11
5.34897
  21
4.64187
  31
0
  0
LINE
  8
0
  10
5.34897
  20
4.64187
  30
0
  11
5.42843
  21
4.74542
  31
0
  0
LINE
  8
0
  10
5.42843
  20
4.74542
  30
0
  11
5.47838
  21
4.86601
  31
0
  0
LINE
  8
0
  10
5.47838
  20
4.86601
  30
0
  11
5.49542
  21
4.99542
  31
0
  0
LINE
  8
0
  10
5.49542
  20
4.99542
  30
0
  11
5.49542
  21
4.99542
  31
0
  0
ENDSEC
  0
EOF
